<?xml version="1.0" encoding="utf-8"?>
<!-- Generator: Adobe Illustrator 24.3.0, SVG Export Plug-In . SVG Version: 6.00 Build 0)  -->
<svg version="1.1" id="Layer_1" xmlns="http://www.w3.org/2000/svg" xmlns:xlink="http://www.w3.org/1999/xlink" x="0px" y="0px"
	 viewBox="0 0 88.3 34.9" style="enable-background:new 0 0 88.3 34.9;" xml:space="preserve">
<style type="text/css">
	.st0{fill:#85878C;}
	.st1{fill:#FFFFFF;}
</style>
<g>
	<path class="st0" d="M0.4,28.6V6.3c0-3.1,2.6-5.7,5.7-5.7h76.1c3.1,0,5.7,2.6,5.7,5.7v22.3c0,3.1-2.6,5.7-5.7,5.7H6.1
		C2.9,34.3,0.4,31.7,0.4,28.6z"/>
	<g>
		<path class="st1" d="M56.4,19.3c-0.1,1-0.5,1.8-1.1,2.3c-0.6,0.6-1.5,0.8-2.5,0.8c-0.7,0-1.4-0.2-1.9-0.5c-0.6-0.3-1-0.8-1.3-1.5
			C49.2,19.7,49,19,49,18.1v-0.9c0-0.9,0.2-1.6,0.5-2.3s0.8-1.2,1.3-1.5c0.6-0.4,1.2-0.5,2-0.5c1,0,1.8,0.3,2.5,0.8
			c0.6,0.6,1,1.3,1.1,2.3h-1.6c-0.1-0.7-0.3-1.1-0.6-1.4s-0.8-0.4-1.4-0.4c-0.7,0-1.2,0.3-1.6,0.8c-0.4,0.5-0.6,1.3-0.6,2.2V18
			c0,1,0.2,1.8,0.5,2.3s0.9,0.8,1.6,0.8c0.6,0,1.1-0.1,1.4-0.4c0.3-0.3,0.5-0.8,0.6-1.4H56.4z"/>
		<path class="st1" d="M59.3,22.3h-1.5v-9.7h1.5V22.3z"/>
		<path class="st1" d="M61,13.6c0-0.2,0.1-0.4,0.2-0.6c0.1-0.2,0.4-0.2,0.6-0.2c0.3,0,0.5,0.1,0.6,0.2c0.2,0.2,0.2,0.4,0.2,0.6
			c0,0.2-0.1,0.4-0.2,0.6s-0.4,0.2-0.6,0.2c-0.3,0-0.5-0.1-0.6-0.2C61.1,14,61,13.9,61,13.6z M62.6,22.3h-1.5v-6.9h1.5V22.3z"/>
		<path class="st1" d="M67.1,21.2c0.4,0,0.7-0.1,1-0.3s0.4-0.5,0.4-0.8h1.5c0,0.4-0.2,0.8-0.4,1.2c-0.2,0.4-0.6,0.7-1,0.9
			s-0.9,0.3-1.4,0.3c-1,0-1.7-0.3-2.3-0.9C64.3,20.8,64,20,64,18.9v-0.2c0-1,0.3-1.9,0.8-2.5c0.6-0.6,1.3-0.9,2.3-0.9
			c0.8,0,1.5,0.2,2,0.7c0.5,0.5,0.8,1.1,0.8,1.9h-1.5c0-0.4-0.2-0.7-0.4-1c-0.3-0.3-0.6-0.4-1-0.4c-0.5,0-0.9,0.2-1.2,0.5
			c-0.3,0.4-0.4,0.9-0.4,1.6V19c0,0.7,0.1,1.3,0.4,1.7C66.2,21,66.6,21.2,67.1,21.2z"/>
		<path class="st1" d="M73.3,19.3L72.6,20v2.2h-1.5v-9.7h1.5v5.6l0.5-0.6l1.9-2.1h1.9l-2.6,2.9l2.8,4h-1.8L73.3,19.3z"/>
	</g>
	<g>
		<path class="st1" d="M28.2,11.6c0.2,0.2,0.3,0.4,0.3,0.7v10.3c0,0.3-0.1,0.5-0.3,0.7c-0.2,0.2-0.4,0.3-0.7,0.3H13
			c-0.3,0-0.5-0.1-0.7-0.3c-0.2-0.2-0.3-0.4-0.3-0.7V12.3c0-0.3,0.1-0.5,0.3-0.7s0.4-0.3,0.7-0.3h14.5C27.8,11.3,28,11.4,28.2,11.6z
			 M13,12.3V14l7.2,4.9l7.2-5l0,0v-1.7H13z M17,17.9l-4-2.7v6.7L17,17.9z M13.8,22.6h13l-4.1-4.1l-2.4,1.6l-2.4-1.6L13.8,22.6z
			 M27.5,21.9v-6.7l-4,2.7L27.5,21.9z"/>
	</g>
</g>
</svg>
