<svg xmlns="http://www.w3.org/2000/svg" viewBox="0 0 70 24"><defs><style>.cls-1{fill:#163247;}</style></defs><title>b5</title><g id="Layer_2" data-name="Layer 2"><g id="Layer_1-2" data-name="Layer 1"><path class="cls-1" d="M68.55,6.27c-.19-.33-.39-.66-.6-1h0c-.22-.32-.45-.63-.69-.92h0a6.91,6.91,0,0,0-.51-.57c-.18-.19-.35-.36-.54-.54a6.91,6.91,0,0,0-.57-.51h0c-.29-.24-.6-.47-.92-.69h0c-.31-.21-.64-.41-1-.6A12.06,12.06,0,0,0,58,0H12A12.06,12.06,0,0,0,6.27,1.45c-.33.19-.66.39-1,.6h0c-.32.22-.63.45-.92.69h0A13.77,13.77,0,0,0,2.74,4.36h0c-.24.29-.47.6-.69.92h0c-.21.31-.41.64-.6,1a12,12,0,0,0,0,11.46c.19.33.39.66.6,1h0c.22.32.45.63.69.92h0q.25.3.51.57c.18.19.35.36.54.54l.57.51h0c.29.24.6.47.92.69h0c.31.21.64.41,1,.6A12.06,12.06,0,0,0,12,24H58a12.06,12.06,0,0,0,5.73-1.45c.33-.19.66-.39,1-.6h0c.32-.22.63-.45.92-.69h0a13.77,13.77,0,0,0,1.62-1.62h0c.24-.29.47-.6.69-.92h0c.21-.31.41-.64.6-1a12,12,0,0,0,0-11.46ZM58,22.8H12A10.8,10.8,0,0,1,12,1.2H58a10.8,10.8,0,0,1,0,21.6Z"/><path class="cls-1" d="M23.47,11a1.49,1.49,0,0,1,1.28-.6,1.43,1.43,0,0,1,1,.4,1.51,1.51,0,0,1,.46,1h1a2.27,2.27,0,0,0-.76-1.66,2.55,2.55,0,0,0-1.77-.64,2.81,2.81,0,0,0-1.5.4,2.51,2.51,0,0,0-1,1.12,3.62,3.62,0,0,0-.34,1.65v.18a3.42,3.42,0,0,0,.76,2.36,2.78,2.78,0,0,0,3.28.57A2.4,2.4,0,0,0,26.9,15a1.86,1.86,0,0,0,.38-1h-1a1.22,1.22,0,0,1-.48.88,1.53,1.53,0,0,1-1,.35,1.5,1.5,0,0,1-1.29-.59A2.73,2.73,0,0,1,23,13v-.2A2.82,2.82,0,0,1,23.47,11Z"/><path class="cls-1" d="M18.37,9.54a2.2,2.2,0,0,0-1.81.82V7H15.48v9h1l.05-.73a2.24,2.24,0,0,0,1.86.85,2.11,2.11,0,0,0,1.79-.89,3.72,3.72,0,0,0,.67-2.33v-.09a4,4,0,0,0-.66-2.39A2.16,2.16,0,0,0,18.37,9.54Zm1,5.07a1.41,1.41,0,0,1-1.21.6,1.63,1.63,0,0,1-1.55-1V11.47a1.58,1.58,0,0,1,1.54-1,1.39,1.39,0,0,1,1.23.6,3,3,0,0,1,.43,1.71A3.17,3.17,0,0,1,19.33,14.61Z"/><path class="cls-1" d="M10.26,7.47,7,16H8.16L9,13.77h3.58L13.35,16h1.16L11.25,7.47Zm-1,5.38,1.45-4,1.45,4Z"/><path class="cls-1" d="M64.66,4.86a10,10,0,0,0-1.84-1.45c-.27-.16-.55-.31-.83-.45s-.58-.26-.87-.37A9.85,9.85,0,0,0,57.76,2h-1A9.75,9.75,0,0,0,51.3,19.84c.26.17.53.34.8.49s.56.28.86.41a10.21,10.21,0,0,0,1.35.46l.48.11c.31.06.64.11,1,.15s.66.05,1,.05h1a9.72,9.72,0,0,0,7.36-3.36,9.36,9.36,0,0,0,.72-.94A10.63,10.63,0,0,0,66.55,16a11.52,11.52,0,0,0,.52-1.31,10,10,0,0,0,.44-2.92A9.72,9.72,0,0,0,64.66,4.86Zm-6.9,15.45h-1a8.56,8.56,0,0,1,0-17.11h1a8.56,8.56,0,0,1,0,17.11Z"/><path class="cls-1" d="M57.64,8.47a.75.75,0,0,0-1.06,0,.75.75,0,0,0,0,1.06L58,10.92H53a.75.75,0,0,0,0,1.5h5L56.58,13.9a.75.75,0,0,0,0,1.06.79.79,0,0,0,.53.22.74.74,0,0,0,.53-.23l2.72-2.75.07-.09a.43.43,0,0,0,0-.07.85.85,0,0,0,.09-.22c0-.05,0-.1,0-.15a.73.73,0,0,0-.22-.53Z"/></g></g></svg>
