<svg id="Layer_1" data-name="Layer 1"
	xmlns="http://www.w3.org/2000/svg" viewBox="0 0 72.75 65.25">
	<defs>
		<style>.cls-1,.cls-2,.cls-3,.cls-4{fill:none;stroke-linecap:round;stroke-linejoin:round;}.cls-1{stroke:#464a53;}.cls-1,.cls-3{stroke-width:2px;}.cls-2{stroke:#dcdfdf;stroke-width:5px;}.cls-3{stroke:#ff4a17;}.cls-4{stroke:#081219;stroke-width:2px;}</style>
	</defs>
	<path id="Layer1_40_1_STROKES" data-name="Layer1 40 1 STROKES" class="cls-1" d="M46.13,55.78H69a3.22,3.22,0,0,0,2.4-.86,2.71,2.71,0,0,0,.85-2V4.48a3.88,3.88,0,0,0-.85-2.2A4.1,4.1,0,0,0,69,1.42H4.17a2.6,2.6,0,0,0-1.85.86,3,3,0,0,0-.85,2.2V52.92a2.36,2.36,0,0,0,.85,2,2.29,2.29,0,0,0,1.85.86h42v8.89h4.44m-27.29,0h4.29V55.78m18.56,8.89H27.57" transform="translate(-0.47 -0.42)"/>
	<path id="Layer1_40_MEMBER_0_1_STROKES" data-name="Layer1 40 MEMBER 0 1 STROKES" class="cls-2" d="M27.52,33.33a10.6,10.6,0,0,1-3.25,6.45A11.85,11.85,0,0,1,22,41.58" transform="translate(-0.47 -0.42)"/>
	<path id="Layer1_40_MEMBER_0_MEMBER_0_1_STROKES" data-name="Layer1 40 MEMBER 0 MEMBER 0 1 STROKES" class="cls-3" d="M52.78,16.67a10,10,0,0,0-2-2.09,4.46,4.46,0,0,0-2.65-.75,5.56,5.56,0,0,0-4.1,1.7,5.11,5.11,0,0,0-1.7,4,5.66,5.66,0,0,0,1.75,4.15,5.52,5.52,0,0,0,4.05,1.69,5.63,5.63,0,0,0,3.4-1.14,5.92,5.92,0,0,0,1.19-1.15m1.81-10.9v4.94a1.2,1.2,0,0,1-.31.71.92.92,0,0,1-.69.29H48.42" transform="translate(-0.47 -0.42)"/>
	<path id="Layer1_40_MEMBER_0_MEMBER_1_1_STROKES" data-name="Layer1 40 MEMBER 0 MEMBER 1 1 STROKES" class="cls-4" d="M22.88,44.64l-3.39-1-.29,0,1.19-3.42m-.9,3.45,4.16-2.38" transform="translate(-0.47 -0.42)"/>
</svg>
