<svg id="Layer_1" data-name="Layer 1" xmlns="http://www.w3.org/2000/svg" viewBox="0 0 72.75 65.25"><defs><style>.cls-1{fill:#dcdfdf;}.cls-2,.cls-3,.cls-4{fill:none;stroke-linecap:round;stroke-linejoin:round;stroke-width:2px;}.cls-2{stroke:#464a53;}.cls-3{stroke:#ff4a17;}.cls-4{stroke:#081219;}</style></defs><g id="Layer1_53_FILL" data-name="Layer1 53 FILL"><path class="cls-1" d="M67.68,11.39H31v36.7h36.7Z" transform="translate(-0.58 -0.24)"/></g><path id="Layer1_53_1_STROKES" data-name="Layer1 53 1 STROKES" class="cls-2" d="M46.23,55.59H69.08a3.21,3.21,0,0,0,2.4-.85,2.69,2.69,0,0,0,.85-2V4.29a3.81,3.81,0,0,0-.85-2.2,4.09,4.09,0,0,0-2.4-.85H4.28a2.58,2.58,0,0,0-1.85.85,3,3,0,0,0-.85,2.2V52.74a2.37,2.37,0,0,0,.85,2,2.28,2.28,0,0,0,1.85.85H46.23v8.9h4.45m-27.3,0h4.3v-8.9m18.55,8.9H27.68" transform="translate(-0.58 -0.24)"/><path id="Layer1_53_2_STROKES" data-name="Layer1 53 2 STROKES" class="cls-3" d="M6.68,39.79l-.1,3.7h.25l5.05-5.15M6.83,43.49l3.3-.1" transform="translate(-0.58 -0.24)"/><path id="Layer1_53_MEMBER_0_1_STROKES" data-name="Layer1 53 MEMBER 0 1 STROKES" class="cls-4" d="M51.88,28.79l-2.55-2.5v7.1m0-7.1-.2-.2-2.35,2.7" transform="translate(-0.58 -0.24)"/><path id="Layer1_53_MEMBER_1_1_STROKES" data-name="Layer1 53 MEMBER 1 1 STROKES" class="cls-3" d="M30.43,19.79l5-5v-.25l-3.6.25m3.6,3.6v-3.6" transform="translate(-0.58 -0.24)"/></svg>