<svg id="Layer_1" data-name="Layer 1" xmlns="http://www.w3.org/2000/svg" viewBox="0 0 17.1 18.8"><defs><style>.cls-1{fill:none;stroke:#464a53;stroke-linecap:round;stroke-linejoin:round;}.cls-2{fill:#464a53;}</style></defs><path id="Layer0_0_1_STROKES" data-name="Layer0 0 1 STROKES" class="cls-1" d="M4,4V20a.6.6,0,0,0,.3.6.86.86,0,0,0,.6.3h14.3a1.06,1.06,0,0,0,.9-.9V4a.86.86,0,0,0-.3-.6.86.86,0,0,0-.6-.3H4.85a.86.86,0,0,0-.6.3A.71.71,0,0,0,4,4Z" transform="translate(-3.45 -2.6)"/><path class="cls-2" d="M9.38,7.45l2.63,7,2.61-7h2.05v9.1H15.09v-3l.16-4-2.69,7H11.43l-2.68-7,.16,4v3H7.33V7.45Z" transform="translate(-3.45 -2.6)"/></svg>