<?xml version="1.0" encoding="utf-8"?>
<!-- Generator: Adobe Illustrator 25.3.0, SVG Export Plug-In . SVG Version: 6.00 Build 0)  -->
<svg version="1.1" id="Layer_1" xmlns="http://www.w3.org/2000/svg" xmlns:xlink="http://www.w3.org/1999/xlink" x="0px" y="0px"
	 viewBox="0 0 24 24" style="enable-background:new 0 0 24 24;" xml:space="preserve">
<g id="Vector_Smart_Object_1_">
	<g transform="matrix( 1, 0, 0, 1, 0,0) ">
		<g>
			<g id="Layer0_3_FILL_1_">
				<path fill="none" stroke="var(--maxi-primary-color)" stroke-width="1.5" stroke-miterlimit="10" d="M15.8,4.3c-1.3-1-2.6-1.7-4.1-2.1c-1.4-0.5-2.9-0.7-4.3-0.5C6,1.7,4.8,2.1,3.8,2.8C2.8,3.6,2,4.6,1.6,5.9
					c-0.2,0.6-0.2,1.3-0.1,2C1.6,8.4,1.7,9,2,9.7c0.2,0.4,0.5,1.1,0.9,1.8c0.4,0.8,0.6,1.4,0.7,1.9c0.1,0.5,0.2,1.2,0.2,2
					c0,0.5-0.1,1.2-0.1,2.2c0,0.8,0.1,1.6,0.3,2.1c0.2,0.8,0.7,1.4,1.3,1.8c0.7,0.6,1.4,0.8,2.2,0.8c0.5,0,1.2-0.2,2.1-0.6
					c1.1-0.5,1.8-0.8,2.2-0.8c0.9-0.2,1.7-0.2,2.6,0.1c1.9,0.6,3.4,0.8,4.5,0.7c1.5-0.2,2.5-0.9,3.1-2.4c0.4-1,0.5-2.1,0.4-3.5
					c-0.1-1.3-0.5-2.7-1-4.2c-0.6-1.5-1.3-2.9-2.3-4.2C18.2,6.2,17,5.2,15.8,4.3z"/>
			</g>
		</g>
	</g>
</g>
</svg>
