<?xml version="1.0" encoding="utf-8"?>
<!-- Generator: Adobe Illustrator 26.0.2, SVG Export Plug-In . SVG Version: 6.00 Build 0)  -->
<svg version="1.1" id="Layer_1" xmlns="http://www.w3.org/2000/svg" xmlns:xlink="http://www.w3.org/1999/xlink" x="0px" y="0px"
	 viewBox="0 0 20 20" style="enable-background:new 0 0 20 20;" xml:space="preserve">
<style type="text/css">
	.st0{fill:none;stroke:#081219;stroke-width:1.2;stroke-linecap:round;stroke-linejoin:round;stroke-miterlimit:10;}
	.st1{fill:#FF4A17;stroke:#081219;stroke-width:1.5;stroke-linejoin:round;stroke-miterlimit:10;}
</style>
<path class="st0" d="M0.8,17.6v0.5c0,0.6,0.5,1.2,1.2,1.2h16.2c0.6,0,1.2-0.5,1.2-1.2v-0.5"/>
<g id="Artwork_61_00000107548892979641467200000016120799933852281245_">
	<path class="st0" d="M4.4,11.9"/>
	<path class="st0" d="M18.3,10.8c1.4-1.4,1.4-3.9,0-5.4c-0.8-0.8-1.6-1-2.6-1h-0.2c-0.2-0.6-0.5-1-0.9-1.3c-0.5-0.4-1-0.6-1.7-0.6
		S11.5,2.8,11,3.5c-0.1-0.6-0.4-1.1-0.8-1.6C9.6,1.1,8.7,0.7,7.7,0.7C6.7,0.7,6,0.9,5.3,1.6C4.7,2.2,4.4,2.9,4.4,3.9l0.1,0.5
		c-3.3-0.2-5.1,3.9-2.9,6.2"/>
	<path class="st0" d="M15.7,11.9"/>
</g>
<path class="st1" d="M10.4,17.5l5.2-5.2c0.1-0.1,0.2-0.3,0.2-0.4v-1.6c0-0.5-0.6-0.8-1-0.4l-2.6,2.6V6.1c0-0.6-0.6-0.7-1-0.3L10,6.8
	L8.9,5.8c-0.4-0.4-1-0.3-1,0.3v6.4L5.3,9.9c-0.4-0.4-1-0.1-1,0.4v1.6c0,0.2,0.1,0.3,0.2,0.4l5.2,5.2C9.8,17.7,10.2,17.7,10.4,17.5
	L10.4,17.5z"/>
</svg>
