<?xml version="1.0" encoding="utf-8"?>
<!-- Generator: Adobe Illustrator 26.0.2, SVG Export Plug-In . SVG Version: 6.00 Build 0)  -->
<svg version="1.1" id="Layer_1" xmlns="http://www.w3.org/2000/svg" xmlns:xlink="http://www.w3.org/1999/xlink" x="0px" y="0px"
	 viewBox="0 0 20 20" style="enable-background:new 0 0 20 20;" xml:space="preserve">
<style type="text/css">
	.st0{fill:none;stroke:#081219;stroke-width:1.2;stroke-linecap:round;stroke-linejoin:round;stroke-miterlimit:10;}
	.st1{fill:var(--mpc);stroke:#081219;stroke-width:1.2;stroke-linejoin:round;stroke-miterlimit:10;}
</style>
<path class="st0" d="M1.5,19.3h17"/>
<path class="st0" d="M1.5,17.5h17"/>
<g id="Artwork_61_00000107548892979641467200000016120799933852281245_">
	<path class="st0" d="M4.5,11.9"/>
	<path class="st0" d="M18.2,10.8c1.4-1.4,1.4-3.9,0-5.4c-0.8-0.8-1.3-1-2.3-1h-0.2c-0.2-0.6-0.5-1-0.9-1.3c-0.5-0.4-1-0.6-1.7-0.6
		s-1.4,0.3-1.9,1c-0.1-0.6-0.4-1.1-0.8-1.6C9.7,1.1,8.8,0.7,7.8,0.7S6.1,0.9,5.4,1.6C4.8,2.2,4.5,2.9,4.5,3.9l0.1,0.5
		c-3.3-0.2-5.1,3.9-2.9,6.2"/>
	<path class="st0" d="M15.8,11.9"/>
</g>
<path class="st1" d="M10.3,15.6l4.6-4.6l-0.7-2.1l-2.3,2.3V5.5H8.1v5.7L5.8,8.8L5.1,11l4.6,4.6C9.8,15.8,10.1,15.8,10.3,15.6z"/>
</svg>
