<svg xmlns="http://www.w3.org/2000/svg" xmlns:xlink="http://www.w3.org/1999/xlink" width="19.539" height="19.539" viewBox="0 0 19.539 19.539">
  <defs>
    <clipPath id="clip-path">
      <rect id="Rectangle_504" data-name="Rectangle 504" width="19.539" height="19.539" transform="translate(0 0)" fill="none"/>
    </clipPath>
  </defs>
  <g id="Group_1014" data-name="Group 1014" transform="translate(0 0)">
    <g id="Group_1013" data-name="Group 1013" clip-path="url(#clip-path)">
      <path id="Path_320" data-name="Path 320" d="M15.493,10.7a2.24,2.24,0,0,0,0-4.48h-.01A2.8,2.8,0,0,0,11.436,3.95,3.989,3.989,0,0,0,8.716.933h.005C8.7.924,8.673.919,8.649.912,8.6.9,8.556.886,8.509.874Q8.416.85,8.323.832L8.192.806C8.121.794,8.048.786,7.976.777,7.939.773,7.9.768,7.865.765,7.755.756,7.643.75,7.53.75A3.983,3.983,0,0,0,3.843,6.235a2.239,2.239,0,0,0,.2,4.469" fill="none" stroke="#081219" stroke-linecap="round" stroke-linejoin="round" stroke-width="1.5"/>
      <path id="Path_321" data-name="Path 321" d="M18.508,13.28H16.381v2.537a.565.565,0,0,1-.564.564H3.723a.564.564,0,0,1-.563-.564V13.28H.75v4.382A1.128,1.128,0,0,0,1.878,18.79H17.662a1.128,1.128,0,0,0,1.128-1.128V13.28Z" fill="#ff4a17"/>
      <path id="Path_322" data-name="Path 322" d="M18.508,13.28H16.381v2.537a.565.565,0,0,1-.564.564H3.723a.564.564,0,0,1-.563-.564V13.28H.75v4.382A1.128,1.128,0,0,0,1.878,18.79H17.662a1.128,1.128,0,0,0,1.128-1.128V13.28Z" fill="none" stroke="#081219" stroke-linecap="round" stroke-linejoin="round" stroke-width="1.5"/>
      <path id="Path_323" data-name="Path 323" d="M11.743,10.541h-.705V6.877H8.5v3.664H7.233L9.77,13.923l2.537-3.382Z" fill="#ff4a17"/>
      <path id="Path_324" data-name="Path 324" d="M11.743,10.541h-.705V6.877H8.5v3.664H7.233L9.77,13.923l2.537-3.382Z" fill="none" stroke="#081219" stroke-linecap="round" stroke-linejoin="round" stroke-width="1.5"/>
    </g>
  </g>
</svg>
