<svg id="Layer_1" data-name="Layer 1"
	xmlns="http://www.w3.org/2000/svg" viewBox="0 0 72.75 65.25">
	<defs>
		<style>.cls-1,.cls-3,.cls-4{fill:none;stroke-linecap:round;stroke-linejoin:round;stroke-width:2px;}.cls-1{stroke:#464a53;}.cls-2{fill:#dcdfdf;}.cls-3{stroke:#ff4a17;}.cls-4{stroke:#081219;}</style>
	</defs>
	<path id="Layer1_36_1_STROKES" data-name="Layer1 36 1 STROKES" class="cls-1" d="M46.12,55.77H69a3.21,3.21,0,0,0,2.4-.85,2.67,2.67,0,0,0,.85-2V4.47a3.83,3.83,0,0,0-.85-2.2A4.23,4.23,0,0,0,69,1.42H4.17a2.66,2.66,0,0,0-1.85.85,3,3,0,0,0-.85,2.2V52.92a2.37,2.37,0,0,0,.85,2,2.28,2.28,0,0,0,1.85.85H46.12v8.9h4.45m-27.3,0h4.3v-8.9m18.55,8.9H27.57" transform="translate(-0.47 -0.42)"/>
	<g id="Layer1_36_MEMBER_0_FILL" data-name="Layer1 36 MEMBER 0 FILL">
		<path class="cls-2" d="M59.42,51.67h-6v-25h6v25m-45.2-25H20v25h-5.8Z" transform="translate(-0.47 -0.42)"/>
	</g>
	<path id="Layer1_36_MEMBER_0_1_STROKES" data-name="Layer1 36 MEMBER 0 1 STROKES" class="cls-3" d="M18.57,12.92l-2.5-2.55h7.1m-7.1,0-.2-.2,2.7-2.35m35.55-.15,2.7,2.6-.2.2-7.2-.1m7.2.1-2.4,2.25" transform="translate(-0.47 -0.42)"/>
	<path id="Layer1_36_MEMBER_0_MEMBER_0_1_STROKES" data-name="Layer1 36 MEMBER 0 MEMBER 0 1 STROKES" class="cls-4" d="M35.62,42.07l-2.5-2.55h7.1m-7.1,0-.2-.2L35.62,37" transform="translate(-0.47 -0.42)"/>
</svg>
