<svg xmlns="http://www.w3.org/2000/svg" viewBox="0 0 70 24.6"><defs><style>.cls-1{fill:#007cba;}</style></defs><title>Asset 2</title><g id="Layer_2" data-name="Layer 2"><g id="Layer_1-2" data-name="Layer 1"><polygon class="cls-1" points="27.3 13.85 30.2 13.85 28.75 9.86 27.3 13.85"/><path class="cls-1" d="M65,0H5A5,5,0,0,0,0,5V19.6a5,5,0,0,0,5,5H65a5,5,0,0,0,5-5V5A5,5,0,0,0,65,0ZM31.35,17l-.81-2.23H27L26.16,17H25l3.26-8.53h1L32.51,17Zm7.5-3.1a3.77,3.77,0,0,1-.67,2.34,2.13,2.13,0,0,1-1.79.88,2.24,2.24,0,0,1-1.86-.85l-.05.73h-1V8h1.08v3.36a2.2,2.2,0,0,1,1.81-.82,2.16,2.16,0,0,1,1.82.88,4,4,0,0,1,.66,2.39Zm2.62,1.74a1.5,1.5,0,0,0,1.29.59,1.53,1.53,0,0,0,1-.35,1.22,1.22,0,0,0,.48-.88h1a1.86,1.86,0,0,1-.38,1,2.4,2.4,0,0,1-.92.78,2.78,2.78,0,0,1-3.28-.57,3.42,3.42,0,0,1-.76-2.36v-.18a3.62,3.62,0,0,1,.34-1.65,2.51,2.51,0,0,1,1-1.12,2.81,2.81,0,0,1,1.5-.4,2.55,2.55,0,0,1,1.77.64,2.27,2.27,0,0,1,.76,1.66h-1a1.51,1.51,0,0,0-.46-1,1.43,1.43,0,0,0-1-.4,1.49,1.49,0,0,0-1.28.6A2.82,2.82,0,0,0,41,13.75V14A2.73,2.73,0,0,0,41.47,15.64Z"/><path class="cls-1" d="M36.11,11.47a1.58,1.58,0,0,0-1.54,1v2.74a1.63,1.63,0,0,0,1.55,1,1.41,1.41,0,0,0,1.21-.6,3.17,3.17,0,0,0,.44-1.83,3,3,0,0,0-.43-1.71A1.39,1.39,0,0,0,36.11,11.47Z"/></g></g></svg>
