<?xml version="1.0" encoding="utf-8"?>
<!-- Generator: Adobe Illustrator 24.2.0, SVG Export Plug-In . SVG Version: 6.00 Build 0)  -->
<svg version="1.1" id="Layer_1" xmlns="http://www.w3.org/2000/svg" xmlns:xlink="http://www.w3.org/1999/xlink" x="0px" y="0px"
	 viewBox="0 0 1350 133" style="enable-background:new 0 0 1350 133;" xml:space="preserve">
<g transform="matrix( 1, 0, 0, 1, 0,0) ">
	<g>
		<g id="Layer0_0_FILL">
			<path d="M0.1,128.9 M0.1,128.9c0,0.8-0.1,1.6-0.1,2.4 M1351.7-1.1H0.1v130.1c0.5-11.5,4.7-21.7,12.5-30.4
				c8.4-9.3,18.7-14.5,31-15.7l-0.1-3.5c0-12.9,4.6-23.9,13.7-33c9.1-9.2,20.1-13.8,33-13.8c9.9,0,19,2.9,27.2,8.8v-0.1
				c0-11.4,4-21.1,12.1-29.2c5.6-5.6,11.9-9.2,19-10.9h20.5c7.1,1.7,13.4,5.4,18.9,10.9c8.1,8.1,12.2,17.8,12.2,29.2
				c0,4.9-0.9,9.8-2.7,14.6c4.5-4.6,9.7-8.1,15.5-10.7c6-2.6,12.4-3.9,19-3.9c13.4,0,24.9,4.7,34.4,14.2
				c9.5,9.4,14.3,20.8,14.3,34.2c0,3.5-0.3,6.7-1,9.7c6.6-6.5,14.5-9.7,23.6-9.7c9.4,0,17.4,3.3,24,10c5,5,8.1,10.8,9.3,17.4
				c0.4,2.1,0.6,4.3,0.6,6.6l-0.1,1.9c1.1-2.8,2.4-5.3,4-7.8c4.9-16.4,14.3-29.8,28-40.2c14-10.6,29.7-15.9,47.3-15.9
				c9.5,0,18.6,1.6,27.4,4.9c8.4,3.1,16.1,7.6,23.1,13.4c3,0.6,6.1,1.7,9.4,3.3c3.4-12.3,10.1-22.4,20.3-30.2
				c10.4-8,22.1-12,35.3-12c13.5,0,25.6,4.3,36.1,12.8c10.4,8.4,17,19.1,19.8,32c6.6-4.6,14-6.8,22.2-6.8c4.6,0,9.3,0.9,14,2.6
				c3.5-6.4,8.4-11.4,14.7-15.2c6.4-3.9,13.4-5.8,20.9-5.8c5.6,0,10.9,1.1,16,3.3c4.8,2,9.1,4.9,12.9,8.7
				c0.7-11.2,5.1-20.7,13.3-28.5c8.3-7.8,18.1-11.8,29.5-11.8c9.3,0,17.7,2.7,25.2,8.2c7.3,5.4,12.5,12.3,15.3,20.8
				c2.4-0.4,4.8-0.6,7.3-0.6c10.3,0,19.3,3.4,27.1,10.3c7.6,6.8,12.1,15.3,13.4,25.4c5.1-3.5,10.8-5.7,17-6.5
				c3.7-8.7,9.5-15.8,17.4-21.2c8-5.4,16.9-8.1,26.8-8.1c11,0,20.8,3.4,29.4,10.2c4.9-9.7,12-17.3,21.2-23
				c9.4-5.9,19.7-8.8,30.9-8.8c16.2,0,30,5.7,41.5,17.2c11.4,11.4,17.1,25.2,17.1,41.4c0,3.3-0.3,7-1,11c0.1,0,0.2,0,0.3,0.1
				c1.9-3.6,4.3-7.1,7.2-10.3c8.4-9.3,18.7-14.5,31-15.7l-0.1-3.5c0-12.9,4.6-23.9,13.7-33c9.1-9.2,20.1-13.8,33-13.8
				c9.9,0,19,2.9,27.2,8.8v-0.1c0-11.4,4-21.1,12.1-29.2c5.6-5.6,12-9.2,19-10.9h20.5c7.1,1.7,13.4,5.4,18.9,10.9
				c8.1,8.1,12.2,17.8,12.2,29.2c0,4.9-0.9,9.8-2.7,14.6c4.5-4.6,9.6-8.1,15.5-10.7c6-2.6,12.4-3.9,19-3.9
				c13.4,0,24.9,4.7,34.4,14.2c9.5,9.4,14.3,20.8,14.3,34.2c0,3.5-0.3,6.7-1,9.7c6.6-6.5,14.5-9.7,23.6-9.7c9.4,0,17.4,3.3,24,10
				c5,5,8.1,10.8,9.3,17.4"/>
		</g>
	</g>
</g>
</svg>
