<?xml version="1.0" encoding="utf-8"?>
<!-- Generator: Adobe Illustrator 24.1.2, SVG Export Plug-In . SVG Version: 6.00 Build 0)  -->
<svg version="1.1" id="Layer_1"
	xmlns="http://www.w3.org/2000/svg"
	xmlns:xlink="http://www.w3.org/1999/xlink" x="0px" y="0px" viewBox="0 0 24 24" style="enable-background:new 0 0 24 24;" xml:space="preserve">
	<style type="text/css">
	.st0{fill:none;stroke:#FFFFFF;stroke-width:2;stroke-linecap:round;stroke-linejoin:round;}
	</style>
	<g transform="matrix( 1, 0, 0, 1, 0,0) ">
		<g>
			<path id="Layer0_0_1_STROKES" class="st0" d="M22.5,5.3c-0.1-0.2-0.3-0.1-0.8,0.1l-2.1,1.2c-0.9-1.2-1.8-2.3-2.8-3.1
			c-1.7-1.5-3.5-2.2-5.2-2.2c-1.1,0-2.1,0.3-2.9,0.8C8.4,2.1,8.3,2.2,8.4,2.5l0,0c0.1,0.1,0.2,0.2,0.4,0.2c0.1,0,0.7,0.1,1.8,0.3
			c1.3,0.6,2.4,1.6,3.4,2.9c0.3,0.5,0.8,1.4,1.5,2.8l-2.7,1.4c-0.1,0.1-0.2,0.2-0.3,0.3c0,0.2,0,0.3-0.1,0.4l8.7,4.6
			c0.1,0.1,0.2,0.1,0.3,0c0.1,0,0.2-0.1,0.2-0.3l1.1-9.4C22.6,5.5,22.6,5.3,22.5,5.3z M15.6,21.5c-0.1-0.2-0.2-0.3-0.4-0.3
			c-0.5,0.1-1,0-1.7-0.3c-1.3-0.5-2.4-1.5-3.4-2.9c-0.3-0.5-0.8-1.4-1.5-2.8l2.8-1.4c0.1-0.1,0.2-0.2,0.2-0.4c0-0.2-0.1-0.3-0.2-0.3
			L3,8.7C3,8.6,2.8,8.6,2.7,8.7c-0.1,0-0.2,0.1-0.2,0.4l-1.1,9.3v0.1c0,0.1,0,0.2,0.1,0.2c0.1,0.2,0.2,0.2,0.4,0.1l2.5-1.3
			c1.1,1.6,2.3,2.9,3.8,3.8c2.5,1.7,4.9,1.9,7.2,0.8c0.2-0.1,0.3-0.2,0.3-0.4L15.6,21.5z"/>
		</g>
	</g>
</svg>
