<?xml version="1.0" encoding="utf-8"?>
<!-- Generator: Adobe Illustrator 26.0.3, SVG Export Plug-In . SVG Version: 6.00 Build 0)  -->
<svg version="1.1" id="Layer_1" xmlns="http://www.w3.org/2000/svg" xmlns:xlink="http://www.w3.org/1999/xlink" x="0px" y="0px"
	 viewBox="0 0 16 16" style="enable-background:new 0 0 16 16;" xml:space="preserve">
<style type="text/css">
	.st0{fill:#007CBA;}
</style>
<g>
	<path class="st0" d="M14.7,0.1H1.2c-0.6,0-1.1,0.4-1.1,1.1v1.2c0,0.6,0.4,1.1,1.1,1.1S2.3,3,2.3,2.4V2.3h11.4v11.4h-2.1
		c-0.6,0-1.1,0.4-1.1,1.1s0.4,1.1,1.1,1.1h3.2c0.6,0,1.1-0.4,1.1-1.1V1.2C15.8,0.6,15.3,0.1,14.7,0.1z"/>
	<path class="st0" d="M8.3,10l-2,2V5.6c0-0.6-0.4-1.1-1.1-1.1S4.1,5,4.1,5.6V12l-2-2C1.6,9.6,1,9.6,0.6,10c-0.4,0.4-0.4,1.1,0,1.5
		l3.8,3.8c0.1,0.1,0.2,0.2,0.3,0.2c0.1,0.1,0.3,0.1,0.4,0.1s0.3,0,0.4-0.1c0.1,0,0.2-0.1,0.3-0.2l3.8-3.8c0.4-0.4,0.4-1.1,0-1.5
		C9.3,9.6,8.7,9.6,8.3,10z"/>
</g>
</svg>
