<svg version="1.1" id="Layer_1" xmlns="http://www.w3.org/2000/svg" xmlns:xlink="http://www.w3.org/1999/xlink" x="0px" y="0px"
	 viewBox="0 0 16 16" style="enable-background:new 0 0 16 16;" xml:space="preserve">
<style type="text/css">
	.st0{fill:#081219;}
</style>
<path class="st0" d="M15.8636,8.3206c0.0048-0.01,0.0142-0.0174,0.0186-0.0276C15.9205,8.2029,15.9419,8.104,15.9419,8
	s-0.0214-0.2029-0.0598-0.293c-0.0043-0.0102-0.0137-0.0176-0.0186-0.0276c-0.038-0.0792-0.0856-0.153-0.1476-0.2139
	c-0.002-0.0019-0.0026-0.0046-0.0045-0.0065l-2.5-2.3999c-0.2998-0.2881-0.7734-0.2773-1.0605,0.0215s-0.2773,0.7739,0.0215,1.0605
	L13.3276,7.25h-1.6747V2.2998c0-1.2197-1.0303-2.25-2.25-2.25H6.7026c-1.2197,0-2.25,1.0303-2.25,2.25V7.25H2.6724l1.1552-1.1089
	c0.2988-0.2866,0.3086-0.7617,0.0215-1.0605C3.561,4.7808,3.0869,4.772,2.7886,5.0591l-2.5,2.3999
	c-0.002,0.0019-0.0026,0.0046-0.0045,0.0065C0.2189,7.5294,0.1677,7.6062,0.1292,7.6902c-0.0027,0.006-0.0085,0.0103-0.011,0.0164
	C0.0797,7.7968,0.0581,7.8958,0.0581,8c0,0.104,0.0214,0.2029,0.0598,0.293c0.0043,0.0102,0.0137,0.0176,0.0186,0.0276
	c0.038,0.0792,0.0856,0.153,0.1476,0.2139C0.286,8.5364,0.2866,8.5391,0.2886,8.541l2.5,2.4004
	c0.1455,0.1396,0.3325,0.209,0.5195,0.209c0.1968,0,0.3936-0.0771,0.541-0.2305c0.2866-0.2988,0.2773-0.7734-0.0215-1.0605
	L2.6722,8.75h1.7804v4.9502c0,1.2197,1.0303,2.25,2.25,2.25h2.7002c1.2197,0,2.25-1.0303,2.25-2.25V8.75h1.6749l-1.1554,1.1094
	c-0.2988,0.2871-0.3086,0.7617-0.0215,1.0605c0.1475,0.1533,0.3438,0.2305,0.541,0.2305c0.1865,0,0.374-0.0693,0.5195-0.209
	l2.5-2.4004c0.002-0.0019,0.0026-0.0046,0.0045-0.0065C15.778,8.4736,15.8256,8.3998,15.8636,8.3206z M5.9526,2.2998
	c0-0.3857,0.3643-0.75,0.75-0.75h2.7002c0.3857,0,0.75,0.3643,0.75,0.75V7.25H5.9526V2.2998z M10.1528,13.7002
	c0,0.3857-0.3643,0.75-0.75,0.75H6.7026c-0.3857,0-0.75-0.3643-0.75-0.75V8.75h4.2002V13.7002z"/>
</svg>