<?xml version="1.0" encoding="utf-8"?>
<!-- Generator: Adobe Illustrator 24.3.0, SVG Export Plug-In . SVG Version: 6.00 Build 0)  -->
<svg version="1.1" id="Layer_1" xmlns="http://www.w3.org/2000/svg" xmlns:xlink="http://www.w3.org/1999/xlink" x="0px" y="0px"
	 viewBox="0 0 24 24" style="enable-background:new 0 0 24 24;" xml:space="preserve">
<style type="text/css">
	.st0{fill:#FFFFFF;}
</style>
<g>
	<path class="st0" d="M2.5,3.1v7.3h8.1V3.1h2.2v17.6h-2.2v-8.2H2.5v8.2H0.4V3.1H2.5z"/>
	<path class="st0" d="M22,5.3c-0.4,0-1,0-1.6,0.1c-3.4,0.6-5.2,3.2-5.6,6h0.1c0.8-1.1,2.1-2,3.9-2c2.9,0,4.9,2.2,4.9,5.5
		c0,3.1-2,6-5.4,6c-3.5,0-5.7-2.8-5.7-7.2c0-3.3,1.1-6,2.7-7.6c1.3-1.4,3.1-2.2,5.2-2.5c0.6-0.1,1.2-0.1,1.6-0.1V5.3z M21.4,15.1
		c0-2.4-1.3-3.9-3.3-3.9c-1.3,0-2.5,0.9-3.1,2.1c-0.1,0.3-0.2,0.6-0.2,1c0,2.8,1.3,4.8,3.6,4.8C20.2,19.2,21.4,17.5,21.4,15.1z"/>
</g>
</svg>
