<svg xmlns="http://www.w3.org/2000/svg" width="25.812" height="17.688" viewBox="0 0 25.812 17.688">
  <defs>
    <style>
      .cls-1 {
        fill-rule: evenodd;
      }
    </style>
  </defs>
  <path id="Shape_7_copy" data-name="Shape 7 copy" class="cls-1" d="M883.326,392.649a0.571,0.571,0,1,1,0,1.142H867.273a0.571,0.571,0,1,1,0-1.142h16.053Zm0,4a0.571,0.571,0,1,1,0,1.142H858.673a0.571,0.571,0,1,1,0-1.142h24.653Zm0,4a0.571,0.571,0,1,1,0,1.142H867.273a0.571,0.571,0,1,1,0-1.142h16.053Zm0,4a0.571,0.571,0,1,1,0,1.142H858.673a0.571,0.571,0,1,1,0-1.142h24.653Zm0,4.568a0.571,0.571,0,1,1,0,1.142H867.273a0.571,0.571,0,1,1,0-1.142h16.053Z" transform="translate(-858.094 -392.656)"/>
</svg>
