<svg xmlns="http://www.w3.org/2000/svg" version="1.1"
	xmlns:xlink="http://www.w3.org/1999/xlink" preserveAspectRatio="none" x="0px" y="0px" width="1351px" height="148px" viewBox="0 0 1351 148">
	<defs>
		<g id="Layer1_0_FILL">
			<path fill="#000000" stroke="none" d="
M 0.05 144.6
Q 0 145.75 0 146.95 0 147.85 0.05 148.65
L 0.05 144.6 Z"/>
		</g>

		<g id="Layer1_1_FILL">
			<path fill="#333333" fill-opacity="0.4980392156862745" stroke="none" d="
M 1351.65 148
L 1351.65 130 1350.45 130 1350.45 118.35
Q 1348.65 108.45 1341.2 100.9 1331.2 90.9 1317.15 90.9 1303.45 90.9 1293.55 100.6 1294.55 96.1 1294.55 90.9 1294.55 70.85 1280.3 56.7 1266.1 42.5 1245.95 42.5 1236 42.5 1226.95 46.4 1218.15 50.2 1211.45 57.05 1214.15 49.85 1214.15 42.5 1214.15 25.4 1201.95 13.3 1193.7 4.95 1183.05 2.35
L 1162.6 2.35
Q 1151.95 4.95 1143.55 13.3 1131.5 25.4 1131.5 42.5
L 1131.5 42.55
Q 1119.25 33.75 1104.35 33.75 1085.05 33.75 1071.35 47.5 1057.65 61.2 1057.65 80.5
L 1057.75 84
Q 1039.3 85.8 1026.75 99.7 1022.4 104.6 1019.55 110.05 1019.4 110 1019.25 110 1020.3 104 1020.3 99 1020.3 74.75 1003.15 57.6 985.95 40.45 961.65 40.45 944.9 40.45 930.75 49.25 917 57.75 909.6 72.25 896.65 62.05 880.15 62.05 865.4 62.05 853.4 70.15 841.55 78.25 836 91.35 826.6 92.5 818.95 97.8 817.05 82.6 805.6 72.4 793.95 62.05 778.5 62.05 774.85 62.05 771.25 62.7 766.9 50 755.9 41.95 744.65 33.75 730.7 33.75 713.65 33.75 701.25 45.5 689 57.15 688 74 682.35 68.35 675.1 65.35 667.5 62.05 659.1 62.05 647.8 62.05 638.15 67.9 628.75 73.55 623.45 83.1 616.45 80.5 609.5 80.5 597.25 80.5 587.35 87.35 583.05 67.9 567.5 55.3 551.7 42.5 531.4 42.5 511.7 42.5 496.15 54.45 480.95 66.15 475.9 84.65 471 82.25 466.5 81.35 456.05 72.55 443.4 67.9 430.35 63 416.05 63 389.65 63 368.7 78.9 348.15 94.5 340.75 119.1 338.45 122.7 336.8 126.85
L 336.85 124.9
Q 336.85 121.45 336.25 118.35 334.45 108.45 327 100.9 317 90.9 302.95 90.9 289.25 90.9 279.35 100.6 280.35 96.1 280.35 90.9 280.35 70.85 266.1 56.7 251.9 42.5 231.75 42.5 221.8 42.5 212.75 46.4 204 50.2 197.25 57.05 199.95 49.85 199.95 42.5 199.95 25.4 187.75 13.3 179.5 4.95 168.85 2.35
L 148.4 2.35
Q 137.75 4.95 129.35 13.3 117.3 25.4 117.3 42.5
L 117.3 42.55
Q 105.05 33.75 90.15 33.75 70.85 33.75 57.15 47.5 43.45 61.2 43.45 80.5
L 43.6 84
Q 25.1 85.8 12.55 99.7 0.833984375 112.762109375 0.05 130
L 0.05 148 1351.65 148 Z"/>
		</g>

		<g id="Layer1_2_FILL">
			<path fill="#000000" stroke="none" d="
M 1350.45 147
L 1350.45 132.3
Q 1348.65 122.4 1336.75 114 1324.8 105.55 1303.95 109.35 1286.85 112.4 1285.5 114.3 1285 111.9 1284.85 108 1284.1 93.75 1275.1 75.1 1266.1 56.45 1245.95 56.45 1236 56.45 1226.95 60.35 1218.15 64.15 1197.25 74.85 1202.5 64 1204.3 52.15 1206.1 40.25 1199.9 29.6 1193.7 18.9 1183.05 16.3 1172.85 12.5 1162.6 16.3 1151.95 18.9 1144.85 30.15 1137.7 41.35 1138.05 61.9
L 1131.5 56.5
Q 1119.25 47.7 1102.4 47.8 1085.55 47.85 1075.2 62.55 1064.85 77.2 1072.35 99.9
L 1057.75 97.95
Q 1038.45 99.75 1029.55 108.8 1020.6 117.85 1013.55 129.25 1012.6 116.4 1011.55 102.8 1010.4 88.1 998.2 71.25 985.95 54.4 961.65 54.4 944.9 54.4 930.75 63.2 917 71.7 909.6 86.2 896.65 76 880.15 76 865.4 76 853.4 84.1 841.55 92.2 836 105.3 826.6 106.45 812.4 115 817.05 96.55 805.6 86.35 793.95 76 778.5 76 774.85 76 764.7 80.45 766.9 63.95 755.9 55.9 744.65 47.7 729.2 47.75 713.75 47.75 704.1 60.5 694.4 73.25 696.75 93.4 682.35 82.3 675.1 79.3 667.5 76 659.1 76 647.8 76 638.15 81.85 628.75 87.5 623.45 97.05 616.45 94.45 609.5 94.45 597.25 94.45 581.35 102.4 583.05 81.85 567.5 69.25 551.7 56.45 531.4 56.45 511.7 56.45 496.15 68.4 480.95 80.1 475.9 98.6 471 96.2 466.5 95.3 456.05 86.5 443.4 81.85 430.35 76.95 416.05 76.95 389.65 76.95 368.7 92.85 349.2 107.65 336.6 134.5 336.45 133.4 336.25 132.3 334.45 122.4 327 114.85 317 104.85 302.95 104.85 295.3 104.85 286.9 107.3 277.35 110.05 272.75 114.55 273.75 110.25 273.75 104.85 273.75 88.35 273.5 86.25 272.3 76.75 266.1 70.65 251.9 56.45 231.75 56.45 221.8 56.45 209.5 59.8 199.85 63.1 195.35 65.65 190.85 68.15 185.75 72.65
L 188.45 60.3
Q 190.9 44.1 190 38.6 189.05 33.05 184.3 26 179.5 18.9 168.85 16.3 160.6 13.25 148.4 16.3 137.75 18.9 129.9 31.1 122.05 43.3 122.75 62.5 105.05 47.7 90.15 47.7 70.85 47.7 57.15 61.45 43.45 75.15 53.4 100.1 25.1 99.75 12.55 113.65 0.8 126.75 0.05 144.05
L 0.05 147 1350.45 147 Z"/>
		</g>
	</defs>

	<g transform="matrix( 1, 0, 0, 1, 0,0) ">
		<use xlink:href="#Layer1_0_FILL"/>
	</g>

	<g transform="matrix( 1, 0, 0, 1, 0,0.65) ">
		<use xlink:href="#Layer1_1_FILL"/>
	</g>

	<g transform="matrix( 1, 0, 0, 1, 0,1.65) ">
		<use xlink:href="#Layer1_2_FILL"/>
	</g>
</svg>
