<svg id="Layer_1" data-name="Layer 1" xmlns="http://www.w3.org/2000/svg" xmlns:xlink="http://www.w3.org/1999/xlink" viewBox="0 0 72.75 65.25"><defs><style>.cls-1{fill:url(#radial-gradient);}.cls-2,.cls-3,.cls-4{fill:none;stroke-linecap:round;stroke-linejoin:round;stroke-width:2px;}.cls-2{stroke:#464a53;}.cls-3{stroke:#ff4a17;}.cls-4{stroke:#081219;}</style><radialGradient id="radial-gradient" cx="-797.98" cy="481.72" r="26.25" gradientTransform="matrix(1, 0, 0, -1, 847.4, 511.45)" gradientUnits="userSpaceOnUse"><stop offset="0" stop-color="#fff" stop-opacity="0"/><stop offset="1" stop-color="#999"/></radialGradient></defs><g id="Layer1_13_FILL" data-name="Layer1 13 FILL"><path class="cls-1" d="M67.57,48.28V11.57H30.87V48.28Z" transform="translate(-0.47 -0.42)"/></g><path id="Layer1_13_1_STROKES" data-name="Layer1 13 1 STROKES" class="cls-2" d="M46.12,55.78H69a3.22,3.22,0,0,0,2.4-.86,2.71,2.71,0,0,0,.85-2V4.48a3.88,3.88,0,0,0-.85-2.2A4.13,4.13,0,0,0,69,1.42H4.18a2.6,2.6,0,0,0-1.86.86,3,3,0,0,0-.85,2.2V52.92a2.36,2.36,0,0,0,.85,2,2.3,2.3,0,0,0,1.86.86H46.12v8.89h4.45m-4.45,0H23.27m4.3,0V55.78" transform="translate(-0.47 -0.42)"/><path id="Layer1_13_2_STROKES" data-name="Layer1 13 2 STROKES" class="cls-3" d="M6.57,40l-.1,3.69h.25l5.05-5.14m-5,5.14,3.3-.1" transform="translate(-0.47 -0.42)"/><path id="Layer1_13_MEMBER_0_1_STROKES" data-name="Layer1 13 MEMBER 0 1 STROKES" class="cls-4" d="M51.77,29.48,49.22,32v-7.1m0,7.1-.2.2-2.35-2.7" transform="translate(-0.47 -0.42)"/><path id="Layer1_13_MEMBER_1_1_STROKES" data-name="Layer1 13 MEMBER 1 1 STROKES" class="cls-3" d="M30.32,20l5-5.06v-.25l-3.6.25m3.6,3.61V14.92" transform="translate(-0.47 -0.42)"/></svg>