
<svg xmlns="http://www.w3.org/2000/svg" version="1.1" xmlns:xlink="http://www.w3.org/1999/xlink" preserveAspectRatio="none" x="0px" y="0px" width="24px" height="24px" viewBox="0 0 24 24">
<defs>
<path id="Layer0_0_1_STROKES" stroke="#FFFFFF" stroke-width="1" stroke-linejoin="round" stroke-linecap="round" fill="none" d="
M 14.35 11.55
Q 14.35 12.55 13.6 13.3 12.9 14.05 11.85 14.05 10.8 14.05 10.05 13.3 9.3 12.55 9.3 11.55 9.3 10.5 10.05 9.75 10.8 9 11.85 9 12.9 9 13.6 9.75 14.35 10.5 14.35 11.55 Z
M 16.9 11.55
Q 16.9 13.6 15.4 15.1 13.95 16.6 11.85 16.6 9.75 16.6 8.25 15.1 6.8 13.6 6.8 11.55 6.8 9.45 8.25 7.95 9.75 6.5 11.85 6.5 13.95 6.5 15.4 7.95 16.9 9.45 16.9 11.55 Z
M 23.15 11.55
Q 20.65 14.65 16.65 16.3 8.55 19.55 0.8 12.15 3.3 8.4 7.35 6.75 15.4 3.5 23.25 11.15"/>
</defs>

<g transform="matrix( 1, 0, 0, 1, 0,0) ">
<use xlink:href="#Layer0_0_1_STROKES"/>
</g>
</svg>
