<?xml version="1.0" encoding="utf-8"?>
<!-- Generator: Adobe Illustrator 24.2.1, SVG Export Plug-In . SVG Version: 6.00 Build 0)  -->
<svg version="1.1" id="Layer_1"
	xmlns="http://www.w3.org/2000/svg"
	xmlns:xlink="http://www.w3.org/1999/xlink" x="0px" y="0px" viewBox="0 0 24 24" style="enable-background:new 0 0 24 24;" xml:space="preserve">
	<style type="text/css">
	.st0{fill:none;stroke:#232533;stroke-width:1.5;stroke-linecap:round;stroke-linejoin:round;}
	.st1{fill:none;stroke:#232533;stroke-width:1.5;stroke-linecap:round;stroke-linejoin:round;stroke-miterlimit:3.9998;}
	</style>
	<g>
		<g transform="matrix( 1, 0, 0, 1, 0,0) ">
			<g>
				<path id="Layer0_0_1_STROKES" class="st0" d="M18.7,5.3l-5.4,5.3 M22.3,7V1.4h-5 M22.3,17v5.6h-5 M1.7,7V1.4h5 M1.7,17v5.6h5
				 M5.7,18.1l5-4.9"/>
			</g>
		</g>
		<g transform="matrix( 0.7071075439453125, 0.70709228515625, -0.70709228515625, 0.7071075439453125, 20.9,-13.6) ">
			<g transform="matrix( 0.7071075439453125, -0.70709228515625, 0.70709228515625, 0.7071075439453125, -5.15,24.35) ">
				<path id="Layer0_1_MEMBER_0_MEMBER_0_1_STROKES" class="st1" d="M5.2,18.9l2.2-0.1 M5.1,16.4L5,18.7"/>
			</g>
		</g>
		<g transform="matrix( -0.7070465087890625, -0.70703125, 0.70703125, -0.7070465087890625, 3.5,37.8) ">
			<g transform="matrix( -0.7071685791015625, 0.7071533203125, -0.7071533203125, -0.7071685791015625, 29.2,24.25) ">
				<path id="Layer0_2_MEMBER_0_MEMBER_0_1_STROKES" class="st1" d="M19.2,7.1l0.1-2.3 M19.1,4.5l-2.2,0.1"/>
			</g>
		</g>
	</g>
</svg>
