<svg id="Layer_1" data-name="Layer 1"
	xmlns="http://www.w3.org/2000/svg" viewBox="0 0 73.94 65.73">
	<defs>
		<style>.cls-1{fill:#dcdfdf;}.cls-2,.cls-3,.cls-4{fill:none;stroke-linecap:round;stroke-linejoin:round;}.cls-2{stroke:#464a53;}.cls-2,.cls-3{stroke-width:2px;}.cls-3{stroke:#081219;}.cls-4{stroke:#ff4a17;stroke-width:2px;}</style>
	</defs>
	<g id="Layer1_59_FILL" data-name="Layer1 59 FILL">
		<path class="cls-1" d="M70.38,2.18H17.68v52.7h52.7Z" transform="translate(0.01 0)"/>
	</g>
	<path id="Layer1_59_MEMBER_0_1_STROKES" data-name="Layer1 59 MEMBER 0 1 STROKES" class="cls-2" d="M46.83,55.83H69.68a3.24,3.24,0,0,0,2.4-.85,2.71,2.71,0,0,0,.85-2V4.53a3.9,3.9,0,0,0-.85-2.2,4.18,4.18,0,0,0-2.4-.85H4.88A2.61,2.61,0,0,0,3,2.33a3,3,0,0,0-.85,2.2V53A2.34,2.34,0,0,0,3,55a2.27,2.27,0,0,0,1.85.85h42v8.9h4.45m-27.3,0h4.3v-8.9m18.55,8.9H28.28" transform="translate(0.01 0)"/>
	<path id="Layer1_59_MEMBER_1_1_STROKES" data-name="Layer1 59 MEMBER 1 1 STROKES" class="cls-3" d="M46.58,31,44,33.48v-7.1m0,7.1-.2.2L41.48,31" transform="translate(0.01 0)"/>
	<path id="Layer1_59_MEMBER_2_1_STROKES" data-name="Layer1 59 MEMBER 2 1 STROKES" class="cls-4" d="M47.77,4.85l0-3.57-5,5m5-5V1l-3.57.25" transform="translate(0.01 0)"/>
	<path id="Layer1_59_MEMBER_3_1_STROKES" data-name="Layer1 59 MEMBER 3 1 STROKES" class="cls-4" d="M6.29,45.68l-5,5.16,3.29-.11m-3.5-3.64L1,50.84h.28" transform="translate(0.01 0)"/>
</svg>
