<svg xmlns="http://www.w3.org/2000/svg" viewBox="0 0 71.16 25.53"><defs><style>.cls-1{fill:#163247;}</style></defs><title>b3</title><g id="Layer_2" data-name="Layer 2"><g id="Layer_1-2" data-name="Layer 1"><path class="cls-1" d="M70,1.49V0H0V24H1.16v1.49h70v-24ZM1,23V1H69V23H1Z"/><path class="cls-1" d="M29.25,7.47h-1l-3,7.92L25,16h1.16l.36-1L27,13.77h3.58L31.35,16h1.16l-1-2.6ZM27.3,12.85l1.45-4,1.45,4Z"/><path class="cls-1" d="M38.19,10.42a2.16,2.16,0,0,0-1.82-.88,2.2,2.2,0,0,0-1.81.82V7H33.48v9h1l.05-.73a2.24,2.24,0,0,0,1.86.85,2.11,2.11,0,0,0,1.79-.89,3.72,3.72,0,0,0,.67-2.33v-.09a3.86,3.86,0,0,0-.28-1.65A3.05,3.05,0,0,0,38.19,10.42Zm-.86,4.19a1.41,1.41,0,0,1-1.21.6,1.63,1.63,0,0,1-1.55-1V11.47a1.58,1.58,0,0,1,1.54-1,1.39,1.39,0,0,1,1.23.6,3.17,3.17,0,0,1,.21.41,3,3,0,0,1,.22,1.3A3.17,3.17,0,0,1,37.33,14.61Z"/><path class="cls-1" d="M41.47,11a1.49,1.49,0,0,1,1.28-.6,1.43,1.43,0,0,1,1,.4,1.51,1.51,0,0,1,.46,1h1a2.27,2.27,0,0,0-.76-1.66,2.54,2.54,0,0,0-1.09-.57,2.58,2.58,0,0,0-.68-.07,2.81,2.81,0,0,0-1.5.4,2.37,2.37,0,0,0-.62.56,2.19,2.19,0,0,0-.35.56,3.62,3.62,0,0,0-.34,1.65v.18a3.42,3.42,0,0,0,.76,2.36,2.78,2.78,0,0,0,3.28.57A2.4,2.4,0,0,0,44.9,15a1.86,1.86,0,0,0,.38-1h-1a1.22,1.22,0,0,1-.48.88,1.53,1.53,0,0,1-1,.35,1.5,1.5,0,0,1-1.29-.59A2.73,2.73,0,0,1,41,13v-.2A2.82,2.82,0,0,1,41.47,11Z"/></g></g></svg>
