<?xml version="1.0" encoding="utf-8"?>
<!-- Generator: Adobe Illustrator 24.3.0, SVG Export Plug-In . SVG Version: 6.00 Build 0)  -->
<svg version="1.1" id="Layer_1" xmlns="http://www.w3.org/2000/svg" xmlns:xlink="http://www.w3.org/1999/xlink" x="0px" y="0px"
	 viewBox="0 0 88.3 34.9" style="enable-background:new 0 0 88.3 34.9;" xml:space="preserve">
<style type="text/css">
	.st0{fill:#FFFFFF;stroke:#85878C;stroke-width:2;stroke-miterlimit:10;}
	.st1{fill:#FFFFFF;stroke:#85878C;stroke-miterlimit:10;}
	.st2{fill:#85878C;}
</style>
<g>
	<polyline class="st0" points="1.6,31.7 4.6,33.5 86.3,33.5 86.4,3.5 85.2,1.9 2.4,30.7 	"/>
	<g>
		
			<rect x="27.8" y="-25.1" transform="matrix(-1.836970e-16 1 -1 -1.836970e-16 59.9455 -26.6358)" class="st1" width="30.9" height="83.4"/>
	</g>
</g>
<g>
	<path class="st2" d="M37.5,19.1c-0.1,1-0.4,1.7-1,2.3c-0.6,0.5-1.4,0.8-2.4,0.8c-0.7,0-1.3-0.2-1.9-0.5c-0.5-0.3-1-0.8-1.2-1.5
		c-0.3-0.6-0.4-1.4-0.5-2.2v-0.8c0-0.9,0.1-1.6,0.4-2.3c0.3-0.6,0.7-1.1,1.3-1.5c0.6-0.4,1.2-0.5,1.9-0.5c1,0,1.8,0.3,2.4,0.8
		c0.6,0.5,0.9,1.3,1,2.3H36c-0.1-0.6-0.3-1.1-0.6-1.4c-0.3-0.3-0.7-0.4-1.3-0.4c-0.7,0-1.2,0.2-1.5,0.7c-0.4,0.5-0.5,1.2-0.6,2.2
		v0.8c0,1,0.2,1.7,0.5,2.2c0.3,0.5,0.8,0.8,1.5,0.8c0.6,0,1.1-0.1,1.4-0.4c0.3-0.3,0.5-0.7,0.6-1.4H37.5z"/>
	<path class="st2" d="M40.3,22h-1.5v-9.5h1.5V22z"/>
	<path class="st2" d="M42,13.6c0-0.2,0.1-0.4,0.2-0.6c0.1-0.2,0.4-0.2,0.6-0.2c0.3,0,0.5,0.1,0.6,0.2c0.1,0.2,0.2,0.3,0.2,0.6
		c0,0.2-0.1,0.4-0.2,0.6s-0.4,0.2-0.6,0.2c-0.3,0-0.5-0.1-0.6-0.2C42,14,42,13.8,42,13.6z M43.5,22H42v-6.7h1.5V22z"/>
	<path class="st2" d="M47.8,20.9c0.4,0,0.7-0.1,0.9-0.3c0.2-0.2,0.4-0.5,0.4-0.8h1.4c0,0.4-0.1,0.8-0.4,1.2c-0.2,0.4-0.6,0.6-1,0.9
		c-0.4,0.2-0.9,0.3-1.3,0.3c-0.9,0-1.7-0.3-2.2-0.9c-0.5-0.6-0.8-1.4-0.8-2.5v-0.2c0-1,0.3-1.8,0.8-2.5c0.5-0.6,1.3-0.9,2.2-0.9
		c0.8,0,1.4,0.2,1.9,0.7c0.5,0.5,0.8,1.1,0.8,1.8h-1.4c0-0.4-0.1-0.7-0.4-0.9c-0.2-0.2-0.5-0.4-0.9-0.4c-0.5,0-0.8,0.2-1.1,0.5
		c-0.3,0.4-0.4,0.9-0.4,1.6v0.2c0,0.7,0.1,1.3,0.4,1.6C47,20.8,47.4,20.9,47.8,20.9z"/>
	<path class="st2" d="M53.8,19.1l-0.7,0.7V22h-1.5v-9.5h1.5V18l0.5-0.6l1.8-2.1h1.8l-2.4,2.8l2.7,3.9h-1.7L53.8,19.1z"/>
</g>
</svg>
