<?xml version="1.0" encoding="UTF-8" standalone="no"?>
<!DOCTYPE svg PUBLIC "-//W3C//DTD SVG 1.1//EN"
 "http://www.w3.org/Graphics/SVG/1.1/DTD/svg11.dtd">
<!-- Generated by graphviz version 2.43.0 (0)
 -->
<!-- Title: %3 Pages: 1 -->
<svg width="785pt" height="165pt"
 viewBox="0.00 0.00 785.00 164.74" xmlns="http://www.w3.org/2000/svg" xmlns:xlink="http://www.w3.org/1999/xlink">
<g id="graph0" class="graph" transform="scale(1 1) rotate(0) translate(36 128.74)">
<title>%3</title>
<polygon fill="dimgray" stroke="transparent" points="-36,36 -36,-128.74 749,-128.74 749,36 -36,36"/>
<text text-anchor="middle" x="356.5" y="-77.54" font-family="Helvetica,sans-Serif" font-size="14.00">Sweep&#39;s Plan &amp; Progress</text>
<!-- start -->
<g id="node1" class="node">
<title>start</title>
</g>
<!-- 5ef108e2&#45;d02d&#45;445e&#45;9f35&#45;6d09c2d3acae -->
<g id="node3" class="node">
<title>5ef108e2&#45;d02d&#45;445e&#45;9f35&#45;6d09c2d3acae</title>
<ellipse fill="#0ee832" stroke="black" cx="353.5" cy="-26.87" rx="301.46" ry="26.74"/>
<text text-anchor="middle" x="353.5" y="-30.67" font-family="Helvetica,sans-Serif" font-size="14.00">✓ Create</text>
<text text-anchor="middle" x="353.5" y="-15.67" font-family="Helvetica,sans-Serif" font-size="14.00">src/blocks/button&#45;maxi/components/button&#45;control/index.js</text>
</g>
<!-- start&#45;&gt;5ef108e2&#45;d02d&#45;445e&#45;9f35&#45;6d09c2d3acae -->
<g id="edge1" class="edge">
<title>start&#45;&gt;5ef108e2&#45;d02d&#45;445e&#45;9f35&#45;6d09c2d3acae</title>
<path fill="none" stroke="black" d="M1.07,-26.87C4.15,-26.87 19.4,-26.87 41.97,-26.87"/>
<polygon fill="black" stroke="black" points="42.08,-30.37 52.08,-26.87 42.08,-23.37 42.08,-30.37"/>
<text text-anchor="middle" x="26.64" y="-33.67" font-family="Helvetica,sans-Serif" font-size="14.00">Start</text>
</g>
<!-- end -->
<g id="node2" class="node">
<title>end</title>
</g>
<!-- 5ef108e2&#45;d02d&#45;445e&#45;9f35&#45;6d09c2d3acae&#45;&gt;end -->
<g id="edge2" class="edge">
<title>5ef108e2&#45;d02d&#45;445e&#45;9f35&#45;6d09c2d3acae&#45;&gt;end</title>
<path fill="none" stroke="black" d="M654.82,-26.87C675.36,-26.87 691.87,-26.87 701.88,-26.87"/>
<polygon fill="black" stroke="black" points="701.9,-30.37 711.9,-26.87 701.9,-23.37 701.9,-30.37"/>
<text text-anchor="middle" x="683.36" y="-33.67" font-family="Helvetica,sans-Serif" font-size="14.00">Finish</text>
</g>
</g>
</svg>
