<?xml version="1.0" encoding="UTF-8" standalone="no"?>
<!DOCTYPE svg PUBLIC "-//W3C//DTD SVG 1.1//EN"
 "http://www.w3.org/Graphics/SVG/1.1/DTD/svg11.dtd">
<!-- Generated by graphviz version 2.43.0 (0)
 -->
<!-- Title: %3 Pages: 1 -->
<svg width="603pt" height="165pt"
 viewBox="0.00 0.00 603.00 164.74" xmlns="http://www.w3.org/2000/svg" xmlns:xlink="http://www.w3.org/1999/xlink">
<g id="graph0" class="graph" transform="scale(1 1) rotate(0) translate(36 128.74)">
<title>%3</title>
<polygon fill="dimgray" stroke="transparent" points="-36,36 -36,-128.74 567,-128.74 567,36 -36,36"/>
<text text-anchor="middle" x="265.5" y="-77.54" font-family="Helvetica,sans-Serif" font-size="14.00">Sweep&#39;s Plan &amp; Progress</text>
<!-- start -->
<g id="node1" class="node">
<title>start</title>
</g>
<!-- 41ca8cd4&#45;142f&#45;4379&#45;8b35&#45;381839c3af87 -->
<g id="node3" class="node">
<title>41ca8cd4&#45;142f&#45;4379&#45;8b35&#45;381839c3af87</title>
<ellipse fill="#ee0000" stroke="black" cx="262.5" cy="-26.87" rx="210.02" ry="26.74"/>
<text text-anchor="middle" x="262.5" y="-30.67" font-family="Helvetica,sans-Serif" font-size="14.00">✗ Modify</text>
<text text-anchor="middle" x="262.5" y="-15.67" font-family="Helvetica,sans-Serif" font-size="14.00">core/blocks/class&#45;button&#45;maxi&#45;block.php</text>
</g>
<!-- start&#45;&gt;41ca8cd4&#45;142f&#45;4379&#45;8b35&#45;381839c3af87 -->
<g id="edge1" class="edge">
<title>start&#45;&gt;41ca8cd4&#45;142f&#45;4379&#45;8b35&#45;381839c3af87</title>
<path fill="none" stroke="black" d="M1.25,-26.87C4.77,-26.87 20.36,-26.87 42.3,-26.87"/>
<polygon fill="black" stroke="black" points="42.45,-30.37 52.45,-26.87 42.45,-23.37 42.45,-30.37"/>
<text text-anchor="middle" x="26.74" y="-33.67" font-family="Helvetica,sans-Serif" font-size="14.00">Start</text>
</g>
<!-- end -->
<g id="node2" class="node">
<title>end</title>
</g>
<!-- 41ca8cd4&#45;142f&#45;4379&#45;8b35&#45;381839c3af87&#45;&gt;end -->
<g id="edge2" class="edge">
<title>41ca8cd4&#45;142f&#45;4379&#45;8b35&#45;381839c3af87&#45;&gt;end</title>
<path fill="none" stroke="black" d="M472.68,-26.87C492.74,-26.87 509.39,-26.87 519.59,-26.87"/>
<polygon fill="black" stroke="black" points="519.88,-30.37 529.88,-26.87 519.88,-23.37 519.88,-30.37"/>
<text text-anchor="middle" x="501.26" y="-33.67" font-family="Helvetica,sans-Serif" font-size="14.00">Finish</text>
</g>
</g>
</svg>
