<svg xmlns="http://www.w3.org/2000/svg" version="1.1" xmlns:xlink="http://www.w3.org/1999/xlink" preserveAspectRatio="none" x="0px" y="0px" width="1200px" height="800px" viewBox="0 0 1200 800">
<defs>
<g id="Layer0_0_FILL">
<path fill="#CED1D2" stroke="none" d="
M 1206.5 -10.95
L -6.45 -10.95 -6.45 800 1206.5 800 1206.5 -10.95 Z"/>
</g>

<g id="Layer0_1_FILL">
<path fill="#F2F2F2" stroke="none" d="
M 600 218.05
Q 585.45 218.05 573.5 224.4 566.1 228.35 559.7 234.75 543 251.45 543 275.05 543 298.65 559.7 315.35 566.1 321.75 573.5 325.7 585.45 332.05 600 332.05 623.6 332.05 640.3 315.35 657 298.65 657 275.05 657 251.45 640.3 234.75 623.6 218.05 600 218.05
M 1094.05 789.4
L 1094.05 96.9 595.75 492 115.2 102.75 110.4 104.4 105.95 789.4 1094.05 789.4 Z"/>
</g>
</defs>

<g transform="matrix( 1, 0, 0, 1, 0,0) ">
<use xlink:href="#Layer0_0_FILL"/>
</g>

<g transform="matrix( 1.0999908447265625, 0, 0, 1.0999908447265625, -60,-68.35) ">
<use xlink:href="#Layer0_1_FILL"/>
</g>
</svg>
