<svg xmlns="http://www.w3.org/2000/svg" viewBox="0 0 19.5 16.13"><defs><style>.cls-1{fill:#163247;}</style></defs><title>t1</title><g id="Layer_2" data-name="Layer 2"><g id="Layer_1-2" data-name="Layer 1"><path class="cls-1" d="M19.33,2a.79.79,0,0,0-.55-.27A3.41,3.41,0,0,0,19,1.25.74.74,0,0,0,17.87.38a6.74,6.74,0,0,1-1.73.72,4.44,4.44,0,0,0-6,.09A4.5,4.5,0,0,0,8.77,4.44h0A9.69,9.69,0,0,1,2.59,1,.75.75,0,0,0,2,.68a.7.7,0,0,0-.59.37,4.41,4.41,0,0,0-.17,4.17l-.1.06a.77.77,0,0,0-.37.66A4.47,4.47,0,0,0,2.14,9.19a.75.75,0,0,0-.09.67,4.49,4.49,0,0,0,2.24,2.61A6.7,6.7,0,0,1,1.63,13h0a6.79,6.79,0,0,1-.78,0,.76.76,0,0,0-.8.49.76.76,0,0,0,.3.88,11.15,11.15,0,0,0,6,1.78h.11a11.09,11.09,0,0,0,7.85-3.23A11.06,11.06,0,0,0,17.66,5V4.76A8,8,0,0,0,19.38,2.9.77.77,0,0,0,19.33,2ZM16.16,4.88V5a9.69,9.69,0,0,1-9.69,9.62H6.41a10.94,10.94,0,0,1-2.71-.38,8.11,8.11,0,0,0,3-1.47A.74.74,0,0,0,6.92,12a.76.76,0,0,0-.69-.52A3,3,0,0,1,4,10.4a4,4,0,0,0,.58-.11.77.77,0,0,0,.56-.75.76.76,0,0,0-.6-.71A3,3,0,0,1,2.44,7a3.83,3.83,0,0,0,.68.08.71.71,0,0,0,.73-.53.75.75,0,0,0-.3-.85A3,3,0,0,1,2.28,2.84,11.18,11.18,0,0,0,9.57,6a.74.74,0,0,0,.77-.9,3.84,3.84,0,0,1-.07-.69,2.94,2.94,0,0,1,5.09-2,.75.75,0,0,0,.63.23.78.78,0,0,0-.08.65.74.74,0,0,0,.54.48.77.77,0,0,0-.3.65C16.16,4.58,16.16,4.73,16.16,4.88Z"/></g></g></svg>
