<svg xmlns="http://www.w3.org/2000/svg" width="19.5" height="16.126"><path d="M18.75 2.482c-.677.294-1.393.49-2.126.581a3.67 3.67 0 0 0 1.626-2.038c-.723.429-1.515.731-2.34.893a3.69 3.69 0 0 0-6.386 2.524c-.003.283.026.565.085.841-2.969-.146-5.735-1.55-7.606-3.86-.985 1.685-.488 3.846 1.134 4.932a3.64 3.64 0 0 1-1.667-.454v.04c.004 1.755 1.238 3.266 2.956 3.622a3.68 3.68 0 0 1-.967.122 3.3 3.3 0 0 1-.7-.063c.489 1.501 1.87 2.53 3.448 2.57-1.306 1.022-2.917 1.576-4.575 1.574-.295.003-.589-.012-.882-.046a10.39 10.39 0 0 0 5.661 1.656 10.43 10.43 0 0 0 10.5-10.5l-.014-.477a7.36 7.36 0 0 0 1.853-1.917z" fill="none" stroke="#163247" stroke-linejoin="round" stroke-width="1.5"/></svg>