<?xml version="1.0" encoding="utf-8"?>
<!-- Generator: Adobe Illustrator 26.0.2, SVG Export Plug-In . SVG Version: 6.00 Build 0)  -->
<svg version="1.1" id="Layer_1" xmlns="http://www.w3.org/2000/svg" xmlns:xlink="http://www.w3.org/1999/xlink" x="0px" y="0px"
	 viewBox="0 0 16 16" style="enable-background:new 0 0 16 16;" xml:space="preserve">
<style type="text/css">
	.st0{fill:#141516;}
</style>
<g>
	<path class="st0" d="M15.1499,2.6499h-1.9154c0.0975-0.1266,0.1654-0.2776,0.1654-0.4497V0.7998c0-0.4141-0.3359-0.75-0.75-0.75
		H0.8501c-0.4141,0-0.75,0.3359-0.75,0.75v11.9004c0,0.4141,0.3359,0.75,0.75,0.75h1.2002c0.1722,0,0.3235-0.068,0.4502-0.1657
		v1.9157c0,0.4141,0.3359,0.75,0.75,0.75h11.8994c0.4141,0,0.75-0.3359,0.75-0.75V3.3999
		C15.8999,2.9858,15.564,2.6499,15.1499,2.6499z M2.5005,3.3999v8.716c-0.1266-0.0977-0.278-0.1657-0.4502-0.1657H1.6001V1.5498
		h10.2998v0.6504c0,0.1721,0.0679,0.3231,0.1654,0.4497H3.2505C2.8364,2.6499,2.5005,2.9858,2.5005,3.3999z M14.3999,14.4502H4.0005
		V4.1499h10.3994V14.4502z"/>
	<path class="st0" d="M5.8501,10.0498h2.75v2.75c0,0.4141,0.3359,0.75,0.75,0.75s0.75-0.3359,0.75-0.75v-2.75h2.75
		c0.4141,0,0.75-0.3359,0.75-0.75s-0.3359-0.75-0.75-0.75h-2.75v-2.75c0-0.4141-0.3359-0.75-0.75-0.75s-0.75,0.3359-0.75,0.75v2.75
		h-2.75c-0.4141,0-0.75,0.3359-0.75,0.75S5.436,10.0498,5.8501,10.0498z"/>
</g>
</svg>