<?xml version="1.0" encoding="utf-8"?>
<!-- Generator: Adobe Illustrator 24.3.0, SVG Export Plug-In . SVG Version: 6.00 Build 0)  -->
<svg version="1.1" id="Layer_1"
	xmlns="http://www.w3.org/2000/svg"
	xmlns:xlink="http://www.w3.org/1999/xlink" x="0px" y="0px" viewBox="0 0 24 24" style="enable-background:new 0 0 24 24;" xml:space="preserve">
	<style type="text/css">
	.st0{fill:#FFFFFF;}
	</style>
	<g>
		<path class="st0" d="M9.1,21.4c-2.3-0.7-3.5-2.2-3.5-4.5v-1.9c0-1.4-0.6-2.1-1.7-2.1v-2c1.1,0,1.7-0.6,1.7-1.9V6.8
		c0-1.2,0.3-2.2,0.9-2.9s1.5-1.3,2.6-1.6l0.5,1.6C9.2,4,8.8,4.3,8.5,4.8S8.2,5.9,8.1,6.7v2.1c0,1.5-0.6,2.5-1.7,3.1
		c1.2,0.6,1.7,1.6,1.7,3.1V17c0,1.5,0.5,2.5,1.5,2.8L9.1,21.4z"/>
		<path class="st0" d="M14.3,19.8c1-0.4,1.5-1.3,1.5-2.8v-2.1c0-1.5,0.6-2.5,1.8-3.1c-1.2-0.6-1.8-1.6-1.8-3.1v-2
		c0-1.5-0.5-2.5-1.5-2.8l0.5-1.6c1.2,0.3,2,0.9,2.6,1.6s0.9,1.7,0.9,2.9v2.1c0,1.3,0.6,1.9,1.7,1.9v2c-1.2,0-1.7,0.7-1.7,2V17
		c-0.1,2.3-1.2,3.7-3.5,4.4L14.3,19.8z"/>
	</g>
</svg>
