<svg xmlns="http://www.w3.org/2000/svg" viewBox="0 0 87 42">
  <defs>
    <filter id="a" width="149.3%" height="234.6%" x="-24.6%" y="-67.3%" filterUnits="objectBoundingBox">
      <feOffset dy="1" in="SourceAlpha" result="shadowOffsetOuter1"/>
      <feGaussianBlur in="shadowOffsetOuter1" result="shadowBlurOuter1" stdDeviation="4"/>
      <feColorMatrix in="shadowBlurOuter1" result="shadowMatrixOuter1" values="0 0 0 0 0.858823529   0 0 0 0 0.866666667   0 0 0 0 0.901960784  0 0 0 1 0"/>
      <feMerge>
        <feMergeNode in="shadowMatrixOuter1"/>
        <feMergeNode in="SourceGraphic"/>
      </feMerge>
    </filter>
  </defs>
  <g fill="none" fill-rule="evenodd" filter="url(#a)" transform="translate(8 7)">
    <path fill="#FFF" fill-rule="nonzero" d="M4.352.5h62.3C68.775.5 70.5 2.533 70.5 5.042v16.382c0 2.508-1.725 4.542-3.852 4.542H4.352C2.225 25.965.5 23.932.5 21.424V5.042C.5 2.533 2.225.5 4.352.5Z"/>
    <g stroke="#163247" strokeLinecap="round" stroke-linejoin="round" stroke-width="1.5">
      <path d="m61.383 10.5 2.7 2.662-2.7 2.738M64.084 13.162h-6.791"/>
    </g>
    <g fill="#163247" fill-rule="nonzero">
      <path d="M14.037 15.268h-3.574l-.8 2.233h-1.16l3.258-8.531h.984l3.264 8.531h-1.155l-.817-2.233Zm-3.234-.92h2.9l-1.453-3.99-1.447 3.99ZM22.351 14.4a3.765 3.765 0 0 1-.668 2.335 2.134 2.134 0 0 1-1.793.882 2.21 2.21 0 0 1-1.857-.85l-.053.733h-1v-9h1.084v3.357a2.2 2.2 0 0 1 1.811-.814c.712-.028 1.39.3 1.813.873.475.703.707 1.543.659 2.39l.004.094Zm-1.084-.123a2.933 2.933 0 0 0-.427-1.711 1.419 1.419 0 0 0-1.231-.6 1.592 1.592 0 0 0-1.541 1v2.742a1.636 1.636 0 0 0 1.553 1c.48.02.937-.206 1.213-.6.33-.551.48-1.19.433-1.831ZM26.26 16.732c.369.006.727-.118 1.013-.351.277-.213.451-.531.481-.879h1.025a1.957 1.957 0 0 1-.375 1.037 2.463 2.463 0 0 1-.923.785 2.667 2.667 0 0 1-1.221.293 2.612 2.612 0 0 1-2.06-.864 3.443 3.443 0 0 1-.765-2.365v-.181c-.01-.567.106-1.13.34-1.647a2.6 2.6 0 0 1 .976-1.119 2.777 2.777 0 0 1 1.5-.4 2.545 2.545 0 0 1 1.772.638c.47.424.743 1.025.753 1.659h-1.025a1.5 1.5 0 0 0-.466-1.011 1.448 1.448 0 0 0-1.034-.4 1.52 1.52 0 0 0-1.281.6 2.8 2.8 0 0 0-.454 1.72v.205c-.038.597.12 1.19.452 1.687.306.399.79.621 1.292.593Z"/>
    </g>
  </g>
</svg>
