<?xml version="1.0" encoding="utf-8"?>
<!-- Generator: Adobe Illustrator 24.2.2, SVG Export Plug-In . SVG Version: 6.00 Build 0)  -->
<svg version="1.1" id="Layer_1"
	xmlns="http://www.w3.org/2000/svg"
	xmlns:xlink="http://www.w3.org/1999/xlink" x="0px" y="0px" viewBox="0 0 24 24" style="enable-background:new 0 0 24 24;" xml:space="preserve">
	<style type="text/css">
	.st0{fill:none;stroke:#464A53;stroke-width:1.5;stroke-linecap:round;stroke-linejoin:round;}
	</style>
	<g transform="matrix( 1, 0, 0, 1, 0,0) ">
		<g>
			<path id="Layer0_0_1_STROKES" class="st0" d="M1.8,2.4v5.4H5V6.4c0-0.3,0.1-0.5,0.3-0.7C5.5,5.5,5.7,5.4,6,5.4h4.2v11.8
			c0,0.4-0.1,0.7-0.4,0.9c-0.3,0.3-0.6,0.4-0.9,0.4H7.3v3.1h9.3v-3.1h-1.3c-0.4,0-0.7-0.1-0.9-0.4c-0.3-0.3-0.4-0.6-0.4-0.9V5.4h4.2
			c0.2,0,0.5,0.1,0.6,0.3C18.9,5.9,19,6.1,19,6.4v1.4h3.2V2.4H1.8z"/>
		</g>
	</g>
</svg>
