<svg id="Layer_1" data-name="Layer 1" xmlns="http://www.w3.org/2000/svg" viewBox="0 0 72.75 65.25"><defs><style>.cls-1,.cls-2,.cls-3,.cls-4{fill:none;stroke-linecap:round;stroke-linejoin:round;}.cls-1{stroke:#464a53;}.cls-1,.cls-3{stroke-width:2px;}.cls-2{stroke:#dcdfdf;stroke-width:5px;}.cls-3{stroke:#ff4a17;}.cls-4{stroke:#081219;stroke-width:2px;}</style></defs><path id="Layer1_43_1_STROKES" data-name="Layer1 43 1 STROKES" class="cls-1" d="M46.31,55.78H69.16a3.25,3.25,0,0,0,2.4-.86,2.71,2.71,0,0,0,.85-2V4.48a3.88,3.88,0,0,0-.85-2.2,4.13,4.13,0,0,0-2.4-.86H4.36a2.58,2.58,0,0,0-1.85.86,3,3,0,0,0-.85,2.2V52.92a2.33,2.33,0,0,0,.85,2,2.28,2.28,0,0,0,1.85.86h42v8.89h4.45m-27.3,0h4.3V55.78m18.55,8.89H27.76" transform="translate(-0.66 -0.42)"/><path id="Layer1_43_MEMBER_0_1_STROKES" data-name="Layer1 43 MEMBER 0 1 STROKES" class="cls-2" d="M34.63,33.33a10.56,10.56,0,0,1-3.22,6.45,10.65,10.65,0,0,1-7.85,3.3,10.81,10.81,0,0,1-7.9-3.3,10.71,10.71,0,0,1-3.25-7.86A11.1,11.1,0,0,1,23.56,20.78a11.05,11.05,0,0,1,4.45.89" transform="translate(-0.66 -0.42)"/><path id="Layer1_43_MEMBER_0_MEMBER_0_1_STROKES" data-name="Layer1 43 MEMBER 0 MEMBER 0 1 STROKES" class="cls-3" d="M59.91,16.67a10,10,0,0,0-2-2.09,4.44,4.44,0,0,0-2.65-.75,5.56,5.56,0,0,0-4.1,1.7,5.14,5.14,0,0,0-1.7,4,5.66,5.66,0,0,0,1.75,4.15,5.52,5.52,0,0,0,4,1.69,5.61,5.61,0,0,0,3.4-1.14,5.72,5.72,0,0,0,1.2-1.15m1.8-10.9v4.94a1.24,1.24,0,0,1-.3.71.94.94,0,0,1-.7.29h-5.1" transform="translate(-0.66 -0.42)"/><path id="Layer1_43_MEMBER_0_MEMBER_1_1_STROKES" data-name="Layer1 43 MEMBER 0 MEMBER 1 1 STROKES" class="cls-4" d="M26.72,18.77,29,21.43l.23.18-2.86,2.23M29,21.43l-4.79-.26" transform="translate(-0.66 -0.42)"/></svg>