<svg id="Layer_1" data-name="Layer 1"
	xmlns="http://www.w3.org/2000/svg"
	xmlns:xlink="http://www.w3.org/1999/xlink" viewBox="0 0 72.75 65.25">
	<defs>
		<style>.cls-1,.cls-3,.cls-4{fill:none;stroke-linecap:round;stroke-linejoin:round;}.cls-1{stroke:#464a53;stroke-width:2px;}.cls-2{fill:url(#linear-gradient);}.cls-3{stroke:#081219;}.cls-3,.cls-4{stroke-width:2px;}.cls-4{stroke:#ff4a17;}</style>
		<linearGradient id="linear-gradient" x1="59.49" y1="31.92" x2="14.76" y2="31.92" gradientTransform="matrix(1, 0, 0, -1, 0, 68)" gradientUnits="userSpaceOnUse">
			<stop offset="0" stop-color="#999"/>
			<stop offset="1" stop-color="#fff" stop-opacity="0"/>
		</linearGradient>
	</defs>
	<path id="Layer1_28_1_STROKES" data-name="Layer1 28 1 STROKES" class="cls-1" d="M46.12,55.78H69a3.22,3.22,0,0,0,2.4-.86,2.67,2.67,0,0,0,.85-2V4.48a3.78,3.78,0,0,0-.85-2.2A4.13,4.13,0,0,0,69,1.42H4.17a2.6,2.6,0,0,0-1.85.86,3,3,0,0,0-.85,2.2V52.92a2.4,2.4,0,0,0,.85,2,2.29,2.29,0,0,0,1.85.86H46.12v8.89h4.45m-4.45,0H23.27m4.3,0V55.78" transform="translate(-0.47 -0.42)"/>
	<g id="Layer1_28_MEMBER_0_FILL" data-name="Layer1 28 MEMBER 0 FILL">
		<path class="cls-2" d="M59.27,23.58H14.37v25h44.9Z" transform="translate(-0.47 -0.42)"/>
	</g>
	<path id="Layer1_28_MEMBER_1_1_STROKES" data-name="Layer1 28 MEMBER 1 1 STROKES" class="cls-3" d="M35.7,38.58l3.57,0-5-5m5,5h.28L39.3,35" transform="translate(-0.47 -0.42)"/>
	<path id="Layer1_28_MEMBER_2_1_STROKES" data-name="Layer1 28 MEMBER 2 1 STROKES" class="cls-4" d="M65.16,8.17l.14,7.28m-.14-7.28-8.59,8.94m1.49-8.84,7.1-.1" transform="translate(-0.47 -0.42)"/>
</svg>
