<svg viewBox="0 0 24 24">
	<path d="M16.9 5.7c-.1.1-.1.1-.1.2s.1.3.2.4c.3.3.6.4 1 .4s.7-.1 1-.4c.1-.1.1-.1.1-.2-.1-.1-.2-.3-.3-.4-.3-.3-.6-.4-.9-.4-.4 0-.7.1-1 .4m-.1.1s.1-.1.1-.2c.3-.3.6-.4 1-.4s.7.1.9.4c.1.2.2.4.3.5.2-.2.3-.5.3-.8 0-.4-.1-.7-.4-.9-.3-.3-.6-.4-1-.4s-.7.1-1 .4c-.3.3-.4.6-.4.9 0 .2.1.4.2.5z" fill="#fffffe" />
	<path d="M2.5 14.5v-12h19.1v12.1m-4.8-8.7c0-.1.1-.1.1-.2.3-.3.6-.4 1-.4s.7.1.9.4c.1.1.2.3.3.4.1.2.1.3.1.5 0 .4-.1.7-.4.9-.3.4-.6.5-.9.5-.4 0-.7-.1-1-.4-.3-.3-.4-.6-.4-.9 0-.3.1-.6.3-.8zm-9.7 6.4L10.7 9l3.8 2.8 3.5-1.6M4.8 8.7h.5m8.7 7.5c-.1 0-.2 0-.3.1 0-.2-.1-.3-.3-.4-.1-.1-.3-.1-.4-.1s-.3 0-.4.1c0-.1-.1-.2-.3-.3-.1-.1-.3-.1-.4-.1-.1 0-.2 0-.3.1v-.9c0-.2-.1-.4-.2-.5-.2-.2-.4-.2-.6-.3-.2 0-.4.1-.6.3-.1.2-.2.3-.2.5v3.1l-.4-.8c-.1-.1-.1-.1-.3-.1-.1-.1-.1-.1-.3-.1-.1 0-.2 0-.3.1-.1 0-.1.1-.2.1-.1.1-.2.3-.2.5s0 .4.2.6.3.5.4.8c.1.1.2.4.4.7.3.4.5.7.6.9.1.1.2.4.4.9l.1.1c.1 0 .1.1.2.1h3.3s.1 0 .2-.1l.1-.1c.1-.3.2-.7.3-1 .2-.7.3-1.2.3-1.5V17c0-.2-.1-.4-.2-.5-.2-.2-.4-.3-.6-.3zM2.5 14.9h5.7M5.8 6.6h6m4.1 8.3h5.7" fill="none" stroke="var(--maxi-primary-color)" strokeWidth="1.5"strokeLinecap="round" strokeLinejoin="round" />
</svg>
