<svg xmlns="http://www.w3.org/2000/svg" version="1.1"
	xmlns:xlink="http://www.w3.org/1999/xlink" preserveAspectRatio="none" x="0px" y="0px" width="1280px" height="116px" viewBox="0 0 1280 116">
	<defs>
		<g id="Layer0_0_FILL">
			<path fill="#000000" stroke="none" d="
M 1280 63
Q 1270 54.05 1264.7 49.5 1255.4 41.6 1247.5 36.7 1225.95 23.3 1200.1 23.3 1180.95 23.3 1166.05 30.6 1157.15 34.95 1142.8 46.6 1128.55 58.25 1119.45 62.6 1104.45 69.9 1085.1 69.9 1067.25 69.9 1052.25 63.7 1043.45 60.05 1028.15 50.1 1013 40.25 1003.55 36.45 988.1 30.25 969.5 30.25 954.5 30.25 942 35.5 937.25 37.5 920.9 47.15 907.3 55.1 895.2 58.75 877.6 64 853.85 64 824.3 64 802.15 54 793.45 50.05 783.9 43.75 780.15 41.25 767.3 32 745.8 16.5 728.7 10 702.35 0 665.65 0 628.55 0 597.65 15.45 585.4 21.55 571.7 31.25 564.3 36.5 547.85 49.4 532.6 61.35 523.55 67.55 509.55 77.15 496.35 83.35 463.6 98.8 423.3 98.8 389.5 98.8 361.35 90.2 342.45 84.45 317.5 71.35 289.2 56.5 278.65 52.5 256.05 43.9 231.75 43.9 205.8 43.9 182.8 50.6 167.05 55.15 146.4 65.3 121.9 77.3 114.7 80 97 86.7 80 86.7 50.35 86.7 32.5 81.3 15.2 76.1 0 62.95
L 0 116.95 1280 116.95 1280 63 Z"/>
		</g>
	</defs>

	<g transform="matrix( 1, 0, 0, 1, 0,0) ">
		<use xlink:href="#Layer0_0_FILL"/>
	</g>
</svg>
