<svg id="Layer_1" data-name="Layer 1" xmlns="http://www.w3.org/2000/svg" viewBox="0 0 72.75 65.25"><defs><style>.cls-1,.cls-2,.cls-3,.cls-4{fill:none;stroke-linecap:round;stroke-linejoin:round;}.cls-1{stroke:#464a53;}.cls-1,.cls-3{stroke-width:2px;}.cls-2{stroke:#dcdfdf;stroke-width:5px;}.cls-3{stroke:#ff4a17;}.cls-4{stroke:#081219;stroke-width:2px;}</style></defs><path id="Layer1_45_1_STROKES" data-name="Layer1 45 1 STROKES" class="cls-1" d="M46.13,55.78H69a3.22,3.22,0,0,0,2.4-.86,2.78,2.78,0,0,0,.71-1.09,3,3,0,0,0,.14-.91V4.48a3.88,3.88,0,0,0-.85-2.2A4.1,4.1,0,0,0,69,1.42H4.17a2.6,2.6,0,0,0-1.85.86,3,3,0,0,0-.85,2.2V52.92a2.36,2.36,0,0,0,.85,2,2.29,2.29,0,0,0,1.85.86h42v8.89h4.44m-27.29,0h4.29V55.78m18.56,8.89H27.57" transform="translate(-0.47 -0.42)"/><path id="Layer1_45_MEMBER_0_1_STROKES" data-name="Layer1 45 MEMBER 0 1 STROKES" class="cls-2" d="M46.13,33.33a10.66,10.66,0,0,0,3.25,6.45,11.85,11.85,0,0,0,2.25,1.8" transform="translate(-0.47 -0.42)"/><path id="Layer1_45_MEMBER_0_MEMBER_0_1_STROKES" data-name="Layer1 45 MEMBER 0 MEMBER 0 1 STROKES" class="cls-3" d="M20.88,16.67a9.5,9.5,0,0,1,2-2.09,4.42,4.42,0,0,1,2.65-.75,5.57,5.57,0,0,1,4.1,1.7,5.13,5.13,0,0,1,1.69,4,5.66,5.66,0,0,1-1.75,4.15,5.52,5.52,0,0,1-4,1.69,5.59,5.59,0,0,1-3.4-1.14,6,6,0,0,1-1.21-1.15m-1.79-10.9v4.94a1.22,1.22,0,0,0,.29.71,1,1,0,0,0,.71.29h5.09" transform="translate(-0.47 -0.42)"/><path id="Layer1_45_MEMBER_0_MEMBER_1_1_STROKES" data-name="Layer1 45 MEMBER 0 MEMBER 1 1 STROKES" class="cls-4" d="M50.83,44.7l3.39-1,.29,0-1.19-3.42m.9,3.45-4.16-2.38" transform="translate(-0.47 -0.42)"/></svg>