<?xml version="1.0" encoding="utf-8"?>
<!-- Generator: Adobe Illustrator 24.1.2, SVG Export Plug-In . SVG Version: 6.00 Build 0)  -->
<svg version="1.1" id="Layer_1"
	xmlns="http://www.w3.org/2000/svg"
	xmlns:xlink="http://www.w3.org/1999/xlink" x="0px" y="0px" viewBox="0 0 45 38" style="enable-background:new 0 0 45 38;" xml:space="preserve">
	<style type="text/css">
	.st0{fill:#0E151B;}
	.st1{fill:#F04F26;}
	.st2{fill:#FFFFFF;}
	</style>
	<g>
		<g>
			<g id="Layer0_11_MEMBER_0_FILL">
				<path class="st0" d="M22.5,39.2v-5l-7.8-8.1v5L22.5,39.2 M13.5,6.9h9V3.3H9.9L13.5,6.9 M5.4,21.6V6.3l-5.2,9.9L5.4,21.6z"/>
				<path class="st1" d="M13.7,18.8l8.8,8.8V17.2L6.4,1.1v29l7.4,7.4V18.8z"/>
				<path class="st2" d="M14.7,26.2v-5l7.8,7.8l0.7-0.7l-0.7-0.7l-8.8-8.8v18.6v0.9h0.9v-7.2V26.2 M9.9,3.3L5.4-1.2v7.5v15.3V30h0.9
				v-29l16.1,16.1l0.7-0.7l-9.6-9.6L9.9,3.3z"/>
			</g>
		</g>
		<g>
			<g id="Layer0_11_MEMBER_1_FILL">
				<path class="st0" d="M22.5,34.2v5l7.8-8.1v-5L22.5,34.2 M39.6,6.3v15.3l5.2-5.4L39.6,6.3 M22.5,6.9h9L35,3.3H22.5V6.9z"/>
				<path class="st2" d="M31.5,6.9l-9.6,9.6l0.7,0.7L38.6,1.1v29h0.9v-8.4V6.3v-7.5L35,3.3L31.5,6.9 M22.5,29l7.8-7.8v5v5v7.2h0.9
				v-0.9V18.8l-8.8,8.8l-0.7,0.7L22.5,29z"/>
				<path class="st1" d="M22.5,27.6l8.8-8.8v18.6l7.4-7.4v-29L22.5,17.2V27.6z"/>
			</g>
		</g>
	</g>
</svg>
