<svg id="Layer_1" data-name="Layer 1" xmlns="http://www.w3.org/2000/svg" viewBox="0 0 72.75 65.25"><defs><style>.cls-1,.cls-2,.cls-3,.cls-4{fill:none;stroke-linecap:round;stroke-linejoin:round;}.cls-1{stroke:#464a53;}.cls-1,.cls-3,.cls-4{stroke-width:2px;}.cls-2{stroke:#dcdfdf;stroke-width:5px;}.cls-3{stroke:#ff4a17;}.cls-4{stroke:#081219;}</style></defs><path id="Layer1_42_1_STROKES" data-name="Layer1 42 1 STROKES" class="cls-1" d="M46.12,55.78H69a3.22,3.22,0,0,0,2.4-.86,2.71,2.71,0,0,0,.85-2V4.48a3.88,3.88,0,0,0-.85-2.2A4.08,4.08,0,0,0,69,1.42H4.17a2.56,2.56,0,0,0-1.84.86,3.05,3.05,0,0,0-.86,2.2V52.92a2.41,2.41,0,0,0,.86,2,2.26,2.26,0,0,0,1.84.86H46.12v8.89h4.46m-27.31,0h4.31V55.78m18.54,8.89H27.58" transform="translate(-0.47 -0.42)"/><path id="Layer1_42_MEMBER_0_1_STROKES" data-name="Layer1 42 MEMBER 0 1 STROKES" class="cls-2" d="M34.48,33.33a10.76,10.76,0,0,1-3.25,6.45,10.67,10.67,0,0,1-7.85,3.3,10.8,10.8,0,0,1-7.9-3.3,10.71,10.71,0,0,1-3.26-7.86A10.83,10.83,0,0,1,15.48,24c.26-.26.52-.5.79-.73" transform="translate(-0.47 -0.42)"/><path id="Layer1_42_MEMBER_0_MEMBER_0_1_STROKES" data-name="Layer1 42 MEMBER 0 MEMBER 0 1 STROKES" class="cls-3" d="M59.72,16.67a9.5,9.5,0,0,0-2-2.09,4.41,4.41,0,0,0-2.64-.75A5.58,5.58,0,0,0,51,15.53a5.13,5.13,0,0,0-1.69,4A5.66,5.66,0,0,0,51,23.73a5.52,5.52,0,0,0,4,1.69,5.58,5.58,0,0,0,3.39-1.14,5.72,5.72,0,0,0,1.2-1.15m1.8-10.9v4.94a1.18,1.18,0,0,1-.3.71.94.94,0,0,1-.7.29h-5.1" transform="translate(-0.47 -0.42)"/><path id="Layer1_42_MEMBER_0_MEMBER_1_1_STROKES" data-name="Layer1 42 MEMBER 0 MEMBER 1 1 STROKES" class="cls-4" d="M15.85,21.16l3.49.46h.3L19,25.17m.37-3.55-3.75,3" transform="translate(-0.47 -0.42)"/></svg>