<?xml version="1.0" encoding="utf-8"?>
<!-- Generator: Adobe Illustrator 25.2.1, SVG Export Plug-In . SVG Version: 6.00 Build 0)  -->
<svg version="1.1" id="Layer_1" xmlns="http://www.w3.org/2000/svg" xmlns:xlink="http://www.w3.org/1999/xlink" x="0px" y="0px"
	 viewBox="0 0 24 24" style="enable-background:new 0 0 24 24;" xml:space="preserve">

<g>
	<g>
		<path fill="none" d="M13.9,5.5"/>
		<path fill="none" stroke="#474A54" strokeLinecap="round" strokeLinejoin="round" d="M12.6,6.1c0-0.3,0-0.6,0.1-0.9h-2.5h-0.1H0.9v11.4v0.2v6.3h9.1h0.1h4.9v-6.3v-0.2v-6.1
			C13.6,9.6,12.6,8,12.6,6.1z"/>
		<g>
			<path id="Layer0_0_1_STROKES" fill="none" stroke="#F04F26" strokeLinecap="round" strokeLinejoin="round" d="M2.8,7.7v3h1.3v-0.6c0-0.1,0.1-0.2,0.1-0.3c0.1-0.1,0.1-0.1,0.3-0.1h1.7v4.7
				c0,0.1-0.1,0.3-0.2,0.4C5.9,14.9,5.7,15,5.6,15H5.1v1.2h3.7V15H8.3c-0.1,0-0.3-0.1-0.4-0.2c-0.1-0.1-0.2-0.3-0.2-0.4V9.7h1.7
				c0.1,0,0.2,0.1,0.3,0.1c0.1,0.1,0.1,0.1,0.1,0.3v0.6H11v-3H2.8z"/>
		</g>
		<rect x="3.3" y="18.2" fill="none" stroke="#F04F26" strokeLinecap="round" strokeLinejoin="round" width="3.7" height="2.8"/>
		<rect x="8.7" y="18.2" fill="none" stroke="#F04F26" strokeLinecap="round" strokeLinejoin="round" width="3.7" height="2.8"/>
		<path fill="none" stroke="#474A54" strokeLinecap="round" strokeLinejoin="round" d="M15.1,10.5c0.8,0.5,1.7,0.8,2.7,0.8h0c0,0,0,0,0.1,0v0c2.8,0,5.1-2.4,5.1-5.2c0-2.9-2.3-5.2-5.1-5.2v0
			c0,0,0,0-0.1,0h0c-2.6,0-4.7,1.9-5.1,4.3 M13.9,5.5"/>
		<path fill="none" stroke="#474A54" strokeLinecap="round" strokeLinejoin="round" d="M12.7,5.2c-0.1,0.3-0.1,0.6-0.1,0.9c0,1.9,1,3.5,2.5,4.4"/>
		<ellipse fill="none" stroke="#474A54" strokeLinecap="round" strokeLinejoin="round" cx="17.9" cy="6.1" rx="2.1" ry="5.1"/>
	</g>
	<line fill="none" stroke="#474A54" strokeLinecap="round" strokeLinejoin="round" x1="23" y1="5.9" x2="12.8" y2="5.9"/>
</g>
</svg>
