<?xml version="1.0" encoding="utf-8"?>
<!-- Generator: Adobe Illustrator 25.2.1, SVG Export Plug-In . SVG Version: 6.00 Build 0)  -->
<svg version="1.1" id="Layer_1" xmlns="http://www.w3.org/2000/svg" xmlns:xlink="http://www.w3.org/1999/xlink" x="0px" y="0px"
	 viewBox="0 0 24 24" style="enable-background:new 0 0 24 24;" xml:space="preserve">
<path fill="none" stroke="var(--mpc)" stroke-width="1.5" stroke-linecap="round" stroke-linejoin="round" d="M22.1,12c0,2.8-1,5.2-3,7.1s-4.3,3-7.1,3s-5.2-1-7.2-3S1.9,14.8,1.9,12s1-5.2,2.9-7.2"/>
<g>
	<path fill="var(--mpc)" stroke="var(--mpc)" stroke-miterlimit="10" d="M6.8,14.7c0.3,0.2,1,0.5,1.7,0.5c1.4,0,1.8-0.9,1.8-1.5c0-1.1-1-1.6-2-1.6H7.7v-0.8h0.6C9,11.3,10,10.9,10,10
		c0-0.6-0.4-1.2-1.4-1.2C8,8.8,7.4,9.1,7.1,9.3L6.8,8.6C7.2,8.3,8,8,8.8,8c1.5,0,2.2,0.9,2.2,1.9c0,0.8-0.5,1.5-1.4,1.8v0
		c1,0.2,1.7,0.9,1.7,2c0,1.2-1,2.3-2.8,2.3c-0.9,0-1.6-0.3-2-0.5L6.8,14.7z"/>
	<path fill="var(--mpc)" stroke="var(--mpc)" stroke-miterlimit="10" d="M12.9,14.7c0.3,0.2,1,0.5,1.7,0.5c1.4,0,1.8-0.9,1.8-1.5c0-1.1-1-1.6-2-1.6h-0.6v-0.8h0.6
		c0.8,0,1.7-0.4,1.7-1.3c0-0.6-0.4-1.2-1.4-1.2c-0.6,0-1.2,0.3-1.6,0.5l-0.3-0.8C13.4,8.3,14.1,8,15,8c1.5,0,2.2,0.9,2.2,1.9
		c0,0.8-0.5,1.5-1.4,1.8v0c1,0.2,1.7,0.9,1.7,2c0,1.2-1,2.3-2.8,2.3c-0.9,0-1.6-0.3-2-0.5L12.9,14.7z"/>
</g>
</svg>
