<svg id="Layer_1" data-name="Layer 1" xmlns="http://www.w3.org/2000/svg" xmlns:xlink="http://www.w3.org/1999/xlink" viewBox="0 0 72.75 65.25"><defs><style>.cls-1{fill:url(#radial-gradient);}.cls-2,.cls-3,.cls-4{fill:none;stroke-linecap:round;stroke-linejoin:round;stroke-width:2px;}.cls-2{stroke:#464a53;}.cls-3{stroke:#ff4a17;}.cls-4{stroke:#081219;}</style><radialGradient id="radial-gradient" cx="-629.98" cy="402.22" r="13.6" gradientTransform="matrix(1, 0, 0, -1, 680.45, 432.95)" gradientUnits="userSpaceOnUse"><stop offset="0" stop-color="#999"/><stop offset="1" stop-color="#fff" stop-opacity="0"/></radialGradient></defs><g id="Layer1_18_FILL" data-name="Layer1 18 FILL"><path class="cls-1" d="M40.82,21.13V38.82h17.7V21.13Z" transform="translate(-0.47 -0.42)"/></g><path id="Layer1_18_1_STROKES" data-name="Layer1 18 1 STROKES" class="cls-2" d="M46.12,55.78H69a3.22,3.22,0,0,0,2.4-.86,2.71,2.71,0,0,0,.85-2V4.48a3.88,3.88,0,0,0-.85-2.2A4.13,4.13,0,0,0,69,1.42H4.18a2.6,2.6,0,0,0-1.86.86,3,3,0,0,0-.85,2.2V52.92a2.36,2.36,0,0,0,.85,2,2.3,2.3,0,0,0,1.86.86H46.12v8.89h4.45m-4.45,0H23.27m4.3,0V55.78" transform="translate(-0.47 -0.42)"/><path id="Layer1_18_2_STROKES" data-name="Layer1 18 2 STROKES" class="cls-3" d="M29.43,23.57V20l-5.06,5m5.06-5v-.3L25.82,20M17.68,31.73l-5.06,5.15,3.31-.1m-3.46-3.61-.1,3.75.25,0" transform="translate(-0.47 -0.42)"/><path id="Layer1_18_MEMBER_0_1_STROKES" data-name="Layer1 18 MEMBER 0 1 STROKES" class="cls-4" d="M52.22,29l-2.55-2.5v7.1m0-7.1-.2-.21L47.12,29" transform="translate(-0.47 -0.42)"/></svg>