
<svg xmlns="http://www.w3.org/2000/svg" version="1.1" xmlns:xlink="http://www.w3.org/1999/xlink" preserveAspectRatio="none" x="0px" y="0px" width="64px" height="64px" viewBox="0 0 64 64">
<defs>
<g id="Layer0_0_FILL">
<path fill="#FF4A17" stroke="none" d="
M 27.75 2.2
L 27.5 33.1 50.9 37.4 27.75 2.2
M 27.65 2.45
L 27.45 2.85 27.15 3.45 15.25 35.1 26.8 33.1 27 33 27.5 33.1 27.75 2.2 27.65 2.45 Z"/>
</g>

<path id="Layer0_0_1_STROKES" stroke="#081219" stroke-width="2" stroke-linejoin="round" stroke-linecap="round" fill="none" d="
M 49.9 9.5
Q 49.2 9.5 47.75 10.65 47.2841796875 11.02265625 46.875 11.375 46.62734375 11.5916015625 46.4 11.8 43.9 9.5 42.9 9.5
M 59.25 17.65
Q 58.55 17.65 57.1 18.85 56.35 19.45 55.75 20 53.3 17.65 52.25 17.65
M 27.65 2.45
L 27.75 2.2 50.9 37.4 27.5 33.1 27.45 45.95 27.65 45.9 42.9 48.25 41.35 53.35
Q 39.5 58.6 37.1 61.2 38.05 61.05 38.9 60.6 40.05 60.05 40.8 59.05 41.6 60.05 42.7 60.6 43.85 61.2 45.15 61.2
L 45.2 61.2
Q 46.1 61.2 46.95 60.9 47.75 60.6 48.45 60.1 49.05 59.65 49.55 59.05
L 49.65 59.2
Q 49.9 59.5 50.25 59.8 51 60.45 51.9 60.8 52.85 61.2 53.9 61.2 55 61.2 56 60.75 56.05 60.7 56.15 60.7 56.2 60.65 56.3 60.6
L 56.35 60.6
Q 57.45 60.05 58.25 59.05 59 60.05 60.15 60.6 60.8 60.95 62.6 61.45
M 26.825 33.1
L 15.25 35.1 27.175 3.475 27.45 2.875
M 14.1 14.55
Q 13.4 14.55 11.95 15.75 11.2 16.35 10.6 16.9 8.15 14.55 7.1 14.55
M 27 33
L 27.5 33.1 27.75 2.2
M 1.7 61.2
Q 3 61.2 4.15 60.6 5.25 60.05 6.05 59.05 6.8 60.05 7.95 60.6 9.1 61.2 10.4 61.2 11.05 61.2 11.7 61.05
L 11.75 61.05
Q 12.25 60.85 12.8 60.6 13.95 60.05 14.75 59.05 15.25 59.7 15.95 60.2 16.65 60.7 17.45 60.95 17.8 61.05 18.2 61.1 15.9 58.5 14.05 53.5
L 12.45 48.25 27.45 45.95 27.4 52.8
M 18.2 61.1
Q 18.25 61.1 18.3 61.1 18.75 61.2 19.1 61.2 20.4 61.15 21.55 60.6 22.65 60.05 23.4 59.05 24.2 60.05 25.35 60.6 26.5 61.2 27.75 61.2 29.05 61.2 30.2 60.6 31.35 60.05 32.1 59.05 32.9 60.05 34.05 60.6 35.2 61.2 36.45 61.2 36.55 61.2 36.65 61.2 36.85 61.2 37.1 61.2"/>
</defs>

<g transform="matrix( 1, 0, 0, 1, 0,0.2) ">
<use xlink:href="#Layer0_0_FILL"/>

<use xlink:href="#Layer0_0_1_STROKES"/>
</g>
</svg>
