<?xml version="1.0" encoding="utf-8"?>
<!-- Generator: Adobe Illustrator 26.0.2, SVG Export Plug-In . SVG Version: 6.00 Build 0)  -->
<svg version="1.1" id="Layer_1" xmlns="http://www.w3.org/2000/svg" xmlns:xlink="http://www.w3.org/1999/xlink" x="0px" y="0px"
	 viewBox="0 0 35 35" style="enable-background:new 0 0 35 35;" xml:space="preserve">
<style type="text/css">
	.st0{fill:var(--maxi-primary-color);stroke:#081219;stroke-width:1.5;stroke-linecap:round;stroke-linejoin:round;stroke-miterlimit:10;}
	.st1{fill:none;stroke:#081219;stroke-width:1.5;stroke-linecap:round;stroke-linejoin:round;}
</style>
<g>
	<g id="Layer0_0_FILL">
		<path class="st0" d="M15.8,1.1l-0.2,17l12.8,2.4L15.8,1.1 M8.9,19.2c0.1-0.1,6.7-1.1,6.7-1.1l0.2-17L8.9,19.2z"/>
	</g>
	<path class="st1" d="M27.9,5.1c-0.3,0-0.7,0.2-1.2,0.6c-0.3,0.2-0.5,0.4-0.8,0.6C25,5.5,24.4,5.1,24,5.1"/>
	<path class="st1" d="M33.1,9.6c-0.3,0-0.7,0.2-1.2,0.7c-0.3,0.2-0.5,0.4-0.7,0.6c-0.9-0.9-1.5-1.3-1.9-1.3"/>
	<path class="st1" d="M15.6,18.1v7.1l8.5,1.3l-0.9,2.8c-0.7,1.9-1.7,3.6-2.6,4.6"/>
	<path class="st1" d="M8.3,7.9C7.8,7.9,6.8,8.8,6.3,9.3C5.5,8.4,4.8,7.9,4.4,7.9"/>
	<line class="st1" x1="15.6" y1="18.1" x2="15.8" y2="1.1"/>
	<path class="st1" d="M10.6,33.6c-0.8-0.9-1.6-2.5-2.4-4.3l-0.9-2.9l8.3-1.2v3.7"/>
	<path class="st1" d="M1.9,33.7c0.5,0,0.9-0.1,1.4-0.3c0.4-0.2,0.8-0.5,1-0.8c1.9,2.2,4.4,1.1,4.8,0c1.4,2.2,4.6,0.7,4.7,0
		c1.2,1.5,3.7,1.5,4.8,0c1.3,1.9,3.3,1.6,4.8,0.1c0.6,0.8,1.5,1.2,2.4,1.2c0.9,0,1.8-0.4,2.4-1.2c1.2,1.6,3.4,1.6,4.8,0"/>
</g>
</svg>
