<?xml version="1.0" encoding="utf-8"?>
<!-- Generator: Adobe Illustrator 25.2.0, SVG Export Plug-In . SVG Version: 6.00 Build 0)  -->
<svg version="1.1" id="Layer_1" xmlns="http://www.w3.org/2000/svg" xmlns:xlink="http://www.w3.org/1999/xlink" x="0px" y="0px"
	 viewBox="0 0 24 24" style="enable-background:new 0 0 24 24;" xml:space="preserve">

<line fill="none" stroke="#FFFFFF" stroke-width="1.5" strokeLinecap="round" stroke-linejoin="round" x1="13.6" y1="18.9" x2="19.7" y2="18.9"/>
<line fill="none" stroke="#FFFFFF" stroke-width="1.5" strokeLinecap="round" stroke-linejoin="round" x1="13.6" y1="15.5" x2="19.7" y2="15.5"/>
<line fill="none" stroke="#FFFFFF" stroke-width="1.5" strokeLinecap="round" stroke-linejoin="round" x1="13.6" y1="12.2" x2="19.7" y2="12.2"/>
<line fill="none" stroke="#FFFFFF" stroke-width="1.5" strokeLinecap="round" stroke-linejoin="round" x1="13.6" y1="8.9" x2="19.7" y2="8.9"/>
<line fill="none" stroke="#FFFFFF" stroke-width="1.5" strokeLinecap="round" stroke-linejoin="round" x1="5.2" y1="14.5" x2="10" y2="14.5"/>
<line fill="none" stroke="#FFFFFF" stroke-width="1.5" strokeLinecap="round" stroke-linejoin="round" x1="5.2" y1="11.1" x2="10" y2="11.1"/>
<line fill="none" stroke="#FFFFFF" stroke-width="1.5" strokeLinecap="round" stroke-linejoin="round" x1="5.2" y1="7.8" x2="10" y2="7.8"/>
<line fill="none" stroke="#FFFFFF" stroke-width="1.5" strokeLinecap="round" stroke-linejoin="round" x1="5.2" y1="4.5" x2="10" y2="4.5"/>
<g>
	<polygon fill="none" stroke="#FFFFFF" stroke-width="1.5" strokeLinecap="round" stroke-linejoin="round" points="13.9,5.5 13.9,1.3 1.3,1.3 1.3,18.5 10.1,18.5 10.1,5.5 	"/>
	<polyline fill="none" stroke="#FFFFFF" stroke-width="1.5" strokeLinecap="round" stroke-linejoin="round" points="10.1,18.5 10.1,22.7 22.7,22.7 22.7,5.5 13.9,5.5 	"/>
	<polyline fill="none" stroke="#FFFFFF" stroke-width="1.5" strokeLinecap="round" stroke-linejoin="round" points="13.9,5.5 10.1,5.5 10.1,18.5 	"/>
</g>
</svg>
