<svg xmlns="http://www.w3.org/2000/svg" xmlns:xlink="http://www.w3.org/1999/xlink" preserveAspectRatio="xMidYMid meet" width="250" height="250" viewBox="0 0 250 250" style="width:100%;height:100%"><defs><animateTransform repeatCount="indefinite" dur="2s" begin="0s" xlink:href="#_R_G_L_8_G" fill="freeze" attributeName="transform" from="0" to="0" type="rotate" additive="sum" keyTimes="0;0.2;0.48;0.98;1" values="0;0;3;0;0" keySplines="0.333 0 0.667 1;0.333 0 0.667 1;0.333 0 0.667 1;0 0 0 0" calcMode="spline"/><animateTransform repeatCount="indefinite" dur="2s" begin="0s" xlink:href="#_R_G_L_8_G" fill="freeze" attributeName="transform" from="0.40453000000000006 0.40453000000000006" to="0.40453000000000006 0.40453000000000006" type="scale" additive="sum" keyTimes="0;0.2;0.48;0.98;1" values="0.40453000000000006 0.40453000000000006;0.40453000000000006 0.40453000000000006;0.41262 0.39644;0.40453000000000006 0.40453000000000006;0.40453000000000006 0.40453000000000006" keySplines="0.333 0 0.667 1;0.333 0 0.667 1;0.333 0 0.667 1;0 0 0 0" calcMode="spline"/><animateTransform repeatCount="indefinite" dur="2s" begin="0s" xlink:href="#_R_G_L_8_G" fill="freeze" attributeName="transform" from="-211.078 -421.906" to="-211.078 -421.906" type="translate" additive="sum" keyTimes="0;1" values="-211.078 -421.906;-211.078 -421.906" keySplines="0 0 1 1" calcMode="spline"/><animateMotion repeatCount="indefinite" dur="2s" begin="0s" xlink:href="#_R_G_L_7_G" fill="freeze" keyTimes="0;0.2;0.42;0.98;1" path="M92.98 243.55 C92.98,243.55 92.98,243.55 92.98,243.55 C92.98,246.88 92.98,263.55 92.98,263.55 C92.98,263.55 92.98,246.88 92.98,243.55 C92.98,243.55 92.98,243.55 92.98,243.55 " keyPoints="0;0;0.5;1;1" keySplines="0.333 0 0.667 1;0.333 0 0.667 1;0.333 0 0.667 1;0 0 0 0" calcMode="spline"/><animateTransform repeatCount="indefinite" dur="2s" begin="0s" xlink:href="#_R_G_L_7_G" fill="freeze" attributeName="transform" from="-29.75 -19.75" to="-29.75 -19.75" type="translate" additive="sum" keyTimes="0;1" values="-29.75 -19.75;-29.75 -19.75" keySplines="0 0 1 1" calcMode="spline"/><animateTransform repeatCount="indefinite" dur="2s" begin="0s" xlink:href="#_R_G_L_7_G_N_11_T_0" fill="freeze" attributeName="transform" from="0" to="0" type="rotate" additive="sum" keyTimes="0;0.2;0.48;0.98;1" values="0;0;3;0;0" keySplines="0.333 0 0.667 1;0.333 0 0.667 1;0.333 0 0.667 1;0 0 0 0" calcMode="spline"/><animateTransform repeatCount="indefinite" dur="2s" begin="0s" xlink:href="#_R_G_L_7_G_N_11_T_0" fill="freeze" attributeName="transform" from="0.40453000000000006 0.40453000000000006" to="0.40453000000000006 0.40453000000000006" type="scale" additive="sum" keyTimes="0;0.2;0.48;0.98;1" values="0.40453000000000006 0.40453000000000006;0.40453000000000006 0.40453000000000006;0.41262 0.39644;0.40453000000000006 0.40453000000000006;0.40453000000000006 0.40453000000000006" keySplines="0.333 0 0.667 1;0.333 0 0.667 1;0.333 0 0.667 1;0 0 0 0" calcMode="spline"/><animateTransform repeatCount="indefinite" dur="2s" begin="0s" xlink:href="#_R_G_L_7_G_N_11_T_0" fill="freeze" attributeName="transform" from="-211.078 -421.906" to="-211.078 -421.906" type="translate" additive="sum" keyTimes="0;1" values="-211.078 -421.906;-211.078 -421.906" keySplines="0 0 1 1" calcMode="spline"/><animateMotion repeatCount="indefinite" dur="2s" begin="0s" xlink:href="#_R_G_L_6_G" fill="freeze" keyTimes="0;0.2;0.42;0.98;1" path="M329.98 243.55 C329.98,243.55 329.98,243.55 329.98,243.55 C329.98,246.88 329.98,263.55 329.98,263.55 C329.98,263.55 329.98,246.88 329.98,243.55 C329.98,243.55 329.98,243.55 329.98,243.55 " keyPoints="0;0;0.5;1;1" keySplines="0.333 0 0.667 1;0.333 0 0.667 1;0.333 0 0.667 1;0 0 0 0" calcMode="spline"/><animateTransform repeatCount="indefinite" dur="2s" begin="0s" xlink:href="#_R_G_L_6_G" fill="freeze" attributeName="transform" from="-29.75 -19.75" to="-29.75 -19.75" type="translate" additive="sum" keyTimes="0;1" values="-29.75 -19.75;-29.75 -19.75" keySplines="0 0 1 1" calcMode="spline"/><animateTransform repeatCount="indefinite" dur="2s" begin="0s" xlink:href="#_R_G_L_6_G_N_11_T_0" fill="freeze" attributeName="transform" from="0" to="0" type="rotate" additive="sum" keyTimes="0;0.2;0.48;0.98;1" values="0;0;3;0;0" keySplines="0.333 0 0.667 1;0.333 0 0.667 1;0.333 0 0.667 1;0 0 0 0" calcMode="spline"/><animateTransform repeatCount="indefinite" dur="2s" begin="0s" xlink:href="#_R_G_L_6_G_N_11_T_0" fill="freeze" attributeName="transform" from="0.40453000000000006 0.40453000000000006" to="0.40453000000000006 0.40453000000000006" type="scale" additive="sum" keyTimes="0;0.2;0.48;0.98;1" values="0.40453000000000006 0.40453000000000006;0.40453000000000006 0.40453000000000006;0.41262 0.39644;0.40453000000000006 0.40453000000000006;0.40453000000000006 0.40453000000000006" keySplines="0.333 0 0.667 1;0.333 0 0.667 1;0.333 0 0.667 1;0 0 0 0" calcMode="spline"/><animateTransform repeatCount="indefinite" dur="2s" begin="0s" xlink:href="#_R_G_L_6_G_N_11_T_0" fill="freeze" attributeName="transform" from="-211.078 -421.906" to="-211.078 -421.906" type="translate" additive="sum" keyTimes="0;1" values="-211.078 -421.906;-211.078 -421.906" keySplines="0 0 1 1" calcMode="spline"/><animateMotion repeatCount="indefinite" dur="2s" begin="0s" xlink:href="#_R_G_L_5_G" fill="freeze" keyTimes="0;1" path="M0.1 -40.97 C0.1,-40.97 0.1,-40.97 0.1,-40.97 " keyPoints="0;1" keySplines="0 0 0 0" calcMode="spline"/><animateTransform repeatCount="indefinite" dur="2s" begin="0s" xlink:href="#_R_G_L_5_G" fill="freeze" attributeName="transform" from="1 1" to="1 1" type="scale" additive="sum" keyTimes="0;1" values="1 1;1 1" keySplines="0 0 0 0" calcMode="spline"/><animateTransform repeatCount="indefinite" dur="2s" begin="0s" xlink:href="#_R_G_L_5_G" fill="freeze" attributeName="transform" from="-71.976 -20" to="-71.976 -20" type="translate" additive="sum" keyTimes="0;1" values="-71.976 -20;-71.976 -20" keySplines="0 0 1 1" calcMode="spline"/><animateMotion repeatCount="indefinite" dur="2s" begin="0s" xlink:href="#_R_G_L_5_G_N_10_T_0" fill="freeze" keyTimes="0;0.2;0.42;0.98;1" path="M210.98 224.8 C210.98,224.8 210.98,224.8 210.98,224.8 C210.98,233.63 210.98,277.8 210.98,277.8 C210.98,277.8 210.98,233.63 210.98,224.8 C210.98,224.8 210.98,224.8 210.98,224.8 " keyPoints="0;0;0.5;1;1" keySplines="0.333 0 0.667 1;0.333 0 0.667 1;0.167 0 0.833 1;0 0 0 0" calcMode="spline"/><animateTransform repeatCount="indefinite" dur="2s" begin="0s" xlink:href="#_R_G_L_5_G_N_10_N_11_T_0" fill="freeze" attributeName="transform" from="0" to="0" type="rotate" additive="sum" keyTimes="0;0.2;0.48;0.98;1" values="0;0;3;0;0" keySplines="0.333 0 0.667 1;0.333 0 0.667 1;0.333 0 0.667 1;0 0 0 0" calcMode="spline"/><animateTransform repeatCount="indefinite" dur="2s" begin="0s" xlink:href="#_R_G_L_5_G_N_10_N_11_T_0" fill="freeze" attributeName="transform" from="0.40453000000000006 0.40453000000000006" to="0.40453000000000006 0.40453000000000006" type="scale" additive="sum" keyTimes="0;0.2;0.48;0.98;1" values="0.40453000000000006 0.40453000000000006;0.40453000000000006 0.40453000000000006;0.41262 0.39644;0.40453000000000006 0.40453000000000006;0.40453000000000006 0.40453000000000006" keySplines="0.333 0 0.667 1;0.333 0 0.667 1;0.333 0 0.667 1;0 0 0 0" calcMode="spline"/><animateTransform repeatCount="indefinite" dur="2s" begin="0s" xlink:href="#_R_G_L_5_G_N_10_N_11_T_0" fill="freeze" attributeName="transform" from="-211.078 -421.906" to="-211.078 -421.906" type="translate" additive="sum" keyTimes="0;1" values="-211.078 -421.906;-211.078 -421.906" keySplines="0 0 1 1" calcMode="spline"/><animateMotion repeatCount="indefinite" dur="2s" begin="0s" xlink:href="#_R_G_L_4_G" fill="freeze" keyTimes="0;0.2;0.42;0.98;1" path="M108.4 166.05 C108.4,166.05 108.4,166.05 108.4,166.05 C108.4,167.38 108.4,174.05 108.4,174.05 C108.4,174.05 108.4,167.38 108.4,166.05 C108.4,166.05 108.4,166.05 108.4,166.05 " keyPoints="0;0;0.5;1;1" keySplines="0.333 0 0.667 1;0.333 0 0.667 1;0.333 0 0.667 1;0 0 0 0" calcMode="spline"/><animateTransform repeatCount="indefinite" dur="2s" begin="0s" xlink:href="#_R_G_L_4_G" fill="freeze" attributeName="transform" from="-17.75 -24.25" to="-17.75 -24.25" type="translate" additive="sum" keyTimes="0;1" values="-17.75 -24.25;-17.75 -24.25" keySplines="0 0 1 1" calcMode="spline"/><animateTransform repeatCount="indefinite" dur="2s" begin="0s" xlink:href="#_R_G_L_4_G_N_11_T_0" fill="freeze" attributeName="transform" from="0" to="0" type="rotate" additive="sum" keyTimes="0;0.2;0.48;0.98;1" values="0;0;3;0;0" keySplines="0.333 0 0.667 1;0.333 0 0.667 1;0.333 0 0.667 1;0 0 0 0" calcMode="spline"/><animateTransform repeatCount="indefinite" dur="2s" begin="0s" xlink:href="#_R_G_L_4_G_N_11_T_0" fill="freeze" attributeName="transform" from="0.40453000000000006 0.40453000000000006" to="0.40453000000000006 0.40453000000000006" type="scale" additive="sum" keyTimes="0;0.2;0.48;0.98;1" values="0.40453000000000006 0.40453000000000006;0.40453000000000006 0.40453000000000006;0.41262 0.39644;0.40453000000000006 0.40453000000000006;0.40453000000000006 0.40453000000000006" keySplines="0.333 0 0.667 1;0.333 0 0.667 1;0.333 0 0.667 1;0 0 0 0" calcMode="spline"/><animateTransform repeatCount="indefinite" dur="2s" begin="0s" xlink:href="#_R_G_L_4_G_N_11_T_0" fill="freeze" attributeName="transform" from="-211.078 -421.906" to="-211.078 -421.906" type="translate" additive="sum" keyTimes="0;1" values="-211.078 -421.906;-211.078 -421.906" keySplines="0 0 1 1" calcMode="spline"/><animateMotion repeatCount="indefinite" dur="2s" begin="0s" xlink:href="#_R_G_L_3_G" fill="freeze" keyTimes="0;0.2;0.42;0.98;1" path="M314.4 166.05 C314.4,166.05 314.4,166.05 314.4,166.05 C314.4,167.38 314.4,174.05 314.4,174.05 C314.4,174.05 314.4,167.38 314.4,166.05 C314.4,166.05 314.4,166.05 314.4,166.05 " keyPoints="0;0;0.5;1;1" keySplines="0.333 0 0.667 1;0.333 0 0.667 1;0.333 0 0.667 1;0 0 0 0" calcMode="spline"/><animateTransform repeatCount="indefinite" dur="2s" begin="0s" xlink:href="#_R_G_L_3_G" fill="freeze" attributeName="transform" from="-17.75 -24.25" to="-17.75 -24.25" type="translate" additive="sum" keyTimes="0;1" values="-17.75 -24.25;-17.75 -24.25" keySplines="0 0 1 1" calcMode="spline"/><animateTransform repeatCount="indefinite" dur="2s" begin="0s" xlink:href="#_R_G_L_3_G_N_11_T_0" fill="freeze" attributeName="transform" from="0" to="0" type="rotate" additive="sum" keyTimes="0;0.2;0.48;0.98;1" values="0;0;3;0;0" keySplines="0.333 0 0.667 1;0.333 0 0.667 1;0.333 0 0.667 1;0 0 0 0" calcMode="spline"/><animateTransform repeatCount="indefinite" dur="2s" begin="0s" xlink:href="#_R_G_L_3_G_N_11_T_0" fill="freeze" attributeName="transform" from="0.40453000000000006 0.40453000000000006" to="0.40453000000000006 0.40453000000000006" type="scale" additive="sum" keyTimes="0;0.2;0.48;0.98;1" values="0.40453000000000006 0.40453000000000006;0.40453000000000006 0.40453000000000006;0.41262 0.39644;0.40453000000000006 0.40453000000000006;0.40453000000000006 0.40453000000000006" keySplines="0.333 0 0.667 1;0.333 0 0.667 1;0.333 0 0.667 1;0 0 0 0" calcMode="spline"/><animateTransform repeatCount="indefinite" dur="2s" begin="0s" xlink:href="#_R_G_L_3_G_N_11_T_0" fill="freeze" attributeName="transform" from="-211.078 -421.906" to="-211.078 -421.906" type="translate" additive="sum" keyTimes="0;1" values="-211.078 -421.906;-211.078 -421.906" keySplines="0 0 1 1" calcMode="spline"/><animateMotion repeatCount="indefinite" dur="2s" begin="0s" xlink:href="#_R_G_L_2_G_N_2_T_0" fill="freeze" keyTimes="0;0.2;0.42;0.98;1" path="M210.98 234.8 C210.98,234.8 210.98,234.8 210.98,234.8 C210.98,233.63 210.98,227.8 210.98,227.8 C210.98,227.8 210.98,233.63 210.98,234.8 C210.98,234.8 210.98,234.8 210.98,234.8 " keyPoints="0;0;0.5;1;1" keySplines="0.333 0 0.667 1;0.333 0 0.667 1;0.167 0 0.667 1;0 0 0 0" calcMode="spline"/><animateTransform repeatCount="indefinite" dur="2s" begin="0s" xlink:href="#_R_G_L_2_G_N_2_N_11_T_0" fill="freeze" attributeName="transform" from="0" to="0" type="rotate" additive="sum" keyTimes="0;0.2;0.48;0.98;1" values="0;0;3;0;0" keySplines="0.333 0 0.667 1;0.333 0 0.667 1;0.333 0 0.667 1;0 0 0 0" calcMode="spline"/><animateTransform repeatCount="indefinite" dur="2s" begin="0s" xlink:href="#_R_G_L_2_G_N_2_N_11_T_0" fill="freeze" attributeName="transform" from="0.40453000000000006 0.40453000000000006" to="0.40453000000000006 0.40453000000000006" type="scale" additive="sum" keyTimes="0;0.2;0.48;0.98;1" values="0.40453000000000006 0.40453000000000006;0.40453000000000006 0.40453000000000006;0.41262 0.39644;0.40453000000000006 0.40453000000000006;0.40453000000000006 0.40453000000000006" keySplines="0.333 0 0.667 1;0.333 0 0.667 1;0.333 0 0.667 1;0 0 0 0" calcMode="spline"/><animateTransform repeatCount="indefinite" dur="2s" begin="0s" xlink:href="#_R_G_L_2_G_N_2_N_11_T_0" fill="freeze" attributeName="transform" from="-211.078 -421.906" to="-211.078 -421.906" type="translate" additive="sum" keyTimes="0;1" values="-211.078 -421.906;-211.078 -421.906" keySplines="0 0 1 1" calcMode="spline"/><animateMotion repeatCount="indefinite" dur="2s" begin="0s" xlink:href="#_R_G_L_1_G_N_2_T_0" fill="freeze" keyTimes="0;0.2;0.42;0.98;1" path="M210.98 234.8 C210.98,234.8 210.98,234.8 210.98,234.8 C210.98,233.63 210.98,227.8 210.98,227.8 C210.98,227.8 210.98,233.63 210.98,234.8 C210.98,234.8 210.98,234.8 210.98,234.8 " keyPoints="0;0;0.5;1;1" keySplines="0.333 0 0.667 1;0.333 0 0.667 1;0.167 0 0.667 1;0 0 0 0" calcMode="spline"/><animateTransform repeatCount="indefinite" dur="2s" begin="0s" xlink:href="#_R_G_L_1_G_N_2_N_11_T_0" fill="freeze" attributeName="transform" from="0" to="0" type="rotate" additive="sum" keyTimes="0;0.2;0.48;0.98;1" values="0;0;3;0;0" keySplines="0.333 0 0.667 1;0.333 0 0.667 1;0.333 0 0.667 1;0 0 0 0" calcMode="spline"/><animateTransform repeatCount="indefinite" dur="2s" begin="0s" xlink:href="#_R_G_L_1_G_N_2_N_11_T_0" fill="freeze" attributeName="transform" from="0.40453000000000006 0.40453000000000006" to="0.40453000000000006 0.40453000000000006" type="scale" additive="sum" keyTimes="0;0.2;0.48;0.98;1" values="0.40453000000000006 0.40453000000000006;0.40453000000000006 0.40453000000000006;0.41262 0.39644;0.40453000000000006 0.40453000000000006;0.40453000000000006 0.40453000000000006" keySplines="0.333 0 0.667 1;0.333 0 0.667 1;0.333 0 0.667 1;0 0 0 0" calcMode="spline"/><animateTransform repeatCount="indefinite" dur="2s" begin="0s" xlink:href="#_R_G_L_1_G_N_2_N_11_T_0" fill="freeze" attributeName="transform" from="-211.078 -421.906" to="-211.078 -421.906" type="translate" additive="sum" keyTimes="0;1" values="-211.078 -421.906;-211.078 -421.906" keySplines="0 0 1 1" calcMode="spline"/><animateMotion repeatCount="indefinite" dur="2s" begin="0s" xlink:href="#_R_G_L_0_G_N_10_T_0" fill="freeze" keyTimes="0;0.2;0.42;0.98;1" path="M210.98 224.8 C210.98,224.8 210.98,224.8 210.98,224.8 C210.98,233.63 210.98,277.8 210.98,277.8 C210.98,277.8 210.98,233.63 210.98,224.8 C210.98,224.8 210.98,224.8 210.98,224.8 " keyPoints="0;0;0.5;1;1" keySplines="0.333 0 0.667 1;0.333 0 0.667 1;0.167 0 0.833 1;0 0 0 0" calcMode="spline"/><animateTransform repeatCount="indefinite" dur="2s" begin="0s" xlink:href="#_R_G_L_0_G_N_10_N_11_T_0" fill="freeze" attributeName="transform" from="0" to="0" type="rotate" additive="sum" keyTimes="0;0.2;0.48;0.98;1" values="0;0;3;0;0" keySplines="0.333 0 0.667 1;0.333 0 0.667 1;0.333 0 0.667 1;0 0 0 0" calcMode="spline"/><animateTransform repeatCount="indefinite" dur="2s" begin="0s" xlink:href="#_R_G_L_0_G_N_10_N_11_T_0" fill="freeze" attributeName="transform" from="0.40453000000000006 0.40453000000000006" to="0.40453000000000006 0.40453000000000006" type="scale" additive="sum" keyTimes="0;0.2;0.48;0.98;1" values="0.40453000000000006 0.40453000000000006;0.40453000000000006 0.40453000000000006;0.41262 0.39644;0.40453000000000006 0.40453000000000006;0.40453000000000006 0.40453000000000006" keySplines="0.333 0 0.667 1;0.333 0 0.667 1;0.333 0 0.667 1;0 0 0 0" calcMode="spline"/><animateTransform repeatCount="indefinite" dur="2s" begin="0s" xlink:href="#_R_G_L_0_G_N_10_N_11_T_0" fill="freeze" attributeName="transform" from="-211.078 -421.906" to="-211.078 -421.906" type="translate" additive="sum" keyTimes="0;1" values="-211.078 -421.906;-211.078 -421.906" keySplines="0 0 1 1" calcMode="spline"/><animate attributeType="XML" attributeName="opacity" dur="2s" from="0" to="1" xlink:href="#time_group"/></defs><g id="_R_G"><g id="_R_G_L_8_G" transform=" translate(125.039, 206.759)"><path id="_R_G_L_8_G_D_0_P_0" fill="#ffda54" fill-opacity="1" fill-rule="nonzero" d=" M421.91 211.08 C421.91,327.52 327.52,421.91 211.08,421.91 C94.64,421.91 0.25,327.52 0.25,211.08 C0.25,94.64 94.64,0.25 211.08,0.25 C327.52,0.25 421.91,94.64 421.91,211.08z "/></g><g id="_R_G_L_7_G_N_11_T_0" transform=" translate(125.039, 206.759)"><g id="_R_G_L_7_G"><path id="_R_G_L_7_G_D_0_P_0" fill="#ff4a17" fill-opacity="1" fill-rule="nonzero" d=" M59.25 19.94 C59.25,30.61 50.61,39.25 39.94,39.25 C39.94,39.25 19.56,39.25 19.56,39.25 C8.89,39.25 0.25,30.61 0.25,19.94 C0.25,19.94 0.25,19.56 0.25,19.56 C0.25,8.89 8.89,0.25 19.56,0.25 C19.56,0.25 39.94,0.25 39.94,0.25 C50.61,0.25 59.25,8.89 59.25,19.56 C59.25,19.56 59.25,19.94 59.25,19.94z "/></g></g><g id="_R_G_L_6_G_N_11_T_0" transform=" translate(125.039, 206.759)"><g id="_R_G_L_6_G"><path id="_R_G_L_6_G_D_0_P_0" fill="#ff4a17" fill-opacity="1" fill-rule="nonzero" d=" M59.25 19.94 C59.25,30.61 50.61,39.25 39.94,39.25 C39.94,39.25 19.56,39.25 19.56,39.25 C8.89,39.25 0.25,30.61 0.25,19.94 C0.25,19.94 0.25,19.56 0.25,19.56 C0.25,8.89 8.89,0.25 19.56,0.25 C19.56,0.25 39.94,0.25 39.94,0.25 C50.61,0.25 59.25,8.89 59.25,19.56 C59.25,19.56 59.25,19.94 59.25,19.94z "/></g></g><g id="_R_G_L_5_G_N_10_N_11_T_0" transform=" translate(125.039, 206.759)"><g id="_R_G_L_5_G_N_10_T_0"><g id="_R_G_L_5_G"><path id="_R_G_L_5_G_D_0_P_0" fill="#ffffff" fill-opacity="1" fill-rule="nonzero" d=" M71.85 85.41 C71.85,85.41 71.77,85.41 71.77,85.41 C43.22,85.41 20,61.7 20,33.15 C20,33.15 20,20 20,20 C20,20 123.95,20 123.95,20 C123.95,20 123.95,33.15 123.95,33.15 C123.95,61.7 100.39,85.41 71.85,85.41z "/><path id="_R_G_L_5_G_D_1_P_0" stroke="#000000" stroke-linecap="round" stroke-linejoin="round" fill="none" stroke-width="8" stroke-opacity="1" d=" M71.85 85.41 C71.85,85.41 71.77,85.41 71.77,85.41 C43.22,85.41 20,61.7 20,33.15 C20,33.15 20,20 20,20 C20,20 123.95,20 123.95,20 C123.95,20 123.95,33.15 123.95,33.15 C123.95,61.7 100.39,85.41 71.85,85.41z "/></g></g></g><g id="_R_G_L_4_G_N_11_T_0" transform=" translate(125.039, 206.759)"><g id="_R_G_L_4_G"><path id="_R_G_L_4_G_D_0_P_0" fill="#000000" fill-opacity="1" fill-rule="nonzero" d=" M35.25 30.99 C35.25,40.52 27.52,48.25 17.99,48.25 C17.99,48.25 17.52,48.25 17.52,48.25 C7.98,48.25 0.25,40.52 0.25,30.99 C0.25,30.99 0.25,17.52 0.25,17.52 C0.25,7.98 7.98,0.25 17.52,0.25 C17.52,0.25 17.99,0.25 17.99,0.25 C27.52,0.25 35.25,7.98 35.25,17.52 C35.25,17.52 35.25,30.99 35.25,30.99z "/><path id="_R_G_L_4_G_D_1_P_0" fill="#ffffff" fill-opacity="1" fill-rule="nonzero" d=" M26.69 8.71 C26.69,13.39 22.9,17.17 18.23,17.17 C13.56,17.17 9.77,13.39 9.77,8.71 C9.77,4.04 13.56,0.25 18.23,0.25 C22.9,0.25 26.69,4.04 26.69,8.71z "/></g></g><g id="_R_G_L_3_G_N_11_T_0" transform=" translate(125.039, 206.759)"><g id="_R_G_L_3_G"><path id="_R_G_L_3_G_D_0_P_0" fill="#000000" fill-opacity="1" fill-rule="nonzero" d=" M35.25 17.52 C35.25,7.98 27.52,0.25 17.99,0.25 C17.99,0.25 17.52,0.25 17.52,0.25 C7.98,0.25 0.25,7.98 0.25,17.52 C0.25,17.52 0.25,30.99 0.25,30.99 C0.25,40.52 7.98,48.25 17.52,48.25 C17.52,48.25 17.99,48.25 17.99,48.25 C27.52,48.25 35.25,40.52 35.25,30.99 C35.25,30.99 35.25,17.52 35.25,17.52z "/><path id="_R_G_L_3_G_D_1_P_0" fill="#ffffff" fill-opacity="1" fill-rule="nonzero" d=" M26.69 8.71 C26.69,13.39 22.9,17.17 18.23,17.17 C13.56,17.17 9.77,13.39 9.77,8.71 C9.77,4.04 13.56,0.25 18.23,0.25 C22.9,0.25 26.69,4.04 26.69,8.71z "/></g></g><g id="_R_G_L_2_G_N_2_N_11_T_0" transform=" translate(125.039, 206.759)"><g id="_R_G_L_2_G_N_2_T_0"><g id="_R_G_L_2_G" transform=" translate(-100.721, -141.75) translate(-50.737, -30.879)"><path id="_R_G_L_2_G_D_0_P_0" stroke="#000000" stroke-linecap="round" stroke-linejoin="round" fill="none" stroke-width="8" stroke-opacity="1" d=" M20 41.76 C35.37,25.66 60.71,20 81.47,28.02 "/></g></g></g><g id="_R_G_L_1_G_N_2_N_11_T_0" transform=" translate(125.039, 206.759)"><g id="_R_G_L_1_G_N_2_T_0"><g id="_R_G_L_1_G" transform=" translate(101.279, -141.75) scale(-1, 1) translate(-50.737, -30.879)"><path id="_R_G_L_1_G_D_0_P_0" stroke="#040404" stroke-linecap="round" stroke-linejoin="round" fill="none" stroke-width="8" stroke-opacity="1" d=" M17.25 45.98 C29.52,56.13 47.52,62.63 79.75,59.25 "/></g></g></g><g id="_R_G_L_0_G_N_10_N_11_T_0" transform=" translate(125.039, 206.759)"><g id="_R_G_L_0_G_N_10_T_0"><g id="_R_G_L_0_G" transform=" translate(0, -5) translate(-309, -309)"><g id="_R_G_L_0_G_L_2_G" transform=" translate(308.806, 228.499) translate(-173.827, -10.486)"><path id="_R_G_L_0_G_L_2_G_D_0_P_0" fill="#000000" fill-opacity="1" fill-rule="nonzero" d=" M335.07 20.72 C335.07,20.72 12.58,20.72 12.58,20.72 C5.77,20.72 0.25,15.2 0.25,8.39 C0.25,3.9 3.89,0.25 8.39,0.25 C8.39,0.25 339.26,0.25 339.26,0.25 C343.76,0.25 347.4,3.9 347.4,8.39 C347.4,15.2 341.88,20.72 335.07,20.72z "/></g><g id="_R_G_L_0_G_L_1_G" transform=" translate(398.851, 255.37) translate(-68.73, -48.45)"><path id="_R_G_L_0_G_L_1_G_D_0_P_0" fill="#000000" fill-opacity="1" fill-rule="nonzero" d=" M137.21 18.16 C137.21,18.16 137.21,36.59 137.21,36.59 C137.21,42.81 136.26,48.81 134.51,54.46 C132.8,59.95 130.32,65.1 127.2,69.79 C124.85,73.34 122.13,76.62 119.09,79.58 C111.13,87.35 101.02,92.92 89.73,95.32 C85.68,96.19 81.47,96.65 77.15,96.65 C65.84,96.65 55.11,94.2 45.43,89.82 C35.56,85.35 26.81,78.85 19.71,70.86 C15.65,66.33 12.14,61.3 9.26,55.91 C6.08,49.95 3.67,43.54 2.14,36.78 C0.9,31.31 0.25,25.61 0.25,19.75 C0.25,19.75 0.25,18.16 0.25,18.16 C0.25,14.64 1.26,11.36 3.01,8.6 C6.18,3.58 11.78,0.25 18.16,0.25 C18.16,0.25 119.3,0.25 119.3,0.25 C123.68,0.25 127.71,1.82 130.81,4.45 C134.72,7.73 137.21,12.65 137.21,18.16z "/></g><g id="_R_G_L_0_G_L_0_G" transform=" translate(218.761, 255.37) translate(-68.73, -48.45)"><path id="_R_G_L_0_G_L_0_G_D_0_P_0" fill="#000000" fill-opacity="1" fill-rule="nonzero" d=" M137.21 18.16 C137.21,18.16 137.21,19.75 137.21,19.75 C137.21,25.61 136.56,31.31 135.32,36.78 C134.39,40.89 133.14,44.86 131.57,48.69 C130.57,51.16 129.44,53.57 128.19,55.91 C126.82,58.49 125.29,60.99 123.63,63.39 C121.83,66 119.87,68.5 117.75,70.86 C117.04,71.66 116.31,72.45 115.56,73.22 C108.88,80.14 100.91,85.8 92.03,89.82 C90.88,90.34 89.72,90.83 88.54,91.3 C79.8,94.75 70.28,96.65 60.31,96.65 C27.14,96.65 0.25,69.76 0.25,36.59 C0.25,36.59 0.25,18.16 0.25,18.16 C0.25,13.92 1.73,10.02 4.2,6.96 C4.92,6.04 5.74,5.2 6.64,4.45 C9.75,1.82 13.78,0.25 18.16,0.25 C18.16,0.25 119.3,0.25 119.3,0.25 C129.2,0.25 137.21,8.26 137.21,18.16z "/></g></g></g></g></g><g id="time_group"/></svg>