<svg xmlns="http://www.w3.org/2000/svg" xmlns:xlink="http://www.w3.org/1999/xlink" preserveAspectRatio="xMidYMid meet" width="250" height="250" viewBox="0 0 250 250" style="width:100%;height:100%"><defs><animateMotion repeatCount="indefinite" dur="4.8s" begin="0s" xlink:href="#_R_G_L_7_G_N_7_T_0" fill="freeze" keyTimes="0;0.3892833;0.5144083;0.6166667;1" path="M125 125 C125,125 125,125 125,125 C125,124.39 125,121.36 125,121.36 C125,121.36 125,124.39 125,125 C125,125 125,125 125,125 " keyPoints="0;0;0.5;1;1" keySplines="0.333 0 0.667 1;0.333 0 0.667 1;0.167 0 0.833 1;0 0 0 0" calcMode="spline"/><animateTransform repeatCount="indefinite" dur="4.8s" begin="0s" xlink:href="#_R_G_L_7_G_N_7_T_0" fill="freeze" attributeName="transform" from="0.40453000000000006 0.40453000000000006" to="0.40453000000000006 0.40453000000000006" type="scale" additive="sum" keyTimes="0;1" values="0.40453000000000006 0.40453000000000006;0.40453000000000006 0.40453000000000006" keySplines="0 0 1 1" calcMode="spline"/><animateMotion repeatCount="indefinite" dur="4.8s" begin="0s" xlink:href="#_R_G_L_6_G_N_7_T_0" fill="freeze" keyTimes="0;0.3892833;0.5144083;0.6166667;1" path="M125 125 C125,125 125,125 125,125 C125,124.39 125,121.36 125,121.36 C125,121.36 125,124.39 125,125 C125,125 125,125 125,125 " keyPoints="0;0;0.5;1;1" keySplines="0.333 0 0.667 1;0.333 0 0.667 1;0.167 0 0.833 1;0 0 0 0" calcMode="spline"/><animateTransform repeatCount="indefinite" dur="4.8s" begin="0s" xlink:href="#_R_G_L_6_G_N_7_T_0" fill="freeze" attributeName="transform" from="0.40453000000000006 0.40453000000000006" to="0.40453000000000006 0.40453000000000006" type="scale" additive="sum" keyTimes="0;1" values="0.40453000000000006 0.40453000000000006;0.40453000000000006 0.40453000000000006" keySplines="0 0 1 1" calcMode="spline"/><animateMotion repeatCount="indefinite" dur="4.8s" begin="0s" xlink:href="#_R_G_L_5_G_N_7_T_0" fill="freeze" keyTimes="0;0.3892833;0.5144083;0.6166667;1" path="M125 125 C125,125 125,125 125,125 C125,124.39 125,121.36 125,121.36 C125,121.36 125,124.39 125,125 C125,125 125,125 125,125 " keyPoints="0;0;0.5;1;1" keySplines="0.333 0 0.667 1;0.333 0 0.667 1;0.167 0 0.833 1;0 0 0 0" calcMode="spline"/><animateTransform repeatCount="indefinite" dur="4.8s" begin="0s" xlink:href="#_R_G_L_5_G_N_7_T_0" fill="freeze" attributeName="transform" from="0.40453000000000006 0.40453000000000006" to="0.40453000000000006 0.40453000000000006" type="scale" additive="sum" keyTimes="0;1" values="0.40453000000000006 0.40453000000000006;0.40453000000000006 0.40453000000000006" keySplines="0 0 1 1" calcMode="spline"/><animateMotion repeatCount="indefinite" dur="4.8s" begin="0s" xlink:href="#_R_G_L_4_G_N_7_T_0" fill="freeze" keyTimes="0;0.3892833;0.5144083;0.6166667;1" path="M125 125 C125,125 125,125 125,125 C125,124.39 125,121.36 125,121.36 C125,121.36 125,124.39 125,125 C125,125 125,125 125,125 " keyPoints="0;0;0.5;1;1" keySplines="0.333 0 0.667 1;0.333 0 0.667 1;0.167 0 0.833 1;0 0 0 0" calcMode="spline"/><animateTransform repeatCount="indefinite" dur="4.8s" begin="0s" xlink:href="#_R_G_L_4_G_N_7_T_0" fill="freeze" attributeName="transform" from="0.40453000000000006 0.40453000000000006" to="0.40453000000000006 0.40453000000000006" type="scale" additive="sum" keyTimes="0;1" values="0.40453000000000006 0.40453000000000006;0.40453000000000006 0.40453000000000006" keySplines="0 0 1 1" calcMode="spline"/><animateMotion repeatCount="indefinite" dur="4.8s" begin="0s" xlink:href="#_R_G_L_3_G_N_7_T_0" fill="freeze" keyTimes="0;0.3892833;0.5144083;0.6166667;1" path="M125 125 C125,125 125,125 125,125 C125,124.39 125,121.36 125,121.36 C125,121.36 125,124.39 125,125 C125,125 125,125 125,125 " keyPoints="0;0;0.5;1;1" keySplines="0.333 0 0.667 1;0.333 0 0.667 1;0.167 0 0.833 1;0 0 0 0" calcMode="spline"/><animateTransform repeatCount="indefinite" dur="4.8s" begin="0s" xlink:href="#_R_G_L_3_G_N_7_T_0" fill="freeze" attributeName="transform" from="0.40453000000000006 0.40453000000000006" to="0.40453000000000006 0.40453000000000006" type="scale" additive="sum" keyTimes="0;1" values="0.40453000000000006 0.40453000000000006;0.40453000000000006 0.40453000000000006" keySplines="0 0 1 1" calcMode="spline"/><animate repeatCount="indefinite" dur="4.8s" begin="0s" xlink:href="#_R_G_L_2_G_D_0_P_0" fill="freeze" attributeName="d" attributeType="XML" from="M15 15 C15,15 67,15 67,15 " to="M15 15 C15,15 67,15 67,15 " keyTimes="0;0.4101333;0.5144083;0.6166667;1" values="M15 15 C15,15 67,15 67,15 ;M15 15 C15,15 67,15 67,15 ;M15 15 C15,15 67,15 67,15 ;M15 15 C15,15 67,15 67,15 ;M15 15 C15,15 67,15 67,15 " keySplines="0.333 0 0.667 1;0.333 0 0.667 1;0.167 0 0.833 1;0 0 0 0" calcMode="spline"/><animateMotion repeatCount="indefinite" dur="4.8s" begin="0s" xlink:href="#_R_G_L_2_G" fill="freeze" keyTimes="0;0.4101333;0.4866;0.6166667;1" path="M-1 37 C-1,37 -1,37 -1,37 C0.83,37 10,37 10,37 C10,37 0.83,37 -1,37 C-1,37 -1,37 -1,37 " keyPoints="0;0;0.5;1;1" keySplines="0.333 0 0.667 1;0.333 0 0.667 1;0.167 0 0.833 1;0 0 0 0" calcMode="spline"/><animateTransform repeatCount="indefinite" dur="4.8s" begin="0s" xlink:href="#_R_G_L_2_G" fill="freeze" attributeName="transform" from="0" to="0" type="rotate" additive="sum" keyTimes="0;0.4083333;0.5166667;0.6166667;1" values="0;0;20;0;0" keySplines="0.167 0.167 0.833 0.833;0.167 0.167 0.833 0.833;0.167 0.167 0.833 0.833;0 0 0 0" calcMode="spline"/><animateTransform repeatCount="indefinite" dur="4.8s" begin="0s" xlink:href="#_R_G_L_2_G" fill="freeze" attributeName="transform" from="1.16 1.16" to="1.16 1.16" type="scale" additive="sum" keyTimes="0;1" values="1.16 1.16;1.16 1.16" keySplines="0 0 1 1" calcMode="spline"/><animateTransform repeatCount="indefinite" dur="4.8s" begin="0s" xlink:href="#_R_G_L_2_G" fill="freeze" attributeName="transform" from="-41 -15" to="-41 -15" type="translate" additive="sum" keyTimes="0;1" values="-41 -15;-41 -15" keySplines="0 0 1 1" calcMode="spline"/><animateMotion repeatCount="indefinite" dur="4.8s" begin="0s" xlink:href="#_R_G_L_2_G_N_7_T_0" fill="freeze" keyTimes="0;0.3892833;0.5144083;0.6166667;1" path="M125 125 C125,125 125,125 125,125 C125,124.39 125,121.36 125,121.36 C125,121.36 125,124.39 125,125 C125,125 125,125 125,125 " keyPoints="0;0;0.5;1;1" keySplines="0.333 0 0.667 1;0.333 0 0.667 1;0.167 0 0.833 1;0 0 0 0" calcMode="spline"/><animateTransform repeatCount="indefinite" dur="4.8s" begin="0s" xlink:href="#_R_G_L_2_G_N_7_T_0" fill="freeze" attributeName="transform" from="0.40453000000000006 0.40453000000000006" to="0.40453000000000006 0.40453000000000006" type="scale" additive="sum" keyTimes="0;1" values="0.40453000000000006 0.40453000000000006;0.40453000000000006 0.40453000000000006" keySplines="0 0 1 1" calcMode="spline"/><animate repeatCount="indefinite" dur="4.8s" begin="0s" xlink:href="#_R_G_L_1_G_D_0_P_0" fill="freeze" attributeName="d" attributeType="XML" from="M20.31 17.81 C20.31,17.81 30.13,17.84 46.31,17.82 C57,17.8 58.5,17.84 68.75,17.88 " to="M20.31 17.81 C20.31,17.81 30.13,17.84 46.31,17.82 C57,17.8 58.5,17.84 68.75,17.88 " keyTimes="0;0.4101333;0.5144083;0.6166667;1" values="M20.31 17.81 C20.31,17.81 30.13,17.84 46.31,17.82 C57,17.8 58.5,17.84 68.75,17.88 ;M20.31 17.81 C20.31,17.81 30.13,17.84 46.31,17.82 C57,17.8 58.5,17.84 68.75,17.88 ;M12.75 28.5 C12.75,28.5 28.14,32.49 46.63,28.98 C56.38,27.13 66,23.5 76,15 ;M20.31 17.81 C20.31,17.81 30.13,17.84 46.31,17.82 C57,17.8 58.5,17.84 68.75,17.88 ;M20.31 17.81 C20.31,17.81 30.13,17.84 46.31,17.82 C57,17.8 58.5,17.84 68.75,17.88 " keySplines="0.167 0.167 0.363 1;0.167 0.167 0.363 1;0.167 0 0.833 0.833;0 0 0 0" calcMode="spline"/><animateMotion repeatCount="indefinite" dur="4.8s" begin="0s" xlink:href="#_R_G_L_1_G_N_7_T_0" fill="freeze" keyTimes="0;0.3892833;0.5144083;0.6166667;1" path="M125 125 C125,125 125,125 125,125 C125,124.39 125,121.36 125,121.36 C125,121.36 125,124.39 125,125 C125,125 125,125 125,125 " keyPoints="0;0;0.5;1;1" keySplines="0.333 0 0.667 1;0.333 0 0.667 1;0.167 0 0.833 1;0 0 0 0" calcMode="spline"/><animateTransform repeatCount="indefinite" dur="4.8s" begin="0s" xlink:href="#_R_G_L_1_G_N_7_T_0" fill="freeze" attributeName="transform" from="0.40453000000000006 0.40453000000000006" to="0.40453000000000006 0.40453000000000006" type="scale" additive="sum" keyTimes="0;1" values="0.40453000000000006 0.40453000000000006;0.40453000000000006 0.40453000000000006" keySplines="0 0 1 1" calcMode="spline"/><animate repeatCount="indefinite" dur="4.8s" begin="0s" xlink:href="#_R_G_L_0_G_D_0_P_0" fill="freeze" attributeName="d" attributeType="XML" from="M21 17 C21,17 28.06,17 46.57,16.98 C55,16.97 55.06,17 72.19,17 " to="M21 17 C21,17 28.06,17 46.57,16.98 C55,16.97 55.06,17 72.19,17 " keyTimes="0;0.4101333;0.5144083;0.6166667;1" values="M21 17 C21,17 28.06,17 46.57,16.98 C55,16.97 55.06,17 72.19,17 ;M21 17 C21,17 28.06,17 46.57,16.98 C55,16.97 55.06,17 72.19,17 ;M16.88 36.5 C16.88,36.5 22.88,24.88 40.63,21.48 C50.62,19.57 62.25,19.5 76.75,31.13 ;M21 17 C21,17 28.06,17 46.57,16.98 C55,16.97 55.06,17 72.19,17 ;M21 17 C21,17 28.06,17 46.57,16.98 C55,16.97 55.06,17 72.19,17 " keySplines="0.333 0 0.667 1;0.333 0 0.667 1;0.167 0 0.833 1;0 0 0 0" calcMode="spline"/><animateMotion repeatCount="indefinite" dur="4.8s" begin="0s" xlink:href="#_R_G_L_0_G" fill="freeze" keyTimes="0;0.4101333;0.5144083;0.6166667;1" path="M104 -78 C104,-78 104,-78 104,-78 C104,-82.67 104,-106 104,-106 C104,-106 104,-82.67 104,-78 C104,-78 104,-78 104,-78 " keyPoints="0;0;0.5;1;1" keySplines="0.333 0 0.667 1;0.333 0 0.667 1;0.167 0 0.833 1;0 0 0 0" calcMode="spline"/><animateTransform repeatCount="indefinite" dur="4.8s" begin="0s" xlink:href="#_R_G_L_0_G" fill="freeze" attributeName="transform" from="-1 1" to="-1 1" type="scale" additive="sum" keyTimes="0;1" values="-1 1;-1 1" keySplines="0 0 1 1" calcMode="spline"/><animateTransform repeatCount="indefinite" dur="4.8s" begin="0s" xlink:href="#_R_G_L_0_G" fill="freeze" attributeName="transform" from="-45 -30" to="-45 -30" type="translate" additive="sum" keyTimes="0;1" values="-45 -30;-45 -30" keySplines="0 0 1 1" calcMode="spline"/><animateMotion repeatCount="indefinite" dur="4.8s" begin="0s" xlink:href="#_R_G_L_0_G_N_7_T_0" fill="freeze" keyTimes="0;0.3892833;0.5144083;0.6166667;1" path="M125 125 C125,125 125,125 125,125 C125,124.39 125,121.36 125,121.36 C125,121.36 125,124.39 125,125 C125,125 125,125 125,125 " keyPoints="0;0;0.5;1;1" keySplines="0.333 0 0.667 1;0.333 0 0.667 1;0.167 0 0.833 1;0 0 0 0" calcMode="spline"/><animateTransform repeatCount="indefinite" dur="4.8s" begin="0s" xlink:href="#_R_G_L_0_G_N_7_T_0" fill="freeze" attributeName="transform" from="0.40453000000000006 0.40453000000000006" to="0.40453000000000006 0.40453000000000006" type="scale" additive="sum" keyTimes="0;1" values="0.40453000000000006 0.40453000000000006;0.40453000000000006 0.40453000000000006" keySplines="0 0 1 1" calcMode="spline"/><animate attributeType="XML" attributeName="opacity" dur="5s" from="0" to="1" xlink:href="#time_group"/></defs><g id="_R_G"><g id="_R_G_L_8_G" transform=" translate(125.17, 125.985) scale(0.40453000000000006, 0.40453000000000006) translate(-209.902, -209.902)"><path id="_R_G_L_8_G_D_0_P_0" fill="#ffda54" fill-opacity="1" fill-rule="nonzero" d=" M419.55 209.9 C419.55,325.69 325.69,419.55 209.9,419.55 C94.11,419.55 0.25,325.69 0.25,209.9 C0.25,94.11 94.11,0.25 209.9,0.25 C325.69,0.25 419.55,94.11 419.55,209.9z "/></g><g id="_R_G_L_7_G_N_7_T_0"><g id="_R_G_L_7_G" transform=" translate(-103.552, 44.876) translate(-29.725, -19.682)"><path id="_R_G_L_7_G_D_0_P_0" fill="#ff4b18" fill-opacity="1" fill-rule="nonzero" d=" M59.2 19.91 C59.2,30.52 50.6,39.11 40,39.11 C40,39.11 19.45,39.11 19.45,39.11 C8.85,39.11 0.25,30.52 0.25,19.91 C0.25,19.91 0.25,19.45 0.25,19.45 C0.25,8.85 8.85,0.25 19.45,0.25 C19.45,0.25 40,0.25 40,0.25 C50.6,0.25 59.2,8.85 59.2,19.45 C59.2,19.45 59.2,19.91 59.2,19.91z "/></g></g><g id="_R_G_L_6_G_N_7_T_0"><g id="_R_G_L_6_G" transform=" translate(102.103, 44.876) translate(-29.725, -19.682)"><path id="_R_G_L_6_G_D_0_P_0" fill="#ff4b18" fill-opacity="1" fill-rule="nonzero" d=" M59.2 19.91 C59.2,30.52 50.6,39.11 40,39.11 C40,39.11 19.45,39.11 19.45,39.11 C8.85,39.11 0.25,30.52 0.25,19.91 C0.25,19.91 0.25,19.45 0.25,19.45 C0.25,8.85 8.85,0.25 19.45,0.25 C19.45,0.25 40,0.25 40,0.25 C50.6,0.25 59.2,8.85 59.2,19.45 C59.2,19.45 59.2,19.91 59.2,19.91z "/></g></g><g id="_R_G_L_5_G_N_7_T_0"><g id="_R_G_L_5_G" transform=" translate(-103.552, -24.512) translate(-17.46, -24.344)"><path id="_R_G_L_5_G_D_0_P_0" fill="#000000" fill-opacity="1" fill-rule="nonzero" d=" M34.67 31.27 C34.67,40.75 26.98,48.44 17.5,48.44 C17.5,48.44 17.42,48.44 17.42,48.44 C7.94,48.44 0.25,40.75 0.25,31.27 C0.25,31.27 0.25,17.42 0.25,17.42 C0.25,7.94 7.94,0.25 17.42,0.25 C17.42,0.25 17.5,0.25 17.5,0.25 C26.98,0.25 34.67,7.94 34.67,17.42 C34.67,17.42 34.67,31.27 34.67,31.27z "/><path id="_R_G_L_5_G_D_1_P_0" fill="#ffffff" fill-opacity="1" fill-rule="nonzero" d=" M25.89 8.54 C25.89,13.21 22.1,17 17.43,17 C12.75,17 8.97,13.21 8.97,8.54 C8.97,3.86 12.75,0.08 17.43,0.08 C22.1,0.08 25.89,3.86 25.89,8.54z "/></g></g><g id="_R_G_L_4_G_N_7_T_0"><g id="_R_G_L_4_G" transform=" translate(101.157, -24.512) translate(-17.46, -24.345)"><path id="_R_G_L_4_G_D_0_P_0" fill="#000000" fill-opacity="1" fill-rule="nonzero" d=" M34.67 17.42 C34.67,7.94 26.98,0.25 17.5,0.25 C17.5,0.25 17.42,0.25 17.42,0.25 C7.94,0.25 0.25,7.94 0.25,17.42 C0.25,17.42 0.25,31.27 0.25,31.27 C0.25,40.75 7.94,48.44 17.42,48.44 C17.42,48.44 17.5,48.44 17.5,48.44 C26.98,48.44 34.67,40.75 34.67,31.27 C34.67,31.27 34.67,17.42 34.67,17.42z "/><path id="_R_G_L_4_G_D_1_P_0" fill="#ffffff" fill-opacity="1" fill-rule="nonzero" d=" M25.89 8.54 C25.89,13.21 22.1,17 17.43,17 C12.75,17 8.97,13.21 8.97,8.54 C8.97,3.86 12.75,0.08 17.43,0.08 C22.1,0.08 25.89,3.86 25.89,8.54z "/></g></g><g id="_R_G_L_3_G_N_7_T_0"><g id="_R_G_L_3_G" transform=" translate(-1.497, -25.137) translate(-270.503, -152.363)"><path id="_R_G_L_3_G_D_0_P_0" fill="#ff4b18" fill-opacity="1" fill-rule="nonzero" d=" M95.86 146.69 C95.86,146.69 117.38,146.69 117.38,146.69 C117.38,146.69 117.38,162.69 117.38,162.69 C117.38,162.69 95.86,162.69 95.86,162.69 C91.42,162.69 87.82,157.41 87.82,152.97 C87.82,150.74 88.72,149.62 90.17,148.16 C91.63,146.7 93.64,146.69 95.86,146.69z "/><path id="_R_G_L_3_G_D_1_P_0" stroke="#000000" stroke-linecap="round" stroke-linejoin="round" fill="none" stroke-width="8" stroke-opacity="1" d=" M95.86 146.69 C95.86,146.69 117.38,146.69 117.38,146.69 C117.38,146.69 117.38,162.69 117.38,162.69 C117.38,162.69 95.86,162.69 95.86,162.69 C91.42,162.69 87.82,157.41 87.82,152.97 C87.82,150.74 88.72,149.62 90.17,148.16 C91.63,146.7 93.64,146.69 95.86,146.69z "/><path id="_R_G_L_3_G_D_2_P_0" fill="#ff4b18" fill-opacity="1" fill-rule="nonzero" d=" M217.38 146.69 C217.38,146.69 325.38,146.69 325.38,146.69 C325.38,146.69 325.38,162.69 325.38,162.69 C325.38,162.69 217.38,162.69 217.38,162.69 C217.38,162.69 217.38,146.69 217.38,146.69z "/><path id="_R_G_L_3_G_D_3_P_0" stroke="#000000" stroke-linecap="round" stroke-linejoin="round" fill="none" stroke-width="8" stroke-opacity="1" d=" M217.38 146.69 C217.38,146.69 325.38,146.69 325.38,146.69 C325.38,146.69 325.38,162.69 325.38,162.69 C325.38,162.69 217.38,162.69 217.38,162.69 C217.38,162.69 217.38,146.69 217.38,146.69z "/><path id="_R_G_L_3_G_D_4_P_0" fill="#ff4b18" fill-opacity="1" fill-rule="nonzero" d=" M454.87 153.01 C454.87,155.24 453.96,158.07 452.51,159.52 C451.06,160.98 449.05,162.69 446.82,162.69 C446.82,162.69 424.88,162.69 424.88,162.69 C424.88,162.69 424.88,146.69 424.88,146.69 C424.88,146.69 446.82,146.69 446.82,146.69 C451.27,146.69 454.87,148.57 454.87,153.01z "/><path id="_R_G_L_3_G_D_5_P_0" stroke="#000000" stroke-linecap="round" stroke-linejoin="round" fill="none" stroke-width="8" stroke-opacity="1" d=" M454.87 153.01 C454.87,155.24 453.96,158.07 452.51,159.52 C451.06,160.98 449.05,162.69 446.82,162.69 C446.82,162.69 424.88,162.69 424.88,162.69 C424.88,162.69 424.88,146.69 424.88,146.69 C424.88,146.69 446.82,146.69 446.82,146.69 C451.27,146.69 454.87,148.57 454.87,153.01z "/><g id="_R_G_L_3_G_D_6_P_0_G_0_T_0" transform=" translate(167.881, 151.942) translate(0, 0)"><path id="_R_G_L_3_G_D_6_P_0" fill="#dbe1ff" fill-opacity="1" fill-rule="nonzero" opacity="0.28" d=" M52.5 -28.32 C52.5,-28.32 52.5,27.54 52.5,27.54 C52.5,30.18 48.99,30.75 46.35,30.75 C46.35,30.75 -46.08,30.75 -46.08,30.75 C-46.83,30.75 -47.4,31.36 -48.02,31.05 C-48.06,31.03 -49.07,31.29 -49.11,31.25 C-50.62,30.47 -52.5,29.38 -52.5,27.54 C-52.5,27.54 -52.5,-28.32 -52.5,-28.32 C-52.5,-30.96 -48.72,-31.25 -46.08,-31.25 C-46.08,-31.25 46.35,-31.25 46.35,-31.25 C48.99,-31.25 52.5,-30.96 52.5,-28.32z "/></g><path id="_R_G_L_3_G_D_7_P_0" fill="#ff4b18" fill-opacity="1" fill-rule="nonzero" d=" M225.38 176.85 C225.38,183.94 219.63,189.69 212.54,189.69 C212.54,189.69 124.22,189.69 124.22,189.69 C117.13,189.69 111.38,183.94 111.38,176.85 C111.38,176.85 111.38,125.53 111.38,125.53 C111.38,118.44 117.13,112.69 124.22,112.69 C124.22,112.69 212.54,112.69 212.54,112.69 C219.63,112.69 225.38,118.44 225.38,125.53 C225.38,125.53 225.38,176.85 225.38,176.85z  M209.8 127.85 C209.8,127.85 126.97,127.85 126.97,127.85 C126.97,127.85 126.97,173.53 126.97,173.53 C126.97,173.53 209.8,173.53 209.8,173.53 C209.8,173.53 209.8,127.85 209.8,127.85z "/><path id="_R_G_L_3_G_D_8_P_0" stroke="#000000" stroke-linecap="round" stroke-linejoin="round" fill="none" stroke-width="8" stroke-opacity="1" d=" M225.38 176.85 C225.38,183.94 219.63,189.69 212.54,189.69 C212.54,189.69 124.22,189.69 124.22,189.69 C117.13,189.69 111.38,183.94 111.38,176.85 C111.38,176.85 111.38,125.53 111.38,125.53 C111.38,118.44 117.13,112.69 124.22,112.69 C124.22,112.69 212.54,112.69 212.54,112.69 C219.63,112.69 225.38,118.44 225.38,125.53 C225.38,125.53 225.38,176.85 225.38,176.85z  M209.8 127.85 C209.8,127.85 126.97,127.85 126.97,127.85 C126.97,127.85 126.97,173.53 126.97,173.53 C126.97,173.53 209.8,173.53 209.8,173.53 C209.8,173.53 209.8,127.85 209.8,127.85z "/><g id="_R_G_L_3_G_D_9_P_0_G_0_T_0" transform=" translate(372.629, 151.691) translate(0, 0)"><path id="_R_G_L_3_G_D_9_P_0" fill="#dbe1ff" fill-opacity="1" fill-rule="nonzero" opacity="0.28" d=" M50.5 28.51 C50.5,31.14 47.38,34 44.74,34 C44.74,34 -46.64,34 -46.64,34 C-49.28,34 -50.5,31.14 -50.5,28.51 C-50.5,28.51 -50.5,-29.25 -50.5,-29.25 C-50.5,-31.88 -49.28,-34 -46.64,-34 C-46.64,-34 44.74,-34 44.74,-34 C47.38,-34 50.5,-31.88 50.5,-29.25 C50.5,-29.25 50.5,28.51 50.5,28.51z "/></g><path id="_R_G_L_3_G_D_10_P_0" fill="#ff4b18" fill-opacity="1" fill-rule="nonzero" d=" M429.63 176.85 C429.63,183.94 423.88,189.69 416.79,189.69 C416.79,189.69 328.47,189.69 328.47,189.69 C321.38,189.69 315.63,183.94 315.63,176.85 C315.63,176.85 315.63,125.53 315.63,125.53 C315.63,118.44 321.38,112.69 328.47,112.69 C328.47,112.69 416.79,112.69 416.79,112.69 C423.88,112.69 429.63,118.44 429.63,125.53 C429.63,125.53 429.63,176.85 429.63,176.85z  M414.04 127.85 C414.04,127.85 331.21,127.85 331.21,127.85 C331.21,127.85 331.21,173.53 331.21,173.53 C331.21,173.53 414.04,173.53 414.04,173.53 C414.04,173.53 414.04,127.85 414.04,127.85z "/><path id="_R_G_L_3_G_D_11_P_0" stroke="#000000" stroke-linecap="round" stroke-linejoin="round" fill="none" stroke-width="8" stroke-opacity="1" d=" M429.63 176.85 C429.63,183.94 423.88,189.69 416.79,189.69 C416.79,189.69 328.47,189.69 328.47,189.69 C321.38,189.69 315.63,183.94 315.63,176.85 C315.63,176.85 315.63,125.53 315.63,125.53 C315.63,118.44 321.38,112.69 328.47,112.69 C328.47,112.69 416.79,112.69 416.79,112.69 C423.88,112.69 429.63,118.44 429.63,125.53 C429.63,125.53 429.63,176.85 429.63,176.85z  M414.04 127.85 C414.04,127.85 331.21,127.85 331.21,127.85 C331.21,127.85 331.21,173.53 331.21,173.53 C331.21,173.53 414.04,173.53 414.04,173.53 C414.04,173.53 414.04,127.85 414.04,127.85z "/></g></g><g id="_R_G_L_2_G_N_7_T_0"><g id="_R_G_L_2_G"><path id="_R_G_L_2_G_D_0_P_0" stroke="#000000" stroke-linecap="round" stroke-linejoin="round" fill="none" stroke-width="8" stroke-opacity="1" d=" M15 15 C15,15 67,15 67,15 "/></g></g><g id="_R_G_L_1_G_N_7_T_0"><g id="_R_G_L_1_G" transform=" translate(-104, -80) translate(-45, -30)"><path id="_R_G_L_1_G_D_0_P_0" stroke="#030303" stroke-linecap="round" stroke-linejoin="round" fill="none" stroke-width="8" stroke-opacity="1" d=" M20.31 17.81 C20.31,17.81 30.13,17.84 46.31,17.82 C57,17.8 58.5,17.84 68.75,17.88 "/></g></g><g id="_R_G_L_0_G_N_7_T_0"><g id="_R_G_L_0_G"><path id="_R_G_L_0_G_D_0_P_0" stroke="#000000" stroke-linecap="round" stroke-linejoin="round" fill="none" stroke-width="8" stroke-opacity="1" d=" M21 17 C21,17 28.06,17 46.57,16.98 C55,16.97 55.06,17 72.19,17 "/></g></g></g><g id="time_group"/></svg>