<?xml version="1.0" encoding="utf-8"?>
<!-- Generator: Adobe Illustrator 24.1.2, SVG Export Plug-In . SVG Version: 6.00 Build 0)  -->
<svg version="1.1" id="Layer_1" 
	xmlns="http://www.w3.org/2000/svg" 
	xmlns:xlink="http://www.w3.org/1999/xlink" x="0px" y="0px" viewBox="0 0 24 24" style="enable-background:new 0 0 24 24;" xml:space="preserve">
	<style type="text/css">
	.st0{fill:#FFFFFF;}
	</style>
	<g>
		<path class="st0" d="M8.8,18.8c0.3,0.3,0.7,0.4,1,0.4s0.7-0.1,1-0.4l9-9l-9.5-9.5L8.4,2.4L9.9,4l-7,7c-0.6,0.6-0.6,1.5,0,2.1
		C3,13,8.8,18.8,8.8,18.8L8.8,18.8z M12,6.1l3.8,3.8L13.6,12H6.1C6.1,12,12,6.1,12,6.1L12,6.1z"/>
		<path class="st0" d="M20,19.3c1.2,0,2.2-1,2.2-2.2S20,13.5,20,13.5s-2.2,2.4-2.2,3.6S18.8,19.3,20,19.3L20,19.3z"/>
		<path class="st0" d="M1.8,20.7h20.4v2.9H1.8L1.8,20.7z"/>
	</g>
</svg>
