<svg xmlns="http://www.w3.org/2000/svg" viewBox="0 0 70 24"><defs><style>.cls-1{fill:#163247;}</style></defs><title>b2</title><g id="Layer_2" data-name="Layer 2"><g id="Layer_1-2" data-name="Layer 1"><path class="cls-1" d="M28.26,7.47,25,16h1.16l.8-2.23h3.58L31.35,16h1.16L29.25,7.47Zm-1,5.38,1.45-4,1.45,4Z"/><path class="cls-1" d="M36.37,9.54a2.2,2.2,0,0,0-1.81.82V7H33.48v9h1l.05-.73a2.24,2.24,0,0,0,1.86.85,2.11,2.11,0,0,0,1.79-.89,3.72,3.72,0,0,0,.67-2.33v-.09a4,4,0,0,0-.66-2.39A2.16,2.16,0,0,0,36.37,9.54Zm1,5.07a1.41,1.41,0,0,1-1.21.6,1.63,1.63,0,0,1-1.55-1V11.47a1.58,1.58,0,0,1,1.54-1,1.39,1.39,0,0,1,1.23.6,3,3,0,0,1,.43,1.71A3.17,3.17,0,0,1,37.33,14.61Z"/><path class="cls-1" d="M41.47,11a1.49,1.49,0,0,1,1.28-.6,1.43,1.43,0,0,1,1,.4,1.51,1.51,0,0,1,.46,1h1a2.27,2.27,0,0,0-.76-1.66,2.55,2.55,0,0,0-1.77-.64,2.81,2.81,0,0,0-1.5.4,2.51,2.51,0,0,0-1,1.12,3.62,3.62,0,0,0-.34,1.65v.18a3.42,3.42,0,0,0,.76,2.36,2.78,2.78,0,0,0,3.28.57A2.4,2.4,0,0,0,44.9,15a1.86,1.86,0,0,0,.38-1h-1a1.22,1.22,0,0,1-.48.88,1.53,1.53,0,0,1-1,.35,1.5,1.5,0,0,1-1.29-.59A2.73,2.73,0,0,1,41,13v-.2A2.82,2.82,0,0,1,41.47,11Z"/><path class="cls-1" d="M60,0H10A10,10,0,0,0,0,10v4A10,10,0,0,0,10,24H60A10,10,0,0,0,70,14V10A10,10,0,0,0,60,0Zm8.8,14A8.81,8.81,0,0,1,60,22.8H10A8.81,8.81,0,0,1,1.2,14V10A8.81,8.81,0,0,1,10,1.2H60A8.81,8.81,0,0,1,68.8,10Z"/></g></g></svg>
