<svg id="Layer_1" data-name="Layer 1" xmlns="http://www.w3.org/2000/svg" xmlns:xlink="http://www.w3.org/1999/xlink" viewBox="0 0 72.75 65.25"><defs><style>.cls-1{fill:url(#radial-gradient);}.cls-2,.cls-3,.cls-4{fill:none;stroke-linecap:round;stroke-linejoin:round;}.cls-2{stroke:#464a53;}.cls-2,.cls-3{stroke-width:2px;}.cls-3{stroke:#081219;}.cls-4{stroke:#ff4a17;stroke-width:2px;}</style><radialGradient id="radial-gradient" cx="-546.03" cy="481.72" r="11.5" gradientTransform="matrix(1, 0, 0, -1, 595.95, 512.95)" gradientUnits="userSpaceOnUse"><stop offset="0" stop-color="#fff" stop-opacity="0"/><stop offset="1" stop-color="#999"/></radialGradient></defs><g id="Layer1_10_FILL" data-name="Layer1 10 FILL"><path class="cls-1" d="M57.47,22.57H42.72V37.32H57.47Z" transform="translate(-0.47 -0.42)"/></g><path id="Layer1_10_1_STROKES" data-name="Layer1 10 1 STROKES" class="cls-2" d="M46.13,55.78H69a3.26,3.26,0,0,0,2.41-.86,2.74,2.74,0,0,0,.84-2V4.48a3.93,3.93,0,0,0-.84-2.2A4.15,4.15,0,0,0,69,1.42H4.18a2.6,2.6,0,0,0-1.86.86,3,3,0,0,0-.85,2.2V52.92a2.36,2.36,0,0,0,.85,2,2.3,2.3,0,0,0,1.86.86h42v8.89h4.44m-27.3,0h4.3V55.78m18.56,8.89H27.57" transform="translate(-0.47 -0.42)"/><path id="Layer1_10_MEMBER_0_1_STROKES" data-name="Layer1 10 MEMBER 0 1 STROKES" class="cls-3" d="M52.63,29.48,50.07,32v-7.1m0,7.1-.19.2-2.36-2.7" transform="translate(-0.47 -0.42)"/><path id="Layer1_10_MEMBER_1_1_STROKES" data-name="Layer1 10 MEMBER 1 1 STROKES" class="cls-4" d="M14.42,37.62l5-5m-5,5h-.28l.25-3.57m3.6,3.6-3.57,0m8.2-8.2,5.17-5-.11,3.28M24,24.18l3.75-.07v.29" transform="translate(-0.47 -0.42)"/></svg>