<?xml version="1.0" encoding="utf-8"?>
<!-- Generator: Adobe Illustrator 26.0.2, SVG Export Plug-In . SVG Version: 6.00 Build 0)  -->
<svg version="1.1" id="Layer_1" xmlns="http://www.w3.org/2000/svg" xmlns:xlink="http://www.w3.org/1999/xlink" x="0px" y="0px"
	 viewBox="0 0 16 16" style="enable-background:new 0 0 16 16;" xml:space="preserve">
<g>
	<path d="M7.9998,0.1193c-4.3705,0-7.9264,3.5349-7.9264,7.8805c0,4.346,3.556,7.881,7.9264,7.881
		c4.371,0,7.9269-3.5349,7.9269-7.881C15.9267,3.6542,12.3707,0.1193,7.9998,0.1193z M7.9998,14.3577
		c-3.5348,0-6.4109-2.8518-6.4109-6.3579c0-3.5057,2.8762-6.3574,6.4109-6.3574c3.5353,0,6.4114,2.8518,6.4114,6.3574
		C14.4112,11.5059,11.535,14.3577,7.9998,14.3577z"/>
	<path d="M8.0906,2.9964c-0.7866,0-1.5762,0.2241-2.0611,0.585c-0.1735,0.1294-0.2439,0.356-0.1749,0.5615l0.294,0.8765
		C6.203,5.1829,6.3381,5.3065,6.5047,5.346c0.1667,0.0391,0.3425-0.0098,0.4645-0.1304C7.1198,5.0662,7.4444,4.97,7.7966,4.97
		c0.5811,0,0.5811,0.3564,0.5811,0.4736c0,0.2983-0.4941,0.8872-0.8551,1.3169c0,0-0.0117,0.0137-0.0165,0.0195
		C6.8045,7.5965,6.8958,9.1087,6.9085,9.2786c0.0194,0.2617,0.2356,0.4629,0.4961,0.4629h0.8823
		c0.1326,0,0.2599-0.0537,0.3532-0.1484c0.0933-0.0938,0.1453-0.2227,0.1443-0.3555C8.782,8.9652,8.8563,8.1087,9.2674,7.6908
		c0.0991-0.1367,0.206-0.2734,0.3129-0.4111c0.4538-0.5815,0.9688-1.2407,0.9688-2.0303C10.5491,4.1278,9.7892,2.9964,8.0906,2.9964
		z"/>
	<path d="M7.9514,10.4277c-0.7779,0-1.411,0.6357-1.411,1.418s0.6331,1.418,1.411,1.418s1.41-0.6357,1.41-1.418
		S8.7293,10.4277,7.9514,10.4277z"/>
</g>
</svg>