<?xml version="1.0" encoding="utf-8"?>
<!-- Generator: Adobe Illustrator 26.0.1, SVG Export Plug-In . SVG Version: 6.00 Build 0)  -->
<svg version="1.1" id="Layer_1" xmlns="http://www.w3.org/2000/svg" xmlns:xlink="http://www.w3.org/1999/xlink" x="0px" y="0px" viewBox="0 0 16 16" style="enable-background:new 0 0 16 16;" xml:space="preserve">
<style type="text/css">
	.st0{fill:none;stroke:#141516;stroke-width:1.5;stroke-linecap:round;stroke-linejoin:round;stroke-miterlimit:10;}
</style>
<g>
	<circle class="st0" cx="8" cy="8" r="7.2"/>
	<g>
		<path d="M7.2,9.8l0-0.3C7.1,8.8,7.3,8.1,7.9,7.4c0.5-0.6,0.8-1.1,0.8-1.6c0-0.6-0.4-1-1.1-1c-0.4,0-0.9,0.1-1.2,0.4L6.1,4.3
			C6.5,4,7.2,3.8,7.9,3.8c1.4,0,2,0.9,2,1.8c0,0.8-0.5,1.4-1,2.1C8.3,8.3,8.1,8.8,8.1,9.4l0,0.3H7.2z M7,11.4c0-0.4,0.3-0.8,0.7-0.8
			s0.7,0.3,0.7,0.8c0,0.4-0.3,0.7-0.7,0.7C7.2,12.2,7,11.8,7,11.4z"/>
	</g>
</g>
</svg>
