<svg id="Layer_1" data-name="Layer 1"
	xmlns="http://www.w3.org/2000/svg" viewBox="0 0 72.75 65.25">
	<defs>
		<style>.cls-1,.cls-2,.cls-3,.cls-4{fill:none;stroke-linecap:round;stroke-linejoin:round;}.cls-1{stroke:#464a53;}.cls-1,.cls-3,.cls-4{stroke-width:2px;}.cls-2{stroke:#dcdfdf;stroke-width:5px;}.cls-3{stroke:#ff4a17;}.cls-4{stroke:#081219;}</style>
	</defs>
	<path id="Layer1_47_1_STROKES" data-name="Layer1 47 1 STROKES" class="cls-1" d="M46.12,55.78H69a3.22,3.22,0,0,0,2.4-.86,2.78,2.78,0,0,0,.71-1.09,3,3,0,0,0,.14-.91V4.48a3.88,3.88,0,0,0-.85-2.2A4.08,4.08,0,0,0,69,1.42H4.17a2.56,2.56,0,0,0-1.84.86,3.13,3.13,0,0,0-.86,2.2V52.92a4,4,0,0,0,.15.91,2.11,2.11,0,0,0,.71,1.09,2.26,2.26,0,0,0,1.84.86H46.12v8.89h4.46m-27.31,0h4.31V55.78m18.54,8.89H27.58" transform="translate(-0.47 -0.42)"/>
	<path id="Layer1_47_MEMBER_0_1_STROKES" data-name="Layer1 47 MEMBER 0 1 STROKES" class="cls-2" d="M39.18,33.33a10.6,10.6,0,0,0,3.25,6.45,10.63,10.63,0,0,0,7.84,3.3A11.18,11.18,0,0,0,61.43,31.92,10.86,10.86,0,0,0,58.18,24c-.27-.26-.53-.5-.81-.73" transform="translate(-0.47 -0.42)"/>
	<path id="Layer1_47_MEMBER_0_MEMBER_0_1_STROKES" data-name="Layer1 47 MEMBER 0 MEMBER 0 1 STROKES" class="cls-3" d="M13.92,16.67a10,10,0,0,1,2-2.09,4.42,4.42,0,0,1,2.65-.75,5.59,5.59,0,0,1,4.1,1.7,5.13,5.13,0,0,1,1.69,4,5.66,5.66,0,0,1-1.75,4.15,5.52,5.52,0,0,1-4,1.69,5.59,5.59,0,0,1-3.4-1.14A6,6,0,0,1,14,23.13m-1.8-10.9v4.94a1.31,1.31,0,0,0,.3.71,1,1,0,0,0,.7.29h5.1" transform="translate(-0.47 -0.42)"/>
	<path id="Layer1_47_MEMBER_0_MEMBER_1_1_STROKES" data-name="Layer1 47 MEMBER 0 MEMBER 1 1 STROKES" class="cls-4" d="M57.81,21.17l-3.5.47-.29,0,.66,3.56m-.37-3.54,3.75,3" transform="translate(-0.47 -0.42)"/>
</svg>
