<svg xmlns="http://www.w3.org/2000/svg" width="29.438" height="28.812">
	<path d="M25.392 11.106l-.743-1.764a31.659 31.659 0 001.575-4.048l-2.288-2.233a31.536 31.536 0 00-4.061 1.625l-1.8-.727a31.628 31.628 0 00-1.809-3.95h-3.231a30.208 30.208 0 00-1.7 3.96l-1.8.728a33.3 33.3 0 00-4.137-1.541L3.113 5.392a30.216 30.216 0 001.661 3.973l-.743 1.762a33.684 33.684 0 00-4.039 1.765v3.163a31.4 31.4 0 004.048 1.662l.743 1.759a31.915 31.915 0 00-1.576 4.045l2.287 2.238a32.1 32.1 0 004.059-1.627l1.8.729a31.47 31.47 0 001.81 3.948h3.23a30.074 30.074 0 001.7-3.96l1.8-.729a33.666 33.666 0 004.129 1.544l2.29-2.236a30.071 30.071 0 00-1.665-3.974l.741-1.761a33.269 33.269 0 004.04-1.77v-3.162a31.471 31.471 0 00-4.036-1.655zm-5.954 3.3a4.72 4.72 0 11-4.719-4.614 4.675 4.675 0 014.719 4.614z" fill="#fff" fill-rule="evenodd"/>
</svg>
