<svg xmlns="http://www.w3.org/2000/svg" viewBox="0 0 36.1 36.1"><path d="M9.842 1.219c.772-.126 1.789 1.426 2.242 1.876l3.057 3.027 2.986 2.946 3.487-3.429 3.049-3.035c.639-.637 1.265-1.829 2.141-.994l5.74 5.787c.643.654 2.755 2.191 2.148 3.007-.72.968-1.723 1.772-2.574 2.622l-2.982 2.981-1.5 1.501c-.801.802-.206.943.447 1.59l5.959 6.032c.572.572 1.266.842.57 1.605l-3.209 3.192-3.105 3.078-1.53 1.512c-.758.748-.904.237-1.599-.405l-6.454-6.466c-.931-.879-1.498.43-2.253 1.166l-2.897 2.841-2.418 2.488c-.874.873-1.134 1.079-2.008.057-1.728-2.019-3.825-3.777-5.69-5.672-.568-.577-2.558-2.072-1.979-2.774.94-1.136 2.11-2.125 3.162-3.156l3.024-3.031 1.456-1.559-1.469-1.515-6.452-6.48c2.767-3.044 5.82-5.809 8.648-8.794" fill-rule="evenodd" fill="#081219"/></svg>