<svg preserveAspectRatio="none" width="24"height="24"viewBox="0 0 24 24">
	<defs>
		<path id="select-icon" stroke="var(--maxi-primary-color)" strokeWidth="1.5"strokeLinejoin="round" strokeLinecap="round" fill="none" d="M22.6 20.4l-21.05-.1V3.6H22.6l.05 16.5M12.25 7.2l.85 2.7h2.85q.15 0 .2.1.05.05.05.15 0 .15-.1.2L13.75 12l.9 2.7q.05.15 0 .2-.05.1-.15.1-.1.1-.2-.05L12 13.3l-2.3 1.65q-.1.05-.15.05-.15 0-.2-.05-.05-.1 0-.25l.9-2.7-2.35-1.65q-.05-.05-.1-.15 0-.1.05-.15.05-.15.25-.15l2.8.1.9-2.8q0-.05.1-.1t.15 0q.15 0 .2.1zm-4.6 10.25h9.6" />
	</defs>
	<use xlinkHref="#select-icon" />
</svg>
