<svg xmlns="http://www.w3.org/2000/svg" xmlns:xlink="http://www.w3.org/1999/xlink" width="15.775" height="15.81" viewBox="0 0 15.775 15.81">
  <defs>
    <clipPath id="clip-path">
      <rect id="Rectangle_513" data-name="Rectangle 513" width="15.775" height="15.81" transform="translate(0 0)" fill="none"/>
    </clipPath>
  </defs>
  <g id="Group_1088" data-name="Group 1088" transform="translate(0 0)">
    <g id="Group_1012" data-name="Group 1012" clip-path="url(#clip-path)">
      <path id="Path_287" data-name="Path 287" d="M12.115,8V7.446A1.835,1.835,0,0,0,11.3,5.919l-1.447-.97a17.541,17.541,0,0,0,.387-2.339,2.6,2.6,0,0,0-.7-1.934A2.369,2.369,0,0,0,7.83,0,2.507,2.507,0,0,0,5.465,2.588a16.038,16.038,0,0,0,.349,2.358l-1.453.973a1.835,1.835,0,0,0-.816,1.527v7.606a.75.75,0,0,0,.75.75H7.83c.014,0,.025.008.039.008s.025-.007.039-.008h3.457a.75.75,0,0,0,.75-.75V8.018l0-.009,0-.01M7.068,5.911a.749.749,0,0,0,.316-.78,20.273,20.273,0,0,1-.419-2.512c.009-.464.284-1.119.865-1.119a.9.9,0,0,1,.642.231,1.234,1.234,0,0,1,.267.865,22.667,22.667,0,0,1-.461,2.527.747.747,0,0,0,.314.788l1.873,1.254a.314.314,0,0,1,.084.094H5.111A.332.332,0,0,1,5.2,7.165ZM8.619,14.3V11.584a.75.75,0,0,0-1.5,0V14.3H5.045V8.759h5.57V14.3Z" fill="#081219"/>
      <path id="Path_288" data-name="Path 288" d="M4.747,2.8a.75.75,0,0,0-.774-1.285A8.213,8.213,0,0,0,0,8.513a11.325,11.325,0,0,0,1.642,5.666.75.75,0,1,0,1.167-.943A10.354,10.354,0,0,1,1.5,8.493,6.691,6.691,0,0,1,4.747,2.8" fill="#081219"/>
      <path id="Path_289" data-name="Path 289" d="M11.976,1.444a.75.75,0,1,0-.807,1.265,6.818,6.818,0,0,1,3.106,5.614,10.866,10.866,0,0,1-1.264,4.98.75.75,0,1,0,1.137.978,11.68,11.68,0,0,0,1.627-5.958,8.241,8.241,0,0,0-3.8-6.879" fill="#081219"/>
    </g>
  </g>
</svg>
