<svg version="1.1" id="Layer_1" xmlns="http://www.w3.org/2000/svg" xmlns:xlink="http://www.w3.org/1999/xlink" x="0px"
	y="0px" viewBox="0 0 24 24" style="enable-background:new 0 0 24 24;" xml:space="preserve">
	<style type="text/css">
		.st0 {
			fill: var(--mpc);
		}
	</style>
	<g>
		<path class="st0" d="M22.9,0H1.1c-0.6,0-1,0.4-1,1v17.3c0,0.6,0.4,1,1,1h21.9c0.6,0,1-0.4,1-1V1C23.9,0.5,23.5,0,22.9,0z
		 M21.9,17.4H2.1V2h19.9V17.4z" />
		<path class="st0"
			d="M15.4,20c-0.7,0-1.3,0.4-1.7,1c-0.4-0.6-1-1-1.7-1c-0.7,0-1.3,0.4-1.7,1c-0.4-0.6-1-1-1.7-1c-1.1,0-2,0.9-2,2
		s0.9,2,2,2c0.7,0,1.3-0.4,1.7-1c0.4,0.6,1,1,1.7,1c0.7,0,1.3-0.4,1.7-1c0.4,0.6,1,1,1.7,1c1.1,0,2-0.9,2-2S16.5,20,15.4,20z" />
	</g>
</svg>
