<svg xmlns="http://www.w3.org/2000/svg" xmlns:xlink="http://www.w3.org/1999/xlink" width="15.569" height="15.311" viewBox="0 0 15.569 15.311">
  <defs>
    <clipPath id="clip-path">
      <rect id="Rectangle_517" data-name="Rectangle 517" width="15.569" height="15.311" transform="translate(0 0)" fill="none"/>
    </clipPath>
  </defs>
  <g id="Group_1021" data-name="Group 1021" transform="translate(0 0)">
    <g id="Group_1020" data-name="Group 1020" clip-path="url(#clip-path)">
      <path id="Path_297" data-name="Path 297" d="M13.277,5.412l1.829-1.829a1.581,1.581,0,0,0,0-2.234L14.218.461a1.583,1.583,0,0,0-2.234,0L10.157,2.288,2.692,9.7c-.019.014-.03.039-.048.055s-.015.008-.021.014-.018.03-.03.043a.744.744,0,0,0-.1.116,1,1,0,0,0-.045.094L.1,14.193a.75.75,0,0,0,.979,1.044l4.473-2.156a.785.785,0,0,0,.186-.132c0-.005.011-.006.016-.011v0h0ZM5.226,11.341,4.209,10.312l6.475-6.433,1,1Zm7.819-9.819a.077.077,0,0,1,.112,0l.888.888v.112l-1.3,1.3-1-1ZM3.315,11.541l.637.644-1.374.662Z" fill="#081219"/>
      <path id="Path_298" data-name="Path 298" d="M14.444,5.579a.75.75,0,0,0-.715.784c.007.158.011.314.011.467a.75.75,0,0,0,1.5,0c0-.176,0-.355-.013-.537a.75.75,0,0,0-.783-.714" fill="#081219"/>
      <path id="Path_299" data-name="Path 299" d="M10.116,13.172a6.808,6.808,0,0,1-.919.317.75.75,0,0,0,.194,1.475.773.773,0,0,0,.2-.025,8.52,8.52,0,0,0,1.122-.388.75.75,0,0,0-.592-1.379" fill="#081219"/>
      <path id="Path_300" data-name="Path 300" d="M14.435,8.247a.756.756,0,0,0-.891.576,7.464,7.464,0,0,1-.266.945.75.75,0,0,0,.456.958.76.76,0,0,0,.251.042.751.751,0,0,0,.707-.5,9.326,9.326,0,0,0,.319-1.131.75.75,0,0,0-.576-.891" fill="#081219"/>
      <path id="Path_301" data-name="Path 301" d="M12.363,11.45a5.44,5.44,0,0,1-.645.7.75.75,0,0,0,1.008,1.112,7.2,7.2,0,0,0,.823-.888.75.75,0,0,0-1.186-.92" fill="#081219"/>
      <path id="Path_302" data-name="Path 302" d="M7.244,13.747c-.156,0-.309,0-.465-.007a.739.739,0,0,0-.78.719.749.749,0,0,0,.719.779c.151.007.3.009.452.009h.083A.75.75,0,0,0,8,14.492a.759.759,0,0,0-.754-.745" fill="#081219"/>
      <path id="Path_303" data-name="Path 303" d="M1.071,9.273a.726.726,0,0,0,.122-.01A.75.75,0,0,0,1.811,8.4c-.025-.149-.043-.3-.056-.445A.75.75,0,0,0,.261,8.1c.018.18.041.363.07.546a.751.751,0,0,0,.74.628" fill="#081219"/>
      <path id="Path_304" data-name="Path 304" d="M4.942,2.326a.769.769,0,0,0,.265-.048,6.471,6.471,0,0,1,.874-.26A.75.75,0,1,0,5.754.554a8.046,8.046,0,0,0-1.077.32.75.75,0,0,0,.265,1.452" fill="#081219"/>
      <path id="Path_305" data-name="Path 305" d="M.961,6.735a.75.75,0,0,0,.888-.58A5.475,5.475,0,0,1,2.1,5.3.75.75,0,0,0,.7,4.753,6.92,6.92,0,0,0,.381,5.847a.749.749,0,0,0,.58.888" fill="#081219"/>
      <path id="Path_306" data-name="Path 306" d="M2.448,4.039a.745.745,0,0,0,.566-.258,5.25,5.25,0,0,1,.639-.617A.75.75,0,0,0,2.707,2a6.684,6.684,0,0,0-.824.8.749.749,0,0,0,.565,1.242" fill="#081219"/>
      <path id="Path_307" data-name="Path 307" d="M7.934,1.844c.152,0,.307.01.463.021a.506.506,0,0,0,.055,0,.75.75,0,0,0,.053-1.5C8.323.356,8.143.348,7.965.344a.731.731,0,0,0-.765.734.75.75,0,0,0,.734.766" fill="#081219"/>
    </g>
  </g>
</svg>
