<?xml version="1.0" encoding="utf-8"?>
<!-- Generator: Adobe Illustrator 24.2.0, SVG Export Plug-In . SVG Version: 6.00 Build 0)  -->
<svg version="1.1" id="Layer_1" xmlns="http://www.w3.org/2000/svg" xmlns:xlink="http://www.w3.org/1999/xlink" x="0px" y="0px"
	 viewBox="0 0 1280 140" style="enable-background:new 0 0 1280 140;" xml:space="preserve">
<style type="text/css">
	.st0{fill-opacity:0.498;}
</style>
<g transform="matrix( 1, 0, 0, 1, 0,0) ">
	<g>
		<g id="Layer0_0_FILL">
			<path class="st0" d="M1209.3,36.6l-74.9,4.6l-70.8,23.4l-66.3-11.7l-83.6,29.6l-97.6-7l-63.7,21.4l-77,12.6l-91.7-20.8
				l-77.9,17.7l-94.5-7.6l-90.1,21.6l-78.7-9.9l-86.4,16.1l-95.7,6.2L0,127.8V140h1280V0L1209.3,36.6z"/>
		</g>
	</g>
</g>
<g transform="matrix( 1, 0, 0, 1, 0,0) ">
	<g>
		<g id="Layer0_1_FILL">
			<path d="M1214.3,76l-79.9-10l-70.8,28.3l-66.3-20.9l-83.6,32.9l-97.6-17.3l-73.7,32.1l-77-1.5l-82.7-14l-76.9,21.8l-94.5-17.7
				l-90.1,27.1l-78.7-19.8L156.3,131l-95.7,3.1L0,126.7V140h1280V35.8L1214.3,76z"/>
		</g>
	</g>
</g>
</svg>
