<?xml version="1.0" encoding="utf-8"?>
<!-- Generator: Adobe Illustrator 24.3.0, SVG Export Plug-In . SVG Version: 6.00 Build 0)  -->
<svg version="1.1" id="Layer_1" xmlns="http://www.w3.org/2000/svg" xmlns:xlink="http://www.w3.org/1999/xlink" x="0px" y="0px"
	 viewBox="0 0 24 24" style="enable-background:new 0 0 24 24;" xml:space="preserve">
<style type="text/css">
	.st0{fill-rule:evenodd;clip-rule:evenodd;fill:#FFFFFF;}
</style>
<path class="st0" d="M12,16.4c-2.5,0-4.4-2-4.4-4.4c0-2.5,2-4.4,4.4-4.4c2.5,0,4.4,2,4.4,4.4l0,0C16.4,14.4,14.5,16.4,12,16.4z
	 M12,9c-1.6,0-3,1.3-3,3s1.3,3,3,3c1.6,0,3-1.3,3-3l0,0C15,10.4,13.6,9,12,9z M12.7,23.8h-1.5c-1.2,0-2.2-1-2.2-2.2v-1.3
	c-0.3-0.1-0.6-0.2-0.9-0.4l-0.9,0.9c-0.9,0.8-2.3,0.8-3.1,0l-1-1c-0.9-0.9-0.9-2.3,0-3.1L4,15.8c-0.1-0.3-0.3-0.6-0.4-0.9H2.4
	c-1.2,0-2.2-1-2.2-2.2v-1.5C0.2,10,1.2,9,2.4,9h1.2C3.7,8.8,3.9,8.5,4,8.2L3.1,7.3C2.2,6.4,2.2,5,3.1,4.2l1-1c0.9-0.8,2.3-0.8,3.1,0
	l1,0.8C8.5,3.9,8.7,3.7,9,3.6V2.4c0-1.2,1-2.2,2.2-2.2h1.5c1.2,0,2.2,1,2.2,2.2v1.3c0.3,0.1,0.6,0.2,0.9,0.4l0.9-0.9
	c0.9-0.8,2.3-0.8,3.1,0l1,1c0.9,0.9,0.9,2.3,0,3.1L20,8.2c0.1,0.3,0.3,0.6,0.4,0.9h1.3c1.2,0,2.2,1,2.2,2.2v1.5c0,1.2-1,2.2-2.2,2.2
	h-1.3c-0.1,0.3-0.2,0.6-0.4,0.9l0.9,0.9c0.9,0.9,0.9,2.3,0,3.1l-1,1c-0.9,0.8-2.3,0.8-3.1,0l-1-0.9c-0.3,0.1-0.6,0.3-0.9,0.4v1.3
	C15,22.8,14,23.8,12.7,23.8L12.7,23.8z M7.9,18.2l0.5,0.3c0.5,0.3,1,0.5,1.6,0.7l0.5,0.2v2.4c0,0.4,0.3,0.7,0.7,0.7h1.5
	c0.4,0,0.7-0.3,0.7-0.7v-2.4l0.5-0.2c0.6-0.2,1.1-0.4,1.6-0.7l0.5-0.3l1.7,1.7c0.3,0.3,0.8,0.3,1,0l1-1c0.3-0.3,0.3-0.8,0-1l0,0
	L18,16.2l0.3-0.5c0.3-0.5,0.5-1,0.7-1.6l0.2-0.5h2.4c0.4,0,0.7-0.3,0.7-0.7v-1.5c0-0.4-0.3-0.7-0.7-0.7h-2.4L19.1,10
	c-0.2-0.6-0.4-1.1-0.7-1.6l-0.3-0.5l1.7-1.7c0.3-0.3,0.3-0.8,0-1l0,0l-1-1c-0.3-0.3-0.8-0.3-1,0l-1.7,1.7l-0.5-0.3
	c-0.5-0.3-1-0.5-1.6-0.7l-0.5-0.2V2.4c0-0.4-0.3-0.7-0.7-0.7h-1.5c-0.4,0-0.7,0.3-0.7,0.7v2.4L10,4.9C9.4,5,8.9,5.3,8.4,5.5L7.9,5.8
	L6.2,4.2c-0.3-0.3-0.8-0.3-1,0l-1,1c-0.3,0.3-0.3,0.8,0,1l0,0l1.7,1.7L5.5,8.4C5.3,8.9,5,9.4,4.9,10l-0.2,0.5H2.4
	c-0.4,0-0.7,0.3-0.7,0.7v1.5c0,0.4,0.3,0.7,0.7,0.7h2.4L4.9,14c0.2,0.6,0.4,1.1,0.7,1.6l0.3,0.5l-1.7,1.7c-0.3,0.3-0.3,0.8,0,1l0,0
	l1,1c0.3,0.3,0.8,0.3,1,0L7.9,18.2z"/>
</svg>