<?xml version="1.0" encoding="utf-8"?>
<!-- Generator: Adobe Illustrator 24.3.0, SVG Export Plug-In . SVG Version: 6.00 Build 0)  -->
<svg version="1.1" id="Layer_1" xmlns="http://www.w3.org/2000/svg" xmlns:xlink="http://www.w3.org/1999/xlink" x="0px" y="0px"
	 viewBox="0 0 24 24" style="enable-background:new 0 0 24 24;" xml:space="preserve">
<style type="text/css">
	.st0{fill:none;stroke:#FFFFFF;stroke-miterlimit:10;}
</style>
<g transform="matrix( 1, 0, 0, 1, -0.1,-0.15) ">
	<g>
		<path id="Layer0_0_1_STROKES" class="st0" d="M21.4,22.7H3v-8.6c0,0-0.1,0-0.2,0c-0.6,0-1.1-0.2-1.5-0.6c-0.4-0.4-0.7-1-0.7-1.6
			s0.2-1.1,0.7-1.5C1.7,10,2.2,9.8,2.8,9.8c0.1,0,0.1,0,0.2,0V1.6h18.5v8.3c0.1,0,0.2,0,0.3,0c0.5,0,0.9,0.2,1.3,0.6
			c0.4,0.4,0.6,0.9,0.6,1.5c0,0.6-0.2,1.1-0.6,1.6c-0.4,0.3-0.8,0.5-1.3,0.6c-0.1,0-0.2,0-0.3,0V22.7z M21.4,14.1L21.4,14.1
			c-0.6,0-1.1-0.2-1.6-0.6c-0.4-0.4-0.6-0.8-0.6-1.3c0-0.1,0-0.2,0-0.3c0-0.6,0.2-1.1,0.6-1.5c0.4-0.4,0.9-0.6,1.5-0.6h0.1 M3,9.8
			c0.5,0,1,0.2,1.4,0.6C4.8,10.9,5,11.4,5,12c0,0.1,0,0.2,0,0.3c-0.1,0.5-0.3,0.9-0.6,1.3C4,13.9,3.5,14.1,3,14.1"/>
	</g>
</g>
</svg>