<?xml version="1.0" encoding="utf-8"?>
<!-- Generator: Adobe Illustrator 26.0.2, SVG Export Plug-In . SVG Version: 6.00 Build 0)  -->
<svg version="1.1" id="Layer_1" xmlns="http://www.w3.org/2000/svg" xmlns:xlink="http://www.w3.org/1999/xlink" x="0px" y="0px"
	 viewBox="0 0 16 16" style="enable-background:new 0 0 16 16;" xml:space="preserve">
<style type="text/css">
	.st0{fill:none;}
	.st1{fill:#141516;}
</style>
<g>
	<path class="st0" d="M13.5977,6.8329c-0.4902,0-0.8887,0.4331-0.8887,0.9658s0.3984,0.9658,0.8887,0.9658
		c0.4893,0,0.8877-0.4331,0.8877-0.9658S14.0869,6.8329,13.5977,6.8329z"/>
	<path class="st0" d="M3.1519,1.5258v3.9435C4.1006,5.7958,4.791,6.7107,4.791,7.7988c0,1.0877-0.6904,2.0028-1.6392,2.3294v4.3464
		h9.6948v-4.3469c-0.9481-0.3271-1.6377-1.2418-1.6377-2.3289c0-1.0874,0.6896-2.0019,1.6377-2.3289v-3.944H3.1519z"/>
	<ellipse class="st0" cx="2.4028" cy="7.7988" rx="0.8882" ry="0.9658"/>
	<path class="st1" d="M14.3467,5.4694V0.7758c0-0.4141-0.3359-0.75-0.75-0.75H2.4019c-0.4141,0-0.75,0.3359-0.75,0.75v4.6941
		C0.704,5.797,0.0146,6.7114,0.0146,7.7988c0,1.0869,0.6894,2.0016,1.6372,2.3288v5.097c0,0.4141,0.3359,0.75,0.75,0.75h11.1948
		c0.4141,0,0.75-0.3359,0.75-0.75v-5.0964c0.9484-0.3267,1.6387-1.2418,1.6387-2.3293C15.9854,6.7108,15.2951,5.796,14.3467,5.4694z
		 M1.5146,7.7988c0-0.5327,0.3984-0.9658,0.8882-0.9658S3.291,7.2661,3.291,7.7988S2.8926,8.7646,2.4028,8.7646
		S1.5146,8.3315,1.5146,7.7988z M12.8467,14.4745H3.1519v-4.3464C4.1006,9.8016,4.791,8.8865,4.791,7.7988
		c0-1.0881-0.6904-2.0029-1.6392-2.3295V1.5258h9.6948v3.944c-0.9481,0.327-1.6377,1.2415-1.6377,2.3289
		c0,1.087,0.6896,2.0018,1.6377,2.3289V14.4745z M13.5977,8.7646c-0.4902,0-0.8887-0.4331-0.8887-0.9658
		s0.3984-0.9658,0.8887-0.9658c0.4893,0,0.8877,0.4331,0.8877,0.9658S14.0869,8.7646,13.5977,8.7646z"/>
</g>
</svg>