<svg id="Layer_1" data-name="Layer 1" xmlns="http://www.w3.org/2000/svg" xmlns:xlink="http://www.w3.org/1999/xlink" viewBox="0 0 72.75 65.25"><defs><style>.cls-1,.cls-3,.cls-4{fill:none;stroke-linecap:round;stroke-linejoin:round;}.cls-1{stroke:#464a53;stroke-width:2px;}.cls-2{fill:url(#linear-gradient);}.cls-3{stroke:#081219;}.cls-3,.cls-4{stroke-width:2px;}.cls-4{stroke:#ff4a17;}</style><linearGradient id="linear-gradient" x1="71.66" y1="31.92" x2="3.19" y2="31.92" gradientTransform="matrix(1, 0, 0, -1, 0, 68)" gradientUnits="userSpaceOnUse"><stop offset="0" stop-color="#999"/><stop offset="1" stop-color="#fff" stop-opacity="0"/></linearGradient></defs><path id="Layer1_29_MEMBER_0_1_STROKES" data-name="Layer1 29 MEMBER 0 1 STROKES" class="cls-1" d="M46.12,55.78H69a3.22,3.22,0,0,0,2.4-.86,2.71,2.71,0,0,0,.85-2V4.48a3.88,3.88,0,0,0-.85-2.2A4.09,4.09,0,0,0,69,1.43H4.18a2.55,2.55,0,0,0-1.85.85,3,3,0,0,0-.86,2.2V52.92a2.34,2.34,0,0,0,.86,2,2.26,2.26,0,0,0,1.85.86H46.12v8.89h4.46m-27.3,0h4.3V55.78m18.54,8.89H27.58" transform="translate(-0.47 -0.43)"/><g id="Layer1_29_MEMBER_1_FILL" data-name="Layer1 29 MEMBER 1 FILL"><path class="cls-2" d="M71.18,23.58H2.32v25H71.18Z" transform="translate(-0.47 -0.43)"/></g><path id="Layer1_29_MEMBER_2_1_STROKES" data-name="Layer1 29 MEMBER 2 1 STROKES" class="cls-3" d="M35.7,38.54l3.57,0-5-5m5,5h.28l-.24-3.57" transform="translate(-0.47 -0.43)"/><path id="Layer1_29_MEMBER_3_1_STROKES" data-name="Layer1 29 MEMBER 3 1 STROKES" class="cls-4" d="M64.06,8.17l.14,7.28m-.14-7.28-8.59,8.94M57,8.27l7.11-.1" transform="translate(-0.47 -0.43)"/></svg>