<svg xmlns="http://www.w3.org/2000/svg" width="25.812" height="17.688" viewBox="0 0 25.812 17.688">
	<defs>
		<style>
      .cls-1 {
        fill-rule: evenodd;
      }
		</style>
	</defs>
	<path class="cls-1" d="M656.671,392.649a0.571,0.571,0,1,0,0,1.142h16.054a0.571,0.571,0,1,0,0-1.142H656.671Zm0,4a0.571,0.571,0,1,0,0,1.142h24.653a0.571,0.571,0,1,0,0-1.142H656.671Zm0,4a0.571,0.571,0,1,0,0,1.142h16.054a0.571,0.571,0,1,0,0-1.142H656.671Zm0,4a0.571,0.571,0,1,0,0,1.142h24.653a0.571,0.571,0,1,0,0-1.142H656.671Zm0,4.568a0.571,0.571,0,1,0,0,1.142h16.054a0.571,0.571,0,1,0,0-1.142H656.671Z" transform="translate(-656.094 -392.656)"/>
</svg>
