<svg xmlns="http://www.w3.org/2000/svg" xmlns:xlink="http://www.w3.org/1999/xlink" width="19.964" height="16.583" viewBox="0 0 19.964 16.583">
  <defs>
    <clipPath id="clip-path">
      <rect id="Rectangle_498" data-name="Rectangle 498" width="19.964" height="16.583" transform="translate(0 0)" fill="none"/>
    </clipPath>
  </defs>
  <g id="Group_1002" data-name="Group 1002" transform="translate(0 0)">
    <g id="Group_1001" data-name="Group 1001" clip-path="url(#clip-path)">
      <path id="Path_296" data-name="Path 296" d="M7.558,15.833V13.164m6.006,2.669H6.445m5.962-2.669h6.006a.775.775,0,0,0,.579-.222.73.73,0,0,0,.222-.534V1.507a.726.726,0,0,0-.222-.533.772.772,0,0,0-.579-.223H1.507a.757.757,0,0,0-.757.756v10.9a.757.757,0,0,0,.757.756h10.9v2.669" fill="none" stroke="#081219" stroke-linecap="round" stroke-linejoin="round" stroke-width="1.5"/>
      <path id="Path_297" data-name="Path 297" d="M12.1,9.82H7.86V4.161" fill="none" stroke="#081219" stroke-linecap="round" stroke-linejoin="round" stroke-width="1.5"/>
    </g>
  </g>
</svg>
