<svg xmlns="http://www.w3.org/2000/svg" xmlns:xlink="http://www.w3.org/1999/xlink" width="15.472" height="19.926" viewBox="0 0 15.472 19.926">
  <defs>
    <clipPath id="clip-path">
      <rect id="Rectangle_501" data-name="Rectangle 501" width="15.472" height="19.926" transform="translate(0 0)" fill="none"/>
    </clipPath>
  </defs>
  <g id="Group_1008" data-name="Group 1008" transform="translate(0 0)">
    <g id="Group_1007" data-name="Group 1007" clip-path="url(#clip-path)">
      <path id="Path_308" data-name="Path 308" d="M.751,1.6V18.286a.839.839,0,0,0,.25.64.794.794,0,0,0,.6.25h12.27a.794.794,0,0,0,.6-.25.839.839,0,0,0,.25-.64V1.6a.787.787,0,0,0-.25-.6.787.787,0,0,0-.6-.25H1.631a.787.787,0,0,0-.6.25A.789.789,0,0,0,.751,1.6Z" fill="none" stroke="#081219" stroke-linecap="round" stroke-linejoin="round" stroke-width="1.5"/>
      <path id="Path_309" data-name="Path 309" d="M9.565,6.929c-2.126-1.927-4.5.615-3.058,1.9.962.741,2.071.708,3.1,1.285,1.279.668,1.092,2.322-.122,3.18-1.147.811-4.229.564-4.466-1.85" fill="none" stroke="#081219" stroke-linecap="round" stroke-linejoin="round" stroke-width="1.5"/>
    </g>
  </g>
</svg>
