<?xml version="1.0" encoding="utf-8"?>
<!-- Generator: Adobe Illustrator 26.0.3, SVG Export Plug-In . SVG Version: 6.00 Build 0)  -->
<svg version="1.1" id="Layer_1" xmlns="http://www.w3.org/2000/svg" xmlns:xlink="http://www.w3.org/1999/xlink" x="0px" y="0px"
	 viewBox="0 0 20 20" style="enable-background:new 0 0 20 20;" xml:space="preserve">
<style type="text/css">
	.st0{fill:#081219;}
</style>
<g>
	<path class="st0" d="M17.3,0.5C17,0.2,16.6,0,16.1,0L3.9,0C3.4,0,3,0.2,2.8,0.5C2.4,0.7,2.2,1.2,2.2,1.6c0,0,0,0,0,0l0,16.6
		c0,0.5,0.2,0.9,0.5,1.2C3,19.8,3.4,20,3.8,20c0,0,0,0,0,0h12.2c0.5,0,0.9-0.2,1.2-0.5c0.3-0.3,0.5-0.8,0.5-1.2V1.7
		C17.7,1.2,17.5,0.8,17.3,0.5z M16.2,18.3c0,0-0.1,0.1-0.1,0.1l-12.3,0c0,0,0-0.1,0-0.1V1.6H3l0.8,0c0,0,0.1-0.1,0.1-0.1h12.2
		c0,0,0.1,0.1,0.1,0.1V18.3z"/>
	<path class="st0" d="M12.2,9.5c-0.5-0.3-1-0.4-1.5-0.6c-0.6-0.2-1-0.3-1.4-0.6C9.1,8.2,9,8,9.1,7.8c0.1-0.3,0.4-0.6,0.7-0.7
		c0.3-0.1,0.9-0.1,1.5,0.4c0.3,0.3,0.8,0.3,1.1-0.1c0.3-0.3,0.3-0.8-0.1-1.1c-0.9-0.8-2-1.1-3-0.8c-0.9,0.3-1.6,1-1.7,1.9
		C7.5,8.2,7.7,8.9,8.3,9.4c0.7,0.5,1.4,0.7,2,0.9c0.4,0.1,0.8,0.2,1.2,0.5c0.3,0.2,0.5,0.4,0.5,0.7c0,0.4-0.2,0.9-0.7,1.2
		c-0.4,0.3-1.5,0.4-2.3,0c-0.6-0.3-0.9-0.7-1-1.4c0-0.4-0.4-0.7-0.8-0.7c-0.4,0-0.7,0.4-0.7,0.8c0.1,1.2,0.8,2.1,1.9,2.6
		c0.5,0.2,1.2,0.4,1.8,0.4c0.8,0,1.5-0.2,2-0.6c0.9-0.6,1.4-1.6,1.3-2.5C13.4,10.6,13,9.9,12.2,9.5z"/>
</g>
</svg>
