<svg id="Layer_1" data-name="Layer 1"
	xmlns="http://www.w3.org/2000/svg" viewBox="0 0 14.95 21.75">
	<defs>
		<style>.cls-1{fill:none;stroke:#464a53;stroke-linecap:round;stroke-linejoin:round;}.cls-2{fill:#464a53;}</style>
	</defs>
	<path id="Layer0_0_1_STROKES" data-name="Layer0 0 1 STROKES" class="cls-1" d="M5,2.48v19a.84.84,0,0,0,.25.64.79.79,0,0,0,.6.25H18.12a.79.79,0,0,0,.6-.25.84.84,0,0,0,.25-.64v-19a.79.79,0,0,0-.25-.6.79.79,0,0,0-.6-.25H5.88a.79.79,0,0,0-.6.25A.79.79,0,0,0,5,2.48Z" transform="translate(-4.53 -1.13)"/>
	<path class="cls-2" d="M13.82,14.21a1.11,1.11,0,0,0-.42-.93,5.23,5.23,0,0,0-1.52-.66,7.19,7.19,0,0,1-1.75-.73,2.34,2.34,0,0,1-1.25-2A2.21,2.21,0,0,1,9.78,8a3.6,3.6,0,0,1,2.33-.71,3.84,3.84,0,0,1,1.69.35,2.71,2.71,0,0,1,1.17,1,2.58,2.58,0,0,1,.42,1.44H13.82A1.43,1.43,0,0,0,13.37,9a1.84,1.84,0,0,0-1.28-.4,1.94,1.94,0,0,0-1.2.33,1.12,1.12,0,0,0-.43.92,1,1,0,0,0,.47.84,5.23,5.23,0,0,0,1.52.65,7,7,0,0,1,1.71.72,2.68,2.68,0,0,1,.94.92,2.42,2.42,0,0,1,.3,1.22A2.17,2.17,0,0,1,14.53,16a3.77,3.77,0,0,1-2.37.67,4.47,4.47,0,0,1-1.81-.36,3,3,0,0,1-1.29-1,2.49,2.49,0,0,1-.46-1.5h1.58a1.47,1.47,0,0,0,.51,1.2,2.3,2.3,0,0,0,1.47.42,2,2,0,0,0,1.24-.33A1.07,1.07,0,0,0,13.82,14.21Z" transform="translate(-4.53 -1.13)"/>
</svg>
