<svg id="Layer_1" data-name="Layer 1"
	xmlns="http://www.w3.org/2000/svg" viewBox="0 0 73.6 65.25">
	<defs>
		<style>.cls-1{fill:#dcdfdf;}.cls-2,.cls-3,.cls-4{fill:none;stroke-linecap:round;stroke-linejoin:round;stroke-width:2px;}.cls-2{stroke:#464a53;}.cls-3{stroke:#081219;}.cls-4{stroke:#ff4a17;}</style>
	</defs>
	<g id="Layer1_35_FILL" data-name="Layer1 35 FILL">
		<path class="cls-1" d="M71.85,49.68v-25h-6v25h6M7,49.68v-25H1v25Z" transform="translate(-0.15 -0.43)"/>
	</g>
	<path id="Layer1_35_MEMBER_0_1_STROKES" data-name="Layer1 35 MEMBER 0 1 STROKES" class="cls-2" d="M45.8,55.78H68.65a3.25,3.25,0,0,0,2.4-.86,2.71,2.71,0,0,0,.85-2V4.48a3.88,3.88,0,0,0-.85-2.2,4.11,4.11,0,0,0-2.4-.85H3.85A2.57,2.57,0,0,0,2,2.28a3,3,0,0,0-.85,2.2V52.92a2.33,2.33,0,0,0,.85,2,2.28,2.28,0,0,0,1.85.86H45.8v8.89h4.45m-27.3,0h4.3V55.78M45.8,64.67H27.25" transform="translate(-0.15 -0.43)"/>
	<path id="Layer1_35_MEMBER_1_1_STROKES" data-name="Layer1 35 MEMBER 1 1 STROKES" class="cls-3" d="M37.35,40.08l-2.5-2.56H42m-7.1,0-.2-.19L37.35,35" transform="translate(-0.15 -0.43)"/>
	<path id="Layer1_35_MEMBER_2_1_STROKES" data-name="Layer1 35 MEMBER 2 1 STROKES" class="cls-4" d="M70.05,10.93l2.5-2.55h-7.1m7.1,0,.2-.2-2.7-2.35" transform="translate(-0.15 -0.43)"/>
	<path id="Layer1_35_MEMBER_3_1_STROKES" data-name="Layer1 35 MEMBER 3 1 STROKES" class="cls-4" d="M9.2,8.38,2,8.48l2.4,2.25m.1-5.05L1.8,8.27l.2.21" transform="translate(-0.15 -0.43)"/>
</svg>
