<svg xmlns="http://www.w3.org/2000/svg" viewBox="0 0 24 24" fill="var(--maxi-primary-color)" xmlns:v="https://vecta.io/nano"><path d="M22.9.1H1.1a.94.94 0 0 0-1 1v3.2 3.5 3.5V15v3.5 4.3a.94.94 0 0 0 1 1h21.7a.94.94 0 0 0 1-1V1.1c.1-.6-.4-1-.9-1zM2.1 21.9v-2.3h1.2a.94.94 0 0 0 1-1 .94.94 0 0 0-1-1H2.1V16h1.2a.94.94 0 0 0 1-1 .94.94 0 0 0-1-1H2.1v-1.6h1.2a.94.94 0 0 0 1-1 .94.94 0 0 0-1-1H2.1V8.9h1.2a.94.94 0 0 0 1-1 .94.94 0 0 0-1-1H2.1V5.3h1.2a.94.94 0 0 0 1-1 .94.94 0 0 0-1-1H2.1V2.1h19.7v1.2h-1.2a.94.94 0 0 0-1 1 .94.94 0 0 0 1 1h1.2v1.6h-1.2a.94.94 0 0 0-1 1 .94.94 0 0 0 1 1h1.2v1.6h-1.2a.94.94 0 0 0-1 1 .94.94 0 0 0 1 1h1.2V14h-1.2a.94.94 0 0 0-1 1 .94.94 0 0 0 1 1h1.2v1.6h-1.2a.94.94 0 0 0-1 1 .94.94 0 0 0 1 1h1.2v2.3H2.1zm14.5-10.8l-7.3-5c-.3-.1-.7-.2-1.1 0-.3.2-.5.5-.5.9v10c0 .4.2.7.5.9a.9.9 0 0 0 .5.1c.2 0 .4-.1.6-.2l7.3-5.1c.3-.2.4-.5.4-.8s-.2-.6-.4-.8zm-6.9 4V8.9l4.5 3.1-4.5 3.1z"/></svg>