<?xml version="1.0" encoding="utf-8"?>
<!-- Generator: Adobe Illustrator 24.3.0, SVG Export Plug-In . SVG Version: 6.00 Build 0)  -->
<svg version="1.1" id="Layer_1" xmlns="http://www.w3.org/2000/svg" xmlns:xlink="http://www.w3.org/1999/xlink" x="0px" y="0px"
	 viewBox="0 0 24 24" style="enable-background:new 0 0 24 24;" xml:space="preserve">
<style type="text/css">
	.st0{fill:#FFFFFF;}
</style>
<g>
	<path class="st0" d="M2.7,3.1v7.3h8.1V3.1H13v17.6h-2.2v-8.2H2.7v8.2H0.5V3.1H2.7z"/>
	<path class="st0" d="M14,18c0.6,0.4,2.1,1.1,3.6,1.1c2.8,0,3.7-1.9,3.7-3.3c0-2.4-2.1-3.4-4.2-3.4h-1.2v-1.7H17
		c1.6,0,3.6-0.9,3.6-2.9c0-1.4-0.8-2.6-2.8-2.6c-1.3,0-2.5,0.6-3.2,1.1L14,4.7c0.8-0.7,2.5-1.3,4.2-1.3c3.2,0,4.6,2,4.6,4
		c0,1.7-1,3.2-3,4v0.1c2,0.4,3.6,2,3.6,4.4c0,2.7-2,5.1-5.9,5.1c-1.8,0-3.4-0.6-4.2-1.1L14,18z"/>
</g>
</svg>
