<?xml version="1.0" encoding="utf-8"?>
<!-- Generator: Adobe Illustrator 24.2.1, SVG Export Plug-In . SVG Version: 6.00 Build 0)  -->
<svg version="1.1" id="Layer_1" xmlns="http://www.w3.org/2000/svg" xmlns:xlink="http://www.w3.org/1999/xlink" x="0px" y="0px"
	 viewBox="0 0 24 24" style="enable-background:new 0 0 24 24;" xml:space="preserve">
<style type="text/css">
	.st0{enable-background:new    ;}
	.st1{fill:#232533;}
</style>
<g class="st0">
	<path class="st1" d="M14.5,1.3c0.4,0.1,0.6,0.3,1.1,0.4c0.9,0.2,0.7,0.3,1,0.4c0.3,0.1,0.6,0.3,0.8,0.6s0.6,0.4,0.7,0.6
		c0.1,0.1,0.4,0.4,0.7,0.7s0.4,0.6,0.6,0.6c0.1,0,0.3,0.3,0.6,0.7c0.3,0.4,0.4,0.6,0.4,0.6V2.4c0-0.4,0.1-0.7,0.4-1
		c0.3-0.3,0.6-0.4,1-0.4c0.4,0,0.7,0.1,1,0.4c0.3,0.3,0.4,0.6,0.4,1v7c0,0.4-0.1,0.7-0.4,1s-0.6,0.4-1,0.4h-7.2
		c-0.4,0-0.7-0.1-1-0.4c-0.3-0.3-0.4-0.6-0.4-1c0-0.4,0.1-0.7,0.4-1C14,8.1,14.2,8,14.7,8h3.7c-0.8-1.3-1.8-2.2-2.8-2.9
		s-2.2-1.1-3.7-1.1c-2.2,0-4.2,0.8-5.8,2.4c-1.7,1.5-2.4,3.5-2.4,5.8s0.8,4.2,2.4,5.8s3.5,2.4,5.8,2.4c1.8,0,3.4-0.6,4.8-1.5
		s2.4-2.4,2.9-4.1c0.1-0.4,0.4-0.7,0.7-0.8c0.4-0.1,0.8-0.3,1.3-0.1c0.4,0.1,0.7,0.4,0.8,0.7c0.1,0.3,0.3,0.7,0.1,1.1
		c-0.7,2.2-2.1,4.1-4.1,5.5S14.4,23,12,23c-3.1,0-5.8-1.1-7.9-3.2s-3.4-4.6-3.4-7.7S1.9,6.5,4,4.2C6.1,2.1,8.8,1,11.9,1"/>
</g>
</svg>
