<svg id="Group_749" data-name="Group 749" xmlns="http://www.w3.org/2000/svg" xmlns:xlink="http://www.w3.org/1999/xlink" width="20" height="20" viewBox="0 0 20 20">
  <defs>
    <clipPath id="clip-path">
      <rect id="Rectangle_9" data-name="Rectangle 9" width="20" height="20" fill="none"/>
    </clipPath>
  </defs>
  <g id="Group_748" data-name="Group 748" clip-path="url(#clip-path)">
    <path id="Path_118" data-name="Path 118" d="M19,20H1a1,1,0,0,1-1-1V1A1,1,0,0,1,1,0H19a1,1,0,0,1,1,1V19a1,1,0,0,1-1,1M2,18H18V2H2Z" fill="#090f13"/>
    <path id="Path_119" data-name="Path 119" d="M8.215,12.185a1,1,0,0,1-1-1V3.526a1,1,0,1,1,2,0v7.659a1,1,0,0,1-1,1" fill="#090f13"/>
    <path id="Path_120" data-name="Path 120" d="M15.683,12.185a1,1,0,0,1-1-1V3.526a1,1,0,0,1,2,0v7.659a1,1,0,0,1-1,1" fill="#090f13"/>
    <path id="Path_121" data-name="Path 121" d="M11.949,9.271a1,1,0,0,1-1-1V3.525a1,1,0,1,1,2,0V8.271a1,1,0,0,1-1,1" fill="#090f13"/>
    <path id="Path_122" data-name="Path 122" d="M4.482,9.271a1,1,0,0,1-1-1V3.525a1,1,0,1,1,2,0V8.271a1,1,0,0,1-1,1" fill="#090f13"/>
  </g>
</svg>
