
<svg xmlns="http://www.w3.org/2000/svg" version="1.1" xmlns:xlink="http://www.w3.org/1999/xlink" preserveAspectRatio="none" x="0px" y="0px" width="24px" height="24px" viewBox="0 0 24 24">
<defs>
<path id="Layer0_0_1_STROKES" stroke="#FFFFFF" stroke-width="1" stroke-linejoin="round" stroke-linecap="round" fill="none" d="
M 15.4 15.1
Q 16.9 13.6 16.9 11.55 16.9 9.827734375 15.9 8.5
L 14.05 10.35
Q 14.35 10.8892578125 14.35 11.55 14.35 12.55 13.6 13.3 12.9 14.05 11.85 14.05 11.1892578125 14.05 10.65 13.75
L 8.8 15.6
Q 10.127734375 16.6 11.85 16.6 13.95 16.6 15.4 15.1 Z
M 10.65 13.75
Q 10.3279296875 13.5779296875 10.05 13.3 9.3 12.55 9.3 11.55 9.3 10.5 10.05 9.75 10.8 9 11.85 9 12.9 9 13.6 9.75 13.8779296875 10.0279296875 14.05 10.35
L 10.65 13.75 Z
M 23.25 11.15
Q 20.347265625 8.32109375 17.425 6.975
L 15.9 8.5
Q 15.669921875 8.219921875 15.4 7.95 13.95 6.5 11.85 6.5 9.75 6.5 8.25 7.95 6.8 9.45 6.8 11.55 6.8 13.6 8.25 15.1 8.519921875 15.369921875 8.8 15.6
L 7.775 16.625
Q 12.1568359375 18.102734375 16.65 16.3 20.65 14.65 23.15 11.55
M 1.2 23.2
L 7.775 16.625
Q 4.2509765625 15.4451171875 0.8 12.15 3.3 8.4 7.35 6.75 12.4232421875 4.7017578125 17.425 6.975
L 23 1.4"/>
</defs>

<g transform="matrix( 1, 0, 0, 1, 0,0) ">
<use xlink:href="#Layer0_0_1_STROKES"/>
</g>
</svg>
