<svg xmlns="http://www.w3.org/2000/svg" xmlns:xlink="http://www.w3.org/1999/xlink" width="22.946" height="16.583" viewBox="0 0 22.946 16.583">
  <defs>
    <clipPath id="clip-path">
      <rect id="Rectangle_499" data-name="Rectangle 499" width="22.946" height="16.583" transform="translate(0 0)" fill="none"/>
    </clipPath>
  </defs>
  <g id="Group_1004" data-name="Group 1004" transform="translate(0 0)">
    <g id="Group_1003" data-name="Group 1003" clip-path="url(#clip-path)">
      <path id="Path_298" data-name="Path 298" d="M9.048,15.833V13.164m6.007,2.669H7.936m5.852-2.669h7.644a.722.722,0,0,0,.552-.222.745.745,0,0,0,.212-.534V1.507a.741.741,0,0,0-.212-.533.719.719,0,0,0-.552-.223H1.472a.74.74,0,0,0-.722.756v10.9a.74.74,0,0,0,.722.756H13.788v2.669" fill="none" stroke="#081219" stroke-linecap="round" stroke-linejoin="round" stroke-width="1.5"/>
      <path id="Path_299" data-name="Path 299" d="M3.645,9.652,5.971,6.846,3.688,4.091" fill="none" stroke="#081219" stroke-linecap="round" stroke-linejoin="round" stroke-width="1.5"/>
      <path id="Path_300" data-name="Path 300" d="M8.248,4.09,5.972,6.846l2.319,2.8" fill="none" stroke="#081219" stroke-linecap="round" stroke-linejoin="round" stroke-width="1.5"/>
      <path id="Path_301" data-name="Path 301" d="M8.344,9.652,10.67,6.846,8.387,4.091" fill="none" stroke="#081219" stroke-linecap="round" stroke-linejoin="round" stroke-width="1.5"/>
      <path id="Path_302" data-name="Path 302" d="M12.947,4.09,10.671,6.846l2.319,2.8" fill="none" stroke="#081219" stroke-linecap="round" stroke-linejoin="round" stroke-width="1.5"/>
      <path id="Path_303" data-name="Path 303" d="M19.582,9.652H15.338V3.993" fill="none" stroke="#081219" stroke-linecap="round" stroke-linejoin="round" stroke-width="1.5"/>
    </g>
  </g>
</svg>
