<?xml version="1.0" encoding="utf-8"?>
<!-- Generator: Adobe Illustrator 26.0.3, SVG Export Plug-In . SVG Version: 6.00 Build 0)  -->
<svg version="1.1" id="Layer_1" xmlns="http://www.w3.org/2000/svg" xmlns:xlink="http://www.w3.org/1999/xlink" x="0px" y="0px"
	 viewBox="0 0 23 20" style="enable-background:new 0 0 23 20;" xml:space="preserve">
<style type="text/css">
	.st0{fill:#081219;}
</style>
<g>
	<path class="st0" d="M22.5,2.2c-0.3-0.3-0.7-0.5-1.1-0.5h-20C0.7,1.7,0,2.4,0,3.2v10.9c0,0.8,0.7,1.5,1.5,1.5h6.8v1.2H8
		c-0.4,0-0.8,0.3-0.8,0.8s0.3,0.8,0.8,0.8h7.1c0.4,0,0.8-0.3,0.8-0.8s-0.3-0.8-0.8-0.8h-0.5v-1.2l6.9,0c0.4,0,0.8-0.1,1.1-0.4
		c0.3-0.3,0.4-0.7,0.4-1.1V3.2C23,2.8,22.8,2.4,22.5,2.2z M13.1,16.8H9.8v-1.2h3.2V16.8z M21.5,14.1h-7.6l-12.3,0l0-10.9l20,0
		L21.5,14.1z"/>
	<path class="st0" d="M3.2,11.9c0.1,0.1,0.3,0.2,0.5,0.2c0.2,0,0.4-0.1,0.6-0.3L6,9.7l1.7,2.1C7.8,12,8,12,8.1,12.1c0,0,0,0,0,0
		c0.1,0,0.1,0,0.2,0c0,0,0,0,0,0c0,0,0,0,0,0c0.1,0,0.1,0,0.2,0c0,0,0,0,0,0c0.1,0,0.3-0.1,0.4-0.2l1.7-2.1l1.7,2.1
		c0.1,0.2,0.4,0.3,0.6,0.3c0.2,0,0.3-0.1,0.5-0.2c0.3-0.3,0.4-0.7,0.1-1.1l-1.9-2.3l1.9-2.3c0.3-0.3,0.2-0.8-0.1-1.1
		C13.1,5,12.7,5,12.4,5.3l-1.7,2.1L9,5.3C8.8,5.1,8.6,5,8.3,5.1C8.1,5,7.9,5.1,7.7,5.3L6,7.4L4.3,5.3C4,5,3.6,5,3.2,5.2
		C2.9,5.5,2.9,6,3.1,6.3L5,8.6l-1.9,2.3C2.8,11.2,2.9,11.7,3.2,11.9z M8.3,6.9l1.4,1.7l-1.4,1.7L7,8.6L8.3,6.9z"/>
	<path class="st0" d="M15.4,12.1h4.2c0.4,0,0.8-0.3,0.8-0.8s-0.3-0.8-0.8-0.8h-3.5V5.7c0-0.4-0.3-0.8-0.8-0.8s-0.8,0.3-0.8,0.8v5.7
		C14.6,11.8,15,12.1,15.4,12.1z"/>
</g>
</svg>
