<svg id="Layer_1" data-name="Layer 1" xmlns="http://www.w3.org/2000/svg" viewBox="0 0 72.75 65.25"><defs><style>.cls-1,.cls-2,.cls-3,.cls-4{fill:none;stroke-linecap:round;stroke-linejoin:round;}.cls-1{stroke:#464a53;}.cls-1,.cls-3{stroke-width:2px;}.cls-2{stroke:#dcdfdf;stroke-width:5px;}.cls-3{stroke:#ff4a17;}.cls-4{stroke:#081219;stroke-width:2px;}</style></defs><path id="Layer1_41_1_STROKES" data-name="Layer1 41 1 STROKES" class="cls-1" d="M46.13,55.78H69a3.26,3.26,0,0,0,2.41-.86,2.74,2.74,0,0,0,.84-2V4.48a3.93,3.93,0,0,0-.84-2.2A4.13,4.13,0,0,0,69,1.42H4.17a2.56,2.56,0,0,0-1.84.86,3,3,0,0,0-.86,2.2V52.92a2.34,2.34,0,0,0,.86,2,2.26,2.26,0,0,0,1.84.86h42v8.89h4.45m-27.3,0h4.3V55.78m18.55,8.89H27.58" transform="translate(-0.47 -0.42)"/><path id="Layer1_41_MEMBER_0_1_STROKES" data-name="Layer1 41 MEMBER 0 1 STROKES" class="cls-2" d="M34.47,33.33a10.6,10.6,0,0,1-3.25,6.45,10.63,10.63,0,0,1-7.84,3.3,10.85,10.85,0,0,1-7.91-3.3l-.19-.2" transform="translate(-0.47 -0.42)"/><path id="Layer1_41_MEMBER_0_MEMBER_0_1_STROKES" data-name="Layer1 41 MEMBER 0 MEMBER 0 1 STROKES" class="cls-3" d="M59.73,16.67a10,10,0,0,0-2-2.09,4.46,4.46,0,0,0-2.65-.75,5.56,5.56,0,0,0-4.1,1.7,5.11,5.11,0,0,0-1.7,4A5.66,5.66,0,0,0,51,23.73a5.52,5.52,0,0,0,4,1.69,5.63,5.63,0,0,0,3.4-1.14,5.92,5.92,0,0,0,1.19-1.15m1.81-10.9v4.94a1.2,1.2,0,0,1-.31.71.92.92,0,0,1-.69.29H55.37" transform="translate(-0.47 -0.42)"/><path id="Layer1_41_MEMBER_0_MEMBER_1_1_STROKES" data-name="Layer1 41 MEMBER 0 MEMBER 1 1 STROKES" class="cls-4" d="M12.28,39.11l1.31-3.27.06-.29,3.28,1.52m-3.34-1.23,2,4.37" transform="translate(-0.47 -0.42)"/></svg>