<svg id="Layer_1" data-name="Layer 1"
	xmlns="http://www.w3.org/2000/svg"
	xmlns:xlink="http://www.w3.org/1999/xlink" viewBox="0 0 72.75 65.25">
	<defs>
		<style>.cls-1{fill:url(#radial-gradient);}.cls-2,.cls-3,.cls-4{fill:none;stroke-linecap:round;stroke-linejoin:round;stroke-width:2px;}.cls-2{stroke:#464a53;}.cls-3{stroke:#ff4a17;}.cls-4{stroke:#081219;}</style>
		<radialGradient id="radial-gradient" cx="-714.03" cy="402.22" r="18.6" gradientTransform="matrix(1, 0, 0, -1, 763.9, 432.95)" gradientUnits="userSpaceOnUse">
			<stop offset="0" stop-color="#999"/>
			<stop offset="1" stop-color="#fff" stop-opacity="0"/>
		</radialGradient>
	</defs>
	<g id="Layer1_17_FILL" data-name="Layer1 17 FILL">
		<path class="cls-1" d="M37.18,17.23v25.5h25.5V17.23Z" transform="translate(-0.47 -0.42)"/>
	</g>
	<path id="Layer1_17_1_STROKES" data-name="Layer1 17 1 STROKES" class="cls-2" d="M46.13,55.78H69a3.26,3.26,0,0,0,2.41-.86,2.74,2.74,0,0,0,.84-2V4.48a3.93,3.93,0,0,0-.84-2.2A4.15,4.15,0,0,0,69,1.42H4.18a2.6,2.6,0,0,0-1.86.86,3,3,0,0,0-.85,2.2V52.92a2.36,2.36,0,0,0,.85,2,2.3,2.3,0,0,0,1.86.86h42v8.89h4.44m-4.44,0H23.27m4.3,0V55.78" transform="translate(-0.47 -0.42)"/>
	<path id="Layer1_17_2_STROKES" data-name="Layer1 17 2 STROKES" class="cls-3" d="M10.68,34.92l0,3.75h.3l5-5.1m-5,5.1,3.29,0m12-15.31,5-5V18l-3.54.3m3.59,3.6-.05-3.6" transform="translate(-0.47 -0.42)"/>
	<path id="Layer1_17_MEMBER_0_1_STROKES" data-name="Layer1 17 MEMBER 0 1 STROKES" class="cls-4" d="M52.47,29l-2.55-2.5v7.1m0-7.1-.2-.21L47.37,29" transform="translate(-0.47 -0.42)"/>
</svg>
