<?xml version="1.0" encoding="utf-8"?>
<!-- Generator: Adobe Illustrator 24.2.2, SVG Export Plug-In . SVG Version: 6.00 Build 0)  -->
<svg version="1.1" id="Layer_1" xmlns="http://www.w3.org/2000/svg" xmlns:xlink="http://www.w3.org/1999/xlink" x="0px" y="0px"
	 viewBox="0 0 73.7 66.1" style="enable-background:new 0 0 73.7 66.1;" xml:space="preserve">
<style type="text/css">
	.st0{fill:#DCDFDF;}
	.st1{fill:none;stroke:#474A54;stroke-width:2;stroke-linecap:round;stroke-linejoin:round;}
	.st2{fill:none;stroke:#F04F26;stroke-width:2;stroke-linecap:round;stroke-linejoin:round;}
	.st3{fill:none;stroke:#0E151B;stroke-width:2;stroke-linecap:round;stroke-linejoin:round;}
</style>
<g>
	<g transform="matrix( 1, 0, 0, 1, 54,0) ">
		<g>
			<g id="Layer1_0_FILL">
				<path class="st0" d="M8.4,31.3h-25v6h25V31.3 M-16.6,21.4v6h25v-6H-16.6z"/>
			</g>
		</g>
		<g>
			<path id="Layer1_0_1_STROKES" class="st1" d="M-7.9,55.8H15c1,0,1.8-0.3,2.4-0.9c0.6-0.6,0.8-1.2,0.8-2V4.5
				c0-0.7-0.3-1.4-0.8-2.2c-0.8-0.6-1.6-0.9-2.4-0.9h-64.8c-0.7,0-1.3,0.3-1.9,0.9s-0.8,1.3-0.8,2.2v48.4c0,0.9,0.3,1.6,0.8,2
				c0.5,0.6,1.1,0.9,1.9,0.9h23.4H-7.9v8.9h4.4 M-9.4,64.7h-15.6 M-30.7,64.7h4.3v-8.9"/>
		</g>
		<g>
			<path id="Layer1_0_2_STROKES" class="st2" d="M-32.9,21.4l-0.2-0.2l-2.4,2.7 M-30.4,23.9l-2.6-2.5 M-32.8,40.2l2.2-2.4
				 M-35.6,37.7l2.6,2.7l0.2-0.2 M-32.9,21.4v7.1"/>
		</g>
		<g>
			<path id="Layer1_0_3_STROKES" class="st1" d="M-25.1,64.7h-1.4 M-7.9,64.7h-1.6"/>
		</g>
		<g>
			<path id="Layer1_0_4_STROKES" class="st2" d="M-32.9,33l0.1,7.2"/>
		</g>
	</g>
	<g transform="matrix( 1, 0, 0, 1, 74.4,11.65) ">
		<g>
			<path id="Layer1_0_MEMBER_0_1_STROKES" class="st3" d="M-21.6,16.8l-2.6-2.5v7.1 M-24.2,14.3l-0.2-0.2l-2.4,2.7"/>
		</g>
	</g>
</g>
</svg>
