<?xml version="1.0" encoding="utf-8"?>
<!-- Generator: Adobe Illustrator 24.1.2, SVG Export Plug-In . SVG Version: 6.00 Build 0)  -->
<svg version="1.1" id="Layer_1"
	xmlns="http://www.w3.org/2000/svg"
	xmlns:xlink="http://www.w3.org/1999/xlink" x="0px" y="0px" viewBox="0 0 24 24" style="enable-background:new 0 0 24 24;" xml:space="preserve">
	<style type="text/css">
	.st0{fill-rule:evenodd;clip-rule:evenodd;fill:#FFFFFF;stroke:#F8F8F8;stroke-linejoin:round;}
	</style>
	<path class="st0" d="M1.2,1.5c-0.3,0-0.5,0.3-0.5,0.7c0,0.4,0.2,0.7,0.5,0.7c0,0,0,0,0,0h14.1c0.3,0,0.5-0.3,0.5-0.6
	s-0.2-0.7-0.5-0.7c0,0,0,0,0,0L1.2,1.5L1.2,1.5z M1.2,6.3c-0.3,0-0.5,0.3-0.5,0.7c0,0.4,0.2,0.7,0.5,0.7c0,0,0,0,0,0h21.6
	c0.3,0,0.5-0.3,0.5-0.6c0-0.4-0.2-0.7-0.5-0.7c0,0,0,0,0,0L1.2,6.3L1.2,6.3z M1.2,11c-0.3,0-0.5,0.3-0.5,0.7c0,0.4,0.2,0.7,0.5,0.7
	c0,0,0,0,0,0h14.1c0.3,0,0.5-0.3,0.5-0.7c0-0.4-0.2-0.7-0.5-0.7c0,0,0,0,0,0H1.2z M1.2,15.7c-0.3,0-0.5,0.3-0.5,0.7
	c0,0.4,0.2,0.7,0.5,0.7c0,0,0,0,0,0h21.6c0.3,0,0.5-0.3,0.5-0.6c0-0.4-0.2-0.7-0.5-0.7c0,0,0,0,0,0L1.2,15.7L1.2,15.7z M1.2,21.1
	c-0.3,0-0.5,0.3-0.5,0.7c0,0.4,0.2,0.7,0.5,0.7c0,0,0,0,0,0h14.1c0.3,0,0.5-0.3,0.5-0.7c0-0.4-0.2-0.7-0.5-0.7c0,0,0,0,0,0H1.2z"/>
</svg>
