<?xml version="1.0" encoding="utf-8"?>
<!-- Generator: Adobe Illustrator 28.1.0, SVG Export Plug-In . SVG Version: 6.00 Build 0)  -->
<svg version="1.1" id="Layer_1" xmlns="http://www.w3.org/2000/svg" xmlns:xlink="http://www.w3.org/1999/xlink" x="0px" y="0px"
	 viewBox="0 0 300 60" style="enable-background:new 0 0 300 60;" xml:space="preserve">
<g>
	<polygon points="87.4,33.2 87.1,33.2 79.9,15.8 71.5,15.8 71.5,43.9 78.1,43.9 78.1,26.5 78.4,26.5 85.1,43.7 89.4,43.7 96.1,26.6 
		96.3,26.6 96.3,43.9 103,43.9 103,15.8 94.6,15.8 	"/>
	<path d="M124.3,24.4c-0.8-0.6-1.8-1.1-3-1.4c-1.1-0.3-2.4-0.5-3.7-0.5c-1.9,0-3.5,0.3-4.8,0.9c-1.3,0.6-2.4,1.4-3.2,2.4
		c-0.8,1-1.2,2.2-1.4,3.4l6.2,0.2c0.1-0.7,0.5-1.2,1-1.6c0.5-0.4,1.3-0.6,2.1-0.6c0.8,0,1.5,0.2,2,0.6c0.5,0.4,0.7,0.9,0.7,1.6v0.1
		c0,0.4-0.2,0.8-0.5,1c-0.3,0.2-0.9,0.4-1.6,0.5c-0.7,0.1-1.7,0.2-2.9,0.3c-1.1,0.1-2.1,0.3-3,0.5c-0.9,0.3-1.8,0.6-2.5,1.1
		c-0.7,0.5-1.3,1.2-1.7,2c-0.4,0.8-0.6,1.8-0.6,3c0,1.4,0.3,2.5,0.9,3.5c0.6,0.9,1.4,1.6,2.5,2.1c1,0.5,2.2,0.7,3.6,0.7
		c1,0,1.9-0.1,2.6-0.4c0.8-0.2,1.5-0.6,2-1.1c0.6-0.5,1.1-1.1,1.4-1.8h0.2v2.9h6.3V29.5c0-1.1-0.2-2.1-0.7-3
		C125.8,25.7,125.1,25,124.3,24.4z M120.3,36.4c0,0.7-0.2,1.3-0.5,1.8c-0.3,0.5-0.8,0.9-1.4,1.2c-0.6,0.3-1.2,0.4-2,0.4
		c-0.8,0-1.4-0.2-1.9-0.5c-0.5-0.4-0.7-0.9-0.7-1.6c0-0.5,0.1-0.9,0.4-1.2c0.2-0.3,0.6-0.6,1-0.8c0.4-0.2,1-0.4,1.6-0.5
		c0.3,0,0.6-0.1,1-0.2c0.3-0.1,0.7-0.1,1-0.2c0.3-0.1,0.6-0.2,0.9-0.2c0.3-0.1,0.5-0.2,0.7-0.3L120.3,36.4L120.3,36.4z"/>
	<polygon points="151.7,22.8 145,22.8 141.4,29.7 137.9,22.8 131.1,22.8 136.9,33.3 130.8,43.9 137.6,43.9 141.4,36.9 145.2,43.9 
		151.9,43.9 145.8,33.3 	"/>
	<rect x="156" y="22.8" width="6.7" height="21.1"/>
	<path d="M159.3,13.9c-0.9,0-1.8,0.3-2.4,0.9c-0.7,0.6-1,1.4-1,2.3c0,0.9,0.3,1.6,1,2.3c0.7,0.6,1.5,0.9,2.4,0.9
		c0.9,0,1.7-0.3,2.4-0.9c0.7-0.6,1-1.4,1-2.3c0-0.9-0.3-1.6-1-2.3C161.1,14.2,160.3,13.9,159.3,13.9z"/>
	<path d="M187.3,30.2c-1-0.6-2-0.9-3.2-0.9V29c1-0.2,1.9-0.6,2.7-1.2c0.8-0.5,1.4-1.2,1.9-2.1c0.4-0.8,0.7-1.8,0.7-2.9
		c0-1.4-0.4-2.6-1.1-3.7c-0.7-1.1-1.8-1.9-3.2-2.5c-1.4-0.6-3.2-0.9-5.3-0.9h-11.7v28.1h12.6c2.1,0,3.8-0.3,5.3-1
		c1.5-0.7,2.6-1.6,3.3-2.8c0.8-1.2,1.2-2.5,1.2-4c0-1.4-0.3-2.5-0.9-3.5C189,31.5,188.3,30.7,187.3,30.2z M174.9,21.2h3.9
		c1.1,0,2,0.3,2.7,0.8c0.7,0.5,1,1.3,1,2.2c0,0.7-0.2,1.2-0.5,1.7c-0.3,0.5-0.8,0.8-1.4,1.1c-0.6,0.2-1.2,0.4-2,0.4h-3.8L174.9,21.2
		L174.9,21.2z M182.3,37.6c-0.7,0.6-1.8,0.8-3.3,0.8h-4.2v-6.7h4.3c0.9,0,1.6,0.1,2.2,0.4c0.6,0.3,1.1,0.7,1.4,1.2
		c0.3,0.5,0.5,1.2,0.5,1.9C183.4,36.2,183,37,182.3,37.6z"/>
	<rect x="194.9" y="15.8" width="6.7" height="28.1"/>
	<path d="M222.6,23.9c-1.6-0.9-3.5-1.4-5.7-1.4s-4.1,0.5-5.7,1.4c-1.6,0.9-2.8,2.2-3.7,3.8c-0.9,1.6-1.3,3.5-1.3,5.7
		c0,2.2,0.4,4.1,1.3,5.7c0.9,1.6,2.1,2.9,3.7,3.8c1.6,0.9,3.5,1.4,5.7,1.4s4.1-0.5,5.7-1.4c1.6-0.9,2.8-2.2,3.7-3.8
		c0.9-1.6,1.3-3.5,1.3-5.7c0-2.2-0.4-4.1-1.3-5.7C225.4,26.1,224.2,24.8,222.6,23.9z M220.3,36.4c-0.3,0.9-0.7,1.6-1.3,2.1
		c-0.6,0.5-1.2,0.7-2,0.7c-0.8,0-1.5-0.2-2.1-0.7c-0.6-0.5-1-1.2-1.3-2.1c-0.3-0.9-0.4-1.9-0.4-3c0-1.2,0.1-2.2,0.4-3.1
		c0.3-0.9,0.7-1.6,1.3-2.1c0.6-0.5,1.3-0.7,2.1-0.7c0.8,0,1.5,0.2,2,0.7c0.6,0.5,1,1.2,1.3,2.1c0.3,0.9,0.4,1.9,0.4,3.1
		C220.7,34.5,220.6,35.5,220.3,36.4z"/>
	<path d="M240,28.3c0.6-0.4,1.3-0.7,2-0.7c1,0,1.7,0.3,2.3,0.9c0.6,0.6,1,1.5,1.1,2.5h6.3c0-1.7-0.5-3.2-1.3-4.5
		c-0.8-1.3-2-2.3-3.4-3c-1.5-0.7-3.2-1.1-5.1-1.1c-2.2,0-4.1,0.5-5.7,1.4c-1.6,0.9-2.8,2.2-3.7,3.8c-0.9,1.6-1.3,3.5-1.3,5.7
		c0,2.2,0.4,4,1.3,5.7c0.9,1.6,2.1,2.9,3.7,3.8c1.6,0.9,3.5,1.4,5.7,1.4c2,0,3.7-0.4,5.1-1.1c1.4-0.7,2.6-1.7,3.4-3
		c0.8-1.3,1.2-2.8,1.3-4.6h-6.3c-0.1,0.7-0.3,1.4-0.6,1.9c-0.3,0.5-0.7,0.9-1.2,1.2c-0.5,0.3-1,0.4-1.7,0.4c-0.8,0-1.5-0.2-2-0.7
		c-0.6-0.4-1-1.1-1.4-1.9c-0.3-0.9-0.5-1.9-0.5-3.2s0.2-2.3,0.5-3.1C239,29.3,239.4,28.7,240,28.3z"/>
	<polygon points="276.9,22.8 269.3,22.8 263.4,30.3 263.1,30.3 263.1,15.8 256.4,15.8 256.4,43.9 263.1,43.9 263.1,37.5 264.5,35.9 
		269.5,43.9 277.2,43.9 269.4,32 	"/>
	<path d="M297.9,33.4c-1-0.9-2.6-1.6-4.7-2l-4.1-0.8c-0.9-0.2-1.5-0.4-1.8-0.7c-0.3-0.3-0.5-0.7-0.5-1.1c0-0.5,0.3-1,0.8-1.3
		c0.5-0.3,1.2-0.5,2-0.5c0.6,0,1.1,0.1,1.6,0.3c0.5,0.2,0.8,0.5,1.1,0.8c0.3,0.3,0.5,0.7,0.5,1.2l6.2-0.2c-0.2-2.1-1.1-3.7-2.7-4.9
		c-1.6-1.2-3.9-1.8-6.8-1.8c-1.9,0-3.6,0.3-5,0.8c-1.4,0.5-2.5,1.3-3.2,2.3c-0.8,1-1.1,2.2-1.1,3.6c0,1.6,0.5,2.9,1.5,4
		c1,1,2.6,1.7,4.7,2.1L290,36c0.9,0.2,1.5,0.4,1.9,0.7c0.4,0.3,0.6,0.7,0.6,1.1c0,0.5-0.3,1-0.8,1.3c-0.5,0.3-1.2,0.5-2.1,0.5
		c-1,0-1.7-0.2-2.3-0.6c-0.6-0.4-1-1-1.1-1.8l-6.6,0.2c0.2,2.1,1.2,3.8,3,5c1.7,1.2,4.1,1.9,7.1,1.9c1.9,0,3.6-0.3,5-0.9
		c1.5-0.6,2.6-1.4,3.5-2.5c0.8-1.1,1.3-2.3,1.3-3.8C299.4,35.6,298.9,34.3,297.9,33.4z"/>
	<path d="M51.9,28.5c-0.2,0.1-0.3,0.2-0.5,0.3c-1.4,1-5.4,4.3-5.4,4.3L49.3,20l0.2-0.9l1.3-5.2c0.3-1.3-0.3-2.6-1.5-3.3
		c-1.2-0.6-2.7-0.3-3.5,0.7l-1,1.3l-0.4,0.5L32.2,28.2l3.3-14.4c0.3-1.2-0.3-2.5-1.3-3.1c-1.1-0.6-2.5-0.5-3.4,0.3L7.5,32.2l-1,0.9
		c0,0,0-0.1,0-0.1l-0.1,0.1c-0.2-1.3-0.4-2.6-0.4-4c0-10.2,6.6-18.7,15.7-21.8c-0.5-0.9-1.8-3.2-2.7-4.8C8.2,6.6,0.6,16.9,0.6,29.1
		c0,5,1.3,9.7,3.6,13.8l0.3-0.2c0,0,0,0,0,0l3.8-3.4l0.1-0.1L9.6,38l18.3-16.6l-4,17.5c-0.3,1.3,0.3,2.6,1.5,3.2
		c1.2,0.6,2.6,0.3,3.5-0.8L42.1,25l-3.8,14.8c-0.3,1.2,0.2,2.4,1.2,3.1c1,0.7,2.4,0.6,3.3-0.1l7.1-5.5c0,0,0,0,0,0l0.1-0.1l0.5-0.4
		l0.1,0c-0.1,0.3-0.2,0.6-0.4,0.9c-3.4,8.4-11.6,14.4-21.3,14.4c-4.9,0-9.5-1.6-13.3-4.2l-3.1,3.6L12.1,52
		c4.7,3.5,10.5,5.5,16.8,5.5c15.5,0,28.1-12.4,28.4-27.8C56.9,27,54.2,27.1,51.9,28.5z"/>
</g>
</svg>
