<?xml version="1.0" encoding="utf-8"?>
<!-- Generator: Adobe Illustrator 24.2.2, SVG Export Plug-In . SVG Version: 6.00 Build 0)  -->
<svg version="1.1" id="Layer_1" xmlns="http://www.w3.org/2000/svg" xmlns:xlink="http://www.w3.org/1999/xlink" x="0px" y="0px"
	 viewBox="0 0 73.7 66.1" style="enable-background:new 0 0 73.7 66.1;" xml:space="preserve">
<style type="text/css">
	.st0{fill:none;stroke:#464A53;stroke-width:2;stroke-linecap:round;stroke-linejoin:round;}
	.st1{fill:#DCDFDF;}
	.st2{fill:none;stroke:#FF4A17;stroke-width:2;stroke-linecap:round;stroke-linejoin:round;}
	.st3{fill:none;stroke:#081219;stroke-width:2;stroke-linecap:round;stroke-linejoin:round;}
</style>
<g>
	<g transform="matrix( 1, 0, 0, 1, 0,0) ">
		<g>
			<path id="Layer1_39_1_STROKES" class="st0" d="M46.1,55.8H69c1,0,1.8-0.3,2.4-0.8s0.9-1.2,0.9-2V4.5c0-0.7-0.3-1.4-0.9-2.2
				c-0.8-0.6-1.6-0.8-2.4-0.8H4.2c-0.7,0-1.3,0.3-1.8,0.8S1.5,3.6,1.5,4.5v48.5c0,0.9,0.3,1.6,0.8,2c0.5,0.6,1.1,0.8,1.8,0.8h23.4
				H46.1v8.9h4.4 M46.1,64.7H27.6h-4.3 M27.6,64.7v-8.9"/>
		</g>
	</g>
	<g transform="matrix( 1, 0, 0, 1, 0,0) ">
		<g>
			<g id="Layer1_39_MEMBER_0_FILL">
				<path class="st1" d="M33.4,26.8h-6v25h6V26.8 M43.3,26.8h-6v25h6V26.8z"/>
			</g>
		</g>
		<g>
			<path id="Layer1_39_MEMBER_0_1_STROKES" class="st2" d="M43.7,7.8l2.7,2.6l-0.2,0.2l-2.4,2.3 M39,10.5l7.2,0.1 M29.9,13.1
				l-2.5-2.6l-0.2-0.2L29.9,8 M27.4,10.5h7.1"/>
		</g>
	</g>
	<g transform="matrix( 0, 1, 1, 0, -369.5,437.1) ">
		<g transform="matrix( 0, 1, 1, 0, -437.1,369.5) ">
			<path id="Layer1_39_MEMBER_0_MEMBER_0_1_STROKES" class="st3" d="M-394.9,404l-2.5-2.5v7.1 M-397.4,401.5l-0.2-0.2l-2.4,2.7"/>
		</g>
	</g>
</g>
</svg>
