<?xml version="1.0" encoding="utf-8"?>
<!-- Generator: Adobe Illustrator 24.1.2, SVG Export Plug-In . SVG Version: 6.00 Build 0)  -->
<svg version="1.1" id="Layer_1" 
	xmlns="http://www.w3.org/2000/svg" 
	xmlns:xlink="http://www.w3.org/1999/xlink" x="0px" y="0px" viewBox="0 0 24 24" style="enable-background:new 0 0 24 24;" xml:space="preserve">
	<style type="text/css">
	.st0{fill:none;stroke:#FFFFFF;stroke-width:2;stroke-linecap:round;stroke-miterlimit:10;}
	.st1{fill:#FFFFFF;}
	</style>
	<g transform="matrix( 0.9689788818359375, 0, 0, 0.9689788818359375, 0.4,0.85) ">
		<g transform="matrix( 1.032012939453125, 0, 0, 1.032012939453125, -0.4,-0.85) ">
			<path id="Layer0_0_1_STROKES" class="st0" d="M3.2,6.5C3.1,6.5,3,6.5,3,6.4C2.9,6.3,2.8,6.2,2.8,6.1V3.5c0-0.1,0-0.2,0.1-0.3
			c0.1,0,0.2-0.1,0.3-0.1"/>
		</g>
	</g>
	<g>
		<path class="st1" d="M2.9,23.5l0.3-1.2c0.3,0,0.7,0,1.3-0.1c0.5-0.1,1-0.1,1.3-0.2c0.4-0.1,0.7-0.4,1-0.6c0.2-0.3,0.4-0.6,0.5-1
		l3.7-16.1C11,4,11,3.8,11,3.7c0-0.2,0-0.3,0-0.3c0-0.5-0.3-0.8-0.8-1.1C9.8,2,9,1.8,8,1.7l0.3-1.2h12.8l-0.3,1.2
		c-0.3,0-0.8,0.1-1.3,0.2c-0.5,0.1-0.9,0.2-1.2,0.3c-0.4,0.1-0.8,0.4-1,0.7s-0.4,0.6-0.4,1l-3.7,16.1c0,0.2-0.1,0.4-0.1,0.5
		c0,0.2,0,0.3,0,0.4c0,0.5,0.3,0.9,0.8,1.1c0.5,0.2,1.3,0.4,2.3,0.5l-0.3,1.2H2.9z"/>
	</g>
</svg>
