<svg xmlns="http://www.w3.org/2000/svg" xmlns:xlink="http://www.w3.org/1999/xlink" width="21.998" height="16.583" viewBox="0 0 21.998 16.583">
  <defs>
    <clipPath id="clip-path">
      <rect id="Rectangle_500" data-name="Rectangle 500" width="21.998" height="16.583" transform="translate(0 0)" fill="none" stroke="#007cba" stroke-width="1"/>
    </clipPath>
  </defs>
  <g id="Group_1006" data-name="Group 1006" transform="translate(0 0)">
    <g id="Group_1005" data-name="Group 1005" clip-path="url(#clip-path)">
      <path id="Path_304" data-name="Path 304" d="M8.681,15.833V13.164m5.741,2.669h-6.8m5.593-2.669h7.306a.673.673,0,0,0,.527-.222.763.763,0,0,0,.2-.534V1.507a.759.759,0,0,0-.2-.533.67.67,0,0,0-.527-.223H1.44a.726.726,0,0,0-.69.756v10.9a.726.726,0,0,0,.69.756H13.211v2.669" fill="none" stroke="#007cba" stroke-linecap="round" stroke-linejoin="round" stroke-width="1.5"/>
      <path id="Path_305" data-name="Path 305" d="M16.649,9.75H12.405V4.091" fill="none" stroke="#007cba" stroke-linecap="round" stroke-linejoin="round" stroke-width="1.5"/>
      <path id="Path_306" data-name="Path 306" d="M5.358,9.652,7.684,6.846,5.4,4.091" fill="none" stroke="#007cba" stroke-linecap="round" stroke-linejoin="round" stroke-width="1.5"/>
      <path id="Path_307" data-name="Path 307" d="M9.96,4.09,7.684,6.846,10,9.651" fill="none" stroke="#007cba" stroke-linecap="round" stroke-linejoin="round" stroke-width="1.5"/>
    </g>
  </g>
</svg>
