<svg id="Layer_1" data-name="Layer 1"
	xmlns="http://www.w3.org/2000/svg" viewBox="0 0 72.75 65.25">
	<defs>
		<style>.cls-1,.cls-2,.cls-3,.cls-4{fill:none;stroke-linecap:round;stroke-linejoin:round;}.cls-1{stroke:#464a53;}.cls-1,.cls-3{stroke-width:2px;}.cls-2{stroke:#dcdfdf;stroke-width:5px;}.cls-3{stroke:#ff4a17;}.cls-4{stroke:#081219;stroke-width:2px;}</style>
	</defs>
	<path id="Layer1_46_1_STROKES" data-name="Layer1 46 1 STROKES" class="cls-1" d="M46.13,55.78H69a3.26,3.26,0,0,0,2.41-.86,2.86,2.86,0,0,0,.7-1.09,2.75,2.75,0,0,0,.14-.91V4.48a3.93,3.93,0,0,0-.84-2.2A4.13,4.13,0,0,0,69,1.42H4.17a2.56,2.56,0,0,0-1.84.86,3,3,0,0,0-.86,2.2V52.92a3.17,3.17,0,0,0,.13.91,2,2,0,0,0,.73,1.09,2.26,2.26,0,0,0,1.84.86h42v8.89h4.45m-27.3,0h4.3V55.78m18.55,8.89H27.58" transform="translate(-0.47 -0.42)"/>
	<path id="Layer1_46_MEMBER_0_1_STROKES" data-name="Layer1 46 MEMBER 0 1 STROKES" class="cls-2" d="M39.17,33.33a10.71,10.71,0,0,0,3.25,6.45,10.67,10.67,0,0,0,7.86,3.3,10.81,10.81,0,0,0,7.89-3.3l.21-.2" transform="translate(-0.47 -0.42)"/>
	<path id="Layer1_46_MEMBER_0_MEMBER_0_1_STROKES" data-name="Layer1 46 MEMBER 0 MEMBER 0 1 STROKES" class="cls-3" d="M13.92,16.67a10.25,10.25,0,0,1,2-2.09,4.47,4.47,0,0,1,2.66-.75,5.53,5.53,0,0,1,4.09,1.7,5.11,5.11,0,0,1,1.71,4,5.7,5.7,0,0,1-1.75,4.15,5.55,5.55,0,0,1-4.05,1.69,5.64,5.64,0,0,1-3.41-1.14A6.25,6.25,0,0,1,14,23.13m-1.8-10.9v4.94a1.31,1.31,0,0,0,.3.71,1,1,0,0,0,.7.29h5.11" transform="translate(-0.47 -0.42)"/>
	<path id="Layer1_46_MEMBER_0_MEMBER_1_1_STROKES" data-name="Layer1 46 MEMBER 0 MEMBER 1 1 STROKES" class="cls-4" d="M61.41,39.15,60.1,35.87,60,35.59l-3.28,1.52m3.34-1.24-2,4.38" transform="translate(-0.47 -0.42)"/>
</svg>
