
<svg xmlns="http://www.w3.org/2000/svg" version="1.1" xmlns:xlink="http://www.w3.org/1999/xlink" preserveAspectRatio="none" x="0px" y="0px" width="1280px" height="112px" viewBox="0 0 1280 112">
<defs>
<g id="Layer0_0_FILL">
<path fill="#000000" stroke="none" d="
M 1218.75 85.4
Q 1240 80.5 1280 70
L 1280 0 0 0 0 70
Q 40 59.5 61.25 54.6 96.65 46.4 130 41.15 213.35 28 320 28 426.65 28 510 41.15 543.35 46.4 578.75 54.6 600 59.5 640 70 680 80.5 701.25 85.4 736.65 93.65 770 98.9 853.35 112 960 112 1066.65 112 1150 98.9 1183.35 93.65 1218.75 85.4 Z"/>
</g>
</defs>

<g transform="matrix( 1, 0, 0, 1, 0,0) ">
<use xlink:href="#Layer0_0_FILL"/>
</g>
</svg>
