<?xml version="1.0" encoding="UTF-8"?>
<svg width="88px" height="35px" viewBox="0 0 88 35" version="1.1" xmlns="http://www.w3.org/2000/svg" xmlns:xlink="http://www.w3.org/1999/xlink">
    <!-- Generator: Sketch 58 (84663) - https://sketch.com -->
    <title>bt-pre4</title>
    <desc>Created with Sketch.</desc>
    <g id="Page-1" stroke="none" stroke-width="1" fill="none" fill-rule="evenodd">
        <g id="bt-pre4" transform="translate(1.000000, 1.000000)">
            <rect id="Rectangle" stroke="#979797" fill="#FFFFFF" x="0" y="0" width="86" height="33" rx="16.5"></rect>
            <g id="Group" transform="translate(9.000000, 11.000000)" fill="#85878C" fill-rule="nonzero">
                <path d="M7.4,7.3 C7.3,8.3 6.9,9.1 6.3,9.6 C5.7,10.2 4.8,10.4 3.8,10.4 C3.1,10.4 2.4,10.2 1.9,9.9 C1.3,9.6 0.9,9.1 0.6,8.4 C0.3,7.8 0.1,7 0.1,6.2 L0.1,5.3 C0.1,4.4 0.3,3.7 0.6,3 C0.9,2.3 1.4,1.8 1.9,1.5 C2.5,1.1 3.1,1 3.9,1 C4.9,1 5.7,1.3 6.4,1.8 C7,2.4 7.4,3.1 7.5,4.1 L5.9,4.1 C5.8,3.4 5.6,3 5.3,2.7 C5,2.4 4.5,2.3 3.9,2.3 C3.2,2.3 2.7,2.6 2.3,3.1 C1.9,3.6 1.7,4.4 1.7,5.3 L1.7,6 C1.7,7 1.9,7.8 2.2,8.3 C2.5,8.8 3.1,9.1 3.8,9.1 C4.4,9.1 4.9,9 5.2,8.7 C5.5,8.4 5.7,7.9 5.8,7.3 L7.4,7.3 L7.4,7.3 Z" id="Path"></path>
                <polygon id="Path" points="10.4 10.3 8.9 10.3 8.9 0.6 10.4 0.6"></polygon>
                <path d="M12,1.6 C12,1.4 12.1,1.2 12.2,1 C12.3,0.8 12.6,0.8 12.8,0.8 C13.1,0.8 13.3,0.9 13.4,1 C13.6,1.2 13.6,1.4 13.6,1.6 C13.6,1.8 13.5,2 13.4,2.2 C13.3,2.4 13,2.4 12.8,2.4 C12.5,2.4 12.3,2.3 12.2,2.2 C12.1,2 12,1.9 12,1.6 Z M13.7,10.3 L12.2,10.3 L12.2,3.4 L13.7,3.4 L13.7,10.3 Z" id="Shape"></path>
                <path d="M18.2,9.2 C18.6,9.2 18.9,9.1 19.2,8.9 C19.5,8.7 19.6,8.4 19.6,8.1 L21,8.1 C21,8.5 20.8,8.9 20.6,9.3 C20.4,9.7 20,10 19.6,10.2 C19.2,10.4 18.7,10.5 18.2,10.5 C17.2,10.5 16.5,10.2 15.9,9.6 C15.3,9 15.1,8.1 15.1,7 L15.1,6.8 C15.1,5.8 15.4,4.9 15.9,4.3 C16.5,3.7 17.2,3.4 18.2,3.4 C19,3.4 19.7,3.6 20.2,4.1 C20.7,4.6 21,5.2 21,6 L19.5,6 C19.5,5.6 19.3,5.3 19.1,5 C18.8,4.7 18.5,4.6 18.1,4.6 C17.6,4.6 17.2,4.8 16.9,5.1 C16.6,5.5 16.5,6 16.5,6.7 L16.5,7 C16.5,7.7 16.6,8.3 16.9,8.7 C17.3,9 17.7,9.2 18.2,9.2 Z" id="Path"></path>
                <polygon id="Path" points="24.4 7.3 23.7 8 23.7 10.2 22.2 10.2 22.2 0.5 23.7 0.5 23.7 6.1 24.2 5.5 26.1 3.4 28 3.4 25.4 6.3 28.2 10.3 26.4 10.3"></polygon>
            </g>
            <path d="M69.6749135,29 L69.2250865,29 C62.2077855,29 56.45,23.3661972 56.45,16.5 L56.45,16.5 C56.45,9.63380282 62.2077855,4 69.2250865,4 L69.6749135,4 C76.6922145,4 82.45,9.63380282 82.45,16.5 L82.45,16.5 C82.45,23.3661972 76.6922145,29 69.6749135,29 Z" id="Path" stroke="#85878C" fill="#FFFFFF" fill-rule="nonzero"></path>
            <g id="Arrow_Down_2_" transform="translate(63.000000, 11.000000)" fill="#85878C" fill-rule="nonzero">
                <g id="Arrow_Down_5_">
                    <path d="M12,5 L8.9,1.1 C8.6,0.8 8.2,0.7 7.8,1 C7.5,1.3 7.4,1.8 7.7,2.1 L9.7,4.7 L9.7,4.7 L0.8,4.7 L0.8,6.2 L9.8,6.2 L7.7,8.8 C7.4,9.1 7.5,9.6 7.8,9.9 C7.9,9.9 7.9,10 8,10 L8.6,10 C8.7,10 8.8,9.9 8.9,9.8 L12,6 C12.2,5.7 12.2,5.3 12,5 Z" id="Path"></path>
                </g>
            </g>
        </g>
    </g>
</svg>