<svg xmlns="http://www.w3.org/2000/svg" viewBox="0 0 70 25.8"><defs><style>.cls-1{fill:#163247;}.cls-2{fill:#fff;opacity:0.3;isolation:isolate;}</style></defs><title>b4</title><g id="Layer_2" data-name="Layer 2"><g id="Layer_1-2" data-name="Layer 1"><g id="Group_693" data-name="Group 693"><path fill="#163247" d="M65,0H5A5,5,0,0,0,0,5V20.8a5,5,0,0,0,5,5H65a5,5,0,0,0,5-5V5A5,5,0,0,0,65,0ZM13.6,16.65l-.8-2.2H9.2l-.8,2.2H7.2l3.3-8.5h1l3.3,8.5Zm7.5-3.11a3.69,3.69,0,0,1-.7,2.3,2.14,2.14,0,0,1-1.8.9,2.46,2.46,0,0,1-1.9-.9l-.1.7h-1v-9h1.1v3.4a2.34,2.34,0,0,1,1.8-.8,2.14,2.14,0,0,1,1.8.9A3.42,3.42,0,0,1,21.1,13.54Zm6,2.11a3.64,3.64,0,0,1-.9.8,2.65,2.65,0,0,1-1.2.29,2.84,2.84,0,0,1-2.1-.9,4.06,4.06,0,0,1-.8-2.39v-.21a4.15,4.15,0,0,1,.3-1.6,2.13,2.13,0,0,1,1-1.1,2.82,2.82,0,0,1,1.5-.4,2.79,2.79,0,0,1,1.8.6,2.49,2.49,0,0,1,.8,1.71h-1a1.35,1.35,0,0,0-.5-1A1.29,1.29,0,0,0,25,11a1.59,1.59,0,0,0-1.3.61,3.34,3.34,0,0,0-.5,1.7v.2a2.62,2.62,0,0,0,.5,1.7A1.48,1.48,0,0,0,25,16a1.29,1.29,0,0,0,1-.41,1,1,0,0,0,.5-.89h1A1.81,1.81,0,0,1,27.1,15.65ZM60.49,13a.78.78,0,0,1-.16.24l-2.7,2.7a.75.75,0,0,1-1.06,0,.75.75,0,0,1,0-1.06L58,13.45H53A.75.75,0,0,1,53,12h5l-1.42-1.42a.75.75,0,0,1,1.06-1.06l2.7,2.7a.78.78,0,0,1,.16.24A.73.73,0,0,1,60.49,13Z"/><path fill="#163247" d="M19.6,11.74a1.43,1.43,0,0,0-1.2-.6,1.54,1.54,0,0,0-1.5,1v2.7a1.76,1.76,0,0,0,1.6,1,1.43,1.43,0,0,0,1.2-.6,3.59,3.59,0,0,0,.3-1.79A3.3,3.3,0,0,0,19.6,11.74Z"/><polygon fill="#163247" points="9.6 13.54 12.5 13.54 11 9.54 9.6 13.54"/><path fill="#fff" opacity="0.3" d="M62.3,2H50a5,5,0,0,0-5,5V18.1a5,5,0,0,0,5,5H62.3a5,5,0,0,0,5-5V7A5,5,0,0,0,62.3,2ZM60.49,13a.78.78,0,0,1-.16.24l-2.7,2.7a.75.75,0,0,1-1.06,0,.75.75,0,0,1,0-1.06L58,13.45H53A.75.75,0,0,1,53,12h5l-1.42-1.42a.75.75,0,0,1,1.06-1.06l2.7,2.7a.78.78,0,0,1,.16.24A.73.73,0,0,1,60.49,13Z"/></g></g></g></svg>
