<?xml version="1.0" encoding="utf-8"?>
<!-- Generator: Adobe Illustrator 24.3.0, SVG Export Plug-In . SVG Version: 6.00 Build 0)  -->
<svg version="1.1" id="Layer_1" xmlns="http://www.w3.org/2000/svg" xmlns:xlink="http://www.w3.org/1999/xlink" x="0px" y="0px"
	 viewBox="0 0 88.3 34.9" style="enable-background:new 0 0 88.3 34.9;" xml:space="preserve">
<style type="text/css">
	.st0{fill:#FFFFFF;stroke:#85878C;stroke-miterlimit:10;}
	.st1{fill:#85878C;}
</style>
<path class="st0" d="M1.2,28.1V6.8c0-3.1,2.6-5.7,5.7-5.7h74.5c3.1,0,5.7,2.6,5.7,5.7v21.2c0,3.1-2.6,5.7-5.7,5.7H6.9
	C3.8,33.8,1.2,31.2,1.2,28.1z"/>
<g>
	<path class="st1" d="M17.4,19.3c-0.1,1-0.5,1.8-1.1,2.3c-0.6,0.6-1.5,0.8-2.5,0.8c-0.7,0-1.4-0.2-1.9-0.5c-0.6-0.3-1-0.8-1.3-1.5
		c-0.3-0.6-0.5-1.4-0.5-2.2v-0.9c0-0.9,0.2-1.6,0.5-2.3s0.8-1.2,1.3-1.5c0.6-0.4,1.2-0.5,2-0.5c1,0,1.8,0.3,2.5,0.8
		c0.6,0.6,1,1.3,1.1,2.3h-1.6c-0.1-0.7-0.3-1.1-0.6-1.4s-0.8-0.4-1.4-0.4c-0.7,0-1.2,0.3-1.6,0.8c-0.4,0.5-0.6,1.3-0.6,2.2V18
		c0,1,0.2,1.8,0.5,2.3s0.9,0.8,1.6,0.8c0.6,0,1.1-0.1,1.4-0.4c0.3-0.3,0.5-0.8,0.6-1.4H17.4z"/>
	<path class="st1" d="M20.4,22.3h-1.5v-9.7h1.5V22.3z"/>
	<path class="st1" d="M22,13.6c0-0.2,0.1-0.4,0.2-0.6c0.1-0.2,0.4-0.2,0.6-0.2c0.3,0,0.5,0.1,0.6,0.2c0.2,0.2,0.2,0.4,0.2,0.6
		c0,0.2-0.1,0.4-0.2,0.6s-0.4,0.2-0.6,0.2c-0.3,0-0.5-0.1-0.6-0.2C22.1,14,22,13.9,22,13.6z M23.7,22.3h-1.5v-6.9h1.5V22.3z"/>
	<path class="st1" d="M28.2,21.2c0.4,0,0.7-0.1,1-0.3s0.4-0.5,0.4-0.8H31c0,0.4-0.2,0.8-0.4,1.2c-0.2,0.4-0.6,0.7-1,0.9
		s-0.9,0.3-1.4,0.3c-1,0-1.7-0.3-2.3-0.9c-0.6-0.6-0.8-1.5-0.8-2.6v-0.2c0-1,0.3-1.9,0.8-2.5c0.6-0.6,1.3-0.9,2.3-0.9
		c0.8,0,1.5,0.2,2,0.7c0.5,0.5,0.8,1.1,0.8,1.9h-1.5c0-0.4-0.2-0.7-0.4-1c-0.3-0.3-0.6-0.4-1-0.4c-0.5,0-0.9,0.2-1.2,0.5
		c-0.3,0.4-0.4,0.9-0.4,1.6V19c0,0.7,0.1,1.3,0.4,1.7C27.3,21,27.7,21.2,28.2,21.2z"/>
	<path class="st1" d="M34.4,19.3L33.7,20v2.2h-1.5v-9.7h1.5v5.6l0.5-0.6l1.9-2.1h1.9l-2.6,2.9l2.8,4h-1.8L34.4,19.3z"/>
</g>
<path class="st0" d="M70.7,31.7h-0.5c-7.8,0-14.2-6.4-14.2-14.2v0c0-7.8,6.4-14.2,14.2-14.2h0.5c7.8,0,14.2,6.4,14.2,14.2v0
	C84.9,25.3,78.5,31.7,70.7,31.7z"/>
<g id="Arrow_Down_2_">
	<g id="Arrow_Down_5_">
		<g>
			<path class="st1" d="M76,17l-3.1-3.9c-0.3-0.3-0.7-0.4-1.1-0.1c-0.3,0.3-0.4,0.8-0.1,1.1l2,2.6l0,0h-8.9v1.5h9l-2.1,2.6
				c-0.3,0.3-0.2,0.8,0.1,1.1c0.1,0,0.1,0.1,0.2,0.1h0.6c0.1,0,0.2-0.1,0.3-0.2L76,18C76.2,17.7,76.2,17.3,76,17z"/>
		</g>
	</g>
</g>
</svg>
