<svg id="Layer_1" data-name="Layer 1"
	xmlns="http://www.w3.org/2000/svg" viewBox="0 0 72.75 65.25">
	<defs>
		<style>.cls-1{fill:#dcdfdf;}.cls-2,.cls-3,.cls-4{fill:none;stroke-linecap:round;stroke-linejoin:round;}.cls-2{stroke:#464a53;}.cls-2,.cls-3{stroke-width:2px;}.cls-3{stroke:#081219;}.cls-4{stroke:#ff4a17;stroke-width:2px;}</style>
	</defs>
	<g id="Layer1_50_FILL" data-name="Layer1 50 FILL">
		<path class="cls-1" d="M57.58,22.39H42.83V37.14H57.58Z" transform="translate(-0.58 -0.24)"/>
	</g>
	<path id="Layer1_50_1_STROKES" data-name="Layer1 50 1 STROKES" class="cls-2" d="M46.24,55.59H69.08a3.21,3.21,0,0,0,2.4-.85,2.72,2.72,0,0,0,.85-2V4.29a3.88,3.88,0,0,0-.85-2.2,4.09,4.09,0,0,0-2.4-.85H4.28a2.58,2.58,0,0,0-1.85.85,3,3,0,0,0-.85,2.2V52.74a2.37,2.37,0,0,0,.85,2,2.28,2.28,0,0,0,1.85.85h42v8.9h4.44m-27.29,0h4.29v-8.9m18.56,8.9H27.68" transform="translate(-0.58 -0.24)"/>
	<path id="Layer1_50_MEMBER_0_1_STROKES" data-name="Layer1 50 MEMBER 0 1 STROKES" class="cls-3" d="M52.74,28.79l-2.56-2.5v7.1m0-7.1-.19-.2-2.36,2.7" transform="translate(-0.58 -0.24)"/>
	<path id="Layer1_50_MEMBER_1_1_STROKES" data-name="Layer1 50 MEMBER 1 1 STROKES" class="cls-4" d="M14.52,37.44l5-5m-5,5h-.29l.25-3.57m3.61,3.61-3.57,0m8.2-8.2,5.16-5-.11,3.29M24.13,24l3.75-.07v.28" transform="translate(-0.58 -0.24)"/>
</svg>
