<?xml version="1.0" encoding="utf-8"?>
<!-- Generator: Adobe Illustrator 24.2.2, SVG Export Plug-In . SVG Version: 6.00 Build 0)  -->
<svg version="1.1" id="Layer_1" xmlns="http://www.w3.org/2000/svg" xmlns:xlink="http://www.w3.org/1999/xlink" x="0px" y="0px"
	 viewBox="0 0 73.7 66.1" style="enable-background:new 0 0 73.7 66.1;" xml:space="preserve">
<style type="text/css">
	.st0{fill:none;stroke:#474A54;stroke-width:2;stroke-linecap:round;stroke-linejoin:round;}
	.st1{fill:#DCDFDF;}
	.st2{fill:none;stroke:#F04F26;stroke-width:2;stroke-linecap:round;stroke-linejoin:round;}
	.st3{fill:none;stroke:#0E151B;stroke-width:2;stroke-linecap:round;stroke-linejoin:round;}
</style>
<g>
	<g transform="matrix( 1, 0, 0, 1, 0,0) ">
		<g>
			<path id="Layer1_30_1_STROKES" class="st0" d="M46.1,55.8H69c1,0,1.8-0.3,2.4-0.9c0.6-0.6,0.9-1.2,0.9-2V4.5
				c0-0.7-0.3-1.4-0.9-2.2c-0.8-0.6-1.6-0.9-2.4-0.9H4.2c-0.7,0-1.3,0.3-1.8,0.9S1.5,3.6,1.5,4.5v48.4c0,0.9,0.3,1.6,0.8,2
				c0.5,0.6,1.1,0.9,1.8,0.9h23.4H46.1v8.9h4.4 M23.3,64.7h4.3v-8.9 M46.1,64.7H27.6"/>
		</g>
	</g>
	<g transform="matrix( 1, 0, 0, 1, 1.55,0) ">
		<g>
			<g id="Layer1_30_MEMBER_0_FILL">
				<path class="st1" d="M44.7,26.8h-6v25h6V26.8 M34.8,26.8h-6v25h6V26.8z"/>
			</g>
		</g>
		<g>
			<path id="Layer1_30_MEMBER_0_1_STROKES" class="st2" d="M42.2,13.1l2.5-2.5h-7.1 M44.7,10.5l0.2-0.2L42.2,8 M28.4,7.8l-2.7,2.6
				l0.2,0.2l7.2-0.1 M25.9,10.6l2.4,2.3"/>
		</g>
	</g>
	<g transform="matrix( 0, 1, -1, 0, 589.2,353.05) ">
		<g transform="matrix( 0, -1, 1, 0, -353.05,589.2) ">
			<path id="Layer1_30_MEMBER_0_MEMBER_0_1_STROKES" class="st3" d="M-310.8,550l-2.6-2.5v7.1 M-313.4,547.5l-0.2-0.2l-2.4,2.7"/>
		</g>
	</g>
</g>
</svg>
