<svg xmlns="http://www.w3.org/2000/svg" version="1.1"
	xmlns:xlink="http://www.w3.org/1999/xlink" preserveAspectRatio="none" x="0px" y="0px" width="1279px" height="129px" viewBox="0 0 1279 129">
	<defs>
		<g id="Layer1_0_FILL">
			<path fill="#000000" stroke="none" d="
M 1279.95 29.55
Q 1270 38.5 1264.65 43 1255.35 50.95 1247.45 55.85 1225.9 69.25 1200.05 69.25 1180.9 69.25 1166.6 60 1158.05 54.45 1144.65 39.6 1131.35 24.8 1122.6 19.2 1108.15 9.95 1088.8 9.95 1070.95 9.95 1055.4 18.1 1046.25 22.9 1029.95 36.1 1013.95 49.1 1004.1 54.1 988.1 62.25 969.45 62.25 954.45 62.25 942 57 937.25 55 920.9 45.35 907.3 37.4 895.2 33.75 877.6 28.5 853.85 28.5 824.3 28.5 802.45 37.2 793.85 40.6 784.5 46.15 780.8 48.3 768.2 56.35 747.15 69.85 730.2 75.55 704.15 84.25 667.45 84.25 630.35 84.25 598.7 71.9 586.1 67 571.95 59.25 564.3 55.1 547.2 44.75 514.85 25.3 494.05 17.65 460.5 5.3 420.2 5.3 386.4 5.3 358.7 12.05 340.1 16.6 315.9 26.95 288.45 38.7 278.15 41.85 256.05 48.6 231.75 48.6 205.8 48.6 183.05 41 167.45 35.8 147.15 24.3 123.15 10.65 116.05 7.6 98.6 0 81.6 0 53.75 0 33.3 8.25 16.9 14.9 0 29.5
L 0 129.5 1279.95 129.5 1279.95 29.55 Z"/>
		</g>

		<g id="Layer0_0_FILL">
			<path fill="#000000" fill-opacity="0.4980392156862745" stroke="none" d="
M 252.05 458.75
Q 260.8 460.85 277.9 467 294.15 472.85 305.2 475.25 322.65 479 344 479 357.9 479 370.4 476.55 352.05 471.95 332.8 462.9 332.5 462.75 301.55 446.8 283.55 437.5 270.05 433.35 251.75 427.75 231.75 427.75 205.8 427.75 182.8 435.35 167.05 440.55 146.4 452.05 121.9 465.65 114.7 468.7 97 476.3 80 476.3 52.3 476.3 32.5 468.05 17.15 461.65 0 446.8
L 0 463.6
Q 20 474.5 32.5 478.6 53.35 485.4 80 485.4 106.9 485.4 126.95 480.65 140.4 477.45 156.7 470.2 175.1 462 182.5 459.75 198.2 455 217.65 455 236.25 455 252.05 458.75
M 934.8 422.85
Q 943.1 428.95 960.35 443.85 976.3 457.6 985.7 464.1 1016.3 485.4 1052.1 485.4 1075.15 485.4 1094.3 478.6 1105.55 474.6 1125.05 463.65 1144.25 452.8 1156.3 448.65 1176.05 441.85 1200.1 441.85 1226.6 441.85 1247.5 448.7 1259.95 452.75 1280 463.6
L 1280 446.8
Q 1270 437.85 1264.7 433.35 1255.35 425.4 1247.5 420.5 1225.95 407.1 1200.1 407.1 1180.95 407.1 1166.05 414.4 1157.15 418.75 1142.8 430.4 1128.5 442.05 1119.45 446.4 1104.4 453.7 1085.05 453.7 1067.2 453.7 1052.25 447.5 1043.45 443.9 1028.1 433.9 1013 424.1 1003.55 420.3 988.1 414.1 969.45 414.1 958.85 414.1 949.9 416.6 942.7 418.6 934.8 422.85
M 756.9 394.45
Q 745.45 384.2 734.65 377.75 706.25 360.85 665.65 360.85 641.6 360.85 620.8 368.5 603.1 375.05 585.65 388.05 573.5 397.1 555.65 414.2 532.9 436 526.25 441.75 544.8 443.35 562.25 448.3 568.45 450.1 591 457.95 608.35 464.05 621.7 466.7 640.7 470.5 663.45 470.5 682.25 470.5 698.3 464.65 711.35 459.9 725.3 450.05 729.55 447.05 749.45 431.25 764.55 419.3 775.9 412.75 759.15 396.5 756.9 394.45 Z"/>
		</g>

		<g id="Layer0_0_MEMBER_0_FILL">
			<path fill="#000000" fill-opacity="0.2980392156862745" stroke="none" d="
M 526.25 80.9
Q 516.15 80.05 504.85 80.05 480.55 80.05 460.05 84.45 444.3 87.8 427.25 94.7 408.75 102.85 399.65 106.55 383.8 113.05 370.4 115.7 394.75 121.75 423.3 121.75 455.65 121.75 482.6 109.75 503.85 100.3 526.25 80.9
M 934.8 62
Q 916.6 48.6 898.55 41.95 876.2 33.7 849.3 33.7 826.4 33.7 807.3 38.85 790.95 43.25 775.9 51.9 793.6 69.1 807.5 76.4 827.55 86.95 853.85 86.95 883.9 86.95 904.95 78.25 917 73.25 934.8 62 Z"/>
		</g>
	</defs>

	<g transform="matrix( 1, 0, 0, -1, 0,129.5) ">
		<use xlink:href="#Layer1_0_FILL"/>
	</g>

	<g transform="matrix( 1, 0, 0, 1, 0,-358.35) ">
		<use xlink:href="#Layer0_0_FILL"/>
	</g>

	<g transform="matrix( 1, 0, 0, 1, 0,2.5) ">
		<use xlink:href="#Layer0_0_MEMBER_0_FILL"/>
	</g>
</svg>
