<?xml version="1.0" encoding="utf-8"?>
<!-- Generator: Adobe Illustrator 24.1.3, SVG Export Plug-In . SVG Version: 6.00 Build 0)  -->
<svg version="1.1" id="Layer_1" 
	xmlns="http://www.w3.org/2000/svg" 
	xmlns:xlink="http://www.w3.org/1999/xlink" x="0px" y="0px" viewBox="0 0 24 24" style="enable-background:new 0 0 24 24;" xml:space="preserve">
	<style type="text/css">
	.st0{fill:#FFFFFF;}
	</style>
	<path class="st0" d="M19.9,4.1c-4.3-4.3-11.4-4.3-15.7,0c-4.3,4.3-4.3,11.4,0,15.7c4.3,4.3,11.4,4.3,15.7,0
	C24.2,15.5,24.2,8.5,19.9,4.1z M19.4,18.3c-0.5-0.5-1.1-0.9-1.7-1.2c0.4-1.3,0.6-2.8,0.7-4.3h3.3C21.5,14.8,20.7,16.7,19.4,18.3
	L19.4,18.3z M2.3,12.7h3.3c0.1,1.5,0.3,3,0.7,4.3c-0.6,0.4-1.1,0.8-1.7,1.2C3.3,16.7,2.5,14.8,2.3,12.7z M4.6,5.7
	C5.1,6.2,5.7,6.6,6.3,7c-0.4,1.3-0.6,2.8-0.7,4.3H2.3C2.5,9.2,3.3,7.3,4.6,5.7z M11.3,7.1C10.1,7,9,6.7,8,6.3
	c0.6-1.5,1.7-3.4,3.3-3.9V7.1z M11.3,8.5v2.8H7c0-1.3,0.2-2.5,0.5-3.7C8.7,8.1,10,8.4,11.3,8.5z M11.3,12.7v2.8
	c-1.3,0.1-2.6,0.4-3.7,0.9C7.2,15.2,7.1,14,7,12.7H11.3z M11.3,16.9v4.7c-1.6-0.5-2.7-2.3-3.3-3.9C9,17.3,10.1,17,11.3,16.9z
	 M12.7,16.9c1.2,0.1,2.3,0.4,3.3,0.8c-0.6,1.5-1.7,3.4-3.3,3.9V16.9z M12.7,15.5v-2.8H17c0,1.3-0.2,2.5-0.5,3.7
	C15.3,15.9,14,15.6,12.7,15.5L12.7,15.5z M12.7,11.3V8.5c1.3-0.1,2.6-0.4,3.7-0.9c0.3,1.1,0.5,2.4,0.5,3.7H12.7z M12.7,7.1V2.4
	c1.6,0.5,2.7,2.3,3.3,3.9C15,6.7,13.9,7,12.7,7.1z M15.9,3.1c0.9,0.4,1.8,0.9,2.5,1.6C18,5,17.7,5.3,17.3,5.6
	C16.9,4.7,16.5,3.9,15.9,3.1z M6.7,5.6C6.3,5.3,6,5,5.6,4.7C6.4,4,7.2,3.5,8.1,3.1C7.5,3.9,7.1,4.7,6.7,5.6L6.7,5.6z M6.7,18.4
	c0.4,0.9,0.8,1.7,1.4,2.5c-0.9-0.4-1.8-0.9-2.5-1.6C6,19,6.3,18.7,6.7,18.4z M17.3,18.4c0.4,0.3,0.8,0.5,1.1,0.9
	c-0.8,0.7-1.6,1.2-2.5,1.6C16.5,20.1,16.9,19.3,17.3,18.4L17.3,18.4z M18.4,11.3c-0.1-1.5-0.3-3-0.7-4.3c0.6-0.4,1.1-0.8,1.7-1.2
	c1.3,1.6,2.1,3.5,2.3,5.6H18.4z"/>
</svg>
