<svg id="Layer_1" data-name="Layer 1" xmlns="http://www.w3.org/2000/svg" xmlns:xlink="http://www.w3.org/1999/xlink" viewBox="0 0 73.92 65.73"><defs><style>.cls-1{fill:url(#radial-gradient);}.cls-2,.cls-3,.cls-4{fill:none;stroke-linecap:round;stroke-linejoin:round;}.cls-2{stroke:#464a53;}.cls-2,.cls-3{stroke-width:2px;}.cls-3{stroke:#081219;}.cls-4{stroke:#ff4a17;stroke-width:2px;}</style><radialGradient id="radial-gradient" cx="-881.34" cy="481.49" r="38.25" gradientTransform="matrix(1, 0, 0, -1, 926.4, 510.45)" gradientUnits="userSpaceOnUse"><stop offset="0" stop-color="#fff" stop-opacity="0"/><stop offset="1" stop-color="#999"/></radialGradient></defs><g id="Layer1_14_FILL" data-name="Layer1 14 FILL"><path class="cls-1" d="M70.26,55.06V2.36H17.56v52.7Z" transform="translate(0.11 -0.19)"/></g><path id="Layer1_14_MEMBER_0_1_STROKES" data-name="Layer1 14 MEMBER 0 1 STROKES" class="cls-2" d="M46.71,56H69.56a3.24,3.24,0,0,0,2.4-.85,2.71,2.71,0,0,0,.85-2V4.71A3.9,3.9,0,0,0,72,2.51a4.18,4.18,0,0,0-2.4-.85H4.76a2.61,2.61,0,0,0-1.85.85,3,3,0,0,0-.85,2.2V53.16a2.34,2.34,0,0,0,.85,2A2.27,2.27,0,0,0,4.76,56h42v8.9h4.45m-27.3,0h4.3V56m18.55,8.9H28.16" transform="translate(0.11 -0.19)"/><path id="Layer1_14_MEMBER_1_1_STROKES" data-name="Layer1 14 MEMBER 1 1 STROKES" class="cls-3" d="M46.46,31.16l-2.55,2.5v-7.1m0,7.1-.2.2-2.35-2.7" transform="translate(0.11 -0.19)"/><path id="Layer1_14_MEMBER_2_1_STROKES" data-name="Layer1 14 MEMBER 2 1 STROKES" class="cls-4" d="M47.63,5l0-3.57-5,5m5-5V1.19L44,1.43" transform="translate(0.11 -0.19)"/><path id="Layer1_14_MEMBER_3_1_STROKES" data-name="Layer1 14 MEMBER 3 1 STROKES" class="cls-4" d="M6.19,45.9l-5,5.16L4.46,51M1,47.32.89,51.06h.28" transform="translate(0.11 -0.19)"/></svg>