<svg id="Group_762" data-name="Group 762" xmlns="http://www.w3.org/2000/svg" xmlns:xlink="http://www.w3.org/1999/xlink" width="20" height="20" viewBox="0 0 20 20">
  <defs>
    <clipPath id="clip-path">
      <rect id="Rectangle_15" data-name="Rectangle 15" width="20" height="20" fill="none"/>
    </clipPath>
  </defs>
  <g id="Group_761" data-name="Group 761" clip-path="url(#clip-path)">
    <path id="Path_143" data-name="Path 143" d="M19,20H1a1,1,0,0,1-1-1V1A1,1,0,0,1,1,0H19a1,1,0,0,1,1,1V19a1,1,0,0,1-1,1M2,18H18V2H2Z" fill="#090f13"/>
    <path id="Path_144" data-name="Path 144" d="M16,12.619H4a1,1,0,0,1,0-2H16a1,1,0,0,1,0,2" fill="#090f13"/>
    <path id="Path_145" data-name="Path 145" d="M8.747,9.381H4a1,1,0,1,1,0-2H8.747a1,1,0,1,1,0,2" fill="#090f13"/>
    <path id="Path_146" data-name="Path 146" d="M16,9.381H11.252a1,1,0,1,1,0-2H16a1,1,0,0,1,0,2" fill="#090f13"/>
  </g>
</svg>
