<svg version="1.1" id="Layer_1"
	xmlns="http://www.w3.org/2000/svg" x="0" y="0" viewBox="0 0 24 24" xml:space="preserve">
	<style>.st0{fill:#fff}</style>
	<path class="st0" d="M8.8 18.8c.3.3.7.4 1 .4s.7-.1 1-.4l9-9L10.3.3 8.4 2.4 9.9 4l-7 7c-.6.6-.6 1.5 0 2.1.1-.1 5.9 5.7 5.9 5.7zM12 6.1l3.8 3.8-2.2 2.1H6.1L12 6.1zM20 19.3c1.2 0 2.2-1 2.2-2.2S20 13.5 20 13.5s-2.2 2.4-2.2 3.6 1 2.2 2.2 2.2zM1.8 20.7h20.4v2.9H1.8v-2.9z"/>
	<g>
		<path d="M23.9 12c0 3.3-1.2 6.1-3.5 8.4s-5.1 3.5-8.4 3.5c-3.3 0-6.1-1.2-8.4-3.5S.1 15.3.1 12c0-3.3 1.2-6.1 3.5-8.4S8.7.1 12 .1c3.3 0 6.1 1.2 8.4 3.5s3.5 5.1 3.5 8.4zM5.7 18.3c1.7 1.7 3.8 2.6 6.3 2.6 1.9 0 3.6-.6 5.1-1.7L4.8 6.9C3.7 8.4 3.1 10.1 3.1 12c0 2.4.9 4.5 2.6 6.3zM6.9 4.8l12.4 12.4c1.1-1.5 1.7-3.3 1.7-5.1 0-2.4-.9-4.5-2.6-6.3-1.9-1.8-4-2.7-6.4-2.7-1.9 0-3.6.6-5.1 1.7z" fill="#464a53"/>
	</g>
</svg>
