<svg xmlns="http://www.w3.org/2000/svg" width="25.781" height="17.688" viewBox="0 0 25.781 17.688">
  <defs>
    <style>
      .cls-1 {
        fill-rule: evenodd;
      }
    </style>
  </defs>
  <path id="Shape_7_copy_2" data-name="Shape 7 copy 2" class="cls-1" d="M762.3,392.37a0.572,0.572,0,1,0,0,1.143h16.053a0.572,0.572,0,1,0,0-1.143H762.3Zm-4.3,4a0.571,0.571,0,1,0,0,1.142h24.654a0.571,0.571,0,1,0,0-1.142H758Zm4.3,4a0.571,0.571,0,1,0,0,1.142h16.053a0.571,0.571,0,1,0,0-1.142H762.3Zm-4.3,4a0.571,0.571,0,1,0,0,1.142h24.654a0.571,0.571,0,1,0,0-1.142H758Zm4.3,4.568a0.571,0.571,0,1,0,0,1.142h16.053a0.571,0.571,0,1,0,0-1.142H762.3Z" transform="translate(-757.438 -392.375)"/>
</svg>
