<svg xmlns="http://www.w3.org/2000/svg" viewBox="0 0 24 24" fill="none" stroke="#081219" xmlns:v="https://vecta.io/nano"><g stroke-linecap="round" stroke-linejoin="round" stroke-width="1.5"><path d="M12.1 2.7H12C6.5 2.7 2 7.3 2 12.9S6.5 23 12 23s10-4.5 10-10.1-2.6-7.1-4.5-8.5"/><path d="M10.5 5.2l1.7-2s.2-.2.2-.3 0-.2-.2-.3L9.9 1.1"/></g><path d="M10 9c.3-.1.6 0 .8 0l4.8 3.9c.2.1.3.3.3.6s-.1.4-.3.6L10.8 18c-.2.2-.5.2-.8 0s-.4-.4-.4-.7V9.6c0-.3.2-.5.4-.7h0z" stroke-linejoin="round" stroke-width="1.5"/></svg>