<?xml version="1.0" encoding="utf-8"?>
<!-- Generator: Adobe Illustrator 24.1.2, SVG Export Plug-In . SVG Version: 6.00 Build 0)  -->
<svg version="1.1" id="Layer_1" 
	xmlns="http://www.w3.org/2000/svg" 
	xmlns:xlink="http://www.w3.org/1999/xlink" x="0px" y="0px" viewBox="0 0 24 24" style="enable-background:new 0 0 24 24;" xml:space="preserve">
	<style type="text/css">
	.st0{fill:none;stroke:#FFFFFF;stroke-width:2;stroke-linecap:round;stroke-miterlimit:10;}
	.st1{fill:#FFFFFF;}
	</style>
	<g transform="matrix( 0.9689788818359375, 0, 0, 0.9689788818359375, 0.4,0.85) ">
		<g transform="matrix( 1.032012939453125, 0, 0, 1.032012939453125, -0.4,-0.85) ">
			<path id="Layer0_0_1_STROKES" class="st0" d="M3.2,6.5C3.1,6.5,3,6.5,3,6.4C2.9,6.3,2.8,6.2,2.8,6.1V3.5c0-0.1,0-0.2,0.1-0.3
			c0.1,0,0.2-0.1,0.3-0.1"/>
		</g>
	</g>
	<g>
		<path class="st1" d="M20.9,12.9c0.7,0.5,1.2,1.1,1.7,1.8c0.4,0.7,0.6,1.6,0.6,2.5c0,1.2-0.2,2.1-0.7,2.9C22,21,21.3,21.6,20.4,22
		c-1,0.5-2.1,0.8-3.3,1s-2.7,0.3-4.4,0.3H0.8v-1.3c0.3,0,0.7-0.1,1.3-0.1c0.5-0.1,0.9-0.1,1.1-0.2c0.4-0.2,0.7-0.4,0.8-0.6
		c0.1-0.3,0.2-0.6,0.2-1V4.1c0-0.4-0.1-0.7-0.2-1S3.5,2.6,3.1,2.4C2.8,2.3,2.4,2.2,1.9,2.1C1.5,2,1.1,1.9,0.8,1.9V0.6h12.4
		c3.1,0,5.4,0.4,6.7,1.3S22,4,22,5.7c0,0.8-0.2,1.4-0.5,2s-0.8,1.1-1.3,1.5c-0.5,0.4-1.2,0.7-1.9,1S16.8,10.8,16,11v0.3
		c0.8,0.1,1.7,0.3,2.6,0.6C19.5,12.1,20.2,12.5,20.9,12.9z M15.7,6.1c0-1.3-0.4-2.2-1.1-3c-0.7-0.7-1.8-1.1-3.2-1.1
		c-0.2,0-0.5,0-0.8,0c-0.3,0-0.6,0-0.8,0v8.5h0.8c1.7,0,3-0.4,3.8-1.2C15.3,8.6,15.7,7.5,15.7,6.1z M16.9,17c0-1.6-0.5-2.8-1.4-3.7
		c-0.9-0.8-2.3-1.3-4.1-1.3c-0.2,0-0.5,0-0.8,0c-0.3,0-0.6,0-0.7,0v8.4c0.1,0.4,0.4,0.7,0.9,1c0.5,0.3,1.1,0.4,1.8,0.4
		c1.3,0,2.3-0.4,3.1-1.3C16.5,19.8,16.9,18.6,16.9,17z"/>
	</g>
</svg>
