<?xml version="1.0" encoding="UTF-8"?>
<svg id="Group_930" xmlns="http://www.w3.org/2000/svg" version="1.1" xmlns:xlink="http://www.w3.org/1999/xlink" viewBox="0 0 15.5 15.5">
  <!-- Generator: Adobe Illustrator 29.3.1, SVG Export Plug-In . SVG Version: 2.1.0 Build 151)  -->
  <defs>
    <style>
      .st0, .st1 {
        fill: none;
        stroke: #141415;
        stroke-linecap: round;
        stroke-linejoin: round;
      }

      .st1 {
        stroke-width: 1.5px;
      }
    </style>
  </defs>
  <g id="Group_929">
    <path id="Path_265" class="st0" d="M13.5,8.2c1.5,1.3,1.6,3.5.4,5-.3.3-.6.6-1,.8-.6.3-1.3.5-2,.6-.9.1-1.8.2-2.7.2H.8v-.8c.8,0,2.3,0,2.1-1.1V2.9c0-1.1-1.2-1.2-2.1-1.4v-.8h7.7c1.4-.1,2.8.2,4.1.8,2.2,1.3,1.4,4.3-.9,5.1-.5.2-.9.4-.9.4,1,.2,1.9.6,2.7,1.1"/>
    <path id="Path_266" class="st1" d="M13.5,8.2c1.5,1.3,1.6,3.5.4,5-.3.3-.6.6-1,.8-.6.3-1.3.5-2,.6-.9.1-1.8.2-2.7.2H.8v-.8c.8,0,2.3,0,2.1-1.1V2.9c0-1.1-1.2-1.2-2.1-1.4v-.8h7.7c1.4-.1,2.8.2,4.1.8,2.2,1.3,1.4,4.3-.9,5.1-.5.2-.9.4-.9.4,1,.2,1.9.6,2.7,1.1Z"/>
    <path id="Path_267" class="st0" d="M9.9,4c-.2-2.1-2.9-1.7-3.8-1.7v5c.9,0,4-1,3.8-3.4"/>
    <path id="Path_268" class="st1" d="M9.9,4c-.2-2.1-2.9-1.7-3.8-1.7v5c.9,0,4-1,3.8-3.4Z"/>
    <path id="Path_269" class="st0" d="M10.8,10.7c0-1.9-1.6-3.3-3.5-3.3,0,0-1.3,0-1.3,0h0v5.7c1,0,4.7.4,4.7-2.3"/>
    <path id="Path_270" class="st1" d="M10.8,10.7c0-1.9-1.6-3.3-3.5-3.3,0,0-1.3,0-1.3,0h0v5.7c1,0,4.7.3,4.7-2.3Z"/>
  </g>
</svg>