<svg id="Group_930" data-name="Group 930" xmlns="http://www.w3.org/2000/svg" xmlns:xlink="http://www.w3.org/1999/xlink" width="15.494" height="15.494" viewBox="0 0 15.494 15.494">
  <defs>
    <clipPath id="clip-path">
      <rect id="Rectangle_491" data-name="Rectangle 491" width="15.494" height="15.494" transform="translate(0 0)" fill="none" stroke="#141415" stroke-width="1"/>
    </clipPath>
  </defs>
  <g id="Group_929" data-name="Group 929" clip-path="url(#clip-path)">
    <path id="Path_265" data-name="Path 265" d="M13.516,8.184a3.53,3.53,0,0,1-.612,5.773,7.715,7.715,0,0,1-2.011.612,23.625,23.625,0,0,1-2.711.175H.75v-.787c.787-.088,2.273,0,2.1-1.137V2.936C2.936,1.8,1.624,1.712.75,1.537V.75H8.444a7.882,7.882,0,0,1,4.11.787c2.186,1.312,1.408,4.338-.866,5.125-.469.229-.883.385-.883.385a7.451,7.451,0,0,1,2.711,1.137" fill="none" stroke="#141415" stroke-width="1"/>
    <path id="Path_266" data-name="Path 266" d="M13.516,8.184a3.53,3.53,0,0,1-.612,5.773,7.715,7.715,0,0,1-2.011.612,23.625,23.625,0,0,1-2.711.175H.75v-.787c.787-.088,2.273,0,2.1-1.137V2.936C2.936,1.8,1.624,1.712.75,1.537V.75H8.444a7.882,7.882,0,0,1,4.11.787c2.186,1.312,1.408,4.338-.866,5.125-.469.229-.883.385-.883.385A7.451,7.451,0,0,1,13.516,8.184Z" fill="none" stroke="#141415" stroke-linecap="round" stroke-linejoin="round" stroke-width="1.5"/>
    <path id="Path_267" data-name="Path 267" d="M9.9,3.964C9.728,1.865,7.018,2.215,6.056,2.3v5.04C6.93,7.255,10.078,6.325,9.9,3.964" fill="none" stroke="#141415" stroke-width="1"/>
    <path id="Path_268" data-name="Path 268" d="M9.9,3.964C9.728,1.865,7.018,2.215,6.056,2.3v5.04C6.93,7.255,10.078,6.325,9.9,3.964Z" fill="none" stroke="#141415" stroke-linecap="round" stroke-linejoin="round" stroke-width="1.5"/>
    <path id="Path_269" data-name="Path 269" d="M10.806,10.721A3.474,3.474,0,0,0,7.308,7.4c-.087,0-1.252-.054-1.252-.054h0v5.652c.962.087,4.75.35,4.75-2.274" fill="none" stroke="#141415" stroke-width="1"/>
    <path id="Path_270" data-name="Path 270" d="M10.806,10.721A3.474,3.474,0,0,0,7.308,7.4c-.087,0-1.252-.054-1.252-.054h0v5.652C7.018,13.082,10.806,13.345,10.806,10.721Z" fill="none" stroke="#141415" stroke-linecap="round" stroke-linejoin="round" stroke-width="1.5"/>
  </g>
</svg>
