<?xml version="1.0" encoding="utf-8"?>
<!-- Generator: Adobe Illustrator 24.3.0, SVG Export Plug-In . SVG Version: 6.00 Build 0)  -->
<svg version="1.1" id="Layer_1"
	xmlns="http://www.w3.org/2000/svg"
	xmlns:xlink="http://www.w3.org/1999/xlink" x="0px" y="0px" viewBox="0 0 24 24" style="enable-background:new 0 0 24 24;" xml:space="preserve">
	<style type="text/css">
	.st0{fill:#FFFFFF;}
	</style>
	<g>
		<path class="st0" d="M14.5,15.4c0-0.6-0.2-1-0.6-1.3s-1.1-0.6-2.1-0.9s-1.8-0.7-2.4-1C7.8,11.3,7,10.1,7,8.7c0-0.8,0.2-1.5,0.6-2.1
		s1.1-1.1,1.9-1.4s1.7-0.5,2.7-0.5c1,0,1.9,0.2,2.7,0.6s1.4,0.9,1.9,1.6s0.7,1.4,0.7,2.3h-2.9c0-0.7-0.2-1.2-0.6-1.5S12.9,7,12.2,7
		c-0.7,0-1.3,0.2-1.7,0.5S9.9,8.2,9.9,8.7c0,0.5,0.2,0.8,0.7,1.2s1.2,0.6,2.1,0.9c1.7,0.5,2.9,1.1,3.6,1.9s1.1,1.7,1.1,2.8
		c0,1.2-0.5,2.2-1.4,2.9s-2.2,1-3.8,1c-1.1,0-2.1-0.2-3-0.6s-1.6-0.9-2.1-1.6s-0.7-1.5-0.7-2.4h2.9c0,1.6,0.9,2.4,2.8,2.4
		c0.7,0,1.2-0.1,1.6-0.4S14.5,15.9,14.5,15.4z"/>
	</g>
	<g id="Shape_12_1_">
		<g>
			<rect x="3.9" y="11" class="st0" width="16.2" height="2"/>
		</g>
	</g>
</svg>
