<?xml version="1.0" encoding="utf-8"?>
<!-- Generator: Adobe Illustrator 24.1.2, SVG Export Plug-In . SVG Version: 6.00 Build 0)  -->
<svg version="1.1" id="Layer_1"
	xmlns="http://www.w3.org/2000/svg"
	xmlns:xlink="http://www.w3.org/1999/xlink" x="0px" y="0px" viewBox="0 0 24 24" style="enable-background:new 0 0 24 24;" xml:space="preserve">
	<style type="text/css">
	.st0{fill:none;stroke:#FFFFFF;stroke-width:2;strokeLinecap:round;stroke-miterlimit:10;}
	</style>
	<g transform="matrix( 0.9689788818359375, 0, 0, 0.9689788818359375, 0.4,0.85) ">
		<g transform="matrix( 1.032012939453125, 0, 0, 1.032012939453125, -0.4,-0.85) ">
			<path id="Layer0_0_1_STROKES" class="st0" d="M14.5,3.1h6.2c0.1,0,0.2,0,0.3,0.1c0.1,0.1,0.1,0.2,0.1,0.3v2.5c0,0.1,0,0.2-0.1,0.3
			c-0.1,0.1-0.2,0.1-0.3,0.1h-1.3v13.7c0,0.6-0.2,1.1-0.7,1.5c-0.4,0.4-0.9,0.7-1.5,0.7H6.7c-0.6,0-1.1-0.2-1.5-0.7
			c-0.4-0.4-0.6-1-0.6-1.5V6.5H3.2C3.1,6.5,3,6.5,3,6.4C2.9,6.3,2.8,6.2,2.8,6.1V3.5c0-0.1,0-0.2,0.1-0.3C3,3.2,3.1,3.1,3.2,3.1
			h10.9 M9.4,2.2V0.9c0-0.1,0.1-0.2,0.2-0.3c0.1-0.1,0.2-0.1,0.3-0.1h4.2c0.1,0,0.2,0,0.3,0.1c0.1,0.1,0.1,0.2,0.1,0.3v1.2
			 M19.4,6.5H4.5 M8.3,9.2v9.6 M15.7,9.2v9.6 M12,9.2v9.6"/>
		</g>
	</g>
</svg>
