<svg xmlns="http://www.w3.org/2000/svg" version="1.1"
	xmlns:xlink="http://www.w3.org/1999/xlink" preserveAspectRatio="none" x="0px" y="0px" width="1351px" height="148px" viewBox="0 0 1351 148">
	<defs>
		<g id="Layer1_0_FILL">
			<path fill="#000000" stroke="none" d="
M 0.05 130.1
Q 0 131.25 0 132.45 0 133.35 0.05 134.15
L 0.05 130.1 Z"/>
		</g>

		<g id="Layer1_1_FILL">
			<path fill="#000000" stroke="none" d="
M 1350.45 130
L 1351.65 130 1351.65 0 0.05 0 0.05 130
Q 0.833984375 112.762109375 12.55 99.7 25.1 85.8 43.6 84
L 43.45 80.5
Q 43.45 61.2 57.15 47.5 70.85 33.75 90.15 33.75 105.05 33.75 117.3 42.55
L 117.3 42.5
Q 117.3 25.4 129.35 13.3 137.75 4.95 148.4 2.35
L 168.85 2.35
Q 179.5 4.95 187.75 13.3 199.95 25.4 199.95 42.5 199.95 49.85 197.25 57.05 204 50.2 212.75 46.4 221.8 42.5 231.75 42.5 251.9 42.5 266.1 56.7 280.35 70.85 280.35 90.9 280.35 96.1 279.35 100.6 289.25 90.9 302.95 90.9 317 90.9 327 100.9 334.45 108.45 336.25 118.35 336.85 121.45 336.85 124.9
L 336.8 126.85
Q 338.45 122.7 340.75 119.1 348.15 94.5 368.7 78.9 389.65 63 416.05 63 430.35 63 443.4 67.9 456.05 72.55 466.5 81.35 471 82.25 475.9 84.65 480.95 66.15 496.15 54.45 511.7 42.5 531.4 42.5 551.7 42.5 567.5 55.3 583.05 67.9 587.35 87.35 597.25 80.5 609.5 80.5 616.45 80.5 623.45 83.1 628.75 73.55 638.15 67.9 647.8 62.05 659.1 62.05 667.5 62.05 675.1 65.35 682.35 68.35 688 74 689 57.15 701.25 45.5 713.65 33.75 730.7 33.75 744.65 33.75 755.9 41.95 766.9 50 771.25 62.7 774.85 62.05 778.5 62.05 793.95 62.05 805.6 72.4 817.05 82.6 818.95 97.8 826.6 92.5 836 91.35 841.55 78.25 853.4 70.15 865.4 62.05 880.15 62.05 896.65 62.05 909.6 72.25 917 57.75 930.75 49.25 944.9 40.45 961.65 40.45 985.95 40.45 1003.15 57.6 1020.3 74.75 1020.3 99 1020.3 104 1019.25 110 1019.4 110 1019.55 110.05 1022.4 104.6 1026.75 99.7 1039.3 85.8 1057.75 84
L 1057.65 80.5
Q 1057.65 61.2 1071.35 47.5 1085.05 33.75 1104.35 33.75 1119.25 33.75 1131.5 42.55
L 1131.5 42.5
Q 1131.5 25.4 1143.55 13.3 1151.95 4.95 1162.6 2.35
L 1183.05 2.35
Q 1193.7 4.95 1201.95 13.3 1214.15 25.4 1214.15 42.5 1214.15 49.85 1211.45 57.05 1218.15 50.2 1226.95 46.4 1236 42.5 1245.95 42.5 1266.1 42.5 1280.3 56.7 1294.55 70.85 1294.55 90.9 1294.55 96.1 1293.55 100.6 1303.45 90.9 1317.15 90.9 1331.2 90.9 1341.2 100.9 1348.65 108.45 1350.45 118.35
L 1350.45 130 Z"/>
		</g>

		<g id="Layer1_2_FILL">
			<path fill="#252525" fill-opacity="0.4980392156862745" stroke="none" d="
M 1287.8 118.05
Q 1288.45 117.9 1287.05 117.85 1286.95 117.8 1286.9 117.8 1287.1 118 1287.35 118.05 1287.55 118.1 1287.8 118.05
M 1336.75 114
Q 1348.65 122.4 1350.45 132.3
L 1350.45 148.1 0.05 148.1 0.05 148.65 1351.65 148.65 1351.65 1.95 0.05 1.35 0.05 144.05
Q 0.8 126.75 12.55 113.65 25.1 99.75 53.4 100.1 43.45 75.15 57.15 61.45 70.85 47.7 90.15 47.7 105.05 47.7 122.75 62.5 122.05 43.3 129.9 31.1 137.75 18.9 148.4 16.3 160.6 13.25 168.85 16.3 179.5 18.9 184.3 26 189.05 33.05 190 38.6 190.9 44.1 188.45 60.3
L 185.75 72.65
Q 190.85 68.15 195.35 65.65 199.85 63.1 209.5 59.8 221.8 56.45 231.75 56.45 251.9 56.45 266.1 70.65 272.3 76.75 273.5 86.25 273.75 88.35 273.75 104.85 273.75 110.25 272.75 114.55 277.35 110.05 286.9 107.3 295.3 104.85 302.95 104.85 317 104.85 327 114.85 334.45 122.4 336.25 132.3 336.45 133.4 336.6 134.5 349.2 107.65 368.7 92.85 389.65 76.95 416.05 76.95 430.35 76.95 443.4 81.85 456.05 86.5 466.5 95.3 471 96.2 475.9 98.6 480.95 80.1 496.15 68.4 511.7 56.45 531.4 56.45 551.7 56.45 567.5 69.25 583.05 81.85 581.35 102.4 597.25 94.45 609.5 94.45 616.45 94.45 623.45 97.05 628.75 87.5 638.15 81.85 647.8 76 659.1 76 667.5 76 675.1 79.3 682.35 82.3 696.75 93.4 694.4 73.25 704.1 60.5 713.75 47.75 729.2 47.75 744.65 47.7 755.9 55.9 766.9 63.95 764.7 80.45 774.85 76 778.5 76 793.95 76 805.6 86.35 817.05 96.55 812.4 115 826.6 106.45 836 105.3 841.55 92.2 853.4 84.1 865.4 76 880.15 76 896.65 76 909.6 86.2 917 71.7 930.75 63.2 944.9 54.4 961.65 54.4 985.95 54.4 998.2 71.25 1010.4 88.1 1011.55 102.8 1012.6 116.4 1013.55 129.25 1020.6 117.85 1029.55 108.8 1038.45 99.75 1057.75 97.95
L 1072.35 99.9
Q 1064.85 77.2 1075.2 62.55 1085.55 47.85 1102.4 47.8 1119.25 47.7 1131.5 56.5
L 1138.05 61.9
Q 1137.7 41.35 1144.85 30.15 1151.95 18.9 1162.6 16.3 1172.85 12.5 1183.05 16.3 1193.7 18.9 1199.9 29.6 1206.1 40.25 1204.3 52.15 1202.5 64 1197.25 74.85 1218.15 64.15 1226.95 60.35 1236 56.45 1245.95 56.45 1266.1 56.45 1275.1 75.1 1284.1 93.75 1284.85 108 1285 111.9 1285.5 114.3 1286.85 112.4 1303.95 109.35 1324.8 105.55 1336.75 114 Z"/>
		</g>
	</defs>

	<g transform="matrix( 1, 0, 0, 1, 0,0) ">
		<use xlink:href="#Layer1_0_FILL"/>
	</g>

	<g transform="matrix( 1, 0, 0, 1, 0,0) ">
		<use xlink:href="#Layer1_1_FILL"/>
	</g>

	<g transform="matrix( 1, 0, 0, 1, 0,0) ">
		<use xlink:href="#Layer1_2_FILL"/>
	</g>
</svg>
