<?xml version="1.0" encoding="utf-8"?>
<!-- Generator: Adobe Illustrator 24.2.2, SVG Export Plug-In . SVG Version: 6.00 Build 0)  -->
<svg version="1.1" id="Layer_1" xmlns="http://www.w3.org/2000/svg" xmlns:xlink="http://www.w3.org/1999/xlink" x="0px" y="0px"
	 viewBox="0 0 73.7 66.1" style="enable-background:new 0 0 73.7 66.1;" xml:space="preserve">
<style type="text/css">
	.st0{fill:none;stroke:#474A54;stroke-width:2;stroke-linecap:round;stroke-linejoin:round;}
	.st1{fill:#DCDFDF;}
	.st2{fill:none;stroke:#F04F26;stroke-width:2;stroke-linecap:round;stroke-linejoin:round;}
	.st3{fill:none;stroke:#0E151B;stroke-width:2;stroke-linecap:round;stroke-linejoin:round;}
</style>
<g>
	<g transform="matrix( 1, 0, 0, 1, 0,0) ">
		<g>
			<path id="Layer1_32_1_STROKES" class="st0" d="M46.1,55.8H69c1,0,1.8-0.3,2.4-0.9c0.6-0.6,0.9-1.2,0.9-2V4.5
				c0-0.7-0.3-1.4-0.9-2.2c-0.8-0.6-1.6-0.9-2.4-0.9H4.2c-0.7,0-1.3,0.3-1.8,0.9C1.8,2.8,1.5,3.6,1.5,4.5v48.4c0,0.9,0.3,1.6,0.9,2
				c0.5,0.6,1.1,0.9,1.8,0.9h23.4H46.1v8.9h4.5 M23.3,64.7h4.3v-8.9 M46.1,64.7H27.6"/>
		</g>
	</g>
	<g transform="matrix( 1, 0, 0, 1, -3.55,0) ">
		<g>
			<g id="Layer1_32_MEMBER_0_FILL">
				<path class="st1" d="M58.3,26.3h-6v25h6V26.3 M28.4,26.3h-6v25h6V26.3z"/>
			</g>
		</g>
		<g>
			<path id="Layer1_32_MEMBER_0_1_STROKES" class="st2" d="M34.2,10L27,10.1l2.4,2.3 M29.5,7.3l-2.7,2.6l0.2,0.2 M48.7,10h7.1
				L56,9.8l-2.7-2.3 M53.3,12.6l2.5-2.5"/>
		</g>
	</g>
	<g transform="matrix( 0, 1, -1, 0, 755.7,352.55) ">
		<g transform="matrix( 0, -1, 1, 0, -352.55,755.7) ">
			<path id="Layer1_32_MEMBER_0_MEMBER_0_1_STROKES" class="st3" d="M-310.8,718l-2.6-2.5v7.1 M-313.4,715.5l-0.2-0.2l-2.4,2.7"/>
		</g>
	</g>
</g>
</svg>
