
<svg xmlns="http://www.w3.org/2000/svg" version="1.1" xmlns:xlink="http://www.w3.org/1999/xlink" preserveAspectRatio="none" x="0px" y="0px" width="1279px" height="129px" viewBox="0 0 1279 129">
<defs>
<g id="Layer0_0_FILL">
<path fill="#000000" stroke="none" d="
M 1247.45 73.65
Q 1255.35 78.55 1264.65 86.5 1270 91 1279.95 99.95
L 1279.95 0 0 0 0 100
Q 16.9 114.6 33.3 121.25 53.75 129.5 81.6 129.5 98.6 129.5 116.05 121.9 123.15 118.85 147.15 105.2 167.45 93.7 183.05 88.5 205.8 80.9 231.75 80.9 256.05 80.9 278.15 87.65 288.45 90.8 315.9 102.55 340.1 112.9 358.7 117.45 386.4 124.2 420.2 124.2 460.5 124.2 494.05 111.85 514.85 104.2 547.2 84.75 564.3 74.4 571.95 70.25 586.1 62.5 598.7 57.6 630.35 45.25 667.45 45.25 704.15 45.25 730.2 53.95 747.15 59.65 768.2 73.15 780.8 81.2 784.5 83.35 793.85 88.9 802.45 92.3 824.3 101 853.85 101 877.6 101 895.2 95.75 907.3 92.1 920.9 84.15 937.25 74.5 942 72.5 954.45 67.25 969.45 67.25 988.1 67.25 1004.1 75.4 1013.95 80.4 1029.95 93.4 1046.25 106.6 1055.4 111.4 1070.95 119.55 1088.8 119.55 1108.15 119.55 1122.6 110.3 1131.35 104.7 1144.65 89.9 1158.05 75.05 1166.6 69.5 1180.9 60.25 1200.05 60.25 1225.9 60.25 1247.45 73.65 Z"/>
</g>
</defs>

<g transform="matrix( 1, 0, 0, 1, 0,0) ">
<use xlink:href="#Layer0_0_FILL"/>
</g>
</svg>
