<svg id="Layer_1" data-name="Layer 1"
	xmlns="http://www.w3.org/2000/svg" viewBox="0 0 72.75 65.25">
	<defs>
		<style>.cls-1,.cls-2,.cls-3,.cls-4{fill:none;stroke-linecap:round;stroke-linejoin:round;}.cls-1{stroke:#464a53;}.cls-1,.cls-3,.cls-4{stroke-width:2px;}.cls-2{stroke:#dcdfdf;stroke-width:5px;}.cls-3{stroke:#ff4a17;}.cls-4{stroke:#081219;}</style>
	</defs>
	<path id="Layer1_44_MEMBER_0_1_STROKES" data-name="Layer1 44 MEMBER 0 1 STROKES" class="cls-1" d="M46.12,55.78H69a3.22,3.22,0,0,0,2.4-.86,2.71,2.71,0,0,0,.85-2V4.48a3.88,3.88,0,0,0-.85-2.2A4.09,4.09,0,0,0,69,1.43H4.18a2.55,2.55,0,0,0-1.85.85,3,3,0,0,0-.86,2.2V52.92a2.34,2.34,0,0,0,.86,2,2.26,2.26,0,0,0,1.85.86H46.12v8.89h4.46m-27.3,0h4.3V55.78m18.54,8.89H27.58" transform="translate(-0.47 -0.43)"/>
	<path id="Layer1_44_MEMBER_1_1_STROKES" data-name="Layer1 44 MEMBER 1 1 STROKES" class="cls-2" d="M34.52,31.92a10.67,10.67,0,0,1-3.29,7.86,10.67,10.67,0,0,1-7.86,3.3,10.79,10.79,0,0,1-7.89-3.3,10.71,10.71,0,0,1-3.25-7.86A11.1,11.1,0,0,1,23.37,20.78,11.16,11.16,0,0,1,34.52,31.92Z" transform="translate(-0.47 -0.43)"/>
	<path id="Layer1_44_MEMBER_1_MEMBER_0_1_STROKES" data-name="Layer1 44 MEMBER 1 MEMBER 0 1 STROKES" class="cls-3" d="M59.72,16.67a9.5,9.5,0,0,0-2-2.09,4.41,4.41,0,0,0-2.64-.75A5.58,5.58,0,0,0,51,15.53a5.12,5.12,0,0,0-1.69,4A5.66,5.66,0,0,0,51,23.73a5.52,5.52,0,0,0,4,1.69,5.58,5.58,0,0,0,3.39-1.14,5.52,5.52,0,0,0,1.2-1.16m1.8-10.89v4.94a1.15,1.15,0,0,1-.3.7.92.92,0,0,1-.7.3h-5.1" transform="translate(-0.47 -0.43)"/>
	<path id="Layer1_44_MEMBER_1_MEMBER_1_1_STROKES" data-name="Layer1 44 MEMBER 1 MEMBER 1 1 STROKES" class="cls-4" d="M34.82,39.11,31.5,40.4l-.23.1-1.12-3.39M31.5,40.4,33.43,36" transform="translate(-0.47 -0.43)"/>
</svg>
