<?xml version="1.0" encoding="utf-8"?>
<!-- Generator: Adobe Illustrator 24.3.0, SVG Export Plug-In . SVG Version: 6.00 Build 0)  -->
<svg version="1.1" id="Layer_1"
	xmlns="http://www.w3.org/2000/svg"
	xmlns:xlink="http://www.w3.org/1999/xlink" x="0px" y="0px" viewBox="0 0 24 24" style="enable-background:new 0 0 24 24;" xml:space="preserve">
	<style type="text/css">
	.st0{fill:#FFFFFF;}
	</style>
	<g>
		<g>
			<path class="st0" d="M11.9,18H6.4l-1,3.1H2.1L7.7,5.9h2.9l5.7,15.2h-3.3L11.9,18z M7.3,15.4H11L9.1,9.8L7.3,15.4z"/>
		</g>
		<g>
			<path class="st0" d="M21.9,11.9h-6.1v-1.2l2.9-3c0.4-0.4,0.7-0.8,0.9-1.1c0.2-0.3,0.3-0.6,0.3-0.9c0-0.4-0.1-0.7-0.3-0.9
			c-0.2-0.2-0.5-0.3-0.9-0.3c-0.4,0-0.7,0.1-0.9,0.4c-0.2,0.3-0.3,0.6-0.3,1.1h-1.8c0-0.5,0.1-1,0.4-1.5c0.3-0.4,0.6-0.8,1.1-1
			s1-0.4,1.6-0.4c0.9,0,1.6,0.2,2.1,0.7c0.5,0.4,0.8,1.1,0.8,1.9c0,0.4-0.1,0.9-0.3,1.3c-0.2,0.5-0.6,1-1.2,1.6l-2,2.1h3.8V11.9z"/>
		</g>
	</g>
</svg>
