<svg xmlns="http://www.w3.org/2000/svg" width="25.263" height="24" viewBox="0 0 25.263 24">
  <g id="Path_246" data-name="Path 246" transform="translate(-1 -1)" fill="#f1f1f1">
    <path d="M 19.54548263549805 22.39249610900879 L 14.19726085662842 18.51888847351074 L 13.61068058013916 18.09403800964355 L 13.02409076690674 18.51888847351074 L 7.710477828979492 22.36743354797363 L 9.779000282287598 16.1513786315918 L 10.0104808807373 15.45576858520508 L 9.416750907897949 15.02573871612549 L 4.085466861724854 11.16438865661621 L 10.64346027374268 11.16438865661621 L 11.37079048156738 11.16438865661621 L 11.59484004974365 10.47241878509521 L 13.61723804473877 4.226161479949951 L 15.66900062561035 10.47628879547119 L 15.89489078521729 11.16438865661621 L 16.61911964416504 11.16438865661621 L 23.19026756286621 11.16438865661621 L 17.885009765625 15.02721881866455 L 17.29894065856934 15.45394897460938 L 17.52225112915039 16.14365768432617 L 19.54548263549805 22.39249610900879 Z" stroke="none"/>
    <path d="M 17.65012168884277 19.78497886657715 L 16.1242504119873 15.07225894927979 L 20.11795234680176 12.16438865661621 L 15.1706600189209 12.16438865661621 L 13.6237964630127 7.45228910446167 L 12.09812068939209 12.16438865661621 L 7.170909404754639 12.16438865661621 L 11.19080066680908 15.07591819763184 L 9.640440940856934 19.73487091064453 L 13.61068058013916 16.85929870605469 L 17.65012168884277 19.78497886657715 M 21.44085121154785 25.00000762939453 L 13.61068058013916 19.32877922058105 L 5.780520439147949 25.00000762939453 L 8.830160140991211 15.83562850952148 L 1.000000476837158 10.16438865661621 L 10.64346027374268 10.16438865661621 L 13.61068058013916 1.000008583068848 L 16.61911964416504 10.16438865661621 L 26.26258087158203 10.16438865661621 L 18.47363090515137 15.83562850952148 L 21.44085121154785 25.00000762939453 Z" stroke="none" fill="#007cba"/>
  </g>
</svg>
