<?xml version="1.0" encoding="UTF-8"?>
<svg id="Layer_1" xmlns="http://www.w3.org/2000/svg" version="1.1" viewBox="0 0 111.86 38">
  <!-- Generator: Adobe Illustrator 29.8.1, SVG Export Plug-In . SVG Version: 2.1.1 Build 2)  -->
  <defs>
    <style>
      .st0 {
        fill: #323c47;
      }
    </style>
  </defs>
  <path class="st0" d="M108.86,3v4.39H3V3h105.86M110.86,1H1v8.39h109.86V1h0Z"/>
  <path class="st0" d="M108.86,31.79v3.21h-48.06v-3.21h48.06M110.86,29.79h-52.06v7.21h52.06v-7.21h0Z"/>
  <path class="st0" d="M51.06,31.79v3.21H3v-3.21h48.06M53.06,29.79H1v7.21h52.06v-7.21h0Z"/>
  <path class="st0" d="M108.86,17.69v3.21h-48.06v-3.21h48.06M110.86,15.69h-52.06v7.21h52.06v-7.21h0Z"/>
  <path class="st0" d="M51.06,17.69v3.21H3v-3.21h48.06M53.06,15.69H1v7.21h52.06v-7.21h0Z"/>
</svg>