<?xml version="1.0" encoding="UTF-8"?>
<svg id="Layer_1" xmlns="http://www.w3.org/2000/svg" version="1.1" viewBox="0 0 112.12 38">
  <!-- Generator: Adobe Illustrator 29.8.1, SVG Export Plug-In . SVG Version: 2.1.1 Build 2)  -->
  <defs>
    <style>
      .st0 {
        fill: #323c47;
      }
    </style>
  </defs>
  <path class="st0" d="M51.33,31.42v3.58H3v-3.58h48.33M53.33,29.42H1v7.58h52.33v-7.58h0Z"/>
  <path class="st0" d="M51.33,17.21v3.58H3v-3.58h48.33M53.33,15.21H1v7.58h52.33v-7.58h0Z"/>
  <path class="st0" d="M109.12,31.42v3.58h-48.33v-3.58h48.33M111.12,29.42h-52.33v7.58h52.33v-7.58h0Z"/>
  <path class="st0" d="M109.12,17.21v3.58h-48.33v-3.58h48.33M111.12,15.21h-52.33v7.58h52.33v-7.58h0Z"/>
  <path class="st0" d="M51.33,3v3.58H3v-3.58h48.33M53.33,1H1v7.58h52.33V1h0Z"/>
  <path class="st0" d="M109.12,3v3.58h-48.33v-3.58h48.33M111.12,1h-52.33v7.58h52.33V1h0Z"/>
</svg>