<?xml version="1.0" encoding="utf-8"?>
<!-- Generator: Adobe Illustrator 24.3.0, SVG Export Plug-In . SVG Version: 6.00 Build 0)  -->
<svg version="1.1" id="Layer_1" xmlns="http://www.w3.org/2000/svg" xmlns:xlink="http://www.w3.org/1999/xlink" x="0px" y="0px"
	 viewBox="0 0 24 24" style="enable-background:new 0 0 24 24;" xml:space="preserve">
<style type="text/css">
	.st0{fill:none;stroke:var(--mpc);stroke-width:1.5;stroke-miterlimit:10;}
</style>
<path class="st0" d="M23,12c0,6.1-4.9,11-11,11C5.9,23,1,18.1,1,12S5.9,1,12,1C18.1,1,23,5.9,23,12z"/>
<path class="st0" d="M17.6,15.5c-1.4,1.7-3.5,2.6-5.6,2.6c-2.2,0-4.2-1-5.6-2.6"/>
<path class="st0" d="M6.8,10.2c0-0.8,0.7-1.5,1.5-1.5s1.5,0.7,1.5,1.5c0,0.8-0.7,1.5-1.5,1.5S6.8,11,6.8,10.2z"/>
<path class="st0" d="M14.2,10.2c0-0.8,0.7-1.5,1.5-1.5c0.8,0,1.5,0.7,1.5,1.5c0,0.8-0.7,1.5-1.5,1.5C14.9,11.7,14.2,11,14.2,10.2z"
	/>
</svg>
