<?xml version="1.0" encoding="utf-8"?>
<!-- Generator: Adobe Illustrator 24.1.1, SVG Export Plug-In . SVG Version: 6.00 Build 0)  -->
<svg version="1.1" id="Layer_1"
	xmlns="http://www.w3.org/2000/svg"
	xmlns:xlink="http://www.w3.org/1999/xlink" x="0px" y="0px" viewBox="0 0 24 25" style="enable-background:new 0 0 24 25;" xml:space="preserve">
	<style type="text/css">
	.st0{enable-background:new    ;}
	.st1{fill:#FFFFFF;}
	</style>
	<g class="st0">
		<path class="st1" d="M23.6,12.6c0,6.5-5.3,11.8-11.8,11.8c-6.5,0-11.8-5.3-11.8-11.8S5.2,0.7,11.7,0.7C18.3,0.7,23.6,6,23.6,12.6z
		 M2.2,12.6c0,5.3,4.3,9.5,9.5,9.5c5.3,0,9.5-4.3,9.5-9.5C21.3,7.3,17,3,11.7,3C6.4,3,2.2,7.3,2.2,12.6z M18.4,10.1l-8.2,8.2
		c-0.2,0.2-0.6,0.2-0.8,0L5,13.9c-0.2-0.2-0.2-0.6,0-0.8L6.1,12c0.2-0.2,0.6-0.2,0.8,0l2.9,2.9l6.7-6.7c0.2-0.2,0.6-0.2,0.8,0
		l1.1,1.1C18.6,9.5,18.6,9.8,18.4,10.1z"/>
	</g>
</svg>
