<svg id="Group_760" data-name="Group 760" xmlns="http://www.w3.org/2000/svg" xmlns:xlink="http://www.w3.org/1999/xlink" width="20" height="20" viewBox="0 0 20 20">
  <defs>
    <clipPath id="clip-path">
      <rect id="Rectangle_14" data-name="Rectangle 14" width="20" height="20" fill="none"/>
    </clipPath>
  </defs>
  <g id="Group_759" data-name="Group 759" clip-path="url(#clip-path)">
    <path id="Path_139" data-name="Path 139" d="M19,20H1a1,1,0,0,1-1-1V1A1,1,0,0,1,1,0H19a1,1,0,0,1,1,1V19a1,1,0,0,1-1,1M2,18H18V2H2Z" fill="#090f13"/>
    <path id="Path_140" data-name="Path 140" d="M16,16.411H4a1,1,0,1,1,0-2H16a1,1,0,0,1,0,2" fill="#090f13"/>
    <path id="Path_141" data-name="Path 141" d="M8.747,13.174H4a1,1,0,0,1,0-2H8.747a1,1,0,0,1,0,2" fill="#090f13"/>
    <path id="Path_142" data-name="Path 142" d="M16,13.174H11.252a1,1,0,0,1,0-2H16a1,1,0,0,1,0,2" fill="#090f13"/>
  </g>
</svg>
