<?xml version="1.0" encoding="utf-8"?>
<!-- Generator: Adobe Illustrator 24.1.2, SVG Export Plug-In . SVG Version: 6.00 Build 0)  -->
<svg version="1.1" id="Layer_1"
	xmlns="http://www.w3.org/2000/svg"
	xmlns:xlink="http://www.w3.org/1999/xlink" x="0px" y="0px" viewBox="0 0 24 24" style="enable-background:new 0 0 24 24;" xml:space="preserve">
	<style type="text/css">
	.st0{fill:none;stroke:#FFFFFF;stroke-width:2;strokeLinecap:round;stroke-linejoin:round;}
	</style>
	<g transform="matrix( 1, 0, 0, 1, 0,0) ">
		<g>
			<path id="Layer0_0_1_STROKES" class="st0" d="M13.5,6.1L17,2.7c0.7-0.7,1.5-1.1,2.4-1.1c1,0,1.8,0.4,2.5,1.1c0.6,0.7,1,1.5,1,2.4
			c0,1.1-0.4,1.9-1.1,2.4l-6.1,6.3c-0.7,0.7-1.5,1-2.4,1c-1,0-1.8-0.3-2.4-1 M10.4,18L7,21.4c-0.6,0.7-1.4,1-2.4,1s-1.8-0.3-2.4-0.9
			c-0.7-0.7-1.1-1.5-1.1-2.5c0-1,0.3-1.8,1-2.5l6.3-6.3c0.6-0.6,1.4-0.9,2.4-0.9s1.8,0.3,2.4,0.9"/>
		</g>
	</g>
</svg>
