<svg xmlns="http://www.w3.org/2000/svg" version="1.1"
	xmlns:xlink="http://www.w3.org/1999/xlink" preserveAspectRatio="none" x="0px" y="0px" width="1280px" height="140px" viewBox="0 0 1280 140">
	<defs>
		<g id="Layer0_0_FILL">
			<path fill="#000000" fill-opacity="0.2980392156862745" stroke="none" d="
M 1280 0
Q 1270.35 5 1249.6 12.8 1208.05 28.45 1152.65 42.6 975.3 87.85 725.25 101.15 475.2 114.45 212.6 58.55 130.55 41.1 57.05 18.8 20.35 7.65 0 0
L 0 140 1280 140 1280 0 Z"/>
		</g>

		<g id="Layer0_1_FILL">
			<path fill="#000000" fill-opacity="0.4980392156862745" stroke="none" d="
M 1280 14
Q 1259.6 21.9 1222.75 33.35 1149.15 56.35 1067.1 74.45 952.2 99.8 836.95 111.75 692.9 126.7 556.45 119.7 308.35 107.05 129.35 52.25 73.45 35.15 31.1 15.85 9.95 6.2 0 0
L 0 140 1280 140 1280 14 Z"/>
		</g>

		<g id="Layer0_2_FILL">
			<path fill="#000000" stroke="none" d="
M 609.5 139.8
Q 502.54375 137.26875 390.85 118.15 288.75 100.6 187.45 70 115.05 48.15 50.3 21.9 17.9 8.75 0 0
L 0 140 609.5 139.8
M 1280 0
Q 1262.1 8.75 1229.7 21.9 1164.9 48.15 1092.55 70 991.2 100.65 889.1 118.15 777.45 137.26875 670.45 139.8
L 1280 140 1280 0 Z"/>
		</g>
	</defs>

	<g transform="matrix( 1, 0, 0, 1, 0,0) ">
		<use xlink:href="#Layer0_0_FILL"/>
	</g>

	<g transform="matrix( 1, 0, 0, 1, 0,0) ">
		<use xlink:href="#Layer0_1_FILL"/>
	</g>

	<g transform="matrix( 1, 0, 0, 1, 0,0) ">
		<use xlink:href="#Layer0_2_FILL"/>
	</g>
</svg>
