<svg id="Layer_1" data-name="Layer 1" xmlns="http://www.w3.org/2000/svg" viewBox="0 0 72.75 65.25"><defs><style>.cls-1{fill:#dcdfdf;}.cls-2,.cls-3,.cls-4{fill:none;stroke-linecap:round;stroke-linejoin:round;stroke-width:2px;}.cls-2{stroke:#ff4a17;}.cls-3{stroke:#464a53;}.cls-4{stroke:#081219;}</style></defs><g id="Layer1_57_FILL" data-name="Layer1 57 FILL"><path class="cls-1" d="M37.29,17v25.5h25.5V17Z" transform="translate(-0.58 -0.24)"/></g><path id="Layer1_57_1_STROKES" data-name="Layer1 57 1 STROKES" class="cls-2" d="M26.33,23.14l5-5.05v-.3l-3.54.3m-17,16.65,0,3.75H11l5-5.1m-5,5.1,3.3-.05m17-16.75-.05-3.6" transform="translate(-0.58 -0.24)"/><path id="Layer1_57_2_STROKES" data-name="Layer1 57 2 STROKES" class="cls-3" d="M46.23,55.59H69.08a3.21,3.21,0,0,0,2.4-.85,2.72,2.72,0,0,0,.85-2V4.29a3.88,3.88,0,0,0-.85-2.2,4.06,4.06,0,0,0-2.4-.85H4.28a2.55,2.55,0,0,0-1.84.85,3,3,0,0,0-.86,2.2V52.74a2.35,2.35,0,0,0,.86,2,2.25,2.25,0,0,0,1.84.85H46.23v8.9h4.46m-27.31,0h4.31v-8.9m18.54,8.9H27.69" transform="translate(-0.58 -0.24)"/><path id="Layer1_57_MEMBER_0_1_STROKES" data-name="Layer1 57 MEMBER 0 1 STROKES" class="cls-4" d="M52.59,29.24,50,31.74v-7.1m0,7.1-.2.2-2.35-2.7" transform="translate(-0.58 -0.24)"/></svg>