<?xml version="1.0" encoding="utf-8"?>
<!-- Generator: Adobe Illustrator 24.2.2, SVG Export Plug-In . SVG Version: 6.00 Build 0)  -->
<svg version="1.1" id="Layer_1" xmlns="http://www.w3.org/2000/svg" xmlns:xlink="http://www.w3.org/1999/xlink" x="0px" y="0px"
	 viewBox="0 0 73.7 66.1" style="enable-background:new 0 0 73.7 66.1;" xml:space="preserve">
<style type="text/css">
	.st0{fill:none;stroke:#474A54;stroke-width:2;stroke-linecap:round;stroke-linejoin:round;}
	.st1{fill:#DCDFDF;}
	.st2{fill:none;stroke:#F04F26;stroke-width:2;stroke-linecap:round;stroke-linejoin:round;}
	.st3{fill:none;stroke:#0E151B;stroke-width:2;stroke-linecap:round;stroke-linejoin:round;}
</style>
<g>
	<g transform="matrix( 1, 0, 0, 1, 0,0) ">
		<g>
			<path id="Layer1_31_1_STROKES" class="st0" d="M46.1,55.8H69c1,0,1.8-0.3,2.4-0.9c0.6-0.6,0.8-1.2,0.8-2V4.5
				c0-0.7-0.3-1.4-0.8-2.2c-0.8-0.6-1.6-0.9-2.4-0.9H4.2c-0.7,0-1.3,0.3-1.8,0.9C1.8,2.8,1.5,3.6,1.5,4.5v48.4c0,0.9,0.3,1.6,0.9,2
				c0.5,0.6,1.1,0.9,1.8,0.9h23.4H46.1v8.9h4.4 M23.3,64.7h4.3v-8.9 M46.1,64.7H27.6"/>
		</g>
	</g>
	<g transform="matrix( 1, 0, 0, 1, -3.5,0) ">
		<g>
			<g id="Layer1_31_MEMBER_0_FILL">
				<path class="st1" d="M53.2,26.2h-6v25h6V26.2 M33.3,26.2h-6v25h6V26.2z"/>
			</g>
		</g>
		<g>
			<path id="Layer1_31_MEMBER_0_1_STROKES" class="st2" d="M36.6,9.9L29.4,10l2.4,2.3 M31.9,7.2l-2.7,2.6l0.2,0.2 M50.7,12.5
				l2.5-2.6h-7.1 M53.2,9.9l0.2-0.2l-2.7-2.4"/>
		</g>
	</g>
	<g transform="matrix( 0, 1, -1, 0, 671.6,352.45) ">
		<g transform="matrix( 0, -1, 1, 0, -352.45,671.6) ">
			<path id="Layer1_31_MEMBER_0_MEMBER_0_1_STROKES" class="st3" d="M-310.8,634l-2.6-2.5v7.1 M-313.4,631.5l-0.2-0.2l-2.4,2.7"/>
		</g>
	</g>
</g>
</svg>
