<?xml version="1.0" encoding="utf-8"?>
<!-- Generator: Adobe Illustrator 26.0.3, SVG Export Plug-In . SVG Version: 6.00 Build 0)  -->
<svg version="1.1" id="Layer_1" xmlns="http://www.w3.org/2000/svg" xmlns:xlink="http://www.w3.org/1999/xlink" x="0px" y="0px"
	 viewBox="0 0 16 16" style="enable-background:new 0 0 16 16;" xml:space="preserve">
<style type="text/css">
	.st0{fill:#007CBA;}
</style>
<g id="_x32_">
	<path class="st0" d="M8.8,10.7c-0.9,0-1.8-0.3-2.5-1c-0.4-0.4-0.4-1.1,0-1.5c0.4-0.4,1.1-0.4,1.5,0c0.5,0.5,1.4,0.5,2,0l4-4
		c0,0,0-0.1,0-0.1L12,2.2c0,0-0.1,0-0.1,0L9.1,4.9C8.7,5.3,8,5.3,7.6,4.9c-0.4-0.4-0.4-1.1,0-1.5l2.7-2.7c0.8-0.8,2.3-0.8,3.1,0
		l1.8,1.8c0.4,0.4,0.6,1,0.6,1.5c0,0.6-0.2,1.1-0.6,1.5l-4,4C10.6,10.3,9.7,10.7,8.8,10.7z"/>
	<path class="st0" d="M4.1,15.9c-0.6,0-1.1-0.2-1.5-0.6l-1.8-1.8c-0.9-0.9-0.9-2.2,0-3.1l4-4C6.1,5,8.3,5,9.7,6.3
		c0.4,0.4,0.4,1.1,0,1.5c-0.4,0.4-1.1,0.4-1.5,0c-0.5-0.5-1.4-0.5-2,0l-4,4c0,0,0,0.1,0,0.1L4,13.8c0,0,0.1,0,0.1,0l2.7-2.7
		c0.4-0.4,1.1-0.4,1.5,0c0.4,0.4,0.4,1.1,0,1.5l-2.7,2.7C5.2,15.7,4.7,15.9,4.1,15.9z"/>
</g>
</svg>
