<svg id="Layer_1" data-name="Layer 1"
	xmlns="http://www.w3.org/2000/svg" viewBox="0 0 72.75 65.25">
	<defs>
		<style>.cls-1,.cls-2,.cls-3,.cls-4{fill:none;stroke-linecap:round;stroke-linejoin:round;}.cls-1{stroke:#464a53;}.cls-1,.cls-3{stroke-width:2px;}.cls-2{stroke:#dcdfdf;stroke-width:5px;}.cls-3{stroke:#ff4a17;}.cls-4{stroke:#081219;stroke-width:2px;}</style>
	</defs>
	<path id="Layer1_48_1_STROKES" data-name="Layer1 48 1 STROKES" class="cls-1" d="M46.12,55.78H69a3.22,3.22,0,0,0,2.4-.86,2.65,2.65,0,0,0,.7-1.09,2.52,2.52,0,0,0,.15-.91V4.48a3.81,3.81,0,0,0-.85-2.2A4.1,4.1,0,0,0,69,1.42H4.17a2.6,2.6,0,0,0-1.85.86,3,3,0,0,0-.85,2.2V52.92a3.17,3.17,0,0,0,.13.91,2.06,2.06,0,0,0,.72,1.09,2.29,2.29,0,0,0,1.85.86H46.12v8.89h4.45m-27.3,0h4.3V55.78m18.55,8.89H27.57" transform="translate(-0.47 -0.42)"/>
	<path id="Layer1_48_MEMBER_0_1_STROKES" data-name="Layer1 48 MEMBER 0 1 STROKES" class="cls-2" d="M39.2,33.33a11.32,11.32,0,0,0,11.07,9.75A11.18,11.18,0,0,0,61.42,31.92,11.1,11.1,0,0,0,50.27,20.78a11.09,11.09,0,0,0-4.45.89" transform="translate(-0.47 -0.42)"/>
	<path id="Layer1_48_MEMBER_0_MEMBER_0_1_STROKES" data-name="Layer1 48 MEMBER 0 MEMBER 0 1 STROKES" class="cls-3" d="M13.92,16.67a10,10,0,0,1,2-2.09,4.46,4.46,0,0,1,2.65-.75,5.56,5.56,0,0,1,4.1,1.7,5.11,5.11,0,0,1,1.7,4,5.66,5.66,0,0,1-1.75,4.15,5.52,5.52,0,0,1-4.05,1.69,5.63,5.63,0,0,1-3.4-1.14A6.25,6.25,0,0,1,14,23.13m-1.8-10.9v4.94a1.24,1.24,0,0,0,.3.71,1,1,0,0,0,.7.29h5.1" transform="translate(-0.47 -0.42)"/>
	<path id="Layer1_48_MEMBER_0_MEMBER_1_1_STROKES" data-name="Layer1 48 MEMBER 0 MEMBER 1 1 STROKES" class="cls-4" d="M47.14,18.77l-2.31,2.67-.23.18,2.85,2.23m-2.62-2.41,4.78-.26" transform="translate(-0.47 -0.42)"/>
</svg>
