<?xml version="1.0" encoding="utf-8"?>
<!-- Generator: Adobe Illustrator 24.2.2, SVG Export Plug-In . SVG Version: 6.00 Build 0)  -->
<svg version="1.1" id="Layer_1"
	xmlns="http://www.w3.org/2000/svg"
	xmlns:xlink="http://www.w3.org/1999/xlink" x="0px" y="0px" viewBox="0 0 73.7 66.1" style="enable-background:new 0 0 73.7 66.1;" xml:space="preserve">
	<style type="text/css">
	.st0{fill:#DCDFDF;}
	.st1{fill:none;stroke:#474A54;stroke-width:2;stroke-linecap:round;stroke-linejoin:round;}
	.st2{fill:none;stroke:#0E151B;stroke-width:2;stroke-linecap:round;stroke-linejoin:round;}
	.st3{fill:none;stroke:#F04F26;stroke-width:2;stroke-linecap:round;stroke-linejoin:round;}
	</style>
	<g>
		<g transform="matrix( 1, 0, 0, 1, 0,0) ">
			<g>
				<g id="Layer1_4_FILL">
					<path class="st0" d="M62.4,59.8v-6h-25v6H62.4 M37.4,0.1v6h25v-6H37.4z"/>
				</g>
			</g>
		</g>
		<g transform="matrix( 1, 0, 0, 1, 0,0) ">
			<g>
				<path id="Layer1_4_MEMBER_0_1_STROKES" class="st1" d="M46.1,55.8H69c1,0,1.8-0.3,2.4-0.9c0.6-0.6,0.9-1.2,0.9-2V4.5
				c0-0.7-0.3-1.4-0.9-2.2c-0.8-0.6-1.6-0.9-2.4-0.9H4.2c-0.7,0-1.3,0.3-1.9,0.9S1.5,3.6,1.5,4.5v48.4c0,0.9,0.3,1.6,0.9,2
				c0.5,0.6,1.1,0.9,1.9,0.9h23.4H46.1v8.9h4.5 M23.3,64.7h4.3v-8.9 M46.1,64.7H27.6"/>
			</g>
		</g>
		<g transform="matrix( 1, 0, 0, 1, 410.3,11.65) ">
			<g>
				<path id="Layer1_4_MEMBER_1_1_STROKES" class="st2" d="M-357.5,20.1l-2.6-2.5v7.1 M-360.1,17.6l-0.2-0.2l-2.4,2.7"/>
			</g>
		</g>
		<g transform="matrix( 1, 0, 0, 1, 54,-26.25) ">
			<g>
				<path id="Layer1_4_MEMBER_2_1_STROKES" class="st3" d="M-30.4,30.2l-2.5-2.5v7.1 M-32.9,27.7l-0.2-0.2l-2.3,2.7"/>
			</g>
		</g>
		<g transform="matrix( 1, 0, 0, 1, 54,20) ">
			<g>
				<path id="Layer1_4_MEMBER_3_1_STROKES" class="st3" d="M-32.9,34.3l0.1,7.2l2.2-2.4 M-35.6,39l2.6,2.7l0.2-0.2"/>
			</g>
		</g>
	</g>
</svg>
