<svg id="Layer_1" data-name="Layer 1"
	xmlns="http://www.w3.org/2000/svg"
	xmlns:xlink="http://www.w3.org/1999/xlink" viewBox="0 0 21.15 21.15">
	<defs>
		<style>.cls-1,.cls-3{fill:none;}.cls-2{clip-path:url(#clip-path);}.cls-3{stroke:#464a53;strokeLinecap:round;stroke-linejoin:round;stroke-width:2px;}</style>
		<clipPath id="clip-path" transform="translate(0 0)">
			<rect class="cls-1" width="21.15" height="21.15"/>
		</clipPath>
	</defs>
	<title>maxi-image-tab</title>
	<g class="cls-2">
		<path class="cls-3" d="M20.15,19.4v.75H1V1H20.15V19.4l-6.9-6.6-4.2,3L6.8,7.6,1,20.05M16.55,7A2.39,2.39,0,0,1,15.8,8.7a2.3,2.3,0,0,1-1.75.75,2.35,2.35,0,0,1-1.7-.75,2.31,2.31,0,0,1,0-3.5,2.42,2.42,0,0,1,1.7-.7,2.37,2.37,0,0,1,1.75.7A2.39,2.39,0,0,1,16.55,7Z" transform="translate(0 0)"/>
	</g>
</svg>
