<svg id="Layer_1" data-name="Layer 1"
	xmlns="http://www.w3.org/2000/svg"
	xmlns:xlink="http://www.w3.org/1999/xlink" viewBox="0 0 72.75 65.25">
	<defs>
		<style>.cls-1,.cls-3,.cls-4{fill:none;stroke-linecap:round;stroke-linejoin:round;}.cls-1{stroke:#464a53;stroke-width:2px;}.cls-2{fill:url(#linear-gradient);}.cls-3{stroke:#081219;}.cls-3,.cls-4{stroke-width:2px;}.cls-4{stroke:#ff4a17;}</style>
		<linearGradient id="linear-gradient" x1="1.45" y1="47.42" x2="69.8" y2="47.42" gradientTransform="matrix(1, 0, 0, -1, 0, 68)" gradientUnits="userSpaceOnUse">
			<stop offset="0" stop-color="#999"/>
			<stop offset="1" stop-color="#fff" stop-opacity="0"/>
		</linearGradient>
	</defs>
	<path id="Layer1_20_MEMBER_0_1_STROKES" data-name="Layer1 20 MEMBER 0 1 STROKES" class="cls-1" d="M46.12,55.78H69a3.22,3.22,0,0,0,2.4-.86,2.71,2.71,0,0,0,.85-2V4.48a3.88,3.88,0,0,0-.85-2.2A4.09,4.09,0,0,0,69,1.43H4.18a2.55,2.55,0,0,0-1.85.85,3,3,0,0,0-.86,2.2V52.92a2.34,2.34,0,0,0,.86,2,2.26,2.26,0,0,0,1.85.86H46.12v8.89h4.46m-27.3,0h4.3V55.78m18.54,8.89H27.58" transform="translate(-0.47 -0.43)"/>
	<g id="Layer1_20_MEMBER_1_FILL" data-name="Layer1 20 MEMBER 1 FILL">
		<path class="cls-2" d="M71,33.08v-25H2.18v25Z" transform="translate(-0.47 -0.43)"/>
	</g>
	<path id="Layer1_20_MEMBER_2_1_STROKES" data-name="Layer1 20 MEMBER 2 1 STROKES" class="cls-3" d="M35.61,23.13l3.57,0-5-5m5,5h.28l-.25-3.57" transform="translate(-0.47 -0.43)"/>
	<path id="Layer1_20_MEMBER_3_1_STROKES" data-name="Layer1 20 MEMBER 3 1 STROKES" class="cls-4" d="M64,48.5l.14-7.28M64,48.5l-8.59-8.94M56.9,48.4l7.11.1" transform="translate(-0.47 -0.43)"/>
</svg>
