<svg xmlns="http://www.w3.org/2000/svg" width="14.02" height="13.968" viewBox="0 0 14.02 13.968">
  <path id="Path_195" data-name="Path 195" d="M13.352,2.628H9.4V1.7A1.709,1.709,0,0,0,7.713.018H6.283A1.709,1.709,0,0,0,4.595,1.7v.925H.645a.656.656,0,1,0,0,1.312H1.821l.073,8.282a1.747,1.747,0,0,0,1.768,1.764h6.91a1.749,1.749,0,0,0,1.768-1.77L12.267,3.94h1.085a.656.656,0,1,0,0-1.312ZM5.907,1.7a.394.394,0,0,1,.376-.372h1.43a.394.394,0,0,1,.376.372v.925H5.907Zm4.665,10.971H3.662a.431.431,0,0,1-.456-.457L3.133,3.94h7.821l.074,8.282A.429.429,0,0,1,10.572,12.673Z" transform="translate(0.012 -0.018)" fill="#141516"/>
</svg>
