<svg xmlns="http://www.w3.org/2000/svg" viewBox="0 0 33 33"><defs><style>.cls-1{fill:#163247;}</style></defs><title>t4</title><g id="Layer_2" data-name="Layer 2"><g id="Layer_1-2" data-name="Layer 1"><path class="cls-1" d="M28,0H5A5,5,0,0,0,0,5V28a5,5,0,0,0,5,5H28a5,5,0,0,0,5-5V5A5,5,0,0,0,28,0Zm3.5,28A3.5,3.5,0,0,1,28,31.5H5A3.5,3.5,0,0,1,1.5,28V5A3.5,3.5,0,0,1,5,1.5H28A3.5,3.5,0,0,1,31.5,5Z"/><path class="cls-1" d="M25.06,10.45c.07-.16.13-.33.19-.5A.76.76,0,0,0,25,9.14a.74.74,0,0,0-.85,0,6,6,0,0,1-1.58.7,4.14,4.14,0,0,0-2.8-1.09,4.33,4.33,0,0,0-4.21,4.43h0A9,9,0,0,1,9.78,9.69a.74.74,0,0,0-.65-.3.76.76,0,0,0-.6.39A4.56,4.56,0,0,0,8,12,4.47,4.47,0,0,0,8.38,14l-.07,0a.79.79,0,0,0-.38.66,4.4,4.4,0,0,0,1.35,3.26.8.8,0,0,0-.1.64,4.3,4.3,0,0,0,2.15,2.63,6.12,6.12,0,0,1-2.5.56,6,6,0,0,1-.74,0,.75.75,0,0,0-.51,1.37,10.1,10.1,0,0,0,5.75,1.78h0C20,24.84,24,19.12,24,13.6v-.13a7.89,7.89,0,0,0,1.63-1.87.75.75,0,0,0-.08-.89A.77.77,0,0,0,25.06,10.45ZM22.8,12.52a.75.75,0,0,0-.3.63c0,.15,0,.29,0,.45,0,4.79-3.43,9.74-9.16,9.74h0A8.61,8.61,0,0,1,10.8,23a7.81,7.81,0,0,0,2.84-1.48.79.79,0,0,0,.23-.82.77.77,0,0,0-.68-.51,2.8,2.8,0,0,1-2.06-1,5.23,5.23,0,0,0,.54-.12.74.74,0,0,0,.55-.73.75.75,0,0,0-.57-.72,2.89,2.89,0,0,1-2-1.79,3.15,3.15,0,0,0,.61.06.7.7,0,0,0,.73-.5.74.74,0,0,0-.27-.85A3,3,0,0,1,9.46,12a2.23,2.23,0,0,1,0-.37,10.4,10.4,0,0,0,6.84,3.11.74.74,0,0,0,.61-.26.71.71,0,0,0,.17-.64,3.92,3.92,0,0,1-.06-.71,2.84,2.84,0,0,1,2.73-2.92,2.61,2.61,0,0,1,2,.91.77.77,0,0,0,.61.25.75.75,0,0,0,.45,1.13Z"/></g></g></svg>
