<svg xmlns="http://www.w3.org/2000/svg" width="25.812" height="17.688" viewBox="0 0 25.812 17.688">
  <defs>
    <style>
      .cls-1 {
        fill-rule: evenodd;
      }
    </style>
  </defs>
  <path class="cls-1" d="M959.958,392.649a0.62,0.62,0,1,0,0,1.142h24.08a0.62,0.62,0,1,0,0-1.142h-24.08Zm-0.286,4a0.571,0.571,0,1,0,0,1.142h24.653a0.571,0.571,0,1,0,0-1.142H959.672Zm0.286,4a0.62,0.62,0,1,0,0,1.143h24.08a0.62,0.62,0,1,0,0-1.143h-24.08Zm-0.286,4a0.571,0.571,0,1,0,0,1.142h24.653a0.571,0.571,0,1,0,0-1.142H959.672Zm0.286,4.567a0.62,0.62,0,1,0,0,1.142h24.08a0.62,0.62,0,1,0,0-1.142h-24.08Z" transform="translate(-959.094 -392.656)"/>
</svg>
