<svg id="Group_768" data-name="Group 768" xmlns="http://www.w3.org/2000/svg" xmlns:xlink="http://www.w3.org/1999/xlink" width="20" height="20" viewBox="0 0 20 20">
  <defs>
    <clipPath id="clip-path">
      <rect id="Rectangle_18" data-name="Rectangle 18" width="20" height="20" fill="none"/>
    </clipPath>
  </defs>
  <g id="Group_767" data-name="Group 767" clip-path="url(#clip-path)">
    <path id="Path_155" data-name="Path 155" d="M19,20H1a1,1,0,0,1-1-1V1A1,1,0,0,1,1,0H19a1,1,0,0,1,1,1V19a1,1,0,0,1-1,1M2,18H18V2H2Z" fill="#090f13"/>
    <path id="Path_156" data-name="Path 156" d="M16,14.068H4a1,1,0,1,1,0-2H16a1,1,0,0,1,0,2" fill="#090f13"/>
    <path id="Path_157" data-name="Path 157" d="M8.747,7.932H4a1,1,0,0,1,0-2H8.747a1,1,0,0,1,0,2" fill="#090f13"/>
    <path id="Path_158" data-name="Path 158" d="M16,7.932H11.252a1,1,0,0,1,0-2H16a1,1,0,0,1,0,2" fill="#090f13"/>
  </g>
</svg>
