<svg id="Layer_1" data-name="Layer 1" xmlns="http://www.w3.org/2000/svg" viewBox="0 0 72.75 65.25"><defs><style>.cls-1,.cls-2,.cls-3,.cls-4{fill:none;stroke-linecap:round;stroke-linejoin:round;}.cls-1{stroke:#464a53;}.cls-1,.cls-3,.cls-4{stroke-width:2px;}.cls-2{stroke:#dcdfdf;stroke-width:5px;}.cls-3{stroke:#ff4a17;}.cls-4{stroke:#081219;}</style></defs><path id="Layer1_49_MEMBER_0_1_STROKES" data-name="Layer1 49 MEMBER 0 1 STROKES" class="cls-1" d="M46.12,55.78H69a3.22,3.22,0,0,0,2.4-.86,2.71,2.71,0,0,0,.85-2V4.48a3.88,3.88,0,0,0-.85-2.2A4.09,4.09,0,0,0,69,1.43H4.18a2.55,2.55,0,0,0-1.85.85,3,3,0,0,0-.86,2.2V52.92a2.34,2.34,0,0,0,.86,2,2.26,2.26,0,0,0,1.85.86H46.12v8.89h4.46m-27.3,0h4.3V55.78m18.54,8.89H27.58" transform="translate(-0.47 -0.43)"/><path id="Layer1_49_MEMBER_1_1_STROKES" data-name="Layer1 49 MEMBER 1 1 STROKES" class="cls-2" d="M39.12,31.92a10.61,10.61,0,0,0,3.31,7.86,10.64,10.64,0,0,0,7.85,3.3A11.18,11.18,0,0,0,61.43,31.92,11.1,11.1,0,0,0,50.28,20.78,10.67,10.67,0,0,0,42.43,24,10.72,10.72,0,0,0,39.12,31.92Z" transform="translate(-0.47 -0.43)"/><path id="Layer1_49_MEMBER_1_MEMBER_0_1_STROKES" data-name="Layer1 49 MEMBER 1 MEMBER 0 1 STROKES" class="cls-3" d="M13.93,16.67a9.5,9.5,0,0,1,2-2.09,4.44,4.44,0,0,1,2.65-.75,5.57,5.57,0,0,1,4.1,1.7,5.12,5.12,0,0,1,1.69,4,5.66,5.66,0,0,1-1.75,4.15,5.52,5.52,0,0,1-4,1.69,5.59,5.59,0,0,1-3.4-1.14A5.81,5.81,0,0,1,14,23.12M12.18,12.23v4.94a1.19,1.19,0,0,0,.29.7,1,1,0,0,0,.71.3h5.1" transform="translate(-0.47 -0.43)"/><path id="Layer1_49_MEMBER_1_MEMBER_1_1_STROKES" data-name="Layer1 49 MEMBER 1 MEMBER 1 1 STROKES" class="cls-4" d="M38.89,39.18l3.32,1.29.23.1,1.12-3.38m-1.35,3.28-1.93-4.38" transform="translate(-0.47 -0.43)"/></svg>