<svg id="Group_766" data-name="Group 766" xmlns="http://www.w3.org/2000/svg" xmlns:xlink="http://www.w3.org/1999/xlink" width="20" height="20" viewBox="0 0 20 20">
  <defs>
    <clipPath id="clip-path">
      <rect id="Rectangle_17" data-name="Rectangle 17" width="20" height="20" fill="none"/>
    </clipPath>
  </defs>
  <g id="Group_765" data-name="Group 765" clip-path="url(#clip-path)">
    <path id="Path_151" data-name="Path 151" d="M19,20H1a1,1,0,0,1-1-1V1A1,1,0,0,1,1,0H19a1,1,0,0,1,1,1V19a1,1,0,0,1-1,1M2,18H18V2H2Z" fill="#090f13"/>
    <path id="Path_152" data-name="Path 152" d="M16,13.25H4a1,1,0,0,1,0-2H16a1,1,0,0,1,0,2" fill="#090f13"/>
    <path id="Path_153" data-name="Path 153" d="M8.747,8.75H4a1,1,0,0,1,0-2H8.747a1,1,0,0,1,0,2" fill="#090f13"/>
    <path id="Path_154" data-name="Path 154" d="M16,8.75H11.252a1,1,0,0,1,0-2H16a1,1,0,0,1,0,2" fill="#090f13"/>
  </g>
</svg>
