<?xml version="1.0" encoding="utf-8"?>
<!-- Generator: Adobe Illustrator 24.2.2, SVG Export Plug-In . SVG Version: 6.00 Build 0)  -->
<svg version="1.1" id="Layer_1" xmlns="http://www.w3.org/2000/svg" xmlns:xlink="http://www.w3.org/1999/xlink" x="0px" y="0px"
	 viewBox="0 0 36.1 36.1" style="enable-background:new 0 0 36.1 36.1;" xml:space="preserve">
<style type="text/css">
	.st0{fill:#464A53;}
</style>
<g id="Vector_Smart_Object_1_">
	<g transform="matrix( 1, 0, 0, 1, 0,0) ">
		<g>
			<g id="Layer0_1_FILL_1_">
				<path class="st0" d="M29.1,13.8c-3-2.9-5.8-5-8.4-6.3c-2.4-1.2-4.6-1.7-6.5-1.5C12.5,6.2,11,6.9,9.8,8.2
					C8.7,9.5,8,11.1,7.6,13.1c-0.1,1.2-0.6,2.4-1.5,3.7c-0.3,0.5-1.2,1.5-2.6,3c-1.1,1.2-1.8,2.2-2.1,3c-0.5,1.2-0.6,2.3-0.1,3.5
					c0.4,1.1,1.2,2,2.3,2.6c1,0.6,2.3,1,3.7,1.1c1.4,0.2,2.8,0.1,4.3-0.2c1.5-0.3,2.8-0.7,4-1.3c0.8-0.3,1.8-0.4,3-0.3
					c0.9,0,2.1,0.2,3.6,0.6c0.8,0.2,2,0.5,3.7,0.8c1.4,0.3,2.6,0.4,3.6,0.4c0.9,0,1.9-0.3,2.9-1c1.2-0.8,2-1.8,2.5-3
					c0.5-1.5,0.4-3.2-0.3-5.1C33.6,18.8,31.8,16.4,29.1,13.8z"/>
			</g>
		</g>
	</g>
</g>
</svg>
