<?xml version="1.0" encoding="utf-8"?>
<!-- Generator: Adobe Illustrator 24.1.2, SVG Export Plug-In . SVG Version: 6.00 Build 0)  -->
<svg version="1.1" id="Layer_1"
	xmlns="http://www.w3.org/2000/svg"
	xmlns:xlink="http://www.w3.org/1999/xlink" x="0px" y="0px" viewBox="0 0 24 24" style="enable-background:new 0 0 24 24;" xml:space="preserve">
	<style type="text/css">
	.st0{fill:none;stroke:#FFFFFF;stroke-width:2;stroke-linecap:round;stroke-linejoin:round;}
	</style>
	<g transform="matrix( 1, 0, 0, 1, 0.05,0.05) ">
		<g>
			<path id="Layer0_0_1_STROKES" class="st0" d="M17.8,8.1h-2.5H6.2 M11.9,2.4v4.5 M15.3,2.4v5.7 M5.4,1.4v9.3c0,0.7,0.3,1.4,0.8,1.9
			c0.5,0.5,1.1,0.8,1.8,0.8h1.4v6.6c0,0.8,0.3,1.4,0.8,1.9c0.5,0.5,1.1,0.8,1.8,0.8c0.8,0,1.4-0.3,1.9-0.8c0.5-0.5,0.8-1.2,0.8-1.9
			v-6.6h1.3c0.7,0,1.3-0.3,1.8-0.8c0.5-0.5,0.8-1.2,0.8-1.9V1.4H5.4z M8.6,2.4v4.5"/>
		</g>
	</g>
</svg>
