<svg xmlns="http://www.w3.org/2000/svg" xmlns:xlink="http://www.w3.org/1999/xlink" width="13.025" height="15.61" viewBox="0 0 13.025 15.61">
  <defs>
    <clipPath id="clip-path">
      <rect id="Rectangle_548" data-name="Rectangle 548" width="13.025" height="15.61" transform="translate(0 0)" fill="none"/>
    </clipPath>
  </defs>
  <g id="Group_1263" data-name="Group 1263" transform="translate(0 0)">
    <g id="Group_1229" data-name="Group 1229" clip-path="url(#clip-path)">
      <path id="Path_364" data-name="Path 364" d="M11.615,1.239C10.69.405,9.049,0,6.592,0L3.2.021,1.081.011A.961.961,0,0,0,.01.942c0,.808.927.976,1.323,1.048.128.024.29.071.337.166A5.292,5.292,0,0,1,1.817,3.9L1.785,7l.032,2.844c0,.96-.021,1.821-.063,2.557a2.64,2.64,0,0,1-.175,1.033A1.074,1.074,0,0,1,1,13.678c-.906.189-1,.756-1,.99a.889.889,0,0,0,.509.822c.169.08.233.111,1.639.111l2.942.009a8.626,8.626,0,0,0,1.264-.038.906.906,0,0,0,.769-.915c0-.211-.086-.9-1.2-.972a.74.74,0,0,1-.412-.156.689.689,0,0,1-.231-.23,6.18,6.18,0,0,1-.1-1.268q-.038-1.185-.038-1.543c0-.3.011-.6.031-.9.017-.26.031-.493.041-.7q.536.023.985.023a9.424,9.424,0,0,0,4.96-1.052,3.854,3.854,0,0,0,1.874-3.445,4.116,4.116,0,0,0-1.41-3.173M2.919,14.1a4.184,4.184,0,0,0,.333-1.62c.043-.764.065-1.654.065-2.651L3.285,7l.032-3.084A5.832,5.832,0,0,0,3.029,1.52H3.2l.524,0c0,.2-.007.374-.007.41l.043,2.429L3.72,6.984c0,.128,0,.784.011,1.118q0,.465-.062,1.384c-.023.331-.035.664-.035,1,0,.246.013.777.039,1.59a5.748,5.748,0,0,0,.2,1.743,1.541,1.541,0,0,0,.141.285Zm7.443-7.521a8.192,8.192,0,0,1-4.171.827q-.441,0-.969-.024c0-.184,0-.338,0-.388l.043-2.641L5.22,1.915c0-.035,0-.208.007-.406L6.6,1.5c2.536,0,3.582.464,4.014.853a2.637,2.637,0,0,1,.914,2.059,2.335,2.335,0,0,1-1.163,2.17" fill="#141516"/>
    </g>
  </g>
</svg>
