<?xml version="1.0" encoding="utf-8"?>
<!-- Generator: Adobe Illustrator 24.3.0, SVG Export Plug-In . SVG Version: 6.00 Build 0)  -->
<svg version="1.1" id="Layer_1" xmlns="http://www.w3.org/2000/svg" xmlns:xlink="http://www.w3.org/1999/xlink" x="0px" y="0px"
	 viewBox="0 0 24 24" style="enable-background:new 0 0 24 24;" xml:space="preserve">
<style type="text/css">
	.st0{fill:#FFFFFF;}
</style>
<g>
	<path class="st0" d="M6.8,3.5c1-0.2,2.4-0.3,4.2-0.3c2.1,0,3.7,0.5,4.7,1.5c0.9,0.8,1.5,2.1,1.5,3.7c0,1.6-0.4,2.8-1.3,3.8
		c-1.1,1.3-3,1.9-5.1,1.9c-0.6,0-1.2,0-1.7-0.2v7H6.8V3.5z M9,12c0.5,0.1,1.1,0.2,1.8,0.2c2.6,0,4.2-1.3,4.2-3.8C15,6.1,13.4,5,11,5
		C10.1,5,9.4,5,9,5.1V12z"/>
</g>
</svg>
