<svg id="Layer_1" data-name="Layer 1"
	xmlns="http://www.w3.org/2000/svg"
	xmlns:xlink="http://www.w3.org/1999/xlink" viewBox="0 0 72.75 65.25">
	<defs>
		<style>.cls-1,.cls-3,.cls-4{fill:none;stroke-linecap:round;stroke-linejoin:round;}.cls-1{stroke:#464a53;stroke-width:2px;}.cls-2{fill:url(#linear-gradient);}.cls-3{stroke:#081219;}.cls-3,.cls-4{stroke-width:2px;}.cls-4{stroke:#ff4a17;}</style>
		<linearGradient id="linear-gradient" x1="14.01" y1="47.42" x2="58.64" y2="47.42" gradientTransform="matrix(1, 0, 0, -1, 0, 68)" gradientUnits="userSpaceOnUse">
			<stop offset="0" stop-color="#999"/>
			<stop offset="1" stop-color="#fff" stop-opacity="0"/>
		</linearGradient>
	</defs>
	<path id="Layer1_21_1_STROKES" data-name="Layer1 21 1 STROKES" class="cls-1" d="M46.12,55.77H69a3.25,3.25,0,0,0,2.4-.84,2.7,2.7,0,0,0,.85-2V4.47a3.83,3.83,0,0,0-.85-2.2A4.18,4.18,0,0,0,69,1.42H4.17a2.62,2.62,0,0,0-1.85.85,3,3,0,0,0-.85,2.2V52.93a2.41,2.41,0,0,0,.85,2,2.3,2.3,0,0,0,1.85.84H46.12v8.91h4.45m-27.3,0h4.3V55.77m18.55,8.91H27.57" transform="translate(-0.47 -0.42)"/>
	<g id="Layer1_21_MEMBER_0_FILL" data-name="Layer1 21 MEMBER 0 FILL">
		<path class="cls-2" d="M14.37,8.08v25h44.9v-25Z" transform="translate(-0.47 -0.42)"/>
	</g>
	<path id="Layer1_21_MEMBER_1_1_STROKES" data-name="Layer1 21 MEMBER 1 1 STROKES" class="cls-3" d="M35.7,23.12l3.57,0-5-5m5,5h.28l-.25-3.57" transform="translate(-0.47 -0.42)"/>
	<path id="Layer1_21_MEMBER_2_1_STROKES" data-name="Layer1 21 MEMBER 2 1 STROKES" class="cls-4" d="M65.24,48.5l.14-7.28m-.14,7.28-8.59-8.94m1.48,8.84,7.11.1" transform="translate(-0.47 -0.42)"/>
</svg>
