<?xml version="1.0" encoding="utf-8"?>
<!-- Generator: Adobe Illustrator 26.0.2, SVG Export Plug-In . SVG Version: 6.00 Build 0)  -->
<svg version="1.1" id="Layer_1" xmlns="http://www.w3.org/2000/svg" xmlns:xlink="http://www.w3.org/1999/xlink" x="0px" y="0px"
	 viewBox="0 0 20 20" style="enable-background:new 0 0 20 20;" xml:space="preserve">
<style type="text/css">
	.st0{fill:var(--mpc);stroke:#081219;stroke-width:1.2;stroke-linecap:round;stroke-linejoin:round;stroke-miterlimit:10;}
	.st1{fill:none;stroke:#081219;stroke-width:1.2;stroke-linecap:round;stroke-linejoin:round;}
</style>
<g>
	<g id="Layer0_0_FILL">
		<path class="st0" d="M9,0.9l-0.1,9.4l7.2,1.3L9,0.9 M5.2,10.9c0.1,0,3.7-0.6,3.7-0.6L9,0.9L5.2,10.9z"/>
	</g>
	<path class="st1" d="M15.8,3.1c-0.2,0-0.4,0.1-0.7,0.3c-0.2,0.1-0.3,0.2-0.4,0.3c-0.5-0.5-0.9-0.7-1.1-0.7"/>
	<path class="st1" d="M18.7,5.6c-0.2,0-0.4,0.1-0.7,0.4c-0.2,0.1-0.3,0.2-0.4,0.3c-0.5-0.5-0.9-0.7-1.1-0.7"/>
	<path class="st1" d="M8.9,10.3v3.9l4.7,0.7l-0.5,1.6c-0.4,1.1-0.9,2-1.5,2.5"/>
	<path class="st1" d="M4.8,4.7C4.6,4.6,4,5.2,3.8,5.4C3.3,4.9,2.9,4.7,2.7,4.7"/>
	<line class="st1" x1="8.9" y1="10.3" x2="9" y2="0.9"/>
	<path class="st1" d="M6.1,19c-0.5-0.5-0.9-1.4-1.3-2.4L4.3,15l4.6-0.7v2.1"/>
	<path class="st1" d="M1.3,19c0.3,0,0.5-0.1,0.8-0.2c0.2-0.1,0.4-0.3,0.6-0.5c1,1.2,2.4,0.6,2.7,0c0.8,1.2,2.6,0.4,2.6,0
		c0.6,0.9,2,0.8,2.7,0c0.7,1,1.8,0.9,2.7,0c0.3,0.4,0.8,0.6,1.3,0.6c0.5,0,1-0.2,1.3-0.6c0.6,0.9,1.9,0.9,2.7,0"/>
</g>
</svg>
