<svg id="Group_1012" data-name="Group 1012" xmlns="http://www.w3.org/2000/svg" xmlns:xlink="http://www.w3.org/1999/xlink" width="19.13" height="20.036" viewBox="0 0 19.13 20.036">
  <defs>
    <clipPath id="clip-path">
      <rect id="Rectangle_503" data-name="Rectangle 503" width="19.13" height="20.036" transform="translate(0 0)" fill="none"/>
    </clipPath>
  </defs>
  <g id="Group_1011" data-name="Group 1011" clip-path="url(#clip-path)">
    <path id="Path_312" data-name="Path 312" d="M8.586.75l-.094,9.608,7.276,1.337ZM4.7,10.98c.062-.031,3.793-.622,3.793-.622L8.586.75Z" fill="#ff4a17"/>
    <path id="Path_313" data-name="Path 313" d="M8.586.75l-.094,9.608,7.276,1.337L8.586.75M4.7,10.98c.062-.031,3.793-.622,3.793-.622L8.586.75Z" fill="none" stroke="#081219" stroke-linecap="round" stroke-linejoin="round" stroke-width="1.5"/>
    <path id="Path_314" data-name="Path 314" d="M15.457,3.02a1.5,1.5,0,0,0-.684.342c-.156.093-.28.249-.435.342-.529-.466-.871-.715-1.089-.715" fill="none" stroke="#081219" stroke-linecap="round" stroke-linejoin="round" stroke-width="1.5"/>
    <path id="Path_315" data-name="Path 315" d="M18.38,5.569a1.351,1.351,0,0,0-.684.373c-.156.124-.311.249-.4.342-.5-.5-.871-.746-1.089-.746" fill="none" stroke="#081219" stroke-linecap="round" stroke-linejoin="round" stroke-width="1.5"/>
    <path id="Path_316" data-name="Path 316" d="M8.492,10.358v4.011l4.819.715-.5,1.586a7.429,7.429,0,0,1-1.493,2.581" fill="none" stroke="#081219" stroke-linecap="round" stroke-linejoin="round" stroke-width="1.5"/>
    <path id="Path_317" data-name="Path 317" d="M4.326,4.606c-.249-.031-.84.5-1.088.746-.5-.5-.871-.746-1.089-.746" fill="none" stroke="#081219" stroke-linecap="round" stroke-linejoin="round" stroke-width="1.5"/>
    <line id="Line_675" data-name="Line 675" y1="9.608" x2="0.093" transform="translate(8.492 0.75)" fill="none" stroke="#081219" stroke-linecap="round" stroke-linejoin="round" stroke-width="1.5"/>
    <path id="Path_318" data-name="Path 318" d="M5.632,19.126A8.638,8.638,0,0,1,4.3,16.7l-.5-1.648,4.7-.684v2.114" fill="none" stroke="#081219" stroke-linecap="round" stroke-linejoin="round" stroke-width="1.5"/>
    <path id="Path_319" data-name="Path 319" d="M.75,19.188A1.674,1.674,0,0,0,1.527,19a2.15,2.15,0,0,0,.591-.466,1.617,1.617,0,0,0,2.7,0,1.715,1.715,0,0,0,2.674,0,1.779,1.779,0,0,0,2.736,0c.716,1.057,1.866.933,2.706.031a1.707,1.707,0,0,0,1.368.653,1.856,1.856,0,0,0,1.368-.653,1.689,1.689,0,0,0,2.7,0" fill="none" stroke="#081219" stroke-linecap="round" stroke-linejoin="round" stroke-width="1.5"/>
  </g>
</svg>
