<svg version="1.1" id="Layer_1" xmlns="http://www.w3.org/2000/svg" xmlns:xlink="http://www.w3.org/1999/xlink" x="0px"
	y="0px" viewBox="0 0 24 24" style="enable-background:new 0 0 24 24;" xml:space="preserve">
	<style type="text/css">
		.st0 {
			fill: var(--mpc);
		}
	</style>
	<path class="st0" d="M17.85,0.35H6.05c-0.6,0-1,0.4-1,1v21.3c0,0.6,0.4,1,1,1h11.9c0.6,0,1-0.4,1-1V1.35
	C18.85,0.85,18.45,0.35,17.85,0.35z M16.85,21.75h-9.8V2.35h9.9v19.4H16.85z" />
	<path class="st0" d="M23.6547,11.4819l-1.9688-2.0591c-0.2881-0.3013-0.7617-0.311-1.0605-0.0239
	c-0.2988,0.2861-0.3096,0.7607-0.0234,1.0601l0.6995,0.7319h-2.9329c-0.4141,0-0.75,0.3359-0.75,0.75
	c0,0.4146,0.3359,0.7505,0.75,0.7505h3.0449L20.6019,13.54c-0.2861,0.2998-0.2754,0.7744,0.0234,1.0605
	c0.1455,0.1387,0.332,0.208,0.5186,0.208c0.1973,0,0.3945-0.0771,0.542-0.2314l1.9688-2.0586
	C23.932,12.2285,23.932,11.7715,23.6547,11.4819z" />
	<path class="st0" d="M4.8735,11.1909h-1.946l0.697-0.7271c0.2866-0.2993,0.2764-0.7739-0.0225-1.0605
	C3.3017,9.1162,2.8281,9.1255,2.5415,9.4258l-1.7994,1.8779c-0.222,0.1302-0.3784,0.3613-0.3784,0.6373
	c0,0.0101,0.0054,0.0186,0.0058,0.0286c-0.0081,0.197,0.0559,0.3961,0.2022,0.549l1.9692,2.0586
	c0.1475,0.1543,0.3447,0.2314,0.542,0.2314c0.1865,0,0.373-0.0693,0.5186-0.208c0.2993-0.2861,0.3096-0.7607,0.0234-1.0605
	l-0.8118-0.8486h2.0603c0.4141,0,0.75-0.3359,0.75-0.7505C5.6235,11.5269,5.2876,11.1909,4.8735,11.1909z" />
</svg>
