<?xml version="1.0" encoding="utf-8"?>
<!-- Generator: Adobe Illustrator 24.3.0, SVG Export Plug-In . SVG Version: 6.00 Build 0)  -->
<svg version="1.1" id="Layer_1" xmlns="http://www.w3.org/2000/svg" xmlns:xlink="http://www.w3.org/1999/xlink" x="0px" y="0px"
	 viewBox="0 0 24 24" style="enable-background:new 0 0 24 24;" xml:space="preserve">
<style type="text/css">
	.st0{fill:#FFFFFF;}
</style>
<g>
	<path class="st0" d="M2.5,3.2v7.3h8.1V3.2h2.2v17.6h-2.2v-8.2H2.5v8.2H0.4V3.2H2.5z"/>
	<path class="st0" d="M13.3,20.8v-1.4l1.7-1.7c4.1-4.1,6-6.3,6-8.9c0-1.7-0.8-3.3-3.2-3.3c-1.5,0-2.7,0.8-3.4,1.4l-0.7-1.6
		c1.1-1,2.7-1.7,4.6-1.7c3.5,0,4.9,2.5,4.9,4.9c0,3.1-2.2,5.7-5.6,9.1l-1.3,1.3v0.1h7.3v1.9H13.3z"/>
</g>
</svg>
