<svg id="Group_747" data-name="Group 747" xmlns="http://www.w3.org/2000/svg" xmlns:xlink="http://www.w3.org/1999/xlink" width="20" height="20" viewBox="0 0 20 20">
  <defs>
    <clipPath id="clip-path">
      <rect id="Rectangle_8" data-name="Rectangle 8" width="20" height="20" fill="none"/>
    </clipPath>
  </defs>
  <g id="Group_746" data-name="Group 746" clip-path="url(#clip-path)">
    <path id="Path_114" data-name="Path 114" d="M19,20H1a1,1,0,0,1-1-1V1A1,1,0,0,1,1,0H19a1,1,0,0,1,1,1V19a1,1,0,0,1-1,1M2,18H18V2H2Z" fill="#090f13"/>
    <path id="Path_115" data-name="Path 115" d="M9.944,17.475a1,1,0,0,1-1-1V3.525a1,1,0,1,1,2,0v12.95a1,1,0,0,1-1,1" fill="#090f13"/>
    <path id="Path_116" data-name="Path 116" d="M14.416,17.475a1,1,0,0,1-1-1V3.525a1,1,0,0,1,2,0v12.95a1,1,0,0,1-1,1" fill="#090f13"/>
    <path id="Path_117" data-name="Path 117" d="M5.472,17.475a1,1,0,0,1-1-1V3.525a1,1,0,0,1,2,0v12.95a1,1,0,0,1-1,1" fill="#090f13"/>
  </g>
</svg>
