<svg xmlns="http://www.w3.org/2000/svg" xmlns:xlink="http://www.w3.org/1999/xlink" width="12.726" height="19.856" viewBox="0 0 12.726 19.856">
  <defs>
    <clipPath id="clip-path">
      <rect id="Rectangle_493" data-name="Rectangle 493" width="12.726" height="19.856" transform="translate(0 0)" fill="none"/>
    </clipPath>
  </defs>
  <g id="Group_992" data-name="Group 992" transform="translate(0 0)">
    <g id="Mask_Group_991" data-name="Mask Group 991" clip-path="url(#clip-path)">
      <path id="Path_278" data-name="Path 278" d="M.759,1.584V18.271a.817.817,0,0,0,.834.835h9.549a.984.984,0,0,0,.835-.835V1.584a.8.8,0,0,0-.279-.556A.794.794,0,0,0,11.142.75h-9.6a.8.8,0,0,0-.556.278A.555.555,0,0,0,.759,1.584Z" fill="none" stroke="#081219" stroke-linecap="round" stroke-linejoin="round" stroke-width="1.5"/>
      <path id="Path_279" data-name="Path 279" d="M3.846,9.155l2.5-3.018L3.892,3.172" fill="none" stroke="#081219" stroke-linecap="round" stroke-linejoin="round" stroke-width="1.5"/>
      <path id="Path_280" data-name="Path 280" d="M8.8,3.171,6.349,6.136,8.844,9.154" fill="none" stroke="#081219" stroke-linecap="round" stroke-linejoin="round" stroke-width="1.5"/>
      <path id="Path_281" data-name="Path 281" d="M7.821,11.751c-1.566-1.419-3.317.453-2.253,1.4.709.546,1.526.521,2.287.946a1.343,1.343,0,0,1-.09,2.343c-.845.6-3.115.416-3.29-1.363" fill="none" stroke="#081219" stroke-linecap="round" stroke-linejoin="round" stroke-width="1.5"/>
    </g>
  </g>
</svg>
