<svg id="Layer_1" data-name="Layer 1" xmlns="http://www.w3.org/2000/svg" viewBox="0 0 13.1 20.8"><defs><style>.cls-1{fill:none;stroke:#464a53;stroke-linecap:round;stroke-linejoin:round;}.cls-2{fill:#464a53;}</style></defs><path id="Layer0_0_1_STROKES" data-name="Layer0 0 1 STROKES" class="cls-1" d="M6,3V21a.6.6,0,0,0,.3.6.86.86,0,0,0,.6.3h10.3a1.06,1.06,0,0,0,.9-.9V3a.86.86,0,0,0-.3-.6.86.86,0,0,0-.6-.3H6.85a.86.86,0,0,0-.6.3A.6.6,0,0,0,6,3Z" transform="translate(-5.45 -1.6)"/><path class="cls-2" d="M12,6.36l1.64-2.83h1.57L12.85,7.41l2.42,3.95H13.68L12,8.49l-1.69,2.87H8.73l2.43-3.95L8.79,3.53h1.57Z" transform="translate(-5.45 -1.6)"/><path class="cls-2" d="M13.56,18.35a1,1,0,0,0-.36-.8A4.69,4.69,0,0,0,11.89,17a6,6,0,0,1-1.51-.64A2,2,0,0,1,9.31,14.6,1.92,1.92,0,0,1,10.08,13a3.15,3.15,0,0,1,2-.61,3.36,3.36,0,0,1,1.45.3,2.43,2.43,0,0,1,1,.86,2.21,2.21,0,0,1,.36,1.23H13.56a1.21,1.21,0,0,0-.39-1,1.57,1.57,0,0,0-1.09-.34,1.67,1.67,0,0,0-1,.28,1,1,0,0,0-.37.8.84.84,0,0,0,.4.71,4.64,4.64,0,0,0,1.31.56,6.06,6.06,0,0,1,1.47.62,2.3,2.3,0,0,1,.81.8,2,2,0,0,1,.26,1.05,1.85,1.85,0,0,1-.75,1.55,3.23,3.23,0,0,1-2,.58,3.85,3.85,0,0,1-1.56-.31,2.61,2.61,0,0,1-1.1-.87A2.13,2.13,0,0,1,9.07,18h1.36a1.27,1.27,0,0,0,.44,1,2,2,0,0,0,1.26.37,1.69,1.69,0,0,0,1.07-.29A.93.93,0,0,0,13.56,18.35Z" transform="translate(-5.45 -1.6)"/></svg>