<svg id="Layer_1" data-name="Layer 1" xmlns="http://www.w3.org/2000/svg" viewBox="0 0 72.75 65.25"><defs><style>.cls-1,.cls-3,.cls-4{fill:none;stroke-linecap:round;stroke-linejoin:round;stroke-width:2px;}.cls-1{stroke:#464a53;}.cls-2{fill:#dcdfdf;}.cls-3{stroke:#ff4a17;}.cls-4{stroke:#081219;}</style></defs><path id="Layer1_33_1_STROKES" data-name="Layer1 33 1 STROKES" class="cls-1" d="M46.12,55.78H69a3.22,3.22,0,0,0,2.4-.86,2.67,2.67,0,0,0,.85-2V4.48a3.81,3.81,0,0,0-.85-2.2A4.1,4.1,0,0,0,69,1.42H4.17a2.6,2.6,0,0,0-1.85.86,3,3,0,0,0-.85,2.2V52.92a2.36,2.36,0,0,0,.85,2,2.29,2.29,0,0,0,1.85.86H46.12v8.89h4.45m-27.3,0h4.3V55.78m18.55,8.89H27.57" transform="translate(-0.47 -0.42)"/><g id="Layer1_33_MEMBER_0_FILL" data-name="Layer1 33 MEMBER 0 FILL"><path class="cls-2" d="M14.25,55.05h6v-25h-6v25m45.2-25h-5.8v25h5.8Z" transform="translate(-0.47 -0.42)"/></g><path id="Layer1_33_MEMBER_0_1_STROKES" data-name="Layer1 33 MEMBER 0 1 STROKES" class="cls-3" d="M55.1,16.3l2.5-2.55H50.5m7.1,0,.2-.2L55.1,11.2m-35.55-.15-2.7,2.6.2.2,7.2-.1m-7.2.1,2.4,2.25" transform="translate(-0.47 -0.42)"/><path id="Layer1_33_MEMBER_0_MEMBER_0_1_STROKES" data-name="Layer1 33 MEMBER 0 MEMBER 0 1 STROKES" class="cls-4" d="M37.8,35.6l2.5-2.55H33.2m7.1,0,.2-.2L37.8,30.5" transform="translate(-0.47 -0.42)"/></svg>