<svg xmlns="http://www.w3.org/2000/svg" viewBox="0 0 36.1 36.1"  fill="#081219"><path d="M16.763 12.17c-.206-1.425-.773-2.896-1.66-3.851A7.56 7.56 0 0 0 9.192 5.48a7.58 7.58 0 0 0-7.577 7.576 7.58 7.58 0 0 0 7.577 7.577s1.348 4.098-2.672 8.281l1.454 1.707c1.72-1.129 6.137-5.717 7.517-9.258 1.645-4.221 1.478-7.767 1.272-9.192zm17.594 0c-.206-1.425-.773-2.896-1.66-3.851a7.56 7.56 0 0 0-5.911-2.839 7.58 7.58 0 0 0-7.577 7.576 7.58 7.58 0 0 0 7.577 7.577s1.348 4.098-2.672 8.281l1.454 1.707c1.72-1.129 6.137-5.717 7.517-9.258 1.645-4.221 1.478-7.767 1.272-9.192z"/></svg>