<svg id="Layer_1" data-name="Layer 1"
	xmlns="http://www.w3.org/2000/svg" viewBox="0 0 72.75 65.25">
	<defs>
		<style>.cls-1{fill:#dcdfdf;}.cls-2,.cls-3,.cls-4{fill:none;stroke-linecap:round;stroke-linejoin:round;stroke-width:2px;}.cls-2{stroke:#464a53;}.cls-3{stroke:#ff4a17;}.cls-4{stroke:#081219;}</style>
	</defs>
	<g id="Layer1_51_FILL" data-name="Layer1 51 FILL">
		<path class="cls-1" d="M58.64,20.94H40.94v17.7h17.7Z" transform="translate(-0.58 -0.24)"/>
	</g>
	<path id="Layer1_51_1_STROKES" data-name="Layer1 51 1 STROKES" class="cls-2" d="M46.24,55.59H69.08a3.25,3.25,0,0,0,2.41-.85,2.75,2.75,0,0,0,.84-2V4.29a3.93,3.93,0,0,0-.84-2.2,4.12,4.12,0,0,0-2.41-.85H4.28a2.55,2.55,0,0,0-1.84.85,3,3,0,0,0-.86,2.2V52.74a2.35,2.35,0,0,0,.86,2,2.25,2.25,0,0,0,1.84.85h42v8.9h4.45m-27.3,0h4.3v-8.9m18.55,8.9H27.69" transform="translate(-0.58 -0.24)"/>
	<path id="Layer1_51_2_STROKES" data-name="Layer1 51 2 STROKES" class="cls-3" d="M24.49,24.84l5-5v-.3l-3.59.25m3.59,3.6V19.84M12.58,33l-.09,3.75.25-.05,5-5.15m-5,5.15,3.29-.1" transform="translate(-0.58 -0.24)"/>
	<path id="Layer1_51_MEMBER_0_1_STROKES" data-name="Layer1 51 MEMBER 0 1 STROKES" class="cls-4" d="M52.34,28.84l-2.55-2.5v7.1m0-7.1-.2-.2-2.35,2.7" transform="translate(-0.58 -0.24)"/>
</svg>
