<svg xmlns="http://www.w3.org/2000/svg" version="1.1"
	xmlns:xlink="http://www.w3.org/1999/xlink" preserveAspectRatio="none" x="0px" y="0px" width="1350px" height="133px" viewBox="0 0 1350 133">
	<defs>
		<g id="Layer0_0_FILL">
			<path fill="#000000" stroke="none" d="
M 1350.45 133
L 1350.45 117.2
Q 1348.65 107.3 1341.2 99.75 1331.2 89.75 1317.15 89.75 1303.45 89.75 1293.55 99.45 1294.55 94.95 1294.55 89.75 1294.55 69.7 1280.3 55.55 1266.1 41.35 1245.95 41.35 1236 41.35 1226.95 45.25 1218.15 49.05 1211.45 55.9 1214.15 48.7 1214.15 41.35 1214.15 24.25 1201.95 12.15 1189.9 0 1172.8 0 1155.8 0 1143.55 12.15 1131.5 24.25 1131.5 41.35
L 1131.5 41.4
Q 1119.25 32.6 1104.35 32.6 1085.05 32.6 1071.35 46.35 1057.65 60.05 1057.65 79.35
L 1057.75 82.85
Q 1039.3 84.65 1026.75 98.55 1022.4 103.45 1019.55 108.9 1019.4 108.85 1019.25 108.85 1020.3 102.85 1020.3 97.85 1020.3 73.6 1003.15 56.45 985.95 39.3 961.65 39.3 944.9 39.3 930.75 48.1 917 56.6 909.6 71.1 896.65 60.9 880.15 60.9 865.4 60.9 853.4 69 841.55 77.1 836 90.2 826.6 91.35 818.95 96.65 817.05 81.45 805.6 71.25 793.95 60.9 778.5 60.9 774.85 60.9 771.25 61.55 766.9 48.85 755.9 40.8 744.65 32.6 730.7 32.6 713.65 32.6 701.25 44.35 689 56 688 72.85 682.35 67.2 675.1 64.2 667.5 60.9 659.1 60.9 647.8 60.9 638.15 66.75 628.75 72.4 623.45 81.95 616.45 79.35 609.5 79.35 597.25 79.35 587.35 86.2 583.05 66.75 567.5 54.15 551.7 41.35 531.4 41.35 511.7 41.35 496.15 53.3 480.95 65 475.9 83.5 471 81.1 466.5 80.2 456.05 71.4 443.4 66.75 430.35 61.85 416.05 61.85 389.65 61.85 368.7 77.75 348.15 93.35 340.75 117.95 338.45 121.55 336.8 125.7
L 336.85 123.75
Q 336.85 120.3 336.25 117.2 334.45 107.3 327 99.75 317 89.75 302.95 89.75 289.25 89.75 279.35 99.45 280.35 94.95 280.35 89.75 280.35 69.7 266.1 55.55 251.9 41.35 231.75 41.35 221.8 41.35 212.75 45.25 204 49.05 197.25 55.9 199.95 48.7 199.95 41.35 199.95 24.25 187.75 12.15 175.7 0 158.6 0 141.6 0 129.35 12.15 117.3 24.25 117.3 41.35
L 117.3 41.4
Q 105.05 32.6 90.15 32.6 70.85 32.6 57.15 46.35 43.45 60.05 43.45 79.35
L 43.6 82.85
Q 25.1 84.65 12.55 98.55 0 112.55 0 131.3 0 132.2 0.05 133
L 1350.45 133 Z"/>
		</g>
	</defs>

	<g transform="matrix( 1, 0, 0, 1, 0,0) ">
		<use xlink:href="#Layer0_0_FILL"/>
	</g>
</svg>
