<?xml version="1.0" encoding="utf-8"?>
<!-- Generator: Adobe Illustrator 26.0.2, SVG Export Plug-In . SVG Version: 6.00 Build 0)  -->
<svg version="1.1" id="Layer_1" xmlns="http://www.w3.org/2000/svg" xmlns:xlink="http://www.w3.org/1999/xlink" x="0px" y="0px"
	 viewBox="0 0 16 16" style="enable-background:new 0 0 16 16;" xml:space="preserve">
<style type="text/css">
	.st0{fill:#141516;}
</style>
<g>
	<g id="Group_5" transform="translate(420.214 -33.167)">
		<path class="st0" d="M-414.1998,49.1504c-2.4663,0-4.5503-2.1299-4.5503-4.6504c0-0.9385,0.2842-2.0449,0.7793-3.0356
			c0.8892-1.3413,2.3457-2.1509,3.8208-2.1138v-1.7505c0-1.1118,0.8384-1.9502,1.9502-1.9502c1.0571,0,1.9497,0.8931,1.9497,1.9502
			v4.1431c0.8086-0.3838,1.7539-0.377,2.6914,0.0405c0.1504,0.0239,0.2949,0.0933,0.4111,0.2085l0.0752,0.0747
			c0.001,0.0005,0.002,0.0015,0.0029,0.0024c0.2822,0.2827,0.416,0.6729,0.3555,1.0439c-0.0439,0.2773-0.1904,0.5146-0.4092,0.6719
			l-3.9404,4.0381C-411.9327,48.6933-413.0153,49.1504-414.1998,49.1504z M-414.2145,40.8437c-1.0181,0-1.9668,0.6299-2.4614,1.3721
			c-0.3423,0.6973-0.5742,1.5811-0.5742,2.2842c0,1.708,1.397,3.1504,3.0503,3.1504c0.7778,0,1.4932-0.3047,2.0688-0.8809
			l3.6426-3.7324c-0.4941-0.1445-1.0713-0.1152-1.5811,0.3936l-0.4014,0.4004c-0.2129,0.2129-0.5361,0.2783-0.8169,0.1611
			c-0.2798-0.1162-0.4624-0.3896-0.4624-0.6924v-5.6997c0-0.188-0.1709-0.4502-0.4497-0.4502c-0.2861,0-0.4502,0.1641-0.4502,0.4502
			v2.6001c0,0.2329-0.1084,0.4526-0.293,0.5947c-0.1851,0.1421-0.4243,0.1899-0.6504,0.1299
			C-413.8014,40.8691-414.0094,40.8437-414.2145,40.8437z"/>
	</g>
	<path class="st0" d="M15.9067,2.5502c-0.0184-0.0449-0.0522-0.0833-0.0798-0.1248c-0.0241-0.0364-0.039-0.077-0.0701-0.1096
		l-2-2.1001c-0.2852-0.3003-0.7598-0.3125-1.0605-0.0259c-0.2998,0.2856-0.3115,0.7603-0.0254,1.0601l0.7929,0.833h-2.0497
		c-0.4141,0-0.75,0.3359-0.75,0.75s0.3359,0.75,0.75,0.75h2.0497l-0.7929,0.833c-0.2861,0.2998-0.2744,0.7744,0.0254,1.0601
		c0.1455,0.1382,0.332,0.207,0.5176,0.207c0.1982,0,0.3955-0.0781,0.543-0.2329l2-2.1001c0.0311-0.0327,0.046-0.0732,0.0701-0.1096
		c0.0275-0.0414,0.0614-0.0798,0.0798-0.1248c0.0358-0.0875,0.0571-0.1824,0.0571-0.2827S15.9425,2.6377,15.9067,2.5502z"/>
	<path class="st0" d="M4.6138,2.082h-2.05l0.7932-0.833c0.2856-0.2998,0.2744-0.7744-0.0259-1.0601
		C3.0322-0.0957,2.5581-0.085,2.271,0.2148l-2,2.1001c-0.03,0.0315-0.044,0.0708-0.0675,0.1058
		C0.1748,2.4635,0.1398,2.5034,0.1209,2.55C0.0865,2.6344,0.0671,2.7263,0.0659,2.8227C0.0658,2.826,0.064,2.8287,0.064,2.832
		s0.0018,0.006,0.0019,0.0093c0.0012,0.0964,0.0206,0.1884,0.0551,0.2728c0.0189,0.0466,0.0539,0.0865,0.0826,0.1293
		C0.227,3.2783,0.241,3.3176,0.271,3.3491l2,2.1001C2.4185,5.604,2.6157,5.6821,2.814,5.6821c0.186,0,0.3721-0.0688,0.5171-0.207
		C3.6313,5.1894,3.6426,4.7148,3.3569,4.415L2.5638,3.582h2.05c0.4141,0,0.75-0.3359,0.75-0.75S5.0278,2.082,4.6138,2.082z"/>
</g>
</svg>