<?xml version="1.0" encoding="utf-8"?>
<!-- Generator: Adobe Illustrator 24.2.2, SVG Export Plug-In . SVG Version: 6.00 Build 0)  -->
<svg version="1.1" id="Layer_1" xmlns="http://www.w3.org/2000/svg" xmlns:xlink="http://www.w3.org/1999/xlink" x="0px" y="0px"
	 viewBox="0 0 24 24" style="enable-background:new 0 0 24 24;" xml:space="preserve">
<style type="text/css">
	.st0{enable-background:new    ;}
	.st1{fill:#464A53;}
</style>
<g class="st0">
	<path class="st1" d="M23.9,12c0,3.3-1.2,6.1-3.5,8.4s-5.1,3.5-8.4,3.5s-6.1-1.2-8.4-3.5S0.1,15.3,0.1,12s1.2-6.1,3.5-8.4
		S8.7,0.1,12,0.1s6.1,1.2,8.4,3.5S23.9,8.7,23.9,12z M5.7,18.3c1.7,1.7,3.8,2.6,6.3,2.6c1.9,0,3.6-0.6,5.1-1.7L4.8,6.9
		C3.7,8.4,3.1,10.1,3.1,12C3.1,14.4,4,16.5,5.7,18.3z M6.9,4.8l12.4,12.4c1.1-1.5,1.7-3.3,1.7-5.1c0-2.4-0.9-4.5-2.6-6.3
		c-1.9-1.8-4-2.7-6.4-2.7C10.1,3.1,8.4,3.7,6.9,4.8z"/>
</g>
</svg>
