<?xml version="1.0" encoding="utf-8"?>
<!-- Generator: Adobe Illustrator 26.0.3, SVG Export Plug-In . SVG Version: 6.00 Build 0)  -->
<svg version="1.1" id="Layer_1" xmlns="http://www.w3.org/2000/svg" xmlns:xlink="http://www.w3.org/1999/xlink" x="0px" y="0px"
	 viewBox="0 0 20 20" style="enable-background:new 0 0 20 20;" xml:space="preserve">
<style type="text/css">
	.st0{fill:#081219;}
</style>
<g>
	<path class="st0" d="M19.5,2.1c-0.3-0.3-0.7-0.5-1.1-0.4H1.5C0.7,1.7,0,2.4,0,3.2v10.9c0,0.8,0.7,1.5,1.5,1.5h5.3v1.2H6.5
		c-0.4,0-0.8,0.3-0.8,0.8s0.3,0.8,0.8,0.8h7.1c0.4,0,0.8-0.3,0.8-0.8s-0.3-0.8-0.8-0.8h-0.4v-1.2l5.2,0c0.4,0,0.8-0.1,1.1-0.4
		c0.3-0.3,0.5-0.7,0.5-1.1V3.2C20,2.8,19.8,2.4,19.5,2.1z M11.7,16.8H8.3v-1.2h3.3V16.8z M18.4,14.1h-6l-10.9,0l0-10.9l17,0
		L18.4,14.1z"/>
	<path class="st0" d="M7.9,12.3h4.2c0.4,0,0.8-0.3,0.8-0.8s-0.3-0.8-0.8-0.8H8.6V5.9c0-0.4-0.3-0.8-0.8-0.8S7.1,5.5,7.1,5.9v5.7
		C7.1,11.9,7.5,12.3,7.9,12.3z"/>
</g>
</svg>
