<svg id="Layer_1" data-name="Layer 1" xmlns="http://www.w3.org/2000/svg" viewBox="0 0 72.75 65.25"><defs><style>.cls-1,.cls-3,.cls-4{fill:none;stroke-linecap:round;stroke-linejoin:round;stroke-width:2px;}.cls-1{stroke:#464a53;}.cls-2{fill:#dcdfdf;}.cls-3{stroke:#ff4a17;}.cls-4{stroke:#081219;}</style></defs><path id="Layer1_37_1_STROKES" data-name="Layer1 37 1 STROKES" class="cls-1" d="M46.12,55.77H69a3.21,3.21,0,0,0,2.4-.85,2.71,2.71,0,0,0,.85-2V4.47a3.9,3.9,0,0,0-.85-2.2A4.2,4.2,0,0,0,69,1.42H4.17a2.63,2.63,0,0,0-1.84.85,2.63,2.63,0,0,0-.55.78,3.12,3.12,0,0,0-.31,1.42V52.92a2.64,2.64,0,0,0,.31,1.35,1.82,1.82,0,0,0,.55.65,2.25,2.25,0,0,0,1.84.85H46.12v8.9h4.46m-27.31,0h4.31v-8.9m18.54,8.9H27.58" transform="translate(-0.47 -0.42)"/><g id="Layer1_37_MEMBER_0_FILL" data-name="Layer1 37 MEMBER 0 FILL"><path class="cls-2" d="M18.87,26.32h6v25h-6v-25m29.9,0h6v25h-6Z" transform="translate(-0.47 -0.42)"/></g><path id="Layer1_37_MEMBER_0_1_STROKES" data-name="Layer1 37 MEMBER 0 1 STROKES" class="cls-3" d="M43,10l7.2.1-2.39,2.25m-.11-5,2.71,2.6-.21.2M21.43,10h7.09m-7.09,0-.21-.2,2.71-2.35m0,5.1L21.43,10" transform="translate(-0.47 -0.42)"/><path id="Layer1_37_MEMBER_0_MEMBER_0_1_STROKES" data-name="Layer1 37 MEMBER 0 MEMBER 0 1 STROKES" class="cls-4" d="M36,41.72l-2.5-2.55h7.11m-7.11,0-.2-.2L36,36.62" transform="translate(-0.47 -0.42)"/></svg>