<?xml version="1.0" encoding="utf-8"?>
<!-- Generator: Adobe Illustrator 24.2.0, SVG Export Plug-In . SVG Version: 6.00 Build 0)  -->
<svg version="1.1" id="Layer_1" xmlns="http://www.w3.org/2000/svg" xmlns:xlink="http://www.w3.org/1999/xlink" x="0px" y="0px"
	 viewBox="0 0 24 24" style="enable-background:new 0 0 24 24;" xml:space="preserve">

<g transform="matrix( 1, 0, 0, 1, 0,-0.5) ">
	<g>
		<path id="Layer0_0_1_STROKES" fill="none" stroke="var(--maxi-primary-color)" stroke-width="1.5" stroke-linecap="round" stroke-linejoin="round" d="M7.2,6.3c0.3-0.6,0.6-1.2,1.1-1.7s1-0.8,1.6-1.1s1.3-0.4,2.1-0.4
			c0.7,0,1.4,0.1,2.1,0.4c0.6,0.3,1.1,0.6,1.6,1.1s0.8,1.1,1.1,1.7c0.3,0.6,0.5,1.3,0.5,2c0,1.1-0.7,3-2.1,5.6
			c-0.9,1.6-1.9,3.3-3.1,5.1c-1.2-1.7-2.2-3.4-3.1-5.1c-1.4-2.6-2.1-4.5-2.1-5.6C6.8,7.7,6.9,7,7.2,6.3z M14.6,8.4
			c0-0.7-0.3-1.4-0.8-1.9C13.4,6,12.7,5.7,12,5.7S10.6,6,10.1,6.5S9.4,7.6,9.4,8.4c0,0.7,0.3,1.3,0.8,1.8s1.2,0.8,1.9,0.8
			s1.4-0.3,1.9-0.8C14.4,9.7,14.6,9.1,14.6,8.4z M10.1,17c-1.9,0.1-3.3,0.3-4.4,0.6c-1.6,0.4-2.4,1.1-2.4,1.9c0,0.4,0.3,0.8,0.8,1.1
			c0.5,0.3,1.1,0.6,2,0.8C7.7,21.8,9.7,22,12,22s4.3-0.2,6-0.6c0.9-0.2,1.5-0.5,2-0.8s0.8-0.7,0.8-1.1c0-0.8-0.8-1.4-2.5-1.9
			c-1.1-0.3-2.6-0.5-4.6-0.5"/>
	</g>
</g>
</svg>
