<svg height={512} viewBox="0 0 441.618 441.618" width={512}>
  <path d="M110.809 339.868h53.529v53.529h-53.529zM0 354.632c0 14.781 11.984 26.765 26.765 26.765H53.53v-53.529H0zM-.25 228.809h53.529v53.529H-.25zM-.25 117.75h53.529v53.529H-.25zM0 33.456v26.765h53.529V6.691H26.765C11.984 6.691 0 18.675 0 33.456zM110.809 6.691h53.529V60.22h-53.529zM221.868 6.691h53.529V60.22h-53.529zM374.706 33.456c0-14.781-11.984-26.765-26.765-26.765h-26.765V60.22h53.529V33.456zM332.926 117.75h53.529v53.529h-53.529zM254.265 194.044v240.882l80.294-66.912h107.059z" />
</svg>