<?xml version="1.0" encoding="utf-8"?>
<!-- Generator: Adobe Illustrator 24.1.2, SVG Export Plug-In . SVG Version: 6.00 Build 0)  -->
<svg version="1.1" id="Layer_1"
	xmlns="http://www.w3.org/2000/svg"
	xmlns:xlink="http://www.w3.org/1999/xlink" x="0px" y="0px" viewBox="0 0 24 24" style="enable-background:new 0 0 24 24;" xml:space="preserve">
	<style type="text/css">
	.st0{fill:none;stroke:#FFFFFF;stroke-width:2;stroke-linecap:round;stroke-linejoin:round;}
	</style>
	<g transform="matrix( 1, 0, 0, 1, 0,0) ">
		<g>
			<path id="Layer0_0_1_STROKES" class="st0" d="M12.1,22.6c1.1-0.9,3.4-3.8,7.1-8.5c2.3-3.3,3.5-5.4,3.6-6.3c0-0.2,0.1-0.3,0.1-0.5
			c0-1.6-0.6-3-1.7-4.2C20.1,2,18.7,1.4,17,1.4S14,2,12.9,3.1c-0.3,0.3-0.6,0.6-0.9,1c-0.2-0.3-0.5-0.7-0.8-1C10,2,8.6,1.4,7,1.4
			S4,2,2.8,3.1C1.7,4.3,1.1,5.7,1.1,7.3c0,0.2,0,0.3,0,0.5c0.1,0.9,1.4,3,3.7,6.3c3.7,4.7,6,7.6,7.1,8.5"/>
		</g>
	</g>
</svg>
