<?xml version="1.0" encoding="utf-8"?>
<!-- Generator: Adobe Illustrator 24.3.0, SVG Export Plug-In . SVG Version: 6.00 Build 0)  -->
<svg version="1.1" id="Layer_1" xmlns="http://www.w3.org/2000/svg" xmlns:xlink="http://www.w3.org/1999/xlink" x="0px" y="0px"
	 viewBox="0 0 24 24" style="enable-background:new 0 0 24 24;" xml:space="preserve">
<style type="text/css">
	.st0{fill:#FFFFFF;}
</style>
<g>
	<path class="st0" d="M2.7,3.1v7.3h8.1V3.1H13v17.6h-2.2v-8.2H2.7v8.2H0.5V3.1H2.7z"/>
	<path class="st0" d="M23.1,5.6H17L16.4,10c0.4-0.1,0.7-0.1,1.3-0.1c1.2,0,2.5,0.3,3.5,0.9c1.3,0.8,2.3,2.2,2.3,4.4
		c0,3.3-2.5,5.8-6,5.8c-1.8,0-3.3-0.5-4-1l0.5-1.7c0.7,0.4,2,0.9,3.5,0.9c2.1,0,3.8-1.4,3.8-3.7c0-2.2-1.4-3.8-4.6-3.8
		c-0.9,0-1.6,0.1-2.2,0.2l1-8.1h7.7V5.6z"/>
</g>
</svg>
