<svg xmlns="http://www.w3.org/2000/svg" xmlns:xlink="http://www.w3.org/1999/xlink" width="15.903" height="15.924" viewBox="0 0 15.903 15.924">
  <defs>
    <clipPath id="clip-path">
      <rect id="Rectangle_531" data-name="Rectangle 531" width="15.924" height="15.903" transform="translate(0 0)" fill="none"/>
    </clipPath>
  </defs>
  <g id="Group_1094" data-name="Group 1094" transform="translate(15.903) rotate(90)">
    <g id="Group_1093" data-name="Group 1093" clip-path="url(#clip-path)">
      <path id="Path_341" data-name="Path 341" d="M8.729,6.334H1.916A1.965,1.965,0,0,0,0,8.34V13.9A1.965,1.965,0,0,0,1.916,15.9H8.729A1.964,1.964,0,0,0,10.644,13.9V8.34A1.964,1.964,0,0,0,8.729,6.334M9.144,13.9a.466.466,0,0,1-.415.505H1.916A.466.466,0,0,1,1.5,13.9V8.34a.467.467,0,0,1,.416-.506H8.729a.467.467,0,0,1,.415.506Z" fill="#141516"/>
      <path id="Path_342" data-name="Path 342" d="M15.712,2.469,13.538.228l0,0A.759.759,0,0,0,13.359.1.651.651,0,0,0,13.3.061a.7.7,0,0,0-.112-.024A.723.723,0,0,0,13.011,0H13a.707.707,0,0,0-.1.02.7.7,0,0,0-.169.034.765.765,0,0,0-.2.125c-.016.013-.037.019-.051.033L10.17,2.453a.75.75,0,1,0,1.045,1.076L12.25,2.524V15.093a.75.75,0,0,0,1.5,0V2.6l.886.913a.75.75,0,1,0,1.076-1.044" fill="#141516"/>
      <path id="Path_343" data-name="Path 343" d="M.75,5.086a.744.744,0,0,0,.53-.22L3.5,2.65V3.977a.75.75,0,1,0,1.5,0V.75A.75.75,0,0,0,4.246,0H1.109a.75.75,0,0,0,0,1.5H2.525L.22,3.806a.75.75,0,0,0,.53,1.28" fill="#141516"/>
    </g>
  </g>
</svg>
