<svg xmlns="http://www.w3.org/2000/svg" width="61.007" height="61.007" viewBox="0 0 61.007 61.007">
  <g id="Life_Saving_Ring_4" data-name="Life Saving Ring 4" transform="translate(-1.496 -1.496)">
    <path id="Path_245" data-name="Path 245" d="M19.553,39.369a14.381,14.381,0,0,1,0-14.739c-.048.08-.108.152-.154.234L6.33,17.463a29.48,29.48,0,0,0,0,29.073l13.069-7.4C19.445,39.217,19.505,39.289,19.553,39.369Z" fill="var(--mpc)" stroke="#081219" stroke-linecap="round" stroke-linejoin="round" stroke-miterlimit="10" stroke-width="2"/>
    <path id="Path_246" data-name="Path 246" d="M44.446,24.629a14.381,14.381,0,0,1,0,14.737c.047-.08.107-.15.153-.231l13.069,7.4a29.48,29.48,0,0,0,0-29.073L44.6,24.864C44.555,24.782,44.494,24.71,44.446,24.629Z" fill="var(--mpc)" stroke="#081219" stroke-linecap="round" stroke-linejoin="round" stroke-miterlimit="10" stroke-width="2"/>
    <path id="Path_247" data-name="Path 247" d="M24.631,19.553a14.381,14.381,0,0,1,14.739,0c-.081-.048-.152-.108-.234-.154l7.4-13.069a29.48,29.48,0,0,0-29.073,0l7.4,13.069C24.783,19.445,24.711,19.505,24.631,19.553Z" fill="var(--mpc)" stroke="#081219" stroke-linecap="round" stroke-linejoin="round" stroke-miterlimit="10" stroke-width="2"/>
    <path id="Path_248" data-name="Path 248" d="M39.366,44.449A14.388,14.388,0,0,1,32,46.479h0a14.389,14.389,0,0,1-7.37-2.032c.081.048.153.109.235.155l-7.4,13.069a29.481,29.481,0,0,0,29.073,0L39.136,44.6C39.216,44.556,39.287,44.5,39.366,44.449Z" fill="var(--mpc)" stroke="#081219" stroke-linecap="round" stroke-linejoin="round" stroke-miterlimit="10" stroke-width="2"/>
    <path id="Path_249" data-name="Path 249" d="M19.553,24.631q.36-.606.774-1.171c.1-.13.189-.26.289-.386a14.552,14.552,0,0,1,2.457-2.457c.127-.1.256-.194.386-.289q.566-.414,1.171-.774c.08-.048.152-.108.234-.154L17.463,6.33l0-.007c-.083.047-.161.1-.243.149q-.626.364-1.233.756a29.54,29.54,0,0,0-8.755,8.755q-.393.606-.756,1.233c-.048.082-.1.16-.149.243l.007,0,13.069,7.4C19.445,24.783,19.505,24.711,19.553,24.631Z" fill="none" stroke="#081219" stroke-linecap="round" stroke-linejoin="round" stroke-miterlimit="10" stroke-width="2"/>
    <path id="Path_250" data-name="Path 250" d="M55.311,50.074a30.51,30.51,0,0,0,2.366-3.533l-.007,0L44.6,39.136c-.046.081-.105.151-.153.231q-.362.609-.778,1.178c-.094.128-.187.256-.285.381a14.55,14.55,0,0,1-2.46,2.461c-.125.1-.253.191-.382.286q-.568.417-1.177.778c-.079.047-.15.107-.23.152l7.4,13.069,0,.007c.082-.047.16-.1.241-.148q.629-.365,1.237-.759A29.506,29.506,0,0,0,55.311,50.074Z" fill="none" stroke="#081219" stroke-linecap="round" stroke-linejoin="round" stroke-miterlimit="10" stroke-width="2"/>
    <path id="Path_251" data-name="Path 251" d="M39.369,19.553q.606.36,1.172.774c.13.1.26.189.386.289a14.548,14.548,0,0,1,2.457,2.457c.1.127.194.256.289.386q.414.565.773,1.17c.048.081.109.153.155.235l13.069-7.4.007,0c-.047-.082-.1-.16-.148-.241q-.365-.629-.759-1.237a29.772,29.772,0,0,0-10.23-9.658l0,.007L39.136,19.4C39.217,19.445,39.289,19.505,39.369,19.553Z" fill="none" stroke="#081219" stroke-linecap="round" stroke-linejoin="round" stroke-miterlimit="10" stroke-width="2"/>
    <path id="Path_252" data-name="Path 252" d="M24.629,44.446q-.605-.359-1.17-.773c-.13-.1-.26-.189-.386-.289a14.548,14.548,0,0,1-2.457-2.457c-.1-.127-.194-.256-.289-.386q-.414-.565-.774-1.172c-.048-.081-.108-.152-.154-.234L6.33,46.537l-.007,0a29.985,29.985,0,0,0,7.891,9q.709.537,1.451,1.031c.1.069.211.135.316.2q.608.394,1.237.759c.082.048.159.1.241.148l0-.007,7.4-13.069C24.782,44.555,24.71,44.494,24.629,44.446Z" fill="none" stroke="#081219" stroke-linecap="round" stroke-linejoin="round" stroke-miterlimit="10" stroke-width="2"/>
  </g>
</svg>
