<?xml version="1.0" encoding="utf-8"?>
<!-- Generator: Adobe Illustrator 24.2.2, SVG Export Plug-In . SVG Version: 6.00 Build 0)  -->
<svg version="1.1" id="Layer_1"
	xmlns="http://www.w3.org/2000/svg"
	xmlns:xlink="http://www.w3.org/1999/xlink" x="0px" y="0px" viewBox="0 0 36.1 36.1" style="enable-background:new 0 0 36.1 36.1;" xml:space="preserve">
	<style type="text/css">
	.st0{fill:#464A53;}
	</style>
	<g id="Vector_Smart_Object_1_">
		<g transform="matrix( 1, 0, 0, 1, 0,0) ">
			<g>
				<g id="Layer0_2_FILL_1_">
					<path class="st0" d="M27.7,17.4c-1.1-0.4-2-0.8-2.7-1.3c-0.9-0.7-1.8-1.7-2.8-3.1c-0.5-0.8-0.9-1.3-1.2-1.7
					c-0.5-0.7-0.9-1.2-1.2-1.6c-1-1.2-2-2-3.2-2.6c-1.4-0.7-3.1-0.9-5-0.8C10.3,6.4,9.1,6.7,8,7.2C6.9,7.7,5.9,8.4,4.9,9.3
					c-1.1,1.1-2,2.3-2.5,3.7c-0.5,1.4-0.8,2.8-0.7,4.3c0,1.5,0.4,2.9,1,4.3c0.6,1.4,1.6,2.7,2.8,3.9c1.8,1.7,4,2.9,6.7,3.6
					c3,0.8,6.4,1,10.1,0.6c1.4-0.2,2.9-0.5,4.4-0.9c1.6-0.5,2.9-1.1,4.1-1.7c2.8-1.7,4-3.6,3.5-5.7c-0.2-0.8-0.7-1.5-1.4-2
					c-0.5-0.4-1.3-0.7-2.4-1C29.2,17.9,28.3,17.6,27.7,17.4z"/>
				</g>
			</g>
		</g>
	</g>
</svg>
