<?xml version="1.0" encoding="utf-8"?>
<!-- Generator: Adobe Illustrator 24.2.2, SVG Export Plug-In . SVG Version: 6.00 Build 0)  -->
<svg version="1.1" id="Layer_1" xmlns="http://www.w3.org/2000/svg" xmlns:xlink="http://www.w3.org/1999/xlink" x="0px" y="0px"
	 viewBox="0 0 36.1 36.1" style="enable-background:new 0 0 36.1 36.1;" xml:space="preserve">
<style type="text/css">
	.st0{fill:#464A53;}
</style>
<g id="Vector_Smart_Object_1_">
	<g transform="matrix( 1, 0, 0, 1, 0,0) ">
		<g>
			<g id="Layer0_3_FILL_1_">
				<path class="st0" d="M24.5,7.8c-2.1-1.3-4.4-2.2-6.9-2.8c-2.4-0.6-4.8-0.9-7.1-0.7c-2.4,0.1-4.4,0.7-6,1.6c-1.8,1-3,2.4-3.7,4.1
					c-0.3,0.8-0.4,1.7-0.2,2.6C0.7,13.3,1,14.1,1.5,15c0.3,0.5,0.8,1.4,1.5,2.4c0.6,1,1,1.8,1.2,2.5c0.2,0.7,0.3,1.6,0.3,2.7
					c0,0.6-0.1,1.6-0.1,2.9c0,1.1,0.2,2.1,0.5,2.8c0.4,1,1.1,1.8,2.1,2.4c1.2,0.8,2.4,1.1,3.7,1.1c0.9,0,2-0.3,3.5-0.8
					c1.8-0.6,3-1,3.7-1.1c1.5-0.3,2.9-0.3,4.4,0.1c3.2,0.8,5.7,1.1,7.5,0.9c2.5-0.2,4.2-1.2,5.1-3.1c0.7-1.3,0.9-2.8,0.7-4.6
					c-0.2-1.7-0.8-3.6-1.7-5.5c-1-2-2.2-3.8-3.8-5.5C28.4,10.4,26.5,9,24.5,7.8z"/>
			</g>
		</g>
	</g>
</g>
</svg>
