<svg viewBox="0 0 469.333 469.333">
	<path d="M99.76 253.6c-2.688-2.697-6.573-3.717-10.292-2.77a10.66 10.66 0 00-7.542 7.518c-6.792 25.042-23.854 52.561-46.802 75.5a10.652 10.652 0 00-.01 15.067l85.333 85.454a10.664 10.664 0 0015.094.01c22.99-22.98 50.563-40.035 75.656-46.793a10.654 10.654 0 007.521-7.549 10.62 10.62 0 00-2.76-10.287L99.76 253.6zM464.063 57.911a10.926 10.926 0 00-1.469-1.833L413.615 6.953a10.781 10.781 0 00-1.865-1.489c-11.271-7.112-21.854-7.643-34.646.552l-270.51 207.205a10.695 10.695 0 00-4.156 7.768 10.663 10.663 0 003.104 8.236l134.74 134.684a10.652 10.652 0 008.24 3.103 10.706 10.706 0 007.771-4.154l207.77-271.107c3.542-5.612 5.271-11.152 5.271-16.92s-1.73-11.308-5.271-16.92zM41.365 385.358c-2-2.01-4.719-3.134-7.542-3.134h-.01a10.664 10.664 0 00-7.542 3.124l-14.313 14.307C4.25 407.359 0 417.605 0 428.496c-.01 10.912 4.24 21.168 11.948 28.873 7.708 7.716 17.969 11.964 28.875 11.964h.021c10.906 0 21.156-4.248 28.865-11.953l14.271-14.265a10.652 10.652 0 00.01-15.067l-42.625-42.69z" />
</svg>
