<?xml version="1.0" encoding="utf-8"?>
<!-- Generator: Adobe Illustrator 25.1.0, SVG Export Plug-In . SVG Version: 6.00 Build 0)  -->
<svg version="1.1" id="Layer_1" xmlns="http://www.w3.org/2000/svg" xmlns:xlink="http://www.w3.org/1999/xlink" x="0px" y="0px"
	 viewBox="0 0 111.9 38" style="enable-background:new 0 0 111.9 38;" xml:space="preserve">
<style type="text/css">
	.st0{fill:none;stroke:#323C47;stroke-width:2;stroke-linecap:round;stroke-linejoin:round;}
</style>
<line class="st0" x1="1" y1="1" x2="52.6" y2="1"/>
<line class="st0" x1="1" y1="6.1" x2="52.6" y2="6.1"/>
<line class="st0" x1="1" y1="11.3" x2="52.6" y2="11.3"/>
<line class="st0" x1="1" y1="16.4" x2="52.6" y2="16.4"/>
<line class="st0" x1="1" y1="21.5" x2="52.6" y2="21.5"/>
<line class="st0" x1="1" y1="26.7" x2="52.6" y2="26.7"/>
<line class="st0" x1="1" y1="31.8" x2="52.6" y2="31.8"/>
<line class="st0" x1="1" y1="36.9" x2="52.6" y2="36.9"/>
<line class="st0" x1="59.1" y1="1" x2="110.7" y2="1"/>
<line class="st0" x1="59.1" y1="6.1" x2="110.7" y2="6.1"/>
<line class="st0" x1="59.1" y1="11.3" x2="110.7" y2="11.3"/>
<line class="st0" x1="59.1" y1="16.4" x2="110.7" y2="16.4"/>
<line class="st0" x1="59.1" y1="21.5" x2="110.7" y2="21.5"/>
<line class="st0" x1="59.1" y1="26.7" x2="110.7" y2="26.7"/>
<line class="st0" x1="59.1" y1="31.8" x2="110.7" y2="31.8"/>
<line class="st0" x1="59.1" y1="36.9" x2="110.7" y2="36.9"/>
</svg>
