<?xml version="1.0" encoding="utf-8"?>
<!-- Generator: Adobe Illustrator 26.3.1, SVG Export Plug-In . SVG Version: 6.00 Build 0)  -->
<svg version="1.1" id="Layer_1" xmlns="http://www.w3.org/2000/svg" xmlns:xlink="http://www.w3.org/1999/xlink" x="0px" y="0px"
	 viewBox="0 0 24 24" style="enable-background:new 0 0 24 24;" xml:space="preserve">
<style type="text/css">
	.st0{fill:none;}
	.st1{fill:var(--mpc);}
</style>
<path class="st0" d="M19.8606,5.9425c-1.1253-0.4376-2.4382-0.4376-3.5635-0.0625c-4.3762,1.6254-5.1889,6.6893-2.3756,9.5651
	c2.1881,2.2506,5.8766,2.3131,8.1272,0.0625C24.9245,12.7568,24.2368,7.6305,19.8606,5.9425z"/>
<path class="st1" d="M23.0855,21.3684l-5.2966-5.2966c1.3242-1.6552,2.1849-3.7739,2.1849-6.0911
	c0-5.3628-4.3697-9.7326-9.7326-9.7326c-5.3628,0-9.7326,4.3697-9.7326,9.7326s4.3697,9.7326,9.7326,9.7326
	c2.0524,0,3.9725-0.6621,5.5615-1.7214l5.3629,5.3629c0.2648,0.2648,0.5959,0.3972,0.9931,0.3972
	c0.331,0,0.7283-0.1324,0.9931-0.3972C23.6152,22.825,23.6152,21.8981,23.0855,21.3684z M3.2231,9.9807
	c0-3.8401,3.1118-6.9518,6.9518-6.9518s6.9518,3.1118,6.9518,6.9518s-3.1118,6.9518-6.9518,6.9518
	C6.4011,16.9987,3.2231,13.8207,3.2231,9.9807z"/>
</svg>
