<?xml version="1.0" encoding="utf-8"?>
<!-- Generator: Adobe Illustrator 24.1.1, SVG Export Plug-In . SVG Version: 6.00 Build 0)  -->
<svg version="1.1" id="Layer_1" xmlns="http://www.w3.org/2000/svg" xmlns:xlink="http://www.w3.org/1999/xlink" x="0px" y="0px"
	 viewBox="0 0 36.1 36.1" style="enable-background:new 0 0 36.1 36.1;" xml:space="preserve">
<style type="text/css">
	.st0{fill:#464A53;}
</style>
<g>
	<path class="st0" d="M34.6,3.8c-0.6-0.6-1.3-0.9-2-0.9h-29c-0.8,0-1.5,0.3-2,0.9C0.9,4.4,0.6,5,0.6,5.8v19.7c0,0.8,0.3,1.5,0.9,2
		c0.6,0.6,1.3,0.9,2,0.9h9.9c0,0.5-0.1,0.9-0.3,1.4c-0.2,0.5-0.4,0.9-0.6,1.3c-0.2,0.4-0.3,0.6-0.3,0.8c0,0.3,0.1,0.6,0.3,0.8
		c0.2,0.2,0.5,0.3,0.8,0.3h9.3c0.3,0,0.6-0.1,0.8-0.3c0.2-0.2,0.3-0.5,0.3-0.8c0-0.2-0.1-0.4-0.3-0.8c-0.2-0.4-0.4-0.8-0.6-1.3
		c-0.2-0.5-0.3-1-0.3-1.4h9.9c0.8,0,1.5-0.3,2-0.9c0.6-0.6,0.9-1.3,0.9-2V5.8C35.4,5,35.2,4.4,34.6,3.8z M33.1,20.9
		c0,0.2-0.1,0.3-0.2,0.4c-0.1,0.1-0.3,0.2-0.4,0.2h-29c-0.2,0-0.3-0.1-0.4-0.2c-0.1-0.1-0.2-0.3-0.2-0.4V5.8c0-0.2,0.1-0.3,0.2-0.4
		c0.1-0.1,0.3-0.2,0.4-0.2h29c0.2,0,0.3,0.1,0.4,0.2c0.1,0.1,0.2,0.3,0.2,0.4V20.9L33.1,20.9z"/>
</g>
</svg>
