<?xml version="1.0" encoding="utf-8"?>
<!-- Generator: Adobe Illustrator 24.0.2, SVG Export Plug-In . SVG Version: 6.00 Build 0)  -->
<svg version="1.1" id="Layer_1" xmlns="http://www.w3.org/2000/svg" xmlns:xlink="http://www.w3.org/1999/xlink" x="0px" y="0px"
	 viewBox="0 0 74 96.94" style="enable-background:new 0 0 74 96.94;" xml:space="preserve">
<style type="text/css">
	.st0{fill:none;stroke:#FFFFFF;stroke-width:5;stroke-linecap:round;stroke-linejoin:round;}
</style>
<g transform="matrix( 0.899993896484375, 0, 0, 0.899993896484375, 38.95,36.4) ">
	<g transform="matrix( 1.111114501953125, 0, 0, 1.111114501953125, -43.25,-40.4) ">
		<path id="Layer0_1_1_STROKES" class="st0" d="M24.23,10.54l0.45-0.25l-0.45-0.3V10.54z M24.23,10.54l-27.15,15.7v32.2l27.2-17
			 M25.28,9.49v-38.25 M-31.32,10.24l0.15-0.5l-0.15-0.05V10.24z M-31.32,10.24l0.4,30.9l19.8,12.3l-0.2-19.6l-10.95-6.9
			 M-31.17,9.74V9.49l27.9-15.95l-28.25-22.85 M24.23,9.99L-2.57-5.96l-0.3,0.25 M-2.57-5.96l-0.3-0.15l-0.4,0.2l-0.05,0.05
			l0.05-0.6l28.3-22.85 M-2.87-6.11h-0.05l-0.35,0.2v-0.55 M-31.77,9.49v-38.25 M-31.17,9.74l27.05,16.5 M12.88,33.34l-13.75,8.5"/>
	</g>
</g>
</svg>
