<svg xmlns="http://www.w3.org/2000/svg" viewBox="0 0 36.07 36.063">
  <defs>
    <style>
      .cls-1 {
        fill: #464a53;
        fill-rule: evenodd;
      }
    </style>
  </defs>
  <path class="cls-1" d="M3317.59,120.486a6.76,6.76,0,1,1,6.76-6.76A6.766,6.766,0,0,1,3317.59,120.486Zm0-11.266a4.506,4.506,0,1,0,4.51,4.506A4.509,4.509,0,0,0,3317.59,109.22Zm1.13,22.531h-2.25a3.379,3.379,0,0,1-3.38-3.379v-1.908q-0.675-.238-1.32-0.541l-1.35,1.346a3.462,3.462,0,0,1-4.78,0l-1.59-1.593a3.381,3.381,0,0,1,0-4.781l1.35-1.347a12,12,0,0,1-.55-1.316h-1.9a3.379,3.379,0,0,1-3.38-3.379V112.6a3.379,3.379,0,0,1,3.38-3.379h1.9a12.085,12.085,0,0,1,.55-1.316l-1.35-1.347a3.381,3.381,0,0,1,0-4.781l1.59-1.593a3.467,3.467,0,0,1,4.78,0l1.35,1.347a14.062,14.062,0,0,1,1.32-.542V99.081a3.38,3.38,0,0,1,3.38-3.38h2.25a3.386,3.386,0,0,1,3.38,3.38v1.907a12.862,12.862,0,0,1,1.31.542l1.35-1.347a3.463,3.463,0,0,1,4.78,0l1.6,1.593a3.4,3.4,0,0,1,0,4.781l-1.35,1.347c0.2,0.425.38,0.865,0.54,1.316h1.91a3.386,3.386,0,0,1,3.38,3.379v2.254a3.386,3.386,0,0,1-3.38,3.379h-1.91c-0.16.451-.34,0.892-0.54,1.316l1.35,1.347a3.4,3.4,0,0,1,0,4.781l-1.6,1.593a3.46,3.46,0,0,1-4.78,0l-1.35-1.346a13.088,13.088,0,0,1-1.31.541v1.908A3.386,3.386,0,0,1,3318.72,131.751Zm-7.36-8.607,0.74,0.416a11.188,11.188,0,0,0,2.42.994l0.82,0.233v3.585a1.132,1.132,0,0,0,1.13,1.126h2.25a1.132,1.132,0,0,0,1.13-1.126v-3.585l0.82-.233a11.317,11.317,0,0,0,2.41-.994l0.74-.416,2.53,2.532a1.163,1.163,0,0,0,1.6,0l1.59-1.593a1.129,1.129,0,0,0,0-1.595l-2.53-2.531,0.42-.743a11.437,11.437,0,0,0,.99-2.414l0.23-.821h3.59a1.123,1.123,0,0,0,1.12-1.126V112.6a1.123,1.123,0,0,0-1.12-1.126h-3.59l-0.23-.821a11.407,11.407,0,0,0-.99-2.413l-0.42-.744,2.53-2.531a1.129,1.129,0,0,0,0-1.595l-1.59-1.593a1.159,1.159,0,0,0-1.6,0l-2.53,2.533-0.74-.416a11.32,11.32,0,0,0-2.41-1l-0.82-.233V99.081a1.132,1.132,0,0,0-1.13-1.127h-2.25a1.132,1.132,0,0,0-1.13,1.127v3.584l-0.82.233a11.191,11.191,0,0,0-2.42,1l-0.74.416-2.53-2.533a1.147,1.147,0,0,0-1.59,0l-1.6,1.593a1.129,1.129,0,0,0,0,1.595l2.53,2.531-0.41.744a11.433,11.433,0,0,0-1,2.413l-0.23.821h-3.58a1.132,1.132,0,0,0-1.13,1.126v2.254a1.132,1.132,0,0,0,1.13,1.126h3.58l0.23,0.821a11.463,11.463,0,0,0,1,2.414l0.41,0.743-2.53,2.531a1.129,1.129,0,0,0,0,1.595l1.6,1.593a1.151,1.151,0,0,0,1.59,0Z" transform="translate(-3299.56 -95.688)"/>
</svg>
