<?xml version="1.0" encoding="utf-8"?>
<!-- Generator: Adobe Illustrator 24.0.2, SVG Export Plug-In . SVG Version: 6.00 Build 0)  -->
<svg version="1.1" id="gx-button-tab_1" width="33" xmlns="http://www.w3.org/2000/svg" xmlns:xlink="http://www.w3.org/1999/xlink" x="0px" y="0px"
	 viewBox="0 0 24 24" style="enable-background:new 0 0 24 24;" xml:space="preserve">
<style type="text/css">
	.st0{fill:none;stroke:#464a53;stroke-width:1.5;stroke-linecap:round;stroke-linejoin:round;}
</style>
<g transform="matrix( 1, 0, 0, 1, 0,0) ">
	<g>
		<path id="gx-button-tab1_0_1_STROKES" class="st0" d="M2.5,12.5V2.5h19.1v10.1 M15.5,13.4c-0.2,0-0.3,0-0.5,0.1c-0.1-0.2-0.2-0.4-0.4-0.6
			c-0.2-0.1-0.4-0.2-0.7-0.2c-0.2,0-0.4,0.1-0.6,0.1c-0.1-0.2-0.2-0.4-0.4-0.5c-0.2-0.1-0.4-0.1-0.6-0.1c-0.1,0-0.3,0-0.4,0.1v-1.4
			c0-0.3-0.1-0.6-0.3-0.8c-0.2-0.3-0.5-0.4-0.9-0.4c-0.3,0-0.6,0.1-0.8,0.4c-0.2,0.2-0.4,0.5-0.4,0.8v4.9l-0.9-1
			c-0.1-0.1-0.3-0.2-0.4-0.3s-0.3-0.1-0.4-0.1c-0.2,0-0.3,0-0.5,0.1c-0.1,0.1-0.3,0.2-0.3,0.3c-0.2,0.2-0.3,0.4-0.3,0.8
			c0,0.3,0,0.6,0.3,0.9c0.2,0.4,0.5,0.8,0.8,1.2c0.1,0.2,0.3,0.6,0.6,1.1c0.4,0.7,0.7,1.1,0.9,1.3c0.1,0.2,0.4,0.7,0.8,1.5
			c0,0.1,0.1,0.1,0.1,0.1c0.1,0.1,0.2,0.1,0.3,0.1h5.2c0.1,0,0.2,0,0.3-0.1c0.1,0,0.1-0.1,0.2-0.2c0.2-0.6,0.4-1.1,0.5-1.7
			c0.3-1.1,0.4-1.9,0.4-2.3v-2.8c0-0.3-0.1-0.6-0.4-0.8C16.1,13.6,15.9,13.4,15.5,13.4z M2.5,12.9l4.1-0.1 M18,13l3.6-0.1"/>
	</g>
</g>
</svg>