<?xml version="1.0" encoding="utf-8"?>
<!-- Generator: Adobe Illustrator 24.0.2, SVG Export Plug-In . SVG Version: 6.00 Build 0)  -->
<svg version="1.1" id="gx-box-settings-tab_1" width="33" xmlns="http://www.w3.org/2000/svg" xmlns:xlink="http://www.w3.org/1999/xlink" x="0px" y="0px"
	 viewBox="0 0 24 24" style="enable-background:new 0 0 24 24;" xml:space="preserve">
<style type="text/css">
	.st0{fill:none;stroke:#464a53;stroke-width:1.5;stroke-linecap:round;stroke-linejoin:round;}
</style>
<g transform="matrix( 1, 0, 0, 1, 0,0) ">
	<g>
		<path id="gx-box-settings-tab2_0_1_STROKES" class="st0" d="M21.6,20.9v0.8H2.5v-0.1v-19h19.1V20.9l-6.9-6.6l-4.2,3L8.3,9.1L2.5,21.5 M18,8.4
			c0,0.7-0.3,1.3-0.8,1.8c-0.5,0.5-1.1,0.7-1.8,0.8c-0.6,0-1.2-0.3-1.7-0.8C13.3,9.6,13,9.1,13,8.4c0-0.7,0.3-1.2,0.8-1.7
			c0.5-0.5,1.1-0.7,1.7-0.7c0.7,0,1.3,0.2,1.8,0.7C17.8,7.2,18,7.7,18,8.4z"/>
	</g>
</g>
</svg>
