<svg version="1.1" id="Layer_1" width="24" height="24" xmlns="http://www.w3.org/2000/svg" xmlns:xlink="http://www.w3.org/1999/xlink" x="0px" y="0px"
	 viewBox="0 0 24 24" style="enable-background:new 0 0 24 24;" xml:space="preserve">
<style type="text/css">
	.st0{fill:#FAC712;}
	.st1{fill:#FEEF00;}
	.st2{fill:#F69F23;}
	.st3{fill:#7421B0;}
	.st4{fill:#3A48BA;}
	.st5{fill:#D2298E;}
	.st6{fill:#006FC4;}
	.st7{fill:#FF2600;}
	.st8{fill:#FB6312;}
	.st9{fill:#00C2AF;}
	.st10{fill:#7FD200;}
	.st11{fill:#00B500;}
</style>
<g>
	<g>
		<path class="st0" d="M20.2,3.7c-1.4-1.4-3.2-2.5-5.2-3l0,0L12,12L20.2,3.7L20.2,3.7z"/>
	</g>
	<g>
		<path class="st1" d="M15,0.7c-1-0.3-2-0.4-3-0.4c-1,0-2.1,0.1-3,0.4L9.1,1c0,0.1,0.1,0.2,0.1,0.4l0.1,0.2c0,0.1,0.1,0.2,0.1,0.3
			l0,0.1c0,0.1,0,0.2,0.1,0.3l0.2,0.7c0,0,0,0,0,0l0.1,0.5c0,0,0,0.1,0,0.1L12,12l1.9-7.1l0,0L15,0.7z"/>
	</g>
	<g>
		<path class="st2" d="M23.3,9L23.3,9c-0.5-2-1.6-3.8-3-5.2l0,0l0,0v0L18,6l-6,6L23.3,9z"/>
	</g>
	<g>
		<path class="st3" d="M15,23.3C15,23.3,15,23.3,15,23.3l-1.1-4.2h0L12,12L9,23.3h0l0,0c1,0.3,2,0.4,3,0.4S14.1,23.5,15,23.3
			L15,23.3L15,23.3z"/>
	</g>
	<g>
		<path class="st4" d="M12,12l-8.3,8.3l0,0c1.4,1.4,3.2,2.5,5.2,3l0,0l0,0h0l1.1-4.2h0L12,12z"/>
	</g>
	<g>
		<path class="st5" d="M20.2,20.3L20.2,20.3L20.2,20.3C20.3,20.3,20.3,20.3,20.2,20.3l-3.1-3.1l0,0L12,12l3,11.3l0,0l0,0
			C17,22.7,18.8,21.7,20.2,20.3z"/>
	</g>
	<g>
		<path class="st6" d="M12,12L0.7,15l0,0l0,0c0.5,2,1.6,3.8,3,5.2l0,0l0,0v0l3.1-3.1l0,0L12,12z"/>
	</g>
	<g>
		<path class="st7" d="M23.3,15L23.3,15L23.3,15L23.3,15l-4.2-1.1v0L12,12l8.3,8.3l0,0C21.7,18.8,22.7,17,23.3,15z"/>
	</g>
	<g>
		<path class="st8" d="M23.7,12c0-1-0.1-2.1-0.4-3v0l0,0v0l-4.2,1.1l0,0L12,12l11.3,3v0C23.5,14.1,23.7,13,23.7,12z"/>
	</g>
	<g>
		<path class="st9" d="M12,12L0.7,9v0c0,0,0,0,0,0c-0.3,1-0.4,2-0.4,3c0,1,0.1,2.1,0.4,3l4.2-1.1l0,0L12,12z"/>
	</g>
	<g>
		<path class="st10" d="M12,12l-1.9-7.1l0,0c0-0.1,0-0.1,0-0.2L10,4.4C9.9,4.2,9.9,4,9.8,3.8L9.7,3.3c0-0.1,0-0.1,0-0.2L9.5,2.7
			c0,0,0,0,0,0L9,0.7h0l0,0c-2,0.5-3.8,1.6-5.2,3l0,0L12,12z"/>
	</g>
	<g>
		<path class="st11" d="M12,12L3.7,3.7l0,0C2.3,5.2,1.3,7,0.7,9c1,0.3,2.1,0.6,4.2,1.1v0L12,12z"/>
	</g>
</g>
</svg>
