<svg id="Layer_1" data-name="Layer 1" xmlns="http://www.w3.org/2000/svg" viewBox="0 0 22.6 18.3"><defs><style>.cls-1{fill:none;stroke:#4d525e;stroke-linecap:round;stroke-linejoin:round;stroke-width:1.5px;}</style></defs><title>gx-icon-black</title><path id="Layer0_0_1_STROKES" data-name="Layer0 0 1 STROKES" class="cls-1" d="M22.6,20.4,1.5,20.3V3.6H22.6V20.1M12.3,7.2l.9,2.7H16c.1,0,.2,0,.2.1l.1.1c0,.1,0,.2-.1.2L13.8,12l.9,2.7v.2a.1.1,0,0,1-.1.1c-.1.1-.1.1-.2-.1L12,13.3,9.7,14.9l-.1.1c-.1,0-.2,0-.2-.1v-.3l.9-2.7L8,10.3a.35.35,0,0,1-.1-.2V10c0-.1.1-.2.3-.2l2.8.1.9-2.8A.1.1,0,0,1,12,7h.2C12.2,7.1,12.2,7.1,12.3,7.2ZM7.7,17.5h9.6" transform="translate(-0.75 -2.85)"/></svg>