<?xml version="1.0" encoding="utf-8"?>
<!-- Generator: Adobe Illustrator 24.0.2, SVG Export Plug-In . SVG Version: 6.00 Build 0)  -->
<svg version="1.1" id="Layer_1" xmlns="http://www.w3.org/2000/svg" xmlns:xlink="http://www.w3.org/1999/xlink" x="0px" y="0px"
	 viewBox="0 0 28 41" style="enable-background:new 0 0 28 41;" xml:space="preserve">
<style type="text/css">
	.st0{fill:none;stroke:#FFFFFF;stroke-width:3;stroke-linecap:round;stroke-linejoin:round;}
</style>
<g transform="matrix( 0.899993896484375, 0, 0, 0.899993896484375, 38.95,36.4) ">
	<g transform="matrix( 1.111114501953125, 0, 0, 1.111114501953125, -43.25,-40.4) ">
		<path id="Layer0_1_1_STROKES" class="st0" d="M25.62,18.75l0.19-0.11l-0.19-0.12V18.75z M25.62,18.75l-11.5,6.66v13.65l11.53-7.2
			 M26.06,18.3V2.09 M2.07,18.63l0.06-0.21l-0.06-0.02V18.63z M2.07,18.63l0.17,13.1l8.39,5.21l-0.08-8.31L5.91,25.7 M2.14,18.41
			V18.3l11.82-6.76L1.99,1.87 M25.62,18.52l-11.36-6.76l-0.12,0.11 M14.26,11.76l-0.12-0.06l-0.17,0.08l-0.02,0.02l0.02-0.25
			l11.99-9.68 M14.14,11.69h-0.02l-0.15,0.08v-0.23 M2.14,18.41L1.89,2.1 M2.14,18.41l11.47,7 M20.81,28.42l-5.83,3.61"/>
	</g>
</g>
</svg>
