<?xml version="1.0" encoding="utf-8"?>
<!-- Generator: Adobe Illustrator 24.0.2, SVG Export Plug-In . SVG Version: 6.00 Build 0)  -->
<svg version="1.1" id="Layer_1" xmlns="http://www.w3.org/2000/svg" xmlns:xlink="http://www.w3.org/1999/xlink" x="0px" y="0px"
	 viewBox="0 0 24 24" style="enable-background:new 0 0 24 24;" xml:space="preserve">
<style type="text/css">
	.st0{fill:none;stroke:#00CCFF;stroke-width:1.5;stroke-linecap:round;stroke-linejoin:round;}
</style>
<g transform="matrix( 1, 0, 0, 1, 0,0) ">
	<g>
		<path id="Layer0_0_1_STROKES" class="st0" d="M22.6,20.4L1.5,20.3V3.6h21.1l0,16.5 M12.3,7.2l0.9,2.7h2.8c0.1,0,0.2,0,0.2,0.1
			c0,0,0.1,0.1,0.1,0.1c0,0.1,0,0.2-0.1,0.2L13.8,12l0.9,2.7c0,0.1,0,0.2,0,0.2c0,0.1-0.1,0.1-0.1,0.1c-0.1,0.1-0.1,0.1-0.2-0.1
			L12,13.3l-2.3,1.6C9.6,15,9.6,15,9.6,15c-0.1,0-0.2,0-0.2-0.1c0-0.1,0-0.1,0-0.3l0.9-2.7l-2.3-1.6c0,0-0.1-0.1-0.1-0.2
			c0-0.1,0-0.1,0-0.1c0-0.1,0.1-0.2,0.3-0.2l2.8,0.1l0.9-2.8c0,0,0-0.1,0.1-0.1c0.1,0,0.1,0,0.2,0C12.2,7.1,12.2,7.1,12.3,7.2z
			 M7.7,17.5h9.6"/>
	</g>
</g>
</svg>
