<?xml version="1.0" encoding="utf-8"?>
<!-- Generator: Adobe Illustrator 24.0.2, SVG Export Plug-In . SVG Version: 6.00 Build 0)  -->
<svg version="1.1" id="Layer_1" xmlns="http://www.w3.org/2000/svg" xmlns:xlink="http://www.w3.org/1999/xlink" x="0px" y="0px"
	 viewBox="0 0 74 96.94" style="enable-background:new 0 0 74 96.94;" xml:space="preserve">
<style type="text/css">
	.st0{fill:none;stroke:#FFFFFF;stroke-width:5;stroke-linecap:round;stroke-linejoin:round;}
</style>
<g transform="matrix( 0.899993896484375, 0, 0, 0.899993896484375, 38.95,36.4) ">
	<g transform="matrix( 1.111114501953125, 0, 0, 1.111114501953125, -43.25,-40.4) ">
		<path id="Layer0_1_1_STROKES" class="st0" d="M64.45,44.41l0.45-0.25l-0.45-0.3V44.41z M64.45,44.41L37.3,60.11v32.2l27.2-17
			 M65.5,43.36V5.11 M8.9,44.11l0.15-0.5L8.9,43.56V44.11z M8.9,44.11l0.4,30.9l19.8,12.3l-0.2-19.6l-10.95-6.9 M9.05,43.61v-0.25
			l27.9-15.95L8.7,4.56 M64.45,43.86l-26.8-15.95l-0.3,0.25 M37.65,27.91l-0.3-0.15l-0.4,0.2l-0.05,0.05l0.05-0.6l28.3-22.85
			 M37.35,27.76H37.3l-0.35,0.2v-0.55 M8.45,43.36V5.11 M9.05,43.61l27.05,16.5 M53.1,67.21l-13.75,8.5"/>
	</g>
</g>
</svg>
