<svg id="Layer_1" data-name="Layer 1" xmlns="http://www.w3.org/2000/svg" viewBox="0 0 16 15.7"><defs><style>.cls-1{isolation:isolate;}.cls-2{fill:#464a53;}</style></defs><title>gx-reset</title><g class="cls-1"><path class="cls-2" d="M16.5,1.1v5a.91.91,0,0,1-.3.7.91.91,0,0,1-.7.3H10.4a.91.91,0,0,1-.7-.3,1,1,0,0,1,0-1.4.91.91,0,0,1,.7-.3H13A8.09,8.09,0,0,0,11,3a4.46,4.46,0,0,0-2.6-.8A5.66,5.66,0,0,0,4.3,3.9,5.3,5.3,0,0,0,2.6,8a5.66,5.66,0,0,0,1.7,4.1,5.66,5.66,0,0,0,4.1,1.7,5.75,5.75,0,0,0,3.4-1.1,5.63,5.63,0,0,0,2.1-2.9,1,1,0,0,1,.5-.6,1.41,1.41,0,0,1,.9-.1,1,1,0,0,1,.6.5,1.06,1.06,0,0,1,.1.8,7.49,7.49,0,0,1-2.9,3.9,7.67,7.67,0,0,1-4.6,1.5,7.7,7.7,0,0,1-5.6-2.3A7.56,7.56,0,0,1,.5,8,7.87,7.87,0,0,1,2.8,2.4,7.7,7.7,0,0,1,8.4.1a3.08,3.08,0,0,1,1,.1c.3,0,.6.1.9.1a1.33,1.33,0,0,1,.8.3,3.63,3.63,0,0,0,.7.3,2.09,2.09,0,0,1,.6.4c.2.2.4.3.5.4l.5.5c.2.2.3.4.4.4s.2.2.4.5a3,3,0,0,0,.3.4V1.1a.91.91,0,0,1,.3-.7,1,1,0,0,1,1.4,0A.91.91,0,0,1,16.5,1.1Z" transform="translate(-0.5 -0.1)"/></g></svg>