<svg xmlns="http://www.w3.org/2000/svg" width="22.57" height="36.063" viewBox="0 0 22.57 36.063">
  <defs>
    <style>
      .cls-1 {
        fill: #464a53;
        fill-rule: evenodd;
      }
    </style>
  </defs>
  <path class="cls-1" d="M3165.61,95.7v15.772a4.508,4.508,0,0,0,4.51,4.506h2.25v11.266a4.51,4.51,0,0,0,9.02,0V115.979h2.26a4.508,4.508,0,0,0,4.51-4.506V95.7h-22.55Zm20.29,15.772a2.255,2.255,0,0,1-2.25,2.253h-4.51v13.519a2.255,2.255,0,0,1-4.51,0V113.726h-4.51a2.257,2.257,0,0,1-2.26-2.253V109.22h18.04v2.253Zm-18.04-4.506V97.954h4.51v6.759h2.26V97.954h4.51v6.759h2.25V97.954h4.51v9.013h-18.04Z" transform="translate(-3165.59 -95.688)"/>
</svg>
