<svg version="1.1" xmlns="http://www.w3.org/2000/svg" xmlns:xlink="http://www.w3.org/1999/xlink" width="20" height="28"><defs/><g><path fill="rgb(15,18,27)" stroke="none" paint-order="stroke fill markers" fill-rule="evenodd" d=" M 16.509761333465576 1.8888490200042725 C 16.509761333465576 1.8888490200042725 3.254969298839569 1.8888490200042725 3.254969298839569 1.8888490200042725 C 2.052394926548004 1.8888490200042725 1.074070394039154 2.8712828159332275 1.074070394039154 4.078768968582153 C 1.074070394039154 4.078768968582153 1.074070394039154 23.905979871749878 1.074070394039154 23.905979871749878 C 1.074070394039154 25.113629817962646 2.052394926548004 26.0960636138916 3.254969298839569 26.0960636138916 C 3.254969298839569 26.0960636138916 16.509761333465576 26.0960636138916 16.509761333465576 26.0960636138916 C 17.71233570575714 26.0960636138916 18.69048720598221 25.113629817962646 18.69048720598221 23.905979871749878 C 18.69048720598221 23.905979871749878 18.69048720598221 4.078768968582153 18.69048720598221 4.078768968582153 C 18.69048720598221 2.8712828159332275 17.71233570575714 1.8888490200042725 16.509761333465576 1.8888490200042725 Z M 16.509761333465576 25.382742643356323 C 16.509761333465576 25.382742643356323 3.254969298839569 25.382742643356323 3.254969298839569 25.382742643356323 C 2.4441400170326233 25.382742643356323 1.7843679189682007 24.720197677612305 1.7843679189682007 23.905979871749878 C 1.7843679189682007 23.905979871749878 1.7843679189682007 4.078768968582153 1.7843679189682007 4.078768968582153 C 1.7843679189682007 3.2645511627197266 2.4441400170326233 2.602006196975708 3.254969298839569 2.602006196975708 C 3.254969298839569 2.602006196975708 16.509761333465576 2.602006196975708 16.509761333465576 2.602006196975708 C 17.320590615272522 2.602006196975708 17.98018968105316 3.2645511627197266 17.98018968105316 4.078768968582153 C 17.98018968105316 4.078768968582153 17.98018968105316 22.836080312728882 17.98018968105316 22.836080312728882 C 17.98018968105316 22.836080312728882 4.466887414455414 22.836080312728882 4.466887414455414 22.836080312728882 C 4.270668804645538 22.836080312728882 4.111825168132782 22.99594283103943 4.111825168132782 23.192822694778442 C 4.111825168132782 23.389702558517456 4.270668804645538 23.54940128326416 4.466887414455414 23.54940128326416 C 4.466887414455414 23.54940128326416 17.98018968105316 23.54940128326416 17.98018968105316 23.54940128326416 C 17.98018968105316 23.54940128326416 17.98018968105316 23.905979871749878 17.98018968105316 23.905979871749878 C 17.98018968105316 24.720197677612305 17.320590615272522 25.382742643356323 16.509761333465576 25.382742643356323 Z M 3.259468138217926 22.836080312728882 C 3.259468138217926 22.836080312728882 3.133846700191498 22.836080312728882 3.133846700191498 22.836080312728882 C 2.9376280903816223 22.836080312728882 2.778611421585083 22.99594283103943 2.778611421585083 23.192822694778442 C 2.778611421585083 23.389702558517456 2.9376280903816223 23.54940128326416 3.133846700191498 23.54940128326416 C 3.133846700191498 23.54940128326416 3.259468138217926 23.54940128326416 3.259468138217926 23.54940128326416 C 3.4556867480278015 23.54940128326416 3.614530384540558 23.389702558517456 3.614530384540558 23.192822694778442 C 3.614530384540558 22.99594283103943 3.4556867480278015 22.836080312728882 3.259468138217926 22.836080312728882 Z M 9.882278800010681 23.88894534111023 C 9.565456688404083 23.88894534111023 9.307465553283691 24.147902965545654 9.307465553283691 24.466153860092163 C 9.307465553283691 24.78424096107483 9.565456688404083 25.043198585510254 9.882278800010681 25.043198585510254 C 10.199273943901062 25.043198585510254 10.457092046737671 24.78424096107483 10.457092046737671 24.466153860092163 C 10.457092046737671 24.147902965545654 10.199273943901062 23.88894534111023 9.882278800010681 23.88894534111023 Z M 9.882278800010681 24.602102518081665 C 9.807874917984009 24.602102518081665 9.746967554092407 24.541171312332153 9.746967554092407 24.466153860092163 C 9.746967554092407 24.391136407852173 9.807874917984009 24.33020520210266 9.882278800010681 24.33020520210266 C 9.956855714321136 24.33020520210266 10.017763078212738 24.391136407852173 10.017763078212738 24.466153860092163 C 10.017763078212738 24.541171312332153 9.956855714321136 24.602102518081665 9.882278800010681 24.602102518081665 Z M 8.515150725841522 4.007354974746704 C 8.515150725841522 4.007354974746704 11.24940687417984 4.007354974746704 11.24940687417984 4.007354974746704 C 11.445625483989716 4.007354974746704 11.604642152786255 3.8478200435638428 11.604642152786255 3.6507763862609863 C 11.604642152786255 3.4538965225219727 11.445625483989716 3.2941977977752686 11.24940687417984 3.2941977977752686 C 11.24940687417984 3.2941977977752686 8.515150725841522 3.2941977977752686 8.515150725841522 3.2941977977752686 C 8.31910514831543 3.2941977977752686 8.16008847951889 3.4538965225219727 8.16008847951889 3.6507763862609863 C 8.16008847951889 3.8478200435638428 8.31910514831543 4.007354974746704 8.515150725841522 4.007354974746704 Z"/></g></svg>