<svg id="Layer_1" data-name="Layer 1" xmlns="http://www.w3.org/2000/svg" viewBox="0 0 22.45 21.2"><defs><style>.cls-1,.cls-2{fill:none;}.cls-1{stroke:#4d525e;stroke-linecap:round;stroke-linejoin:round;stroke-width:2px;}</style></defs><title>typography</title><path class="cls-1" d="M1,1V6.4H4.2V5a.81.81,0,0,1,.3-.65.81.81,0,0,1,.65-.3H9.3V15.8A1.37,1.37,0,0,1,8,17.15H6.6V20.2h9.25V17.15h-1.3A1.37,1.37,0,0,1,13.2,15.8V4.05h4.15a.91.91,0,0,1,.65.3.87.87,0,0,1,.25.65V6.4h3.2V1Z" transform="translate(0 0)"/><rect class="cls-2" width="22.45" height="21.2"/></svg>