<?xml version="1.0" encoding="utf-8"?>
<!-- Generator: Adobe Illustrator 27.2.0, SVG Export Plug-In . SVG Version: 6.00 Build 0)  -->
<svg version="1.1" id="Layer_1" xmlns="http://www.w3.org/2000/svg" xmlns:xlink="http://www.w3.org/1999/xlink" x="0px" y="0px"
	 viewBox="0 0 305.0459 89.9083" style="enable-background:new 0 0 305.0459 89.9083;" xml:space="preserve">
<style type="text/css">
	.st0{fill:#FFFFFF;}
	.st1{fill:#FF4A17;}
</style>
<path class="st0" d="M287.8871,29.9028h-34.7397c-7.9251,0-14.3496-6.4245-14.3496-14.3496l0,0
	c0-7.9251,6.4245-14.3496,14.3496-14.3496h34.7397c7.925,0,14.3496,6.4245,14.3496,14.3496l0,0
	C302.2367,23.4782,295.8122,29.9028,287.8871,29.9028z"/>
<g>
	<path class="st1" d="M255.8468,20.812V10.1479h3.7354c1.2939,0,2.2754,0.248,2.9443,0.7432
		c0.6689,0.4961,1.0029,1.2217,1.0029,2.1787c0,0.5225-0.1338,0.9834-0.4023,1.3809c-0.2686,0.3984-0.6426,0.6895-1.1211,0.875
		c0.5469,0.1367,0.9785,0.4131,1.293,0.8281c0.3154,0.415,0.4727,0.9229,0.4727,1.5234c0,1.0254-0.3271,1.8018-0.9814,2.3291
		s-1.5869,0.7959-2.7979,0.8057C259.9924,20.812,255.8468,20.812,255.8468,20.812z M258.044,14.6157h1.626
		c1.1084-0.0195,1.6621-0.4619,1.6621-1.3262c0-0.4834-0.1406-0.8311-0.4209-1.043c-0.2812-0.2129-0.7236-0.3193-1.3291-0.3193
		h-1.5381L258.044,14.6157L258.044,14.6157z M258.044,16.1684v2.8779h1.8818c0.5176,0,0.9219-0.123,1.2129-0.3691
		c0.29-0.2471,0.4355-0.5879,0.4355-1.0225c0-0.9766-0.5059-1.4717-1.5166-1.4863C260.0576,16.1684,258.044,16.1684,258.044,16.1684
		z"/>
	<path class="st1" d="M268.9278,20.9584c-1.1621,0-2.1084-0.3564-2.8389-1.0693c-0.7295-0.7129-1.0947-1.6631-1.0947-2.8496v-0.2051
		c0-0.7959,0.1543-1.5068,0.4619-2.1348c0.3076-0.627,0.7432-1.1104,1.3066-1.4502c0.5645-0.3389,1.208-0.5088,1.9307-0.5088
		c1.084,0,1.9365,0.3418,2.5596,1.0254c0.6221,0.6836,0.9336,1.6523,0.9336,2.9072v0.8643h-5.0459
		c0.0684,0.5176,0.2744,0.9326,0.6182,1.2451c0.3447,0.3125,0.7803,0.4688,1.3076,0.4688c0.8154,0,1.4531-0.2949,1.9121-0.8857
		l1.04,1.1641c-0.3174,0.4492-0.7471,0.7998-1.2891,1.0518C270.1876,20.8325,269.587,20.9584,268.9278,20.9584z M268.6856,14.4467
		c-0.4199,0-0.7607,0.1426-1.0215,0.4268c-0.2617,0.2852-0.4287,0.6914-0.502,1.2217h2.9443v-0.1699
		c-0.0098-0.4707-0.1367-0.835-0.3809-1.0918C269.4815,14.5756,269.1349,14.4467,268.6856,14.4467z"/>
	<path class="st1" d="M275.922,10.9389v1.9482h1.3555v1.5527h-1.3555v3.9551c0,0.293,0.0566,0.5029,0.1689,0.6299
		s0.3271,0.1904,0.6445,0.1904c0.2344,0,0.4414-0.0176,0.6221-0.0518v1.6045c-0.415,0.127-0.8418,0.1904-1.2812,0.1904
		c-1.4844,0-2.2412-0.75-2.2705-2.249v-4.2695h-1.1572v-1.5527h1.1572v-1.9482C273.8058,10.9389,275.922,10.9389,275.922,10.9389z"
		/>
	<path class="st1" d="M283.0489,20.812c-0.0977-0.1904-0.1689-0.4277-0.2129-0.7109c-0.5127,0.5713-1.1787,0.8574-1.999,0.8574
		c-0.7764,0-1.4199-0.2246-1.9297-0.6738c-0.5107-0.4492-0.7656-1.0156-0.7656-1.6992c0-0.8398,0.3115-1.4844,0.9336-1.9336
		c0.623-0.4492,1.5225-0.6768,2.6992-0.6816h0.9736v-0.4541c0-0.3662-0.0938-0.6592-0.2812-0.8789
		c-0.1885-0.2197-0.4854-0.3291-0.8906-0.3291c-0.3564,0-0.6357,0.085-0.8379,0.2559c-0.2031,0.1709-0.3047,0.4053-0.3047,0.7031
		h-2.1162c0-0.459,0.1416-0.8838,0.4248-1.2744s0.6836-0.6963,1.2012-0.9189c0.5176-0.2217,1.0986-0.333,1.7432-0.333
		c0.9766,0,1.751,0.2451,2.3252,0.7363c0.5732,0.4902,0.8604,1.1797,0.8604,2.0684v3.4355c0.0049,0.752,0.1104,1.3203,0.3154,1.7061
		v0.125h-2.1388L283.0489,20.812L283.0489,20.812z M281.298,19.3393c0.3125,0,0.6006-0.0693,0.8643-0.208
		c0.2637-0.1396,0.459-0.3262,0.5859-0.5605v-1.3623h-0.791c-1.0596,0-1.623,0.3662-1.6914,1.0986l-0.0078,0.124
		c0,0.2637,0.0928,0.4814,0.2783,0.6523C280.7218,19.2543,280.9757,19.3393,281.298,19.3393z"/>
</g>
<g>
	<path class="st0" d="M117.5197,42.8931c-1.1906,0-2.1647,0.9741-2.1647,2.1639v2.0568c-2.5435-2.6514-6.0609-4.3293-10.1194-4.3293
		c-7.954,0-14.015,6.3311-14.015,14.3401c0,8.0084,6.061,14.3387,14.015,14.3387c4.0585,0,7.576-1.6222,10.1194-4.3279v2.001
		c0,1.2449,0.9741,2.2197,2.1647,2.2197c1.2442,0,2.1639-0.9749,2.1639-2.2197V45.0571
		C119.6836,43.8672,118.7639,42.8931,117.5197,42.8931z M115.355,57.5563c-0.2166,5.6286-4.4916,9.9036-9.8486,9.9036
		c-5.5192,0-9.9022-4.4923-9.9022-10.3353c0-5.8444,4.3829-10.336,9.9022-10.336c5.357,0,9.632,4.275,9.8486,9.903V57.5563z"/>
	<path class="st0" d="M137.3277,57.016l9.0911-10.8219c0.3245-0.3795,0.4874-0.8661,0.4874-1.2993
		c0-1.1363-0.9205-2.0017-2.0568-2.0017c-0.6489,0-1.082,0.2701-1.515,0.7575l-8.6037,10.2266l-8.6036-10.2266
		c-0.3788-0.4874-1.0284-0.7575-1.6237-0.7575c-1.1363,0-2.2183,0.9197-2.2183,2.1639c0,0.433,0.2158,0.9741,0.541,1.4072
		l9.0367,10.7676l-9.0367,10.7684c-0.3252,0.433-0.4874,0.8661-0.4874,1.3535c0,1.1363,0.9205,2.0025,2.0568,2.0025
		c0.6489,0,1.082-0.2716,1.5151-0.7576l8.6036-10.2281l8.6037,10.1738c0.3788,0.5403,1.0284,0.8119,1.6237,0.8119
		c1.1363,0,2.2183-0.9749,2.2183-2.1655c0-0.4859-0.2166-1.0276-0.541-1.4064L137.3277,57.016z"/>
	<path class="st0" d="M151.7251,42.8931c-1.2449,0-2.1647,0.9741-2.1647,2.1639v24.0794c0,1.2449,0.9198,2.2197,2.1647,2.2197
		c1.1899,0,2.164-0.9749,2.164-2.2197V45.0571C153.8891,43.8672,152.915,42.8931,151.7251,42.8931z"/>
	<path class="st0" d="M151.7251,33.91c-1.515,0-2.7056,1.1906-2.7056,2.7056c0,1.4615,1.1906,2.7057,2.7056,2.7057
		c1.4608,0,2.7057-1.2442,2.7057-2.7057C154.4308,35.1006,153.1859,33.91,151.7251,33.91z"/>
	<path class="st0" d="M185.3309,51.6047c4.0049-1.4608,5.7901-4.9783,5.7901-8.3871c0-5.6279-4.4365-10.173-10.6054-10.173h-8.9288
		c-1.2449,0-2.2733,1.0284-2.2733,2.2726v33.2791c0,1.2978,1.0284,2.3269,2.2733,2.3269h9.2533
		c6.276,0,10.8226-4.6538,10.8226-10.3896C191.6627,56.7459,189.4973,53.0654,185.3309,51.6047z M180.1897,66.6481h-6.276V37.3196
		h5.9516c3.9506,0,6.4933,2.7056,6.4933,6.1688c0,3.4089-2.7057,6.1146-6.1146,6.1146h-1.7852
		c-1.1906,0-2.1111,0.9741-2.1111,2.1647c0,1.1891,0.9205,2.1096,2.1111,2.1096h2.1096c3.5175,0,6.3318,2.8686,6.3318,6.3846
		C186.9003,63.8337,184.2489,66.6481,180.1897,66.6481z"/>
	<path class="st0" d="M197.2385,32.6115c-1.2449,0-2.164,0.9741-2.164,2.1647v34.3604c0,1.2449,0.9191,2.2197,2.164,2.2197
		c1.1906,0,2.1639-0.9749,2.1639-2.2197V34.7761C199.4024,33.5855,198.429,32.6115,197.2385,32.6115z"/>
	<path class="st0" d="M217.0443,42.7845c-8.117,0-14.2858,6.3311-14.2858,14.3401c0,8.0084,6.1688,14.3387,14.2858,14.3387
		s14.2316-6.3303,14.2316-14.3387C231.2758,49.1155,225.1613,42.7845,217.0443,42.7845z M217.0443,67.4599
		c-5.5728,0-9.9022-4.6538-9.9022-10.3353c0-5.7358,4.3293-10.336,9.9022-10.336c5.5743,0,9.8493,4.6002,9.8493,10.336
		C226.8936,62.8061,222.6185,67.4599,217.0443,67.4599z"/>
	<path class="st0" d="M247.73,46.7886c3.0845,0,5.5185,1.3528,7.1965,3.2474c0.596,0.4867,1.0276,0.9198,1.8395,0.9198
		c1.2449,0,2.1654-0.8119,2.1654-2.0025c0-0.4866-0.2715-1.082-0.6503-1.515c-2.2726-2.7057-6.0602-4.6538-10.5511-4.6538
		c-8.117,0-14.2858,6.3311-14.2858,14.3401c0,8.0084,6.1688,14.3387,14.2858,14.3387c4.5452,0,8.2785-2.001,10.5511-4.7066
		c0.3788-0.4331,0.6503-1.0291,0.6503-1.4622c0-1.1906-0.9205-2.0553-2.1654-2.0553c-0.8118,0-1.2978,0.4859-1.8395,0.9733
		c-1.678,1.8938-4.1664,3.2474-7.1965,3.2474c-5.52,0-9.9022-4.5995-9.9022-10.3353C237.8278,51.3345,242.21,46.7886,247.73,46.7886
		z"/>
	<path class="st0" d="M273.0029,56.6373l8.7659-10.4432c0.3245-0.3795,0.4874-0.8661,0.4874-1.2993
		c0-1.1363-0.9205-2.0017-2.0568-2.0017c-0.6489,0-1.082,0.2701-1.5151,0.7575l-9.7935,11.6331
		c-0.3788,0.433-0.5961,1.0834-0.5961,1.5693c0,0.5961,0.2716,1.1906,0.5961,1.6237l10.1723,12.0676
		c0.3787,0.5403,1.0291,0.8119,1.6237,0.8119c1.1363,0,2.2183-0.9749,2.2183-2.1655c0-0.4859-0.2158-1.0276-0.5402-1.4064
		L273.0029,56.6373z"/>
	<path class="st0" d="M264.5072,32.6115c-1.2449,0-2.164,0.9741-2.164,2.1647v34.3604c0,1.2449,0.9191,2.2197,2.164,2.2197
		c1.1906,0,2.1639-0.9749,2.1639-2.2197V34.7761C266.6711,33.5855,265.6978,32.6115,264.5072,32.6115z"/>
	<path class="st0" d="M293.3519,55.501c-3.1931-1.0277-5.7901-2.0025-5.7901-4.8704c0-2.1104,1.5151-4.0042,4.1664-4.0042
		c2.5427,0,4.1664,1.678,4.5452,3.0845c0.3244,1.2449,1.2993,1.515,1.8938,1.515c1.082,0,1.9481-0.8654,1.9481-1.9481
		c0-3.679-3.8419-6.4933-8.3871-6.4933c-4.8168,0-8.3328,3.4096-8.3328,7.8461c0,5.3577,3.7877,6.8185,7.5209,8.0634
		c2.8687,0.9733,5.0326,2.2183,5.0326,4.9239c0,2.0554-1.678,3.9492-4.275,3.9492c-2.9215,0-4.3294-1.9467-4.8153-3.4632
		c-0.2716-0.8647-1.1363-1.2978-1.8409-1.2978c-1.082,0-1.9482,0.8661-1.9482,1.9481c0,3.5175,3.8963,6.7091,8.6044,6.7091
		c4.9239,0,8.6044-3.679,8.6044-7.954C300.2783,58.4224,296.7608,56.5286,293.3519,55.501z"/>
	<path class="st0" d="M85.6146,52.7661c-0.0104-0.0745-0.0191-0.1487-0.036-0.2209c-0.0184-0.0784-0.0456-0.1544-0.0718-0.2313
		c-0.0266-0.0776-0.0518-0.155-0.0856-0.2289c-0.0305-0.0667-0.0687-0.1299-0.1056-0.1945
		c-0.0449-0.0784-0.0898-0.1557-0.1427-0.2284c-0.0151-0.0209-0.0245-0.0441-0.0404-0.0646c-0.03-0.0388-0.0672-0.0679-0.099-0.1044
		c-0.058-0.0663-0.1164-0.1309-0.181-0.1907c-0.0581-0.0538-0.1188-0.1019-0.181-0.1492c-0.0641-0.049-0.1288-0.0958-0.1976-0.1384
		c-0.0681-0.042-0.1378-0.0786-0.209-0.1134c-0.072-0.0354-0.1443-0.0684-0.22-0.0968c-0.0751-0.028-0.1509-0.0502-0.2281-0.0708
		c-0.0761-0.0204-0.152-0.0391-0.231-0.0522c-0.0862-0.0143-0.1724-0.0209-0.2596-0.0261c-0.0488-0.0029-0.095-0.0146-0.1445-0.0146
		c-0.0262,0-0.0505,0.0069-0.0766,0.0077c-0.0896,0.0027-0.1779,0.0145-0.2671,0.0269c-0.0736,0.0104-0.147,0.0189-0.2184,0.0356
		c-0.0797,0.0186-0.1569,0.0462-0.235,0.0729c-0.0763,0.0261-0.1523,0.0509-0.225,0.0842c-0.0677,0.031-0.1322,0.0698-0.1978,0.1074
		c-0.0776,0.0445-0.154,0.0889-0.2259,0.1412c-0.021,0.0153-0.0444,0.0247-0.0651,0.0407L68.1763,61.61l8.2939-32.2627
		c0.2882-1.1224-0.2429-2.2944-1.2771-2.8168c-1.0333-0.5215-2.2916-0.2549-3.0251,0.6434l-24.1022,29.561l6.348-27.4458
		c0.2433-1.0516-0.225-2.1388-1.1561-2.6848c-0.9301-0.546-2.1094-0.4232-2.907,0.3026L13.1284,60.7305
		c-2.4164-15.9297,2.3347-26.0482,7.0011-31.8507c6.2964-7.8299,16.1985-12.5041,26.4887-12.5041
		c1.3629,0,2.4675-1.1046,2.4675-2.4675s-1.1046-2.4675-2.4675-2.4675c-11.7706,0-23.1104,5.3633-30.3345,14.3465
		c-5.6146,6.982-11.3823,19.3514-7.4854,38.8779l-3.2226,2.9284c-1.0087,0.9161-1.0834,2.4771-0.1667,3.4853
		c0.4868,0.5359,1.1556,0.8082,1.827,0.8082c0.5918,0,1.186-0.2121,1.6583-0.6415l38.933-35.3779l-6.9614,30.0983
		c-0.2588,1.1181,0.2877,2.267,1.3181,2.7721c1.0314,0.5051,2.2733,0.2332,2.9981-0.6569l23.7114-29.082l-7.2902,28.3571
		c-0.2626,1.0212,0.1533,2.0969,1.0342,2.6761c0.8805,0.5793,2.0328,0.5355,2.8665-0.1108l14.7711-11.4412
		c-2.5278,15.3969-15.9009,26.0865-33.6569,26.0865c-3.8049,0-16.9282-0.8727-26.0516-12.1046
		c-0.8588-1.0573-2.4125-1.2188-3.4708-0.3595c-1.0579,0.8593-1.2188,2.413-0.3596,3.4708
		c10.4979,12.9239,25.5263,13.9282,29.882,13.9282c22.2511,0,39.0309-15.6458,39.0309-36.3938c0-0.0264-0.007-0.0508-0.0078-0.077
		C85.6386,52.9423,85.627,52.8547,85.6146,52.7661z"/>
</g>
</svg>
