<svg xmlns="http://www.w3.org/2000/svg" xmlns:xlink="http://www.w3.org/1999/xlink" width="177.955" height="47.008" viewBox="0 0 177.955 47.008">
  <defs>
    <clipPath id="clip-path">
      <rect id="Rectangle_1" data-name="Rectangle 1" width="177.955" height="47.008" transform="translate(0 0)" fill="#ff4a17" stroke="#ff4a17" stroke-width="0.5"/>
    </clipPath>
  </defs>
  <g id="Group_2" data-name="Group 2" transform="translate(0 0)">
    <g id="Group_1" data-name="Group 1" clip-path="url(#clip-path)">
      <path id="Path_1" data-name="Path 1" d="M66.6,33.539A8.232,8.232,0,0,1,60.5,36.145a8.425,8.425,0,0,1-8.44-8.635A8.437,8.437,0,0,1,66.6,21.482V20.243a1.308,1.308,0,0,1,1.3-1.3,1.287,1.287,0,0,1,1.3,1.3v14.5a1.3,1.3,0,0,1-1.3,1.336,1.315,1.315,0,0,1-1.3-1.336Zm0-5.769v-.521A5.95,5.95,0,1,0,54.7,27.51a5.95,5.95,0,1,0,11.894.26" fill="#ff4a17" stroke="#ff4a17" stroke-width="0.5"/>
      <path id="Path_2" data-name="Path 2" d="M78.133,29.465l-5.181,6.159a1.144,1.144,0,0,1-.912.456A1.21,1.21,0,0,1,70.8,34.875a1.318,1.318,0,0,1,.294-.816l5.441-6.484L71.1,21.091a1.533,1.533,0,0,1-.326-.848,1.334,1.334,0,0,1,1.336-1.3,1.269,1.269,0,0,1,.977.456l5.181,6.159L83.444,19.4a1.144,1.144,0,0,1,.913-.456A1.21,1.21,0,0,1,85.6,20.146a1.236,1.236,0,0,1-.293.782l-5.475,6.517L85.3,33.93a1.375,1.375,0,0,1,.326.846,1.358,1.358,0,0,1-1.336,1.3,1.205,1.205,0,0,1-.978-.488Z" fill="#ff4a17" stroke="#ff4a17" stroke-width="0.5"/>
      <path id="Path_3" data-name="Path 3" d="M86.867,15.16a1.614,1.614,0,0,1,1.63-1.63,1.635,1.635,0,0,1,1.629,1.63A1.656,1.656,0,0,1,88.5,16.789a1.634,1.634,0,0,1-1.63-1.629m.326,5.083a1.286,1.286,0,0,1,1.3-1.3,1.307,1.307,0,0,1,1.3,1.3v14.5a1.315,1.315,0,0,1-1.3,1.337,1.3,1.3,0,0,1-1.3-1.337Z" fill="#ff4a17" stroke="#ff4a17" stroke-width="0.5"/>
      <path id="Path_4" data-name="Path 4" d="M99.088,14.378a1.378,1.378,0,0,1,1.369-1.369h5.377a6.141,6.141,0,0,1,6.387,6.126,5.224,5.224,0,0,1-3.487,5.051,5.6,5.6,0,0,1,3.813,5.377,6.28,6.28,0,0,1-6.517,6.256h-5.573a1.385,1.385,0,0,1-1.369-1.4Zm6.55,18.867a3.848,3.848,0,1,0,.228-7.69H104.6a1.254,1.254,0,0,1-1.272-1.271,1.28,1.28,0,0,1,1.272-1.3h1.075a3.7,3.7,0,1,0-.228-7.4h-3.584V33.245Z" fill="#ff4a17" stroke="#ff4a17" stroke-width="0.5"/>
      <path id="Path_5" data-name="Path 5" d="M114.6,14.052a1.286,1.286,0,0,1,1.3-1.3,1.307,1.307,0,0,1,1.3,1.3V34.744a1.314,1.314,0,0,1-1.3,1.336,1.294,1.294,0,0,1-1.3-1.336Z" fill="#ff4a17" stroke="#ff4a17" stroke-width="0.5"/>
      <path id="Path_6" data-name="Path 6" d="M119.229,27.51a8.587,8.587,0,1,1,17.173,0,8.587,8.587,0,1,1-17.173,0m14.534,0a5.953,5.953,0,1,0-11.894,0,5.953,5.953,0,1,0,11.894,0" fill="#ff4a17" stroke="#ff4a17" stroke-width="0.5"/>
      <path id="Path_7" data-name="Path 7" d="M137.708,27.51a8.5,8.5,0,0,1,8.6-8.636,8.276,8.276,0,0,1,6.354,2.8,1.516,1.516,0,0,1,.391.912,1.209,1.209,0,0,1-1.3,1.206,1.653,1.653,0,0,1-1.107-.554,5.678,5.678,0,0,0-4.334-1.955,6.047,6.047,0,0,0-5.963,6.224,6.068,6.068,0,0,0,5.963,6.224,5.73,5.73,0,0,0,4.334-1.956,1.623,1.623,0,0,1,1.107-.586,1.234,1.234,0,0,1,1.3,1.238,1.513,1.513,0,0,1-.391.88,8.242,8.242,0,0,1-6.354,2.835,8.5,8.5,0,0,1-8.6-8.635" fill="#ff4a17" stroke="#ff4a17" stroke-width="0.5"/>
      <path id="Path_8" data-name="Path 8" d="M155.11,14.053a1.286,1.286,0,0,1,1.3-1.3,1.307,1.307,0,0,1,1.3,1.3V34.744a1.315,1.315,0,0,1-1.3,1.337,1.294,1.294,0,0,1-1.3-1.337Zm3.943,14.272a1.709,1.709,0,0,1-.359-.978,1.56,1.56,0,0,1,.359-.945l5.9-7.005a1.138,1.138,0,0,1,.912-.456,1.211,1.211,0,0,1,1.239,1.2,1.233,1.233,0,0,1-.294.782l-5.279,6.289,5.638,6.713a1.375,1.375,0,0,1,.325.847,1.358,1.358,0,0,1-1.336,1.3,1.206,1.206,0,0,1-.977-.489Z" fill="#ff4a17" stroke="#ff4a17" stroke-width="0.5"/>
      <path id="Path_9" data-name="Path 9" d="M168.765,30.932a1.172,1.172,0,0,1,1.109.782,2.92,2.92,0,0,0,2.9,2.085,2.441,2.441,0,0,0,2.575-2.378c0-1.629-1.3-2.379-3.031-2.965-2.248-.75-4.529-1.63-4.529-4.856a4.76,4.76,0,0,1,5.018-4.725c2.737,0,5.051,1.695,5.051,3.91a1.168,1.168,0,0,1-1.173,1.173,1.139,1.139,0,0,1-1.141-.912,2.776,2.776,0,0,0-2.737-1.857A2.37,2.37,0,0,0,170.3,23.6c0,1.727,1.564,2.314,3.487,2.933,2.053.619,4.171,1.759,4.171,4.822a4.977,4.977,0,0,1-5.182,4.79c-2.835,0-5.181-1.922-5.181-4.04a1.168,1.168,0,0,1,1.173-1.173" fill="#ff4a17" stroke="#ff4a17" stroke-width="0.5"/>
      <path id="Path_10" data-name="Path 10" d="M4.052,34.067A1.486,1.486,0,0,1,2.6,32.9C-.089,20.648,3.473,12.944,6.935,8.639A23.594,23.594,0,0,1,25.2,0a1.486,1.486,0,1,1,0,2.972A20.59,20.59,0,0,0,9.251,10.5C6.2,14.3,3.066,21.16,5.505,32.262a1.486,1.486,0,0,1-1.133,1.77,1.459,1.459,0,0,1-.32.035" fill="#ff4a17" stroke="#ff4a17" stroke-width="0.5"/>
      <path id="Path_11" data-name="Path 11" d="M25.2,47.008c-2.623,0-11.673-.6-17.995-8.387a1.486,1.486,0,1,1,2.307-1.874c5.494,6.764,13.4,7.289,15.688,7.289,11.9,0,20.532-7.967,20.532-18.944a1.486,1.486,0,0,1,2.972,0c0,12.494-10.1,21.916-23.5,21.916" fill="#ff4a17" stroke="#ff4a17" stroke-width="0.5"/>
      <path id="Path_12" data-name="Path 12" d="M1.487,36.4a1.486,1.486,0,0,1-1-2.586l26.962-24.5A1.486,1.486,0,0,1,29.9,10.748L26.074,27.275l14.515-17.8a1.485,1.485,0,0,1,2.59,1.309L38.185,30.211l8.126-6.294a1.486,1.486,0,1,1,1.82,2.349L36.576,35.217a1.486,1.486,0,0,1-2.349-1.545l4.39-17.077L24.337,34.108a1.485,1.485,0,0,1-2.6-1.274l4.192-18.125L2.485,36.014a1.483,1.483,0,0,1-1,.386" fill="#ff4a17" stroke="#ff4a17" stroke-width="0.5"/>
    </g>
  </g>
</svg>
