<?xml version="1.0" encoding="UTF-8"?>
<svg id="Layer_1" xmlns="http://www.w3.org/2000/svg" version="1.1" viewBox="0 0 64 64">
  <!-- Generator: Adobe Illustrator 29.2.1, SVG Export Plug-In . SVG Version: 2.1.0 Build 116)  -->
  <defs>
    <style>
      .st0, .st1, .st2, .st3 {
        stroke: #081219;
        stroke-linejoin: round;
        stroke-width: 2px;
      }

      .st0, .st2 {
        fill: none;
      }

      .st1 {
        fill: #c6f;
      }

      .st2 {
        stroke-linecap: round;
      }

      .st3 {
        fill: #a39ac6;
      }
    </style>
  </defs>
  <path class="st1" d="M46.1,19.6c1.2-5.2-4.9-10.8-9.6-7.2-1.3.8-2.2,1.9-2.8,3.1-.6-1.2-1.5-2.2-2.9-3.1-8.7-5-13.2,8-5.1,13.2,4.9,3.2,7.3,5.8,8,6.4.7-.7,3.4-2.9,7.9-6.4,2.6-2,4.1-4,4.5-6Z"/>
  <g>
    <path class="st2" d="M14.4,40.3h-5.5c-1.6,0-2.8-1.3-2.8-2.8V4.4c0-1.6,1.3-2.8,2.8-2.7h46.9c1.5,0,2.8,1.2,2.8,2.7v33.1c0,1.5-1.2,2.8-2.8,2.8h-6.9l-9.6,8.3v-8.3h-7.5"/>
    <path class="st0" d="M17.2,6.8h1.7M13.6,6.8h1.8M10.1,6.8h1.8"/>
    <g>
      <path class="st2" d="M28.5,54.8v6.6M18.5,54.8v6.7M18.1,48.6c-3,3.7-3.8,7.7-3.4,13M28.9,48.5c3.1,3.7,3.9,7.6,3.5,13.1"/>
      <path class="st2" d="M18.5,43.6c.3,2.5,2.5,4.4,5.1,4.4s5.2-2.3,5.2-5.2c-.1-1.8-1.2-3.5-2.7-4.4"/>
    </g>
  </g>
  <path class="st3" d="M26.3,39.4c0-.4-.1-.7-.2-1-.7-.4-1.6-.7-2.5-.7-2.8,0-5.2,2-5.2,4.9s0,.6.1,1c.6,0,1.2.2,1.8.2,3.4,0,6-2,6-4.4Z"/>
</svg>