<svg xmlns="http://www.w3.org/2000/svg" viewBox="0 0 64 64">
  <path fill="#FF4A17" d="M28.7 13.1v1.3c0 .4-2.9 1.7-3.2 1.4l-1.1-1c-.5-.5-3.1 2.1-2.6 2.6l.9 1c.4.3-.6 2.8-.8 2.9-.1.1-.3.1-.5.1H20c-.6 0-.6 3.8 0 3.8h1.4c.4 0 1.7 2.9 1.3 3.2l-.9 1.1c-.5.5-.5.9 0 1.2l1.4 1.4c.2.5.6.5 1.2 0l1.1-1c.3-.3 3.2 1 3.2 1.4V34c0 .6.3 1 .9 1h1.8c.2 0 .4 0 .5-.1.2 0 .3-.1.4-.1.1-.1.1-.2.2-.3V14.7c0-.6.1-1.2.3-1.8.1-.1.1-.3.2-.5l-1.5-.3h-1.8c-.7 0-1 .4-1 1"/>
  <path fill="#FF4A17" d="M27.7 20.2l.1-.1c.9-.8 2-1.3 3.3-1.3-1.3 0-2.4.4-3.3 1.3l-.1.1c-.4.4-.7.8-.9 1.2-.3.6-.5 1.3-.5 2.1 0 1.3.4 2.5 1.3 3.4.4.4.9.8 1.5 1 .6.2 1.2.3 1.8.3-.7 0-1.3-.1-1.8-.3-.6-.2-1.1-.6-1.5-1-.9-.9-1.3-2.1-1.3-3.4 0-.8.2-1.5.5-2.1.2-.4.5-.8.9-1.2M41.7 23.2c0-.6-.3-.9-.9-.9h-3.2v22.5h3.2c.6 0 .9-.3.9-1v-1.4c0-.4 2.9-1.6 3.3-1.3l.8 1.1c.5.5 3-2.2 2.5-2.7l-.8-1c-.3-.4.9-3.1 1.3-3.1h1.4c.6 0 .6-3.7 0-3.7h-1.4c-.5 0-1.7-2.7-1.3-3.2l.8-.8c.5-.5-2-3.2-2.5-2.7l-.8 1c-.4.2-2.4-.4-2.4-.4l-.1-.1c-.5-.2-.8-.4-.8-.8v-1.5"/>
  <path fill="#FF4A17" d="M40.8 29.2c.6.2 1.1.6 1.5 1 .9.9 1.4 2 1.4 3.4 0 1.2-.5 2.3-1.4 3.3-.4.5-.9.8-1.5 1-.5.2-1.2.3-2 .3.8 0 1.5-.1 2-.3.6-.2 1.1-.6 1.5-1 .9-1 1.4-2.1 1.4-3.3 0-1.4-.5-2.5-1.4-3.4-.4-.4-.9-.8-1.5-1-.5-.2-1.3-.4-2.2-.4 1 .1 1.7.2 2.2.4z"/>
  <path fill="none" stroke="#081219" stroke-linecap="round" stroke-linejoin="round" stroke-width="2" d="M32.4 34.4V55c0 1.8.6 3.4 1.8 4.7 1.3 1.3 2.9 1.9 4.7 1.9H57c1.9 0 3.5-.6 4.8-1.9 1.2-1.3 1.8-2.9 1.8-4.7V15.2c0-1.8-.6-3.4-1.8-4.7-1.3-1.3-2.9-1.9-4.8-1.9H38.8c-1.7 0-3.2.7-4.5 1.9-.7.7-1.2 1.5-1.5 2.4-.2.6-.3 1.2-.3 1.8V34c0 .1-.1.3-.1.4 0 .1-.1.2-.2.3-.1.1-.2.1-.4.1-.1 0-.3.1-.5.1h-1.8c-.6 0-.9-.3-.9-1v-1.3c0-.4-2.9-1.7-3.2-1.4l-1.1 1c-.5.5-3.1-2.1-2.6-2.6l.9-1.1c.3-.3-1-3.2-1.3-3.2h-1.4c-.6 0-.6-3.8 0-3.8h1.4c.2 0 .4 0 .5-.1.2-.1 1.2-2.5.8-2.9l-.9-1c-.5-.5 2.1-3.1 2.6-2.6l1.1 1c.3.3 3.2-1 3.2-1.4v-1.3c0-.6.3-1 .9-1h1.8m1.6.2c-.1.2-.1.3-.2.5M53 8.6v-3c0-.9-.3-1.6-.8-2.1-.6-.6-1.3-1-2.2-1H4.4c-.8 0-1.6.3-2.2 1-.5.5-.7 1.2-.7 2.1v34.9c0 .9.3 1.6.8 2.2.6.6 1.4 1 2.2 1h18l-.9 6h-5.7c-.6 0-1.1.2-1.5.7-.4.5-.7 1-.7 1.7 0 .6.2 1.1.7 1.5.4.4.9.6 1.5.6h15.3m11.4-28.6l-.2-.1c-.5-.2-.8-.4-.8-.8v-1.5c0-.6-.3-.9-.9-.9H39m-1.4 22.5V22.3M39 44.8h1.8c.6 0 .9-.3.9-1v-1.4c0-.4 2.9-1.6 3.3-1.3l.8 1.1c.5.5 3-2.2 2.5-2.7l-.8-1c-.3-.4.9-3.1 1.3-3.1h1.4c.6 0 .6-3.7 0-3.7h-1.4c-.5 0-1.7-2.7-1.3-3.2l.8-.8c.5-.5-2-3.2-2.5-2.7l-.8 1c-.4.2-2.4-.4-2.4-.4m-5-3.3v-5.2c0-.4.1-.7.4-1 .4-.4.8-.7 1.2-.7h17.6c.5 0 .9.2 1.3.7.3.3.5.6.5 1M38.7 28.9c.9 0 1.7.1 2.2.4.5.2 1 .6 1.5 1 .9.9 1.4 2 1.4 3.4 0 1.2-.5 2.3-1.4 3.3-.4.5-.9.8-1.5 1-.5.2-1.2.3-2.1.3M31 28.2c-.7 0-1.3-.1-1.8-.3-.6-.2-1.1-.6-1.5-1-.9-.9-1.3-2.1-1.3-3.4 0-.8.2-1.5.5-2.1.2-.4.5-.8.9-1.2l.1-.1c.9-.8 2-1.3 3.3-1.3M31 38.1H6.3V7.8h33m19.2 9.9v32c0 .4-.1.7-.5 1-.3.4-.8.6-1.3.6H39.2c-.4 0-.8-.2-1.2-.6-.3-.3-.4-.6-.4-1v-4.9m11.2 12.7h-1.5c-.4 0-.8-.2-1.2-.5-.3-.3-.4-.6-.4-1s.1-.8.4-1.2c.3-.3.7-.5 1.2-.5h1.5c.4 0 .8.2 1.1.5.3.3.5.7.5 1.2 0 .4-.2.8-.5 1-.3.3-.7.5-1.1.5z" />
</svg>