<svg version="1.1" xmlns="http://www.w3.org/2000/svg" xmlns:xlink="http://www.w3.org/1999/xlink" width="18" height="28"><defs/><g><path fill="rgb(15,18,27)" stroke="none" paint-order="stroke fill markers" fill-rule="evenodd" d=" M 14.034318327903748 1.8888490200042725 C 14.034318327903748 1.8888490200042725 3.7999778389930725 1.8888490200042725 3.7999778389930725 1.8888490200042725 C 2.379555821418762 1.8888490200042725 1.2238731980323792 3.0334384441375732 1.2238731980323792 4.440261363983154 C 1.2238731980323792 4.440261363983154 1.2238731980323792 23.54465126991272 1.2238731980323792 23.54465126991272 C 1.2238731980323792 24.9514741897583 2.379555821418762 26.0960636138916 3.7999778389930725 26.0960636138916 C 3.7999778389930725 26.0960636138916 14.034318327903748 26.0960636138916 14.034318327903748 26.0960636138916 C 15.454567313194275 26.0960636138916 16.610076904296875 24.9514741897583 16.610076904296875 23.54465126991272 C 16.610076904296875 23.54465126991272 16.610076904296875 4.440261363983154 16.610076904296875 4.440261363983154 C 16.610076904296875 3.0334384441375732 15.454567313194275 1.8888490200042725 14.034318327903748 1.8888490200042725 Z M 14.034318327903748 25.382906436920166 C 14.034318327903748 25.382906436920166 3.7999778389930725 25.382906436920166 3.7999778389930725 25.382906436920166 C 2.77649188041687 25.382906436920166 1.9440335631370544 24.5582058429718 1.9440335631370544 23.54465126991272 C 1.9440335631370544 23.54465126991272 1.9440335631370544 5.469540119171143 1.9440335631370544 5.469540119171143 C 1.9440335631370544 5.469540119171143 14.485413491725922 5.469540119171143 14.485413491725922 5.469540119171143 C 14.684227585792542 5.469540119171143 14.84549367427826 5.3098413944244385 14.84549367427826 5.112961530685425 C 14.84549367427826 4.915917873382568 14.684227585792542 4.756382942199707 14.485413491725922 4.756382942199707 C 14.485413491725922 4.756382942199707 1.9440335631370544 4.756382942199707 1.9440335631370544 4.756382942199707 C 1.9440335631370544 4.756382942199707 1.9440335631370544 4.440261363983154 1.9440335631370544 4.440261363983154 C 1.9440335631370544 3.4267067909240723 2.77649188041687 2.602006196975708 3.7999778389930725 2.602006196975708 C 3.7999778389930725 2.602006196975708 14.034318327903748 2.602006196975708 14.034318327903748 2.602006196975708 C 15.057631254196167 2.602006196975708 15.890262603759766 3.4267067909240723 15.890262603759766 4.440261363983154 C 15.890262603759766 4.440261363983154 15.890262603759766 22.51537251472473 15.890262603759766 22.51537251472473 C 15.890262603759766 22.51537251472473 4.548861563205719 22.51537251472473 4.548861563205719 22.51537251472473 C 4.350047469139099 22.51537251472473 4.188954412937164 22.675071239471436 4.188954412937164 22.87195110321045 C 4.188954412937164 23.068994760513306 4.350047469139099 23.22869348526001 4.548861563205719 23.22869348526001 C 4.548861563205719 23.22869348526001 15.890262603759766 23.22869348526001 15.890262603759766 23.22869348526001 C 15.890262603759766 23.22869348526001 15.890262603759766 23.54465126991272 15.890262603759766 23.54465126991272 C 15.890262603759766 24.5582058429718 15.057631254196167 25.382906436920166 14.034318327903748 25.382906436920166 Z M 3.4208641052246094 22.51537251472473 C 3.4208641052246094 22.51537251472473 3.300779700279236 22.51537251472473 3.300779700279236 22.51537251472473 C 3.101965606212616 22.51537251472473 2.940872550010681 22.675071239471436 2.940872550010681 22.87195110321045 C 2.940872550010681 23.068994760513306 3.101965606212616 23.22869348526001 3.300779700279236 23.22869348526001 C 3.300779700279236 23.22869348526001 3.4208641052246094 23.22869348526001 3.4208641052246094 23.22869348526001 C 3.6196781992912292 23.22869348526001 3.780771255493164 23.068994760513306 3.780771255493164 22.87195110321045 C 3.780771255493164 22.675071239471436 3.6196781992912292 22.51537251472473 3.4208641052246094 22.51537251472473 Z M 8.917061567306519 23.76495361328125 C 8.605949521064758 23.76495361328125 8.352976322174072 24.015557765960693 8.352976322174072 24.32365345954895 C 8.352976322174072 24.631749153137207 8.605949521064758 24.88235330581665 8.917061567306519 24.88235330581665 C 9.228173613548279 24.88235330581665 9.481146812438965 24.631749153137207 9.481146812438965 24.32365345954895 C 9.481146812438965 24.015557765960693 9.228173613548279 23.76495361328125 8.917061567306519 23.76495361328125 Z M 11.041205883026123 3.258490800857544 C 11.041205883026123 3.258490800857544 6.792917251586914 3.258490800857544 6.792917251586914 3.258490800857544 C 6.594103157520294 3.258490800857544 6.433010101318359 3.418189525604248 6.433010101318359 3.6152331829071045 C 6.433010101318359 3.812113046646118 6.594103157520294 3.9718117713928223 6.792917251586914 3.9718117713928223 C 6.792917251586914 3.9718117713928223 11.041205883026123 3.9718117713928223 11.041205883026123 3.9718117713928223 C 11.240019977092743 3.9718117713928223 11.40128606557846 3.812113046646118 11.40128606557846 3.6152331829071045 C 11.40128606557846 3.418189525604248 11.240019977092743 3.258490800857544 11.041205883026123 3.258490800857544 Z"/></g></svg>