<?xml version="1.0" encoding="UTF-8"?>
<svg id="Layer_1" xmlns="http://www.w3.org/2000/svg" version="1.1" xmlns:xlink="http://www.w3.org/1999/xlink" viewBox="0 0 24 24">
  <!-- Generator: Adobe Illustrator 29.2.1, SVG Export Plug-In . SVG Version: 2.1.0 Build 116)  -->
  <defs>
    <style>
      .st0 {
        fill: none;
        stroke: #081219;
        stroke-linecap: round;
        stroke-linejoin: round;
        stroke-width: 2px;
      }
    </style>
  </defs>
  <g id="_x31_0">
    <path class="st0" d="M18.9233,17.2953c0,1.9786-1.4861,3.5475-3.4647,3.5475h-.1578"/>
    <path class="st0" d="M4.6881,11.1229v-1.6748c0-4.0382,3.2736-7.3119,7.3119-7.3119h0c4.0382,0,7.3119,3.2736,7.3119,7.3119v1.6985"/>
    <path class="st0" d="M5.4313,17.2953h-.3546c-1.1299,0-2.0459-.916-2.0459-2.0459v-2.0805c0-1.1299.916-2.0459,2.0459-2.0459h.3546c.5048,0,.9141.4092.9141.9141v4.3442c0,.5048-.4092.914-.9141.914Z"/>
    <path class="st0" d="M18.5687,11.1229h.3546c1.1299,0,2.0459.916,2.0459,2.0459v2.0805c0,1.1299-.916,2.0459-2.0459,2.0459h-.3546c-.5048,0-.9141-.4092-.9141-.9141v-4.3441c0-.5048.4092-.9141.9141-.9141Z"/>
    <path class="st0" d="M13.0851,21.8634l1.3754.0005c.4955.0002.8972-.9014.8974-1.397h0c.0002-.4955-.4013-1.3974-.8968-1.3976l-1.3754-.0005c-.4955-.0002-.8976.9014-.8977,1.397h0c-.0002.4955.4015,1.3974.8971,1.3976Z"/>
  </g>
</svg>