<svg version="1.1" xmlns="http://www.w3.org/2000/svg" xmlns:xlink="http://www.w3.org/1999/xlink" width="28" height="25"><defs/><g><path fill="rgb(15,18,27)" stroke="none" paint-order="stroke fill markers" fill-rule="evenodd" d=" M 24.003313601017 1.9921624660491943 C 24.003313601017 1.9921624660491943 3.9549280405044556 1.9921624660491943 3.9549280405044556 1.9921624660491943 C 2.8082430958747864 1.9921624660491943 1.8754260540008545 2.9318461418151855 1.8754260540008545 4.086918354034424 C 1.8754260540008545 4.086918354034424 1.8754260540008545 18.12763023376465 1.8754260540008545 18.12763023376465 C 1.8754260540008545 19.282702445983887 2.8082430958747864 20.222222328186035 3.9549280405044556 20.222222328186035 C 3.9549280405044556 20.222222328186035 11.659190475940704 20.222222328186035 11.659190475940704 20.222222328186035 C 11.659190475940704 20.222222328186035 11.260178029537201 21.880140781402588 11.260178029537201 21.880140781402588 C 10.397439062595367 21.93468403816223 9.711885154247284 22.657013654708862 9.711885154247284 23.53986096382141 C 9.711885154247284 23.784077167510986 9.909141957759857 23.98275876045227 10.151387155056 23.98275876045227 C 10.151387155056 23.98275876045227 17.806854486465454 23.98275876045227 17.806854486465454 23.98275876045227 C 18.049099683761597 23.98275876045227 18.24635648727417 23.784077167510986 18.24635648727417 23.53986096382141 C 18.24635648727417 22.621798038482666 17.505259215831757 21.875063180923462 16.594244241714478 21.875063180923462 C 16.594244241714478 21.875063180923462 11.995392203330994 21.875063180923462 11.995392203330994 21.875063180923462 C 11.995392203330994 21.875063180923462 12.393020391464233 20.222222328186035 12.393020391464233 20.222222328186035 C 12.393020391464233 20.222222328186035 15.56522125005722 20.222222328186035 15.56522125005722 20.222222328186035 C 15.56522125005722 20.222222328186035 15.784280121326447 21.13324213027954 15.784280121326447 21.13324213027954 C 15.824077546596527 21.29785466194153 15.969943761825562 21.408087730407715 16.13069075345993 21.408087730407715 C 16.158548951148987 21.408087730407715 16.186580181121826 21.404648065567017 16.215130507946014 21.397932529449463 C 16.406504213809967 21.35108757019043 16.523993134498596 21.1568284034729 16.47744745016098 20.964043378829956 C 16.47744745016098 20.964043378829956 16.29905116558075 20.222222328186035 16.29905116558075 20.222222328186035 C 16.29905116558075 20.222222328186035 24.003313601017 20.222222328186035 24.003313601017 20.222222328186035 C 25.149825513362885 20.222222328186035 26.082642555236816 19.282702445983887 26.082642555236816 18.12763023376465 C 26.082642555236816 18.12763023376465 26.082642555236816 4.086918354034424 26.082642555236816 4.086918354034424 C 26.082642555236816 2.9318461418151855 25.149825513362885 1.9921624660491943 24.003313601017 1.9921624660491943 Z M 17.492281794548035 23.264196395874023 C 17.492281794548035 23.264196395874023 10.465613782405853 23.264196395874023 10.465613782405853 23.264196395874023 C 10.5829296708107 22.87649703025818 10.941279530525208 22.59362554550171 11.363824367523193 22.59362554550171 C 11.363824367523193 22.59362554550171 11.541009426116943 22.59362554550171 11.541009426116943 22.59362554550171 C 11.54135549068451 22.59362554550171 11.541874587535858 22.59378933906555 11.541874587535858 22.59378933906555 C 11.541874587535858 22.59378933906555 11.542739748954773 22.59362554550171 11.543085813522339 22.59362554550171 C 11.543085813522339 22.59362554550171 16.594244241714478 22.59362554550171 16.594244241714478 22.59362554550171 C 17.016789078712463 22.59362554550171 17.37513893842697 22.87649703025818 17.492281794548035 23.264196395874023 Z M 24.003313601017 19.503659963607788 C 24.003313601017 19.503659963607788 3.9549280405044556 19.503659963607788 3.9549280405044556 19.503659963607788 C 3.201718509197235 19.503659963607788 2.5886651277542114 18.886322021484375 2.5886651277542114 18.12763023376465 C 2.5886651277542114 18.12763023376465 2.5886651277542114 4.086918354034424 2.5886651277542114 4.086918354034424 C 2.5886651277542114 3.3280627727508545 3.201718509197235 2.7107248306274414 3.9549280405044556 2.7107248306274414 C 3.9549280405044556 2.7107248306274414 24.003313601017 2.7107248306274414 24.003313601017 2.7107248306274414 C 24.75652313232422 2.7107248306274414 25.36940348148346 3.3280627727508545 25.36940348148346 4.086918354034424 C 25.36940348148346 4.086918354034424 25.36940348148346 16.629574298858643 25.36940348148346 16.629574298858643 C 25.36940348148346 16.629574298858643 5.456329166889191 16.629574298858643 5.456329166889191 16.629574298858643 C 5.2592453956604 16.629574298858643 5.099709630012512 16.790419578552246 5.099709630012512 16.988773584365845 C 5.099709630012512 17.187291383743286 5.2592453956604 17.34813666343689 5.456329166889191 17.34813666343689 C 5.456329166889191 17.34813666343689 25.36940348148346 17.34813666343689 25.36940348148346 17.34813666343689 C 25.36940348148346 17.34813666343689 25.36940348148346 18.12763023376465 25.36940348148346 18.12763023376465 C 25.36940348148346 18.886322021484375 24.75652313232422 19.503659963607788 24.003313601017 19.503659963607788 Z M 4.029851019382477 16.629574298858643 C 4.029851019382477 16.629574298858643 3.9436809420585632 16.629574298858643 3.9436809420585632 16.629574298858643 C 3.746943235397339 16.629574298858643 3.5870614051818848 16.790419578552246 3.5870614051818848 16.988773584365845 C 3.5870614051818848 17.187291383743286 3.746943235397339 17.34813666343689 3.9436809420585632 17.34813666343689 C 3.9436809420585632 17.34813666343689 4.029851019382477 17.34813666343689 4.029851019382477 17.34813666343689 C 4.226761758327484 17.34813666343689 4.386470556259155 17.187291383743286 4.386470556259155 16.988773584365845 C 4.386470556259155 16.790419578552246 4.226761758327484 16.629574298858643 4.029851019382477 16.629574298858643 Z M 13.979034304618835 17.90093994140625 C 13.66757619380951 17.90093994140625 13.414256930351257 18.156294107437134 13.414256930351257 18.469958782196045 C 13.414256930351257 18.783623456954956 13.66757619380951 19.038813829421997 13.979034304618835 19.038813829421997 C 14.290492415428162 19.038813829421997 14.543811678886414 18.783623456954956 14.543811678886414 18.469958782196045 C 14.543811678886414 18.156294107437134 14.290492415428162 17.90093994140625 13.979034304618835 17.90093994140625 Z"/></g></svg>