<?xml version="1.0" encoding="utf-8"?>
<!-- Generator: Adobe Illustrator 28.0.0, SVG Export Plug-In . SVG Version: 6.00 Build 0)  -->
<svg version="1.1" id="Layer_1" xmlns="http://www.w3.org/2000/svg" xmlns:xlink="http://www.w3.org/1999/xlink" x="0px" y="0px"
	 viewBox="0 0 281.41 68.32" style="enable-background:new 0 0 281.41 68.32;" xml:space="preserve">
<polygon points="93.7812,38.0647 93.4916,38.0647 87.2133,22.7551 79.812,22.7551 79.812,47.4817 85.6313,47.4817 85.6313,32.2087 
	85.8369,32.2087 91.7768,47.3254 95.4955,47.3254 101.436,32.2932 101.6415,32.2932 101.6415,47.4817 107.4609,47.4817 
	107.4609,22.7551 100.0595,22.7551 "/>
<path d="M126.2055,30.3191c-0.7407-0.5269-1.6099-0.9297-2.6079-1.2075c-0.998-0.2773-2.0889-0.4165-3.272-0.4165
	c-1.6582,0-3.0771,0.2559-4.2563,0.7671s-2.105,1.2114-2.7769,2.1006c-0.6724,0.8896-1.0889,1.8979-1.2495,3.0244l5.4453,0.1934
	c0.1284-0.5957,0.4307-1.0625,0.9053-1.4004c0.4751-0.3384,1.103-0.5073,1.8838-0.5073c0.7241,0,1.2998,0.1689,1.7266,0.5073
	c0.4263,0.3379,0.6396,0.8169,0.6396,1.4365v0.0605c0,0.3784-0.147,0.6699-0.4404,0.875c-0.2939,0.2051-0.7627,0.3623-1.4067,0.4707
	s-1.4932,0.2119-2.5474,0.3076c-0.9419,0.0811-1.8276,0.2363-2.6562,0.4648c-0.8291,0.2295-1.562,0.5664-2.1978,1.0088
	s-1.1348,1.0186-1.4971,1.7266s-0.5435,1.5771-0.5435,2.6074c0,1.2236,0.2637,2.2402,0.791,3.0488
	c0.5273,0.8096,1.2476,1.4131,2.1611,1.8115c0.9136,0.3975,1.9619,0.5967,3.1455,0.5967c0.8608,0,1.6357-0.1084,2.3242-0.3252
	c0.688-0.2178,1.2876-0.543,1.7988-0.9785c0.5112-0.4346,0.9316-0.9658,1.2617-1.5938h0.145v2.584h5.5537V34.8772
	c0-0.9819-0.2031-1.8555-0.6094-2.6201C127.5195,31.4924,126.9457,30.8464,126.2055,30.3191z M122.6801,40.8899
	c0,0.6035-0.1533,1.1328-0.459,1.5879c-0.3062,0.4541-0.7144,0.8105-1.2256,1.0684s-1.0845,0.3857-1.7207,0.3857
	c-0.6758,0-1.2334-0.1602-1.6719-0.4824c-0.439-0.3223-0.6582-0.7891-0.6582-1.4004c0-0.4023,0.1025-0.751,0.3081-1.0449
	c0.2051-0.2939,0.5029-0.5332,0.8931-0.7178c0.3906-0.1855,0.8633-0.3223,1.4189-0.4111c0.2734-0.04,0.5591-0.084,0.8574-0.1328
	c0.2974-0.0479,0.5874-0.1045,0.8691-0.1689s0.541-0.1328,0.7788-0.2051c0.2373-0.0723,0.4404-0.1533,0.6099-0.2412V40.8899z"/>
<polygon points="150.3456,28.9368 144.3945,28.9368 141.2304,35.0461 138.1757,28.9368 132.1874,28.9368 137.3066,38.2092 
	131.9218,47.4817 137.9101,47.4817 141.2304,41.3245 144.6357,47.4817 150.539,47.4817 145.1669,38.2092 "/>
<rect x="154.0703" y="28.9368" width="5.9043" height="18.5449"/>
<path d="M157.0283,21.137c-0.8291,0-1.541,0.2759-2.1367,0.8271s-0.8936,1.2134-0.8936,1.9863c0,0.7808,0.2979,1.4468,0.8936,1.998
	s1.3115,0.8271,2.1494,0.8271c0.8291,0,1.5391-0.2759,2.1309-0.8271s0.8877-1.2134,0.8877-1.9863
	c0-0.7808-0.2959-1.4468-0.8877-1.998S157.8661,21.137,157.0283,21.137z"/>
<path d="M181.623,35.4202c-0.8496-0.4907-1.7734-0.7603-2.7715-0.8086v-0.2417c0.9102-0.1929,1.7109-0.5312,2.4033-1.0142
	s1.2354-1.0928,1.6299-1.8291s0.5918-1.5757,0.5918-2.5176c0-1.2393-0.3164-2.3301-0.9482-3.272s-1.5732-1.6738-2.8252-2.1973
	s-2.8027-0.7847-4.6543-0.7847h-10.3115v24.7266h11.0967c1.8271,0,3.3799-0.2998,4.6602-0.8994
	c1.2793-0.5996,2.2578-1.4209,2.9336-2.4629c0.6768-1.042,1.0146-2.2275,1.0146-3.5557c0-1.1914-0.2578-2.2236-0.7725-3.0967
	C183.1542,36.593,182.4716,35.9114,181.623,35.4202z M170.7138,27.4997h3.4053c0.998,0,1.791,0.2378,2.3789,0.7124
	c0.5869,0.4751,0.8809,1.127,0.8809,1.9561c0,0.5796-0.1426,1.0747-0.4287,1.4854c-0.2852,0.4102-0.6816,0.7241-1.1895,0.9414
	c-0.5068,0.2173-1.0859,0.3262-1.7383,0.3262h-3.3086V27.4997z M177.2763,41.928c-0.6162,0.4912-1.5713,0.7363-2.8672,0.7363
	h-3.6953v-5.8916h3.8037c0.7646,0,1.4209,0.127,1.9678,0.3799c0.5479,0.2539,0.9697,0.6123,1.2676,1.0752
	s0.4473,1.0117,0.4473,1.6475C178.2001,40.7532,177.8925,41.4368,177.2763,41.928z"/>
<rect x="188.3349" y="22.7551" width="5.9043" height="24.7266"/>
<path d="M212.6757,29.8967c-1.3965-0.8008-3.0684-1.2017-5.0166-1.2017s-3.6201,0.4009-5.0166,1.2017s-2.4707,1.9194-3.2236,3.3564
	c-0.7529,1.4365-1.1289,3.1084-1.1289,5.0166c0,1.8994,0.376,3.5674,1.1289,5.0049c0.7529,1.4365,1.8271,2.5557,3.2236,3.3564
	c1.3965,0.7998,3.0684,1.2012,5.0166,1.2012s3.6201-0.4014,5.0166-1.2012c1.3965-0.8008,2.4707-1.9199,3.2236-3.3564
	c0.7529-1.4375,1.1289-3.1055,1.1289-5.0049c0-1.9082-0.376-3.5801-1.1289-5.0166
	C215.1464,31.8162,214.0722,30.6975,212.6757,29.8967z M210.623,40.9133c-0.2617,0.7734-0.6377,1.377-1.1289,1.8115
	c-0.4902,0.4346-1.0908,0.6523-1.7988,0.6523c-0.7324,0-1.3506-0.2178-1.8535-0.6523s-0.8848-1.0381-1.1465-1.8115
	c-0.2617-0.7725-0.3926-1.666-0.3926-2.6797c0-1.0303,0.1309-1.9316,0.3926-2.7046s0.6436-1.3765,1.1465-1.811
	s1.1211-0.6519,1.8535-0.6519c0.708,0,1.3086,0.2173,1.7988,0.6519c0.4912,0.4346,0.8672,1.0381,1.1289,1.811
	s0.3926,1.6743,0.3926,2.7046C211.0156,39.2473,210.8847,40.1409,210.623,40.9133z"/>
<path d="M228.0087,33.76c0.5146-0.3818,1.1152-0.5732,1.7988-0.5732c0.8457,0,1.5312,0.2695,2.0586,0.8091
	c0.5273,0.5391,0.8477,1.2837,0.96,2.2329h5.5176c-0.04-1.5205-0.4199-2.8467-1.1406-3.9775s-1.7188-2.0063-2.9941-2.6265
	c-1.2764-0.6196-2.7715-0.9297-4.4854-0.9297c-1.9404,0-3.6084,0.4028-5.0049,1.2075c-1.3965,0.8052-2.4707,1.9258-3.2236,3.3628
	c-0.7529,1.4365-1.1289,3.105-1.1289,5.0044c0,1.8916,0.374,3.5557,1.123,4.9922c0.748,1.4365,1.8213,2.5576,3.2178,3.3623
	s3.0723,1.208,5.0283,1.208c1.7383,0,3.2422-0.3164,4.5098-0.9482s2.2539-1.5186,2.958-2.6621
	c0.7041-1.1426,1.085-2.4795,1.1406-4.0088h-5.5176c-0.0723,0.6523-0.2451,1.2061-0.5186,1.6602
	c-0.2744,0.4551-0.6221,0.7988-1.0449,1.0322c-0.4229,0.2344-0.9072,0.3506-1.4551,0.3506c-0.6836,0-1.2842-0.1914-1.7988-0.5732
	c-0.5146-0.3828-0.916-0.9502-1.2012-1.7031c-0.2861-0.752-0.4287-1.6758-0.4287-2.7705s0.1426-2.0146,0.4287-2.7588
	C227.0927,34.7063,227.4941,34.1428,228.0087,33.76z"/>
<polygon points="260.4697,28.9368 253.7802,28.9368 248.5644,35.5774 248.2988,35.5774 248.2988,22.7551 242.3945,22.7551 
	242.3945,47.4817 248.2988,47.4817 248.2988,41.9152 249.4939,40.468 253.913,47.4817 260.7353,47.4817 253.8838,37.0193 "/>
<path d="M278.8935,38.2815c-0.9062-0.8213-2.2842-1.4082-4.1357-1.7627l-3.5742-0.6758c-0.7803-0.1611-1.3213-0.3745-1.624-0.6401
	c-0.3018-0.2656-0.4482-0.5796-0.4404-0.9414c-0.0078-0.4668,0.2275-0.8374,0.7061-1.1108
	c0.4795-0.2739,1.0605-0.4106,1.7451-0.4106c0.5234,0,0.9844,0.0864,1.3828,0.2598c0.3984,0.1729,0.7217,0.4102,0.9717,0.7124
	c0.249,0.3018,0.4023,0.6455,0.459,1.0322l5.4209-0.145c-0.1533-1.8354-0.9541-3.2778-2.4023-4.3286
	c-1.4492-1.0503-3.4297-1.5757-5.9404-1.5757c-1.6748,0-3.127,0.2339-4.3594,0.7007c-1.2314,0.4668-2.1807,1.1406-2.8486,2.022
	c-0.6689,0.8813-0.998,1.9424-0.9902,3.1816c-0.0078,1.4165,0.4424,2.5815,1.3525,3.4956c0.9092,0.9131,2.2939,1.5391,4.1533,1.877
	l3.2354,0.6162c0.7725,0.1445,1.3398,0.3438,1.7021,0.5977c0.3623,0.2529,0.5479,0.5889,0.5557,1.0078
	c-0.0078,0.4668-0.249,0.8408-0.7246,1.123c-0.4746,0.2812-1.0908,0.4229-1.8467,0.4229c-0.8379,0-1.5254-0.1777-2.0654-0.5312
	c-0.5391-0.3545-0.873-0.8701-1.002-1.5459l-5.8311,0.1445c0.2168,1.8359,1.0879,3.2988,2.6133,4.3896
	c1.5254,1.0898,3.6123,1.6357,6.2607,1.6357c1.6582,0,3.1309-0.2598,4.4189-0.7793c1.2881-0.5186,2.3037-1.249,3.0488-2.1914
	c0.7441-0.9414,1.1211-2.0479,1.1289-3.3203C280.2558,40.1897,279.7988,39.1028,278.8935,38.2815z"/>
<path d="M62.5255,33.9955c-0.1489,0.0925-0.2965,0.1904-0.442,0.2946c-1.2349,0.8839-4.7794,3.7491-4.7794,3.7491l2.9836-11.5972
	l0.2039-0.7926l1.1768-4.5741c0.2891-1.146-0.2437-2.3247-1.3013-2.8691c-1.0396-0.5283-2.3364-0.2534-3.085,0.6562l-0.906,1.1111
	l-0.3463,0.4247l-10.817,13.2655l2.9243-12.6558c0.2417-1.0835-0.2329-2.1802-1.1719-2.7231
	c-0.9409-0.5576-2.1611-0.4331-2.9644,0.3042l-20.5088,18.64l-0.8936,0.8121c-0.0126-0.0415-0.0099-0.0865-0.0132-0.1301
	l-0.1124,0.1124c-0.2066-1.1465-0.3163-2.3266-0.3163-3.5334c0-8.929,5.8008-16.4909,13.8345-19.1583
	c-0.4261-0.7627-1.5773-2.818-2.3903-4.2195c-9.4666,3.5461-16.207,12.6733-16.207,23.3778c0,4.4076,1.1469,8.5455,3.1517,12.1395
	l0.256-0.191c0.0025,0.004,0.0098,0.0157,0.0098,0.0157l3.308-3.0052l0.1064-0.0967l1.1489-1.0437l16.0656-14.5947l-3.5479,15.3525
	c-0.2607,1.1504,0.2954,2.3115,1.3457,2.8203c1.0596,0.5215,2.3174,0.2441,3.0566-0.6719l11.667-14.3066l-3.3364,12.9756
	c-0.2725,1.0391,0.1514,2.1377,1.0542,2.7334c0.897,0.5947,2.0732,0.5508,2.9258-0.1094l6.2407-4.8341
	c-0.0026,0.0069-0.005,0.0139-0.0076,0.0208l0.0702-0.0692l0.4472-0.3464l0.0498-0.0386c-0.0875,0.2667-0.2057,0.5154-0.3168,0.7682
	c-2.9839,7.4276-10.2406,12.6783-18.7353,12.6783c-4.3494,0-8.3672-1.3881-11.6636-3.7269l-2.7402,3.1782l-0.3934,0.4501
	c4.1409,3.0538,9.2572,4.8615,14.7972,4.8615c13.6247,0,24.6921-10.9185,24.9476-24.4821
	C66.9121,32.6056,64.5962,32.7095,62.5255,33.9955z"/>
</svg>
