<?xml version="1.0" encoding="utf-8"?>
<!-- Generator: Adobe Illustrator 26.2.1, SVG Export Plug-In . SVG Version: 6.00 Build 0)  -->
<svg version="1.1" id="Layer_1" xmlns="http://www.w3.org/2000/svg" xmlns:xlink="http://www.w3.org/1999/xlink" x="0px" y="0px"
	 viewBox="0 0 305 89.9" style="enable-background:new 0 0 305 89.9;" xml:space="preserve">
<style type="text/css">
	.st0{fill:#FFFFFF;}
</style>
<g>
	<g>
		<path class="st0" d="M112.7,61.3c-2.5,2.7-5.9,4.2-9.9,4.2C95,65.6,89,59.3,89,51.5c0-7.9,5.9-14.1,13.8-14.1c4,0,7.4,1.6,9.9,4.2
			v-2c0-1.2,1-2.1,2.1-2.1c1.2,0,2.1,1,2.1,2.1v23.6c0,1.2-0.9,2.2-2.1,2.2s-2.1-1-2.1-2.2C112.7,63.2,112.7,61.3,112.7,61.3z
			 M112.7,51.9v-0.8c-0.2-5.5-4.4-9.7-9.7-9.7c-5.4,0-9.7,4.4-9.7,10.1s4.3,10.1,9.7,10.1C108.3,61.6,112.5,57.4,112.7,51.9z"/>
		<path class="st0" d="M131.5,54.7l-8.4,10c-0.4,0.5-0.9,0.7-1.5,0.7c-1.1,0-2-0.9-2-2c0-0.5,0.2-0.9,0.5-1.3l8.9-10.6L120,41
			c-0.3-0.4-0.5-1-0.5-1.4c0-1.2,1.1-2.1,2.2-2.1c0.6,0,1.2,0.3,1.6,0.7l8.4,10l8.4-10c0.4-0.5,0.9-0.7,1.5-0.7c1.1,0,2,0.8,2,2
			c0,0.4-0.2,0.9-0.5,1.3l-8.9,10.6l8.9,10.6c0.3,0.4,0.5,0.9,0.5,1.4c0,1.2-1.1,2.1-2.2,2.1c-0.6,0-1.2-0.3-1.6-0.8L131.5,54.7z"/>
		<path class="st0" d="M145.7,31.4c0-1.5,1.2-2.7,2.7-2.7c1.4,0,2.7,1.2,2.7,2.7c0,1.4-1.2,2.7-2.7,2.7
			C146.9,34,145.7,32.8,145.7,31.4z M146.3,39.6c0-1.2,0.9-2.1,2.1-2.1c1.2,0,2.1,1,2.1,2.1v23.6c0,1.2-1,2.2-2.1,2.2
			c-1.2,0-2.1-1-2.1-2.2V39.6z"/>
		<path class="st0" d="M169.9,61.3v2c0,1.2-1,2.2-2.1,2.2c-1.2,0-2.1-1-2.1-2.2V29.5c0-1.2,0.9-2.1,2.1-2.1c1.2,0,2.1,1,2.1,2.1
			v12.1c2.4-2.6,5.9-4.2,9.9-4.2c7.8,0,13.8,6.2,13.8,14.1s-5.9,14.1-13.8,14.1C175.9,65.6,172.4,64,169.9,61.3z M189.3,51.5
			c0-5.7-4.3-10.1-9.7-10.1c-5.3,0-9.5,4.2-9.7,9.7v0.8c0.2,5.5,4.4,9.7,9.7,9.7C185,61.6,189.3,57.2,189.3,51.5z"/>
		<path class="st0" d="M197,29.5c0-1.2,0.9-2.1,2.1-2.1c1.2,0,2.1,1,2.1,2.1v33.7c0,1.2-1,2.2-2.1,2.2c-1.2,0-2.1-1-2.1-2.2V29.5z"
			/>
		<path class="st0" d="M204.5,51.5c0-7.9,6.1-14.1,14-14.1c8,0,14,6.2,14,14.1s-6,14.1-14,14.1S204.5,59.3,204.5,51.5z M228.2,51.5
			c0-5.6-4.2-10.1-9.7-10.1s-9.7,4.5-9.7,10.1s4.2,10.1,9.7,10.1S228.2,57.1,228.2,51.5z"/>
		<path class="st0" d="M234.6,51.5c0-7.9,6.1-14.1,14-14.1c4.4,0,8.1,1.9,10.4,4.6c0.4,0.4,0.6,1,0.6,1.5c0,1.2-0.9,2-2.1,2
			c-0.8,0-1.2-0.4-1.8-0.9c-1.6-1.9-4-3.2-7.1-3.2c-5.4,0-9.7,4.5-9.7,10.1s4.3,10.1,9.7,10.1c3,0,5.4-1.3,7.1-3.2
			c0.5-0.5,1-1,1.8-1c1.2,0,2.1,0.8,2.1,2c0,0.4-0.3,1-0.6,1.4c-2.2,2.7-5.9,4.6-10.4,4.6C240.7,65.6,234.6,59.3,234.6,51.5z"/>
		<path class="st0" d="M263,29.5c0-1.2,0.9-2.1,2.1-2.1s2.1,1,2.1,2.1v33.7c0,1.2-1,2.2-2.1,2.2c-1.2,0-2.1-1-2.1-2.2V29.5z
			 M269.4,52.8c-0.3-0.4-0.6-1-0.6-1.6c0-0.5,0.2-1.1,0.6-1.5l9.6-11.4c0.4-0.5,0.9-0.7,1.5-0.7c1.1,0,2,0.8,2,2
			c0,0.4-0.2,0.9-0.5,1.3L273.4,51l9.2,10.9c0.3,0.4,0.5,0.9,0.5,1.4c0,1.2-1.1,2.1-2.2,2.1c-0.6,0-1.2-0.3-1.6-0.8L269.4,52.8z"/>
		<path class="st0" d="M285.2,57.1c0.7,0,1.5,0.4,1.8,1.3c0.5,1.5,1.9,3.4,4.7,3.4c2.5,0,4.2-1.9,4.2-3.9c0-2.7-2.1-3.9-4.9-4.8
			c-3.7-1.2-7.4-2.7-7.4-7.9c0-4.4,3.5-7.7,8.2-7.7c4.5,0,8.2,2.8,8.2,6.4c0,1.1-0.9,1.9-1.9,1.9c-0.6,0-1.5-0.3-1.9-1.5
			c-0.4-1.4-2-3-4.5-3c-2.6,0-4.1,1.9-4.1,3.9c0,2.8,2.5,3.8,5.7,4.8c3.3,1,6.8,2.9,6.8,7.9c0,4.2-3.6,7.8-8.4,7.8
			c-4.6,0-8.4-3.1-8.4-6.6C283.3,57.9,284.2,57.1,285.2,57.1z"/>
	</g>
	<path class="st0" d="M12,60.8c-0.9,0-1.8-0.6-2.1-1.5c-4.7-13.1-3.3-25.9,4-36.1C21.2,13.1,33.4,6.7,45.3,6.9c1.2,0,2.2,1,2.2,2.2
		s-1.1,2.2-2.2,2.2C34.9,11.2,24,16.8,17.6,25.8c-4.5,6.4-8.8,17.1-3.5,32.1c0.4,1.2-0.2,2.4-1.3,2.8C12.5,60.8,12.3,60.8,12,60.8z"
		/>
	<path class="st0" d="M45.2,83.1c-4.3,0-18.9-1-29.2-13.6c-0.8-0.9-0.6-2.3,0.3-3.1c1-0.8,2.3-0.6,3.1,0.3c9,11.1,22,12,25.7,12
		c17.8,0,31.7-12.9,33.7-31.3c0.1-1.2,1.2-2.1,2.4-2c1.2,0.1,2.1,1.2,2,2.4C81.1,68.5,65.4,83.1,45.2,83.1z"/>
	<path class="st0" d="M7.1,65.4c-0.6,0-1.2-0.2-1.6-0.7c-0.8-0.9-0.8-2.3,0.1-3.1l43.9-39.9c0.7-0.7,1.8-0.8,2.6-0.3s1.3,1.5,1,2.4
		l-6.8,28l24.1-29.5c0.7-0.8,1.8-1,2.7-0.6s1.4,1.5,1.1,2.5L66,56.4l13.7-10.6c1-0.7,2.4-0.6,3.1,0.4s0.6,2.4-0.4,3.1L63.7,63.9
		c-0.7,0.6-1.8,0.6-2.6,0.1s-1.2-1.5-0.9-2.4l7.4-28.8L43.7,62.1c-0.7,0.8-1.8,1-2.7,0.6c-0.9-0.5-1.4-1.5-1.2-2.5l7.4-30.5
		L8.5,64.8C8.1,65.2,7.6,65.4,7.1,65.4z"/>
</g>
</svg>
