<?xml version="1.0" encoding="UTF-8"?>
<svg id="Layer_1" xmlns="http://www.w3.org/2000/svg" version="1.1" viewBox="0 0 541.4717 127.1351">
  <!-- Generator: Adobe Illustrator 29.2.1, SVG Export Plug-In . SVG Version: 2.1.0 Build 116)  -->
  <defs>
    <style>
      .st0 {
        fill: #82c251;
      }
    </style>
  </defs>
  <g>
    <polygon points="186.3328 51.5426 185.7683 51.5426 173.9167 22.7599 159.9956 22.7599 159.9956 69.2262 170.9067 69.2262 170.9067 40.4435 171.2829 40.4435 182.5704 68.85 189.5308 68.85 200.6302 40.6314 201.0065 40.6314 201.0065 69.2262 212.1056 69.2262 212.1056 22.7599 198.1845 22.7599 186.3328 51.5426"/>
    <path d="M247.2845,36.869c-1.3167-.9405-3.01-1.693-4.8912-2.2575-1.8812-.5642-3.9505-.7525-6.2079-.7525-3.1979,0-5.8317.5642-8.0891,1.505s-3.9505,2.2575-5.2674,3.9505c-1.3167,1.693-2.0692,3.5742-2.2575,5.6437l10.1587.3762c.1879-1.1287.7525-2.0692,1.6929-2.6337.9405-.5642,2.0692-.9405,3.5742-.9405,1.3167,0,2.4455.3762,3.1979.9405s1.1288,1.505,1.1288,2.6337v.188c0,.7525-.1879,1.3167-.7525,1.693s-1.505.7525-2.6338.9405-2.8217.3762-4.7029.5642c-1.6929.188-3.3862.3762-5.0792.9405-1.505.3762-3.01,1.1287-4.1387,1.8812s-2.0692,1.8812-2.8217,3.198-.9405,3.01-.9405,4.8912c0,2.2575.5645,4.1387,1.505,5.6437s2.2575,2.6337,4.1387,3.3862c1.6929.7525,3.7624,1.1287,5.8317,1.1287,1.6929,0,3.01-.188,4.3267-.5642s2.4455-.9405,3.3862-1.8812c.9405-.7525,1.6929-1.8812,2.4455-3.01h.1879v4.8912h10.5349v-23.7035c0-1.8812-.3762-3.5742-1.1288-4.8912-.7525-1.505-1.8812-2.8217-3.1979-3.7625v.0008ZM240.7004,56.81c0,1.1287-.3762,2.0692-.9405,3.01s-1.3167,1.505-2.2575,2.0692-2.0692.7525-3.1979.7525c-1.3167,0-2.2575-.3762-3.1979-.9405-.7525-.5642-1.3167-1.505-1.3167-2.6337,0-.7525.1879-1.505.5645-1.8812.3762-.5642.9405-.9405,1.6929-1.3167s1.6929-.5642,2.6338-.7525c.5645,0,1.1288-.188,1.6929-.188s1.1288-.188,1.6929-.3762.9405-.188,1.505-.3762c.3762-.188.7525-.3762,1.1288-.3762v3.01h0l-.0004-.0003Z"/>
    <polygon points="292.6222 34.2352 281.5228 34.2352 275.5031 45.7109 269.8594 34.2352 258.5719 34.2352 268.1661 51.7309 258.0074 69.2262 269.2949 69.2262 275.5031 57.5625 281.8993 69.2262 292.9984 69.2262 283.0277 51.7309 292.6222 34.2352"/>
    <rect x="299.7709" y="34.2352" width="11.0991" height="34.8027"/>
    <path d="M305.2263,19.5619c-1.505,0-2.8217.5642-3.9505,1.505s-1.6929,2.2575-1.6929,3.7625.5645,2.6337,1.6929,3.7625,2.4455,1.505,3.9505,1.505,2.8217-.5642,3.9505-1.505,1.6929-2.2575,1.6929-3.7625-.5645-2.6337-1.6929-3.7625-2.2575-1.505-3.9505-1.505Z"/>
    <path d="M351.5046,46.4634c-1.505-.9405-3.3862-1.505-5.2674-1.505v-.3762c1.6929-.3762,3.1979-.9405,4.515-1.8812s2.2575-2.0692,3.01-3.3862,1.1288-3.01,1.1288-4.703c0-2.2575-.5645-4.3267-1.6929-6.2079s-3.01-3.198-5.2674-4.1387-5.2674-1.505-8.8417-1.505h-19.3766v46.4663h20.8816c3.3862,0,6.3962-.5642,8.8417-1.693,2.4455-1.1287,4.3267-2.6337,5.4555-4.703,1.3167-1.8812,1.8812-4.1387,1.8812-6.7724,0-2.2575-.5645-4.1387-1.505-5.8317-.7525-1.505-2.0695-2.8217-3.7624-3.7625l-.0002-.0005ZM330.999,31.6015h6.3962c1.8812,0,3.3862.3762,4.515,1.3167s1.6929,2.0692,1.6929,3.7625c0,1.1287-.1883,2.0692-.7525,2.8217-.5645.7525-1.3167,1.3167-2.2575,1.693s-2.0695.5642-3.1979.5642h-6.2079l-.1879-10.1587h0l-.0004.0006ZM343.4152,58.6913c-1.1288.9405-3.01,1.3167-5.4555,1.3167h-6.9605v-11.0991h7.1487c1.505,0,2.6338.188,3.7624.7525.9405.5642,1.8812,1.1287,2.4455,2.0692s.7525,1.8812.7525,3.01c0,1.8812-.5645,3.01-1.6933,3.9505l.0002.0003Z"/>
    <rect x="364.1088" y="22.7599" width="11.0991" height="46.4663"/>
    <path d="M410.0106,36.1165c-2.6338-1.505-5.8317-2.2575-9.4062-2.2575s-6.7724.7525-9.4062,2.2575c-2.6338,1.505-4.7029,3.5742-6.02,6.3962-1.505,2.6337-2.0695,5.8317-2.0695,9.4062s.7525,6.7724,2.0695,9.4062c1.505,2.6337,3.3862,4.8912,6.02,6.3962s5.8317,2.2575,9.4062,2.2575,6.7724-.7525,9.4062-2.2575,4.7029-3.5742,6.02-6.3962c1.505-2.6337,2.0695-5.8317,2.0695-9.4062s-.7525-6.7724-2.0695-9.4062c-1.505-2.8217-3.3862-4.8912-6.02-6.3962ZM406.0601,56.81c-.5645,1.505-1.1288,2.6337-2.0695,3.3862-.9405.7525-2.0695,1.3167-3.3862,1.3167s-2.6338-.3762-3.5742-1.3167-1.6929-1.8812-2.0695-3.3862c-.5645-1.505-.7525-3.198-.7525-5.0792s.1883-3.5742.7525-5.0792,1.1288-2.6337,2.0695-3.3862,2.0695-1.3167,3.5742-1.3167c1.3167,0,2.4455.3762,3.3862,1.3167.9405.7525,1.6929,1.8812,2.0695,3.3862s.7525,3.198.7525,5.0792-.1883,3.5742-.7525,5.0792Z"/>
    <path d="M438.7934,43.4534c.9405-.7525,2.0695-1.1287,3.3862-1.1287,1.505,0,2.8217.5642,3.9505,1.505.9405.9405,1.505,2.4455,1.8812,4.1387h10.3467c0-2.8217-.7525-5.2675-2.0695-7.5249s-3.1979-3.7625-5.6437-4.8912-5.2674-1.693-8.4654-1.693c-3.5742,0-6.7724.7525-9.4062,2.2575-2.6338,1.505-4.7029,3.5742-6.02,6.3962-1.505,2.6337-2.0695,5.8317-2.0695,9.4062s.7525,6.7724,2.0695,9.4062c1.3167,2.6337,3.3862,4.8912,6.02,6.3962s5.8317,2.2575,9.4062,2.2575c3.1979,0,6.02-.5642,8.4654-1.693s4.3267-2.8217,5.6437-5.0792c1.3167-2.0692,2.0695-4.703,2.0695-7.5249h-10.3467c-.1883,1.3167-.3762,2.2575-.9405,3.198s-1.1288,1.505-1.8812,1.8812-1.6929.7525-2.8217.7525c-1.3167,0-2.4455-.3762-3.3862-1.1287-.9405-.7525-1.6929-1.8812-2.2575-3.198-.5645-1.505-.7525-3.198-.7525-5.2675s.1883-3.7625.7525-5.2675c.3762-1.505,1.1288-2.6337,2.0692-3.1982v-.0002Z"/>
    <polygon points="499.9333 34.2352 487.3292 34.2352 477.5468 46.8397 476.9823 46.8397 476.9823 22.7599 465.8832 22.7599 465.8832 69.2262 476.9823 69.2262 476.9823 58.6913 479.2398 56.0576 487.5172 69.2262 500.3096 69.2262 487.5172 49.4734 499.9333 34.2352"/>
    <path d="M534.5481,51.9188c-1.6929-1.505-4.3267-2.6337-7.7129-3.3862l-6.7724-1.3167c-1.505-.3762-2.4455-.7525-3.01-1.1287-.5643-.5642-.7525-1.1287-.7525-1.693,0-.9405.3762-1.505,1.317-2.0692s2.0695-.7525,3.1983-.7525c.9405,0,1.8812.188,2.6338.5642s1.317.7525,1.8812,1.3167c.3762.5642.7525,1.1287.9405,1.8812l10.1587-.188c-.3762-3.3862-1.8812-6.2079-4.515-8.0892-2.6338-2.0692-6.3962-3.01-11.0991-3.01-3.1983,0-5.8317.3762-8.2774,1.3167-2.2575.9405-4.1387,2.0692-5.2674,3.7625-1.317,1.693-1.8812,3.5742-1.8812,6.0199,0,2.6337.7525,4.8912,2.6338,6.5842,1.6929,1.693,4.3267,2.8217,7.9012,3.5742l6.02,1.1287c1.505.188,2.4455.5642,3.1983,1.1287.7525.5642.9405,1.1287,1.1288,1.8812,0,.9405-.3762,1.505-1.317,2.0692s-2.0695.7525-3.3862.7525c-1.505,0-2.8217-.3762-3.9505-.9405-.9405-.7525-1.6929-1.693-1.8812-2.8217l-10.9111.188c.3762,3.3862,2.0695,6.2079,4.8912,8.2774,2.8217,2.0692,6.7724,3.01,11.8516,3.01,3.1983,0,5.8317-.5642,8.2774-1.505s4.3267-2.2575,5.6437-4.1387c1.317-1.693,2.0695-3.7625,2.0695-6.2079-.3762-2.6337-1.317-4.703-3.01-6.2079l-.0008-.0003Z"/>
  </g>
  <path d="M117.4964,59.471c-.2541.2541-.7623.5082-1.0164.7623-3.0494,2.287-12.1973,9.4021-12.1973,9.4021l7.6234-29.477.5083-2.0329,3.0494-11.6892c.7623-2.7952-.5083-5.8446-3.3034-7.3692-2.5411-1.2706-5.8445-.7623-7.8775,1.7788l-2.287,3.0493-1.0164,1.0164-27.444,33.7969,7.3692-32.2722c.5083-2.7952-.5083-5.5905-3.0494-6.861-2.287-1.5247-5.5905-1.0164-7.6234.7623l-51.8388,47.2648-2.287,2.0329v-.2541l-.2541.2541c-.5083-2.7952-.7623-5.8446-.7623-8.8939,0-22.6159,14.7385-41.9284,35.0674-48.7895-1.0164-2.0329-4.0658-7.1151-6.0987-10.6727C19.9176,10.1733,2.8921,33.5516,2.8921,60.7415c0,11.1809,2.7952,21.5995,8.1316,30.7475l.7623-.5082h0l8.3857-7.6234.2541-.2541,2.7952-2.5411,40.912-37.1003-8.8939,39.1332c-.7623,3.0493.7623,5.8446,3.3034,7.1151,2.7952,1.2706,5.8445.5082,7.8775-1.7788l29.477-36.338-8.3857,33.0345c-.7623,2.5411.5083,5.3364,2.7952,6.861,2.287,1.5247,5.3364,1.5247,7.3692-.2541l15.755-12.1974h0l.2541-.2541,1.0164-.7623h0c-.2541.7623-.5083,1.2706-.7623,2.0329-7.6234,18.8043-25.9194,32.2722-47.5189,32.2722-10.9268,0-21.3454-3.5575-29.7311-9.4021l-6.861,8.1316-1.0164,1.2706c10.4186,7.8775,23.6324,12.4515,37.6085,12.4515,34.5592-.7623,62.5115-28.4605,63.2738-62.7656-1.0164-6.0987-6.861-5.8446-12.1973-2.5411h-.0002Z"/>
  <g>
    <path class="st0" d="M161.9235,115.8717v-30.6407h12.2672c2.2561,0,4.1347.336,5.6398,1.0045s2.6402,1.5907,3.3978,2.7735,1.1347,2.5404,1.1347,4.0764c0,1.1965-.2367,2.2455-.7166,3.151-.4799.9016-1.1347,1.6388-1.9678,2.215-.8331.5726-1.7828.9771-2.849,1.2172v.2984c1.1656.0513,2.2595.3806,3.2843.9873,1.0216.6102,1.8513,1.4605,2.4892,2.5509.6376,1.0936.9599,2.393.9599,3.8984,0,1.6252-.4045,3.0755-1.2071,4.3474s-1.985,2.2764-3.5519,3.0137-3.4971,1.1073-5.7908,1.1073h-13.0901v-.0004ZM168.4,98.0535h4.8035c.8879,0,1.6799-.1577,2.3727-.4732.6927-.3121,1.241-.7577,1.6459-1.3373s.6071-1.272.6071-2.0812c0-1.1073-.3943-1.9987-1.1761-2.6777s-1.8927-1.015-3.329-1.015h-4.9233v7.5841l-.0007.0003ZM168.4,110.5745h5.2835c1.8035,0,3.1201-.3462,3.9497-1.0388.8265-.6927,1.241-1.6182,1.241-2.7735,0-.8503-.2057-1.5978-.6137-2.2455s-.9907-1.1554-1.7417-1.5258c-.7542-.3704-1.649-.5554-2.6879-.5554h-5.4309v8.1395-.0004Z"/>
    <path class="st0" d="M208.6888,85.2306h6.4799v19.8994c0,2.2354-.5315,4.1898-1.5943,5.8628-1.0627,1.6764-2.544,2.9828-4.4504,3.9153-1.9064.9325-4.1245,1.3987-6.6583,1.3987-2.544,0-4.7656-.4662-6.6719-1.3987s-3.3873-2.2388-4.4433-3.9153c-1.0561-1.6732-1.5872-3.6274-1.5872-5.8628v-19.8994h6.4799v19.3439c0,1.1691.257,2.2044.7713,3.1131.5109.9086,1.2376,1.6216,2.177,2.1395.936.5179,2.0296.7783,3.2742.7783,1.2583,0,2.3519-.2605,3.2843-.7783.9325-.5178,1.6561-1.2309,2.1704-2.1395s.7682-1.9439.7682-3.1131v-19.3439h.0001Z"/>
    <path class="st0" d="M226.9732,85.2306v30.6407h-6.4799v-30.6407h6.4799Z"/>
    <path class="st0" d="M232.3114,115.8717v-30.6407h6.4799v25.2994h13.1347v5.3417h-19.6147v-.0004Z"/>
    <path class="st0" d="M267.0805,115.8717h-10.8618v-30.6407h10.9541c3.0822,0,5.7325.6137,7.9576,1.8344s3.936,2.9761,5.1395,5.2592c1.2035,2.2831,1.8035,5.0159,1.8035,8.1978,0,3.192-.6,5.9347-1.8035,8.2287-1.2035,2.294-2.921,4.0525-5.1598,5.28-2.2424,1.2274-4.9165,1.8411-8.0296,1.8411v-.0004ZM262.6987,110.3207h4.1144c1.913,0,3.5281-.343,4.8411-1.0252,1.3095-.6822,2.2971-1.7452,2.9625-3.185.6618-1.4433.9943-3.3051.9943-5.5885,0-2.2627-.3325-4.1144-.9943-5.551-.6654-1.4366-1.649-2.4927-2.9554-3.1713s-2.9178-1.0181-4.8345-1.0181h-4.1281v19.5392Z"/>
    <path class="st0" d="M286.8595,115.8717v-30.6407h20.6468v5.3417h-14.1668v7.3028h13.1038v5.3382h-13.1038v7.3166h14.2283v5.3417h-20.7083v-.0003Z"/>
    <path class="st0" d="M312.6662,115.8717v-30.6407h12.0891c2.3144,0,4.2926.4115,5.9316,1.2344,1.6424.823,2.8936,1.985,3.7577,3.4869.8605,1.5016,1.2927,3.264,1.2927,5.2901,0,2.0331-.4389,3.7815-1.3166,5.2423-.8777,1.4608-2.1462,2.5819-3.8058,3.3599-1.6627.7783-3.6684,1.1656-6.0238,1.1656h-8.0914v-5.208h7.0455c1.2376,0,2.2627-.1682,3.0822-.5073.8159-.3395,1.4261-.8468,1.8309-1.5258s.6071-1.5223.6071-2.5267c0-1.0181-.2022-1.8755-.6071-2.5748s-1.015-1.2274-1.8376-1.5943c-.823-.3634-1.8583-.5452-3.1064-.5452h-4.3679v25.3439h-6.4799l-.0004-.0003ZM329.2159,101.9277l7.6147,13.9439h-7.1519l-7.4503-13.9439h6.9876Z"/>
  </g>
</svg>