<?xml version="1.0" encoding="UTF-8"?>
<svg id="Layer_1" xmlns="http://www.w3.org/2000/svg" version="1.1" xmlns:xlink="http://www.w3.org/1999/xlink" viewBox="0 0 64 64">
  <!-- Generator: Adobe Illustrator 29.2.1, SVG Export Plug-In . SVG Version: 2.1.0 Build 116)  -->
  <defs>
    <style>
      .st0 {
        fill: none;
      }

      .st0, .st1, .st2 {
        stroke: #081219;
        stroke-linecap: round;
        stroke-linejoin: round;
        stroke-width: 2px;
      }

      .st1 {
        fill: #a39ac6;
      }

      .st2 {
        fill: #82c251;
      }
    </style>
  </defs>
  <g>
    <path class="st0" d="M12.7,21.8h8c.3,0,.5-.4.2-.6l-1.8-1.1c-.2-.1-.3-.5,0-.7,2-1.7,3.2-4.3,3.2-7.2,0-5.1-4.2-9.3-9.3-9.4C7.7,2.8,3.4,7,3.4,12.2c0,5.1,4.1,9.3,9.2,9.4l.1.2Z"/>
    <path class="st0" d="M43.6,3.9s.2,0,.3.1c0,0-.2,0-.3-.1Z"/>
    <path class="st0" d="M45.9,5.1c.1,0,.2.2.4.2-.1,0-.2-.2-.4-.2Z"/>
    <path class="st0" d="M44.9,4.5s.2.1.3.2c0,0-.2-.1-.3-.2Z"/>
    <path class="st0" d="M39.9,3h.4-.4Z"/>
    <path class="st0" d="M41.1,3.2h.4-.4Z"/>
    <path class="st0" d="M42.3,3.5c.1,0,.3,0,.4.1-.1,0-.3,0-.4-.1Z"/>
    <polygon class="st0" points="50.8 38.4 49.8 38 49.8 38 50.8 38.4"/>
    <polygon class="st0" points="49.1 37.6 48 37.2 48 37.2 49.1 37.6"/>
    <path class="st0" d="M31.5,36.2c-.2,0-.3.2-.5.3h0c.2,0,.3-.2.5-.3Z"/>
    <path class="st0" d="M34,31.9h0c0,1.8-.9,3.4-2.3,4.3,1.4-.9,2.3-2.5,2.3-4.2v-.1Z"/>
    <path class="st0" d="M44.8,35.4c.4.4.9.8,1.5,1l1.7.7h0l-1.7-.7c-.6-.2-1.1-.6-1.5-1Z"/>
    <path class="st0" d="M49.8,38l-.7-.3.7.3Z"/>
    <path class="st0" d="M31.5,36.2h.2-.2Z"/>
    <polygon class="st0" points="31 36.5 31 36.5 29.4 37.2 29.4 37.2 31 36.5"/>
    <path class="st0" d="M43.3,31.9c0,1.4.6,2.6,1.5,3.5-.9-.9-1.5-2.2-1.5-3.5h0Z"/>
    <path class="st0" d="M49.1,37.6l-1.1-.5-1.7-.7c-.6-.2-1.1-.6-1.5-1-.9-.9-1.5-2.2-1.5-3.5h0c-1,.4-2.1.7-3.2.7h-2.9c-1.1,0-2.2-.2-3.2-.7h0c0,1.8-.9,3.4-2.3,4.3h-.2c-.2,0-.3.2-.5.3h0l-1.6.7-.8.3v3.4c2.4.7,6,1.5,10.3,1.4,4.1,0,7.4-.9,9.7-1.6v-3.2h0l1.2.5h0l-.7-.3v-.1Z"/>
    <path class="st0" d="M60.6,47.8v13.3h0v-13.3c0-3.1-1.8-6-4.7-7.2l-5.1-2.2,5.1,2.2c2.9,1.3,4.7,4.1,4.7,7.2Z"/>
    <path class="st2" d="M55.9,40.6l-5.1-2.2-1-.4-1.2-.5h0v3.2c-2.3.7-5.7,1.5-9.7,1.6-4.3,0-7.9-.7-10.3-1.4v-3.4l.8-.3h0l-1.3.6-6.6,2.9c-2.9,1.2-4.8,4.1-4.8,7.3v13.2h8l-1.5-13.9c-.1-1.1.7-2,1.8-2h28.1c1.1,0,1.9.9,1.8,2l-1.5,13.9h7.2v-13.3c0-3.1-1.8-5.9-4.7-7.2v-.1Z"/>
    <path class="st0" d="M47.9,21.1h0v-4c0-2.8-2.3-5.1-5.1-5.1h-1.6c-.9.7-1.9,1.5-3,2.1-3.5,2.1-6.8,2.8-8.8,3h-.1v7.7c0,3.2,1.9,5.9,4.7,7.2h0c1,.4,2.1.7,3.2.7h2.9c1.1,0,2.2-.2,3.2-.7h0c2.7-1.2,4.6-3.9,4.6-7-.5.6-1,1.2-1.7,1.8-1,.8-2.2,1.4-3.5,1.7h0c-.3.4-.8.7-1.4.7h-2.1c-.9,0-1.7-.8-1.7-1.7s.8-1.7,1.7-1.7h2.1c.6,0,1.2.3,1.5.8"/>
    <path class="st0" d="M47.9,24.9h0v-3.9h0v3.9Z"/>
    <path class="st0" d="M42.8,26.5c.2.3.3.6.3.9s-.1.7-.3,1h0c1.3-.3,2.5-.9,3.5-1.7.7-.5,1.3-1.1,1.7-1.8v-3.9h0"/>
    <path class="st0" d="M42.8,26.5c-.3-.5-.8-.8-1.5-.8h-2.1c-.9,0-1.7.8-1.7,1.7s.8,1.7,1.7,1.7h2.1c.6,0,1.1-.3,1.4-.7.2-.3.3-.6.3-1,0-.3,0-.6-.3-.9h.1Z"/>
    <path class="st0" d="M46.6,5.6c-.1,0-.2-.2-.3-.2.1,0,.2.2.3.2h0Z"/>
    <path class="st0" d="M45.2,4.7c.2.1.5.3.7.4-.2-.2-.5-.3-.7-.4Z"/>
    <path class="st0" d="M41.6,3.3c.3,0,.5.1.8.2-.3,0-.5-.1-.8-.2Z"/>
    <path class="st0" d="M42.7,3.6c.3,0,.6.2.8.3-.3-.1-.5-.2-.8-.3Z"/>
    <path class="st0" d="M43.9,4c.4.2.7.3,1,.5-.3-.2-.7-.3-1-.5Z"/>
    <path class="st0" d="M38.7,3h1.2-1.2Z"/>
    <path class="st0" d="M40.3,3.1c.3,0,.6,0,.8.1-.3,0-.5,0-.8-.1Z"/>
    <path class="st1" d="M54.2,26.8c-1.5-1.8-2.4-4.1-2.4-6.5v-4.3c0-4.3-2.1-8.1-5.2-10.4-.1,0-.2-.2-.3-.2s-.2-.2-.4-.2c-.2-.2-.5-.3-.7-.4,0,0-.2-.1-.3-.2-.3-.2-.7-.3-1-.5,0,0-.2,0-.3-.1-.3-.1-.5-.2-.8-.3-.1,0-.3,0-.4-.1-.3,0-.5-.1-.8-.2h-.4c-.3,0-.5,0-.8-.1h-1.6c-1.8,0-3.5.4-5.1,1-.6.2-1.2.5-1.7.9s-1.1.7-1.5,1.1c-.4.3-.7.6-1,1-2.3,2.4-3.7,5.6-3.7,9.1v4.1c0,2.4-.8,4.6-2.3,6.4l-.2.2c-3.4,4.1-.5,10.3,4.9,10.3h1.5l1.6-.7c.2,0,.3-.2.5-.3h.2c1.4-.9,2.3-2.5,2.3-4.2h0c-2.7-1.3-4.7-4-4.7-7.2v-7.7h.1c2-.3,5.3-1,8.8-3,1.1-.7,2.1-1.4,3-2.1h1.6c2.8,0,5.1,2.3,5.1,5.1v4h0v3.9h0c0,3.1-2,5.8-4.6,7h0c0,1.4.6,2.6,1.5,3.5.4.4.9.8,1.5,1l1.7.7h1.3c5.4,0,8.3-6.3,4.8-10.4l-.2-.2Z"/>
    <path class="st0" d="M53.1,45.1h-28.1c-1.1,0-1.9.9-1.8,2l1.5,13.9h28.7l1.5-13.9c.1-1.1-.7-2-1.8-2ZM39.1,56c-1.4,0-2.5-1.1-2.5-2.5s1.1-2.5,2.5-2.5,2.5,1.1,2.5,2.5-1.1,2.5-2.5,2.5Z"/>
    <path class="st0" d="M16.7,61H3.9"/>
    <line class="st0" x1="60.6" y1="61" x2="60.6" y2="61"/>
    <line class="st0" x1="60.6" y1="61" x2="53.4" y2="61"/>
    <line class="st0" x1="24.8" y1="61" x2="16.7" y2="61"/>
    <line class="st0" x1="48.7" y1="61" x2="28.6" y2="61"/>
    <line class="st0" x1="53.4" y1="61" x2="48.7" y2="61"/>
    <line class="st0" x1="28.6" y1="61" x2="24.8" y2="61"/>
    <circle class="st0" cx="39.1" cy="53.5" r="2.5"/>
  </g>
  <line class="st0" x1="9.1" y1="10.8" x2="16.8" y2="10.8"/>
  <line class="st0" x1="8.9" y1="14" x2="14.4" y2="14"/>
</svg>