<?xml version="1.0" encoding="utf-8"?>
<!-- Generator: Adobe Illustrator 24.1.1, SVG Export Plug-In . SVG Version: 6.00 Build 0)  -->
<svg version="1.1" id="Layer_1" xmlns="http://www.w3.org/2000/svg" xmlns:xlink="http://www.w3.org/1999/xlink" x="0px" y="0px"
	 viewBox="0 0 36.1 36.1" style="enable-background:new 0 0 36.1 36.1;" xml:space="preserve">
<style type="text/css">
	.st0{fill:#464A53;}
</style>
<g>
	<g>
		<path class="st0" d="M24.2,0H12C9.9,0,8.1,1.7,8.1,3.8v28.5c0,2.1,1.7,3.8,3.8,3.8l12.2,0c2.1,0,3.8-1.7,3.8-3.8l0-28.5
			C27.9,1.7,26.2,0,24.2,0z M16.3,2.3h3.5c0.3,0,0.6,0.3,0.6,0.6s-0.3,0.6-0.6,0.6h-3.5c-0.3,0-0.6-0.3-0.6-0.6
			C15.7,2.5,16,2.3,16.3,2.3z M14.2,2.4c0.2-0.2,0.6-0.2,0.8,0c0.1,0.1,0.2,0.3,0.2,0.4c0,0.1-0.1,0.3-0.2,0.4
			c-0.1,0.1-0.3,0.2-0.4,0.2c-0.1,0-0.3-0.1-0.4-0.2C14.1,3.1,14,3,14,2.8C14,2.7,14.1,2.5,14.2,2.4z M18,34.9
			c-0.9,0-1.7-0.8-1.7-1.7c0-0.9,0.8-1.7,1.7-1.7s1.7,0.8,1.7,1.7C19.6,34.2,18.9,34.9,18,34.9z M26.2,30.4H10.1V5.4h16.1L26.2,30.4
			L26.2,30.4z"/>
	</g>
</g>
</svg>
