<?xml version="1.0" encoding="iso-8859-1"?>
<!-- Generator: Adobe Illustrator 19.0.0, SVG Export Plug-In . SVG Version: 6.00 Build 0)  -->
<svg version="1.1" id="Capa_1" xmlns="http://www.w3.org/2000/svg" xmlns:xlink="http://www.w3.org/1999/xlink" x="0px" y="0px"
	 viewBox="0 0 469.333 469.333" style="enable-background:new 0 0 469.333 469.333;" xml:space="preserve">
<g>
	<g>
		<g>
			<path d="M99.76,253.6c-2.688-2.697-6.573-3.717-10.292-2.77c-3.677,0.989-6.552,3.842-7.542,7.518
				c-6.792,25.042-23.854,52.561-46.802,75.5c-4.167,4.165-4.167,10.902-0.01,15.067l85.333,85.454c2,2.01,4.719,3.134,7.552,3.134
				c2.833,0,5.542-1.125,7.542-3.124c22.99-22.98,50.563-40.035,75.656-46.793c3.677-0.989,6.542-3.873,7.521-7.549
				c0.99-3.676-0.063-7.601-2.76-10.287L99.76,253.6z"/>
			<path d="M464.063,57.911c-0.427-0.666-0.917-1.281-1.469-1.833L413.615,6.953c-0.563-0.562-1.188-1.062-1.865-1.489
				c-11.271-7.112-21.854-7.643-34.646,0.552l-270.51,207.205c-2.438,1.874-3.948,4.696-4.156,7.768
				c-0.198,3.061,0.927,6.06,3.104,8.236l134.74,134.684c2.01,2.01,4.719,3.124,7.542,3.124c0.229,0,0.469-0.01,0.698-0.021
				c3.073-0.208,5.896-1.718,7.771-4.154L464.063,91.751c3.542-5.612,5.271-11.152,5.271-16.92S467.604,63.523,464.063,57.911z"/>
			<path d="M41.365,385.358c-2-2.01-4.719-3.134-7.542-3.134h-0.01c-2.833,0-5.542,1.125-7.542,3.124l-14.313,14.307
				C4.25,407.359,0,417.605,0,428.496c-0.01,10.912,4.24,21.168,11.948,28.873c7.708,7.716,17.969,11.964,28.875,11.964h0.021
				c10.906,0,21.156-4.248,28.865-11.953l14.271-14.265c4.167-4.165,4.167-10.902,0.01-15.067L41.365,385.358z"/>
		</g>
	</g>
</g>
<g>
</g>
<g>
</g>
<g>
</g>
<g>
</g>
<g>
</g>
<g>
</g>
<g>
</g>
<g>
</g>
<g>
</g>
<g>
</g>
<g>
</g>
<g>
</g>
<g>
</g>
<g>
</g>
<g>
</g>
</svg>
