<?xml version="1.0" encoding="utf-8"?>
<!-- Generator: Adobe Illustrator 24.0.2, SVG Export Plug-In . SVG Version: 6.00 Build 0)  -->
<svg version="1.1" id="Layer_1" xmlns="http://www.w3.org/2000/svg" xmlns:xlink="http://www.w3.org/1999/xlink" width="17" height="16" x="0px" y="0px"
	 viewBox="0 0 17 16" style="enable-background:new 0 0 17 16;" xml:space="preserve">
<style type="text/css">
	.st0{enable-background:new    ;}
</style>
<g class="st0">
	<path d="M16.55,0.91v5c0,0.27-0.1,0.5-0.3,0.7s-0.43,0.3-0.7,0.3h-5.09c-0.27,0-0.51-0.1-0.7-0.3c-0.2-0.2-0.3-0.44-0.3-0.72
		s0.1-0.52,0.3-0.72c0.2-0.2,0.43-0.3,0.7-0.3h2.56c-0.63-0.9-1.29-1.6-1.98-2.13c-0.7-0.52-1.56-0.78-2.58-0.78
		c-1.63,0-3.01,0.57-4.14,1.7c-1.14,1.14-1.7,2.51-1.7,4.12c0,1.62,0.57,2.99,1.7,4.13c1.13,1.14,2.52,1.7,4.14,1.7
		c1.25,0,2.39-0.37,3.41-1.11c1.02-0.74,1.73-1.7,2.12-2.89c0.08-0.27,0.25-0.47,0.52-0.61c0.26-0.13,0.53-0.16,0.8-0.06
		s0.47,0.27,0.59,0.52s0.15,0.51,0.06,0.78c-0.54,1.63-1.5,2.94-2.88,3.94c-1.37,1-2.92,1.5-4.62,1.5c-2.19,0-4.05-0.77-5.59-2.31
		c-1.54-1.54-2.31-3.4-2.31-5.58c0-2.18,0.77-4.04,2.31-5.58C4.4,0.68,6.27-0.09,8.46-0.09c0.35,0,0.69,0.02,1.02,0.06
		c0.32,0.04,0.61,0.09,0.88,0.14c0.26,0.05,0.53,0.14,0.8,0.27c0.27,0.13,0.49,0.23,0.67,0.31c0.18,0.08,0.38,0.21,0.61,0.39
		c0.23,0.18,0.4,0.31,0.52,0.41s0.27,0.25,0.47,0.47s0.33,0.36,0.39,0.44s0.19,0.23,0.38,0.47s0.3,0.38,0.34,0.42V0.91
		c0-0.27,0.1-0.5,0.3-0.7s0.44-0.3,0.72-0.3s0.52,0.1,0.72,0.3S16.55,0.64,16.55,0.91z"/>
</g>
</svg>
