<?xml version="1.0" encoding="utf-8"?>
<!-- Generator: Adobe Illustrator 24.1.1, SVG Export Plug-In . SVG Version: 6.00 Build 0)  -->
<svg version="1.1" id="Layer_1" xmlns="http://www.w3.org/2000/svg" xmlns:xlink="http://www.w3.org/1999/xlink" x="0px" y="0px"
	 viewBox="0 0 36.1 36.1" style="enable-background:new 0 0 36.1 36.1;" xml:space="preserve">
<style type="text/css">
	.st0{fill:#464A53;}
</style>
<g>
	<path class="st0" d="M28.7,0.1H7.3C6,0.1,4.9,1.2,4.9,2.5v31C4.9,34.9,6,36,7.3,36h21.4c1.3,0,2.4-1.1,2.4-2.4v-31
		C31.2,1.2,30.1,0.1,28.7,0.1z M18,35.1c-0.8,0-1.4-0.6-1.4-1.4c0-0.8,0.6-1.4,1.4-1.4c0.8,0,1.4,0.6,1.4,1.4
		C19.5,34.4,18.8,35.1,18,35.1z M28.7,30.9H7.4V3h21.3V30.9z"/>
</g>
</svg>
